<?xml version="1.0" encoding="UTF-8"?>
<svg id="Layer_2" data-name="Layer 2" xmlns="http://www.w3.org/2000/svg" width="127.97" height="168.03" viewBox="0 0 127.97 168.03">
  <defs>
    <style>
      .cls-1 {
        fill: #346db4;
      }

      .cls-2 {
        fill: #fff;
      }

      .cls-3 {
        fill: #231f20;
      }

      .cls-4 {
        fill: #959595;
      }

      .cls-5 {
        fill: #f6851f;
      }
    </style>
  </defs>
  <g id="Layer_1-2" data-name="Layer 1">
    <g>
      <g>
        <path class="cls-1" d="M113.76,111.54c-3.13-.84-7.37,2.26-8.89,4.71-2.61,3.66-3.62,10.6-1.12,14.64,1.03-1.01,2.8-1.55,4.17-1.54-1.12-4.71,2.26-10.61,6.09-13.17l-.24-4.63Z"/>
        <path class="cls-3" d="M113.95,110.84c-4.44-.98-8.76,2.93-10.63,6.6-2.09,4.07-2.57,9.76-.2,13.81.25.42.79.45,1.14.15,1.01-.9,2.32-1.29,3.65-1.32.49-.01.8-.45.7-.92-.98-4.64,2.02-9.76,5.75-12.35.76-.53.04-1.79-.73-1.25-4.3,2.98-7.55,8.67-6.42,13.99l.7-.92c-1.73.05-3.37.59-4.68,1.75.38.05.76.1,1.14.15-2.08-3.56-1.57-8.36.04-12.01,1.41-3.2,5.32-7.12,9.16-6.27.91.2,1.3-1.2.39-1.4h0Z"/>
      </g>
      <g>
        <path class="cls-1" d="M118.26,111.02c.76-.88,3.14-.52,4.29.1,1.36.69,3.18,2.68,4.13,3.91,1.14,1.98.38,3.54-.04,5.45-.56,2.31-1.76,8.5-4.63,8.89-1.23.26-3.54-.98-3.25-2.48.28-1.5,2.68-3.18,3.24-4.81s1.8-3.94.79-5.65c-.54-1.09-2.85-2.34-3.87-2l-.66-3.41Z"/>
        <path class="cls-3" d="M118.77,111.54c.67-.61,1.95-.27,2.7-.07,1.11.3,1.98,1.14,2.78,1.92.83.8,1.74,1.71,2.15,2.8.49,1.3-.16,2.83-.46,4.1-.6,2.53-1.1,6.85-3.61,8.25-.77.43-1.79-.06-2.39-.56-1.12-.92.2-2.17.85-2.93,1.28-1.49,1.97-2.88,2.63-4.73.6-1.69.71-3.42-.45-4.88-.91-1.14-2.8-2.01-4.24-1.72-.92.18-.53,1.58.38,1.4,1.06-.21,2.54.81,3.05,1.67.78,1.3-.11,3.1-.59,4.35-.49,1.26-1.19,2.16-2.07,3.18-.61.71-1.39,1.59-1.47,2.57-.14,1.78,1.65,2.99,3.24,3.2,1.68.23,2.9-1.01,3.71-2.32.99-1.62,1.49-3.56,1.95-5.38.53-2.13,1.4-4.4.87-6.59-.27-1.11-1.15-1.98-1.9-2.8-.87-.96-1.85-1.87-2.99-2.51-1.44-.81-3.85-1.19-5.17.01-.69.63.34,1.65,1.02,1.02h0Z"/>
      </g>
      <g>
        <path class="cls-1" d="M16.47,84.49c-2.92-.77-5.92-1.34-9.19-1.09-3.14.52-4.04,2.49-5.42,5.21-.55.95-1.38,2.03-1.04,3.06.33,1.02,2.3,1.92,2.91,2.81.82-1.08.9-2.65,1.73-3.73.96-1.49,2.12-1.55,3.62-1.95,1.3-.47,2.19-1.07,3.55-1.07.41.14,1.5.28,1.7.35l2.14-3.6Z"/>
        <path class="cls-3" d="M16.66,83.79c-4.12-1.07-10.53-2.75-13.58,1.28-.58.77-1.03,1.6-1.47,2.45-.54,1.05-1.26,2.02-1.54,3.18-.5,2.12,2.1,2.99,3.15,4.29.31.39.9.21,1.14-.15,1.28-1.91,1.17-4.34,3.76-5.07,1.01-.28,1.93-.61,2.91-1,1.04-.42,2.06-.26,3.12,0,.91.22,1.29-1.18.38-1.4-1.04-.25-1.97-.43-3.03-.26-1.38.22-2.76.97-4.11,1.35-2.86.8-2.87,3.53-4.28,5.63.38-.05.76-.1,1.14-.15-1.04-1.3-3.42-1.86-2.41-3.88.73-1.47,1.54-3.13,2.6-4.39,1.27-1.52,3.15-1.65,5-1.62,2.32.03,4.62.53,6.85,1.11.91.24,1.29-1.16.39-1.4h0Z"/>
      </g>
      <g>
        <path class="cls-1" d="M18.19,91.45c.55-.27.86,3.48.79,4.37-.64,3.2-5.08,5.55-8.28,4.91h0c1.42,1.85,1.82,3.35,4.13,3.23,3.07-.32,5.12-1.67,7.04-3.97,2.95-3.32,3.26-8.9-.53-11.79l-3.16,3.25Z"/>
        <path class="cls-3" d="M18.38,92.15c-.71.1-.5-.06-.36.66.1.53.15,1.08.19,1.62.08.99.01,1.7-.51,2.59-1.27,2.16-4.4,3.41-6.82,3.01-.54-.09-1.24.49-.82,1.07,1.45,1.95,2.45,3.87,5.21,3.53,2.75-.34,4.99-1.76,6.82-3.79,3.37-3.74,3.96-9.77-.24-13.15-.72-.58-1.75.44-1.02,1.02,3.39,2.73,3.23,7.59.53,10.76-1.38,1.62-2.93,2.86-5,3.47-1.02.3-2.3.55-3.21-.17-.77-.61-1.26-1.64-1.83-2.42-.27.35-.55.71-.82,1.07,3.37.56,7.23-1.17,8.78-4.29.6-1.2.89-6.69-1.29-6.39-.92.13-.53,1.52.38,1.4h0Z"/>
      </g>
      <g>
        <path class="cls-4" d="M93.95,79.15c2-1.37,10.24,4.52,12.22,6.22,9.15,6.2,15.65,18.66,14.35,29.99-2.75-.94-5.07,1.34-7.83,1.94-3-9.22-6.86-26.41-18.19-29.25l-.55-8.89Z"/>
        <path class="cls-3" d="M94.32,79.77c.85-.5,2.5.44,3.25.8,1.59.76,3.09,1.71,4.54,2.69,2.83,1.89,5.67,4,8.08,6.41,6.6,6.6,10.6,16.33,9.6,25.69.31-.23.61-.47.92-.7-3.02-.86-5.41,1.24-8.22,1.94.3.17.59.34.89.51-1.89-5.85-3.48-11.78-6.12-17.35-2.57-5.42-6.49-10.8-12.57-12.4-.9-.24-1.29,1.16-.38,1.4,5.87,1.55,9.4,6.88,11.86,12.06,2.53,5.34,4.01,11.08,5.82,16.68.12.38.49.6.89.51,2.46-.61,4.83-2.68,7.45-1.94.49.14.87-.24.92-.7,1.06-9.95-3.35-20.05-10.33-27.02-2.61-2.61-5.81-4.87-8.9-6.88-1.58-1.03-3.21-1.97-4.95-2.69-1.04-.43-2.42-.86-3.47-.25-.81.47-.08,1.72.73,1.25h0Z"/>
      </g>
      <g>
        <path class="cls-4" d="M48.08,63.5c-3.51-1.71-11.2,1.3-14.89,3.11-5.54,2.72-8.63,7.3-12.81,12.02-2.47,2.74-5.86,5.17-6.65,9h0c2.14,1.24,3.35,3.7,5.94,5.1,4.48-5.64,9.58-11.58,15.89-15.06,3.85-2.27,11.68-4.21,13.68-5.57l-1.17-8.59Z"/>
        <path class="cls-3" d="M48.45,62.87c-2.91-1.29-6.43-.33-9.31.57-3.51,1.09-7.11,2.61-10.03,4.88-3.56,2.78-6.27,6.42-9.24,9.8-2.59,2.95-5.89,5.29-6.84,9.32-.08.32.05.64.33.82,2.24,1.4,3.62,3.77,5.94,5.1.26.15.68.14.88-.11,4.42-5.54,9.13-11.09,15.33-14.71,2.5-1.46,5.24-2.4,7.96-3.35,2.03-.71,4.31-1.28,6.13-2.46.78-.51.06-1.76-.73-1.25-1.93,1.25-4.39,1.82-6.54,2.57-2.6.91-5.15,1.88-7.56,3.24-6.32,3.56-11.16,9.35-15.62,14.94.29-.04.59-.08.88-.11-2.31-1.33-3.69-3.7-5.94-5.1.11.27.22.55.33.82.87-3.7,4.02-6.01,6.47-8.68,2.63-2.87,4.93-6.02,7.84-8.64,2.67-2.4,5.9-3.91,9.24-5.14,2.77-1.02,6.84-2.53,9.74-1.24.85.38,1.58-.87.73-1.25h0Z"/>
      </g>
      <g>
        <path class="cls-4" d="M46.97,113.3c-3.37-.64-6.32,5.01-7.56,7.15-5.58,8.85-9.78,18.17-13.07,27.8h0c-2.89-3.55-8.26-2.82-8.53-8.03-.12-4.14,2.98-10.25,4.85-14.22,2.64-4.73,5.89-9.77,9.75-13.57,1.7-1.98,5.85-3.64,6.78-4.86l7.78,5.73Z"/>
        <path class="cls-3" d="M47.16,112.6c-2.47-.34-4.34,1.44-5.73,3.29-1.95,2.59-3.54,5.55-5.15,8.35-4.36,7.55-7.82,15.59-10.64,23.82.4-.11.81-.21,1.21-.32-1.06-1.24-2.42-2.04-3.87-2.75-1.48-.72-3.08-1.36-3.95-2.84-1.09-1.85-.3-4.48.27-6.38.71-2.37,1.75-4.64,2.79-6.87,2.16-4.63,4.9-9.03,8.14-12.99,1.53-1.87,3.16-3.63,5.2-4.93,1.4-.89,3.18-1.6,4.28-2.88.6-.71-.42-1.74-1.02-1.02-1.25,1.46-3.42,2.24-4.99,3.32-2.01,1.38-3.62,3.4-5.13,5.29-3.45,4.3-6.18,9.08-8.46,14.09-1.63,3.58-4.19,8.7-2.53,12.68,1.42,3.42,5.98,3.68,8.25,6.33.38.44,1.05.16,1.21-.32,2.5-7.29,5.52-14.37,9.19-21.14,1.54-2.85,3.24-5.61,4.91-8.39,1.09-1.81,3.1-5.27,5.64-4.92.91.13,1.31-1.27.38-1.4h0Z"/>
      </g>
      <g>
        <path class="cls-4" d="M68.83,121.27c6.21,10.31-1.43,28.19-8.22,36.11,3.67,1.25,8.56,3.43,12.09,2.08,4.15-1.66,6.2-9.15,7.15-13.44,1.11-4.74,2.38-11.48,3.03-16.38.18-3.52.54-12.1-1.58-14.88l-12.46,6.5Z"/>
        <path class="cls-3" d="M68.2,121.64c3.29,5.63,2.39,12.62.63,18.6-1.75,5.96-4.71,11.89-8.74,16.64-.36.43-.22,1.02.32,1.21,4.7,1.63,10.92,4.57,15.04.27,3.3-3.45,4.35-8.87,5.37-13.36,1.27-5.62,2.64-11.49,2.86-17.27.09-2.44.09-4.88-.12-7.31-.17-2.01-.44-4.32-1.65-6.01-.54-.75-1.8-.03-1.25.73,1.13,1.59,1.32,3.77,1.48,5.65.19,2.2.17,4.42.1,6.62-.17,5.33-1.42,10.7-2.53,15.91-.94,4.38-1.88,9-4.34,12.82-1.43,2.2-3.35,3.15-5.97,3.01-2.96-.16-5.84-1.5-8.6-2.45.11.4.21.81.32,1.21,4.31-5.08,7.37-11.31,9.24-17.68,1.82-6.21,2.5-13.51-.9-19.31-.47-.81-1.73-.08-1.25.73h0Z"/>
      </g>
      <g>
        <path class="cls-4" d="M86.53,22.85c.78-2.29,1.11-4.74,2.19-6.42,1.24-2.14,2.64-4.73,4.18-6.25,2.32-2.28,2.93-2.58,6.44-.87-4.47,4.11-8.34,9.44-9.76,15.1-.46-.16-.92-.31-1.38-.47l-1.68-1.08Z"/>
        <path class="cls-3" d="M87.23,23.04c.59-1.82.92-3.73,1.7-5.49.7-1.57,1.74-3.09,2.66-4.53.88-1.37,1.97-2.68,3.29-3.65,1.3-.95,2.85-.05,4.1.55-.05-.38-.1-.76-.15-1.14-4.52,4.2-8.36,9.38-9.95,15.42.3-.17.59-.34.89-.51-.46-.16-.92-.31-1.38-.47-.89-.3-1.26,1.1-.38,1.4.46.16.92.31,1.38.47.37.13.8-.14.89-.51,1.52-5.81,5.23-10.75,9.58-14.79.32-.3.27-.94-.15-1.14-1.24-.6-2.79-1.45-4.23-1.13-1.49.33-2.69,1.64-3.66,2.74-1.52,1.71-2.59,3.82-3.72,5.78-1.18,2.04-1.54,4.38-2.26,6.6-.29.89,1.11,1.27,1.4.39h0Z"/>
      </g>
      <g>
        <path class="cls-2" d="M71.03,26.26c2.54-11.94,32.21-2.84,26.91,9.69l-26.91-9.69Z"/>
        <path class="cls-3" d="M71.73,26.46c1.5-6.56,10.65-5.38,15.37-3.86,5.38,1.73,12.84,6.53,10.14,13.17-.35.87,1.05,1.24,1.4.39,3-7.38-4.9-12.81-10.89-14.87-5.54-1.9-15.69-2.72-17.41,4.79-.21.91,1.19,1.3,1.4.39h0Z"/>
      </g>
      <g>
        <path class="cls-4" d="M67.93,53.37c-1.42,5.66-4.06,10.39-5.48,16.05-1.73,6.58-3.9,9.93,3.74,13.05s9.54-5.45,11.57-11.41c1.57-4.59,3.9-9.93,4.55-14.83h0c-2.6-1.4-6.43-.66-9.34-1.14-2.29-.78-3.97-1.87-6.28-1.12l1.23-.6Z"/>
        <path class="cls-3" d="M67.23,53.18c-.99,3.82-2.55,7.43-3.92,11.11-1.15,3.1-2.03,6.33-2.83,9.54-.46,1.82-.67,3.7.18,5.43,1.09,2.22,3.9,3.44,6.09,4.19,5.21,1.8,8.23-2.57,9.89-6.82,1.1-2.82,1.94-5.74,2.98-8.58,1.39-3.79,2.83-7.61,3.4-11.62.04-.31-.02-.66-.33-.82-2.37-1.17-5.03-1-7.6-1.06-3.02-.07-5.49-2.12-8.57-1.27-.9.25-.52,1.65.38,1.4,2.6-.72,4.78,1.08,7.32,1.28,2.57.21,5.35-.27,7.74.9-.11-.27-.22-.55-.33-.82-.88,6.19-3.62,12.06-5.58,17.97-1.32,3.96-3.34,9.5-8.55,8.16-2.08-.54-4.69-1.82-5.68-3.84-.82-1.68,0-3.96.47-5.62.85-3.02,1.68-6.04,2.79-8.98,1.27-3.36,2.66-6.67,3.56-10.16.23-.91-1.16-1.29-1.4-.39h0Z"/>
      </g>
      <path class="cls-3" d="M68.09,57.27c-.28-.09-.67-.25-.97-.13-.43.17-.69.63-.43,1.07.61,1.04,3.02,1.74,4.04,2.16,3.29,1.34,6.75,2.18,10.12,3.3.89.3,1.27-1.1.38-1.4-2.73-.91-5.51-1.64-8.23-2.58-1.19-.41-2.34-.91-3.47-1.43-.29-.13-.58-.28-.86-.43-.15-.08-.79-.46-.73-.35-.14.35-.29.71-.43,1.07-.33.13-.17.01.2.13.89.29,1.27-1.11.39-1.4h0Z"/>
      <path class="cls-3" d="M65.52,63.56c4.49,1.59,8.95,5.25,13.95,4.72.92-.1.93-1.55,0-1.45-4.82.51-9.22-3.12-13.57-4.67-.88-.31-1.26,1.09-.39,1.4h0Z"/>
      <path class="cls-3" d="M64.72,67.9c-.09.1-.18.2-.27.3.19.04.38.1.56.17.41.14.81.34,1.21.51,1.27.53,2.47,1.23,3.67,1.89,2.1,1.16,4.19,2.32,6.45,3.13.88.31,1.26-1.09.38-1.4-3.33-1.19-6.29-3.18-9.45-4.75-.98-.49-3.94-2.01-4,.15-.02.93,1.43.93,1.45,0h0Z"/>
      <path class="cls-3" d="M62.84,74.42c4.13,1.43,8.1,3.26,12.23,4.68.89.31,1.26-1.09.38-1.4-4.13-1.43-8.1-3.26-12.23-4.68-.88-.31-1.26,1.09-.38,1.4h0Z"/>
      <g>
        <path class="cls-1" d="M61.24,23.44c-4.78,3.49-7.49,18.95-9.37,24.46h0c7.18,2.96,15.91,4.4,23.25,6.91,4.13,1.41,8.1,3.28,12.23,4.68,3.21,1.1,7.33,4.04,10.7,4.67,3.89-8.4,6.41-17.27,9.38-25.99-8.86-4.05-18.19-6.72-28.14-9.09-5.2-1.26-13.74-7.76-18.05-5.65h0Z"/>
        <path class="cls-3" d="M60.87,22.81c-3.32,2.54-4.69,7.39-5.89,11.2-1.42,4.52-2.31,9.2-3.82,13.69-.14.41.16.75.51.89,7.68,3.12,15.95,4.38,23.76,7.09,4.19,1.45,8.31,3.17,12.44,4.78,3.39,1.32,6.36,3.64,9.97,4.4.3.06.68-.03.82-.33,3.88-8.45,6.47-17.38,9.45-26.16.1-.28-.05-.69-.33-.82-9.2-4.17-18.84-6.72-28.59-9.23-3.49-.9-6.68-2.99-9.97-4.42-2.55-1.1-5.64-2.3-8.35-1.08-.85.38-.11,1.63.73,1.25,2.77-1.24,6.58.9,9.03,2.06,2.94,1.39,5.81,3.03,8.99,3.79,9.36,2.24,18.65,4.9,27.43,8.89-.11-.27-.22-.55-.33-.82-2.95,8.66-5.48,17.49-9.31,25.82.27-.11.55-.22.82-.33-3.45-.73-6.37-2.9-9.59-4.24-4.04-1.68-8.19-3.25-12.3-4.75-7.95-2.9-16.42-4.08-24.28-7.27.17.3.34.59.51.89,1.35-4.02,2.19-8.2,3.38-12.27.69-2.34,1.45-4.67,2.43-6.9.75-1.72,1.7-3.68,3.23-4.85.73-.56.01-1.82-.73-1.25h0Z"/>
      </g>
      <g>
        <path class="cls-2" d="M94.39,38.84c8.19,2.23,2.67,13.86-4.78,10.82-6.72-2.75-1.85-12.62,4.78-10.82Z"/>
        <path class="cls-3" d="M94.2,39.54c6.22,1.83,3.08,10.14-2.54,9.88-3.21-.15-5.18-2.91-4.27-5.92.87-2.88,3.89-4.68,6.81-3.96.91.22,1.29-1.18.38-1.4-3.8-.93-7.33,1.37-8.59,4.97-1.33,3.81,1.43,7.18,5.19,7.71,3.48.49,6.53-1.92,7.65-5.1,1.23-3.5-.89-6.59-4.25-7.58-.9-.26-1.28,1.14-.39,1.4Z"/>
      </g>
      <g>
        <path class="cls-2" d="M68.5,30.01c8.19,2.23,2.67,13.86-4.78,10.82-6.72-2.75-1.85-12.62,4.78-10.82Z"/>
        <path class="cls-3" d="M68.31,30.71c6.22,1.83,3.08,10.14-2.54,9.88-3.21-.15-5.18-2.91-4.27-5.92.87-2.88,3.9-4.68,6.81-3.96.91.22,1.29-1.18.38-1.4-3.8-.93-7.33,1.37-8.59,4.97-1.33,3.81,1.43,7.18,5.19,7.71,3.48.49,6.53-1.92,7.65-5.1,1.23-3.5-.89-6.59-4.25-7.58-.9-.26-1.28,1.13-.39,1.4Z"/>
      </g>
      <g>
        <path class="cls-5" d="M93.31,6.69c-.12-2.32,2.01-5.23,4.06-5.9,3.21-.73,5.02,2.62,5.48,5.28.93,5.39-8.88,6.57-9.54.62Z"/>
        <path class="cls-3" d="M94.04,6.69c0-2.81,3.22-6.91,6.11-4.51,1.5,1.25,2.69,4.24,1.63,6.06-.83,1.43-2.81,1.8-4.31,1.67-1.91-.17-3.2-1.56-3.46-3.41-.13-.92-1.52-.53-1.4.39.74,5.3,9.13,6.23,10.86,1.1.88-2.62-1.17-6.84-3.76-7.74-3.76-1.3-7.13,2.99-7.12,6.45,0,.93,1.45.93,1.45,0Z"/>
      </g>
      <g>
        <path class="cls-1" d="M47.77,55.4c2.29.78,4.73,2.64,6.87,3.88,4.73,2.64,10.39,4.06,15.44,5.78,5.05,1.72,10.09,3.44,15.29,4.71,4.59,1.57,10.56,2.07,14.99,4.09-.56,13.64-6.47,26.47-7.49,39.95-.49,4.44-.38,10.11-5.3,12.53-5.08,2.88-13.34.06-18.69-.74-12.4-2.69-24.48-6.3-35.63-11.13-5.35-2.34-6.71-4.34-5.29-10,2.04-7.5,5.93-14.37,8.73-21.09,3.74-9.48,8.41-18.64,11.69-28.27l-.61.3Z"/>
        <path class="cls-3" d="M47.57,56.1c2.12.78,3.98,2.12,5.88,3.32,1.87,1.17,3.92,2.05,5.97,2.85,4.44,1.73,9.07,3.03,13.59,4.55,4.59,1.55,9.23,2.85,13.88,4.17,4.34,1.23,8.93,1.65,13.09,3.49-.12-.21-.24-.42-.36-.63-.41,8.97-3.07,17.59-5.15,26.27-1,4.16-1.83,8.37-2.25,12.63-.31,3.18-.3,6.61-1.67,9.56-3.37,7.26-13.76,4.06-19.65,2.9-8.65-1.7-17.18-4-25.52-6.85-3.21-1.09-6.38-2.29-9.51-3.58-2.34-.96-5.1-1.89-6.8-3.86-1.46-1.7-.9-4.32-.42-6.28.85-3.5,2.33-6.9,3.79-10.18,1.4-3.13,2.9-6.21,4.28-9.35,1.44-3.29,2.75-6.65,4.19-9.94,2.87-6.57,5.83-13.1,8.17-19.88.3-.89-1.1-1.26-1.4-.39-2.97,8.62-6.96,16.83-10.46,25.24-3.34,8-7.63,15.75-9.96,24.13-.64,2.31-.95,5,.38,7.13,1.45,2.32,4.5,3.39,6.88,4.39,8.31,3.48,16.89,6.24,25.61,8.49,3.71.96,7.44,1.75,11.19,2.51,3.19.64,6.37,1.37,9.63,1.54,2.96.15,5.92-.41,8.35-2.19,2.17-1.59,3.16-4.15,3.65-6.71.6-3.16.64-6.42,1.08-9.6.56-4.01,1.5-7.96,2.48-11.88,1.98-7.94,4.2-15.86,4.57-24.08.01-.23-.14-.53-.36-.63-3.99-1.76-8.34-2.35-12.54-3.4-4.8-1.19-9.56-2.66-14.26-4.23-4.54-1.52-9.15-2.89-13.64-4.55-2.27-.84-4.46-1.86-6.51-3.15-1.88-1.18-3.71-2.43-5.81-3.2-.88-.33-1.26,1.08-.39,1.4h0Z"/>
      </g>
      <g>
        <g>
          <path class="cls-1" d="M31.24,143.93c-.47-1.3-5.1-1.74-6.59-2.02-4.42-1.05-9.11-2.65-12.77-5.27l-.14.41c-1.04,3.06-2.57,6.86-3.55,10.4,2.3,1.92,7.07,2.64,9.99,3.41,3.13.84,7.68,2.85,10.95,1.92.42-1.22.63-2.52.84-3.81.14-1.09,1.8-3.94,1.26-5.03Z"/>
          <path class="cls-3" d="M31.87,143.56c-1-2.01-4.95-2.01-6.83-2.32-4.45-.73-9.11-2.66-12.79-5.23-.41-.28-.92.02-1.07.43-1.23,3.6-2.65,7.14-3.69,10.8-.06.23,0,.55.19.71,2.21,1.74,5.06,2.36,7.74,2.99,3,.69,5.89,1.77,8.89,2.44,1.37.3,2.86.5,4.25.25.41-.07.97-.09,1.21-.5.41-.71.51-1.74.67-2.53.26-1.3.53-2.4,1.01-3.64.38-.98.87-2.18.5-3.23-.31-.88-1.71-.5-1.4.38.38,1.08-.6,2.7-.98,3.7-.58,1.52-.63,3.2-1.12,4.76.17-.17.34-.34.51-.51-3.52.87-7.23-.99-10.57-1.92-3.18-.88-6.99-1.12-9.67-3.22.06.24.12.47.19.71,1.04-3.67,2.46-7.2,3.69-10.81-.35.14-.71.29-1.07.43,3.33,2.32,7.14,3.77,11.04,4.85,1.46.4,2.91.63,4.4.89.93.16,3.19.33,3.67,1.29.42.84,1.67.1,1.25-.73Z"/>
        </g>
        <g>
          <path class="cls-1" d="M57.76,150.25c.09.09.19.17.31.26,0-.14-.01-.27-.04-.39l-.27.13Z"/>
          <path class="cls-3" d="M57.25,150.76c.14.14.3.26.46.37.45.32,1.11-.11,1.09-.63,0-.2-.03-.39-.06-.59-.03-.18-.18-.35-.33-.43-.24-.14-.49-.12-.73,0-.09.04-.18.09-.27.13-.35.17-.45.67-.26.99.21.36.64.43.99.26.09-.04.18-.09.27-.13-.35-.14-.71-.29-1.07-.43.03.17-.02-.17,0,0,0,.07,0,.13.01.2.36-.21.73-.42,1.09-.63-.15-.11.12.1-.02-.01-.05-.04-.1-.09-.14-.13-.28-.28-.74-.28-1.02,0-.28.28-.28.75,0,1.03Z"/>
        </g>
        <g>
          <path class="cls-1" d="M78.59,162.59c.49-1.43,1.25-2.99,1.53-4.49-2.25.6-4.15-.51-6.19-1.2-2.11-.49-4.08-.71-6.05-1.61-2.17-.97-4.21-2.35-6.58-3.38-.89-.3-2.4-.82-3.22-1.4.04,1.75-1.47,4.48-1.99,6-1.39,3.4-1.19,4.15,2.48,5.4,3.26,1.11,6.25,2.36,9.58,3.27,1.84.63,7.13,3.12,8.98,1.7.69-.68,1.11-3.26,1.46-4.28Z"/>
          <path class="cls-3" d="M79.29,162.78c.53-1.49,1.19-2.93,1.53-4.49.12-.56-.34-1.01-.89-.89-2.07.44-3.9-.52-5.8-1.2-2.08-.74-4.26-.79-6.31-1.74-1.63-.75-3.17-1.71-4.76-2.53-1.5-.77-3.19-1.15-4.61-2.06-.48-.31-1.08.1-1.09.63-.04,1.83-1.06,3.57-1.74,5.22-.49,1.19-1.29,2.76-.99,4.1.28,1.23,1.36,1.83,2.45,2.29,2.21.94,4.55,1.66,6.82,2.47,1.82.64,3.68,1.13,5.48,1.82,1.61.62,3.24,1.23,4.94,1.51,1.11.19,2.68.26,3.48-.71.97-1.17,1.06-3.03,1.5-4.43.28-.89-1.12-1.27-1.4-.38-.3.96-.43,3.39-1.32,3.97-1.01.67-2.9-.03-3.92-.33-1.26-.37-2.47-.87-3.69-1.34-1.69-.65-3.48-1.09-5.19-1.7-1.93-.69-3.87-1.37-5.8-2.08-1.16-.43-2.16-.89-1.87-2.26.59-2.8,2.63-5.23,2.7-8.16-.36.21-.73.42-1.09.63,1.55,1,3.42,1.45,5.06,2.29,1.8.93,3.51,2.06,5.41,2.78,2.11.8,4.39.95,6.49,1.74,1.9.72,3.61,1.29,5.64.86-.3-.3-.59-.59-.89-.89-.34,1.55-1,2.99-1.53,4.49-.32.88,1.09,1.26,1.4.38Z"/>
        </g>
      </g>
      <path class="cls-3" d="M72.06,130.23s-.03,0-.04-.01c-.13.47-.26.93-.38,1.4,1.06.36,2.11.78,3.2,1.04,2.41.56,4.93.57,7.38.71.93.05.93-1.4,0-1.45-2.52-.15-5.03-.2-7.5-.78-.91-.21-1.81-.62-2.69-.92-.89-.3-1.26,1.1-.38,1.4.01,0,.03,0,.04.01.89.3,1.26-1.1.38-1.4h0Z"/>
      <path class="cls-3" d="M71.03,136.19c1.57.56,3.05,1.39,4.68,1.75,1.64.36,3.35.16,4.97.63.9.26,1.28-1.14.38-1.4-1.62-.47-3.32-.36-4.97-.63-1.63-.27-3.14-1.2-4.68-1.75-.88-.32-1.26,1.08-.38,1.4h0Z"/>
      <path class="cls-3" d="M69.9,141.49c1.81.62,3.66,1.31,5.57,1.55.71.09,1.43.13,2.15.19.35.03,1.45-.03,1.69.26.6.72,1.62-.32,1.02-1.02-.67-.8-2.45-.66-3.37-.73-2.32-.17-4.49-.89-6.68-1.64-.89-.3-1.26,1.1-.39,1.4h0Z"/>
      <path class="cls-3" d="M68.44,146.46c3.33,1.17,6.45,2.85,9.78,4.02.88.31,1.26-1.09.38-1.4-3.33-1.17-6.45-2.85-9.78-4.02-.88-.31-1.26,1.09-.38,1.4h0Z"/>
      <path class="cls-3" d="M66.29,150.73c1.94.7,3.72,1.76,5.63,2.53.86.35,1.73.69,2.59,1.07.32.14.63.29.94.44.12.06.25.13.37.2.44.25,0,.14.16-.29-.34.87,1.07,1.25,1.4.38.51-1.33-2.65-2.21-3.4-2.52-2.45-1.01-4.8-2.31-7.29-3.21-.88-.32-1.26,1.08-.39,1.4h0Z"/>
      <path class="cls-3" d="M28.89,117.02c1.45.78,2.86,1.62,4.24,2.53.97.64,1.93,1.3,2.91,1.93.45.29,1.11.84,1.69.81.93-.04.93-1.49,0-1.45.28-.01-.16-.13-.32-.22-.38-.22-.76-.47-1.13-.72-.89-.58-1.77-1.18-2.67-1.77-1.29-.85-2.63-1.63-3.99-2.36-.82-.44-1.55.81-.73,1.25h0Z"/>
      <path class="cls-3" d="M25.55,122.04c3.36,1.18,6.49,2.86,9.67,4.42.84.41,1.57-.84.73-1.25-3.3-1.62-6.54-3.35-10.02-4.57-.88-.31-1.26,1.09-.39,1.4h0Z"/>
      <path class="cls-3" d="M23.41,126.32c1.65.64,2.93,1.94,4.62,2.54,1.31.47,3.32.61,4.23,1.77.57.74,1.59-.3,1.02-1.02-.94-1.21-2.83-1.53-4.21-1.93-1.95-.58-3.4-2.01-5.28-2.74-.87-.34-1.25,1.06-.39,1.4h0Z"/>
      <path class="cls-3" d="M20.74,131.02c2.66,2.18,6.41,4.71,10.02,4.37.92-.09.93-1.54,0-1.45-3.22.31-6.62-1.99-8.99-3.94-.72-.59-1.75.43-1.03,1.02h0Z"/>
      <path class="cls-3" d="M18.57,136.5c2.19.82,4,2.29,6.34,2.71.95.17,1.93.13,2.89.17.46.02,1.21-.14,1.63.08-.09-.33-.17-.66-.26-.99,0,.01-.02.03-.02.04-.48.81.77,1.53,1.25.73,0-.01.02-.03.02-.04.19-.32.09-.81-.26-.99-1.15-.59-2.97-.29-4.2-.34-2.61-.11-4.65-1.88-7.01-2.77-.88-.33-1.25,1.07-.39,1.4h0Z"/>
      <path class="cls-3" d="M15.83,84.57c2.26,1.1,3.96,3.07,5.96,4.54.76.55,1.48-.71.73-1.25-2.01-1.47-3.7-3.43-5.96-4.54-.84-.41-1.57.84-.73,1.25h0Z"/>
      <path class="cls-3" d="M18.87,79.97c1.58,2.24,3.71,4.15,5.88,5.82.74.57,1.46-.69.73-1.25-1.95-1.5-3.93-3.27-5.35-5.3-.53-.76-1.79-.03-1.25.73h0Z"/>
      <path class="cls-3" d="M22.84,76.72c2.01,1.01,3.83,3.07,5.02,4.95.5.79,1.75.06,1.25-.73-1.31-2.09-3.31-4.35-5.54-5.47-.83-.42-1.57.83-.73,1.25h0Z"/>
      <path class="cls-3" d="M28.31,71.5c-.38.17-.36-.02-.05.25.28.24.52.52.76.79.59.68,1.11,1.41,1.62,2.15.74,1.07,1.68,2.27,2.14,3.5.32.87,1.72.49,1.4-.38-.64-1.74-1.9-3.36-2.99-4.83-.69-.94-2.14-3.38-3.62-2.72-.85.38-.11,1.63.73,1.25h0Z"/>
      <path class="cls-3" d="M32.77,67.07c2.57,2.13,4.38,5.23,5,8.5.17.92,1.57.53,1.4-.38-.65-3.49-2.63-6.88-5.37-9.14-.71-.59-1.75.43-1.02,1.02h0Z"/>
      <path class="cls-3" d="M39.39,64.56c-.03.85.38,1.51.88,2.16.34.43.74.86.92,1.38.16.46.07,1.13.16,1.63.18.92,1.57.53,1.4-.38-.18-.96-.07-1.71-.62-2.57-.45-.69-1.32-1.34-1.29-2.22.03-.94-1.42-.93-1.45,0h0Z"/>
      <path class="cls-3" d="M104.14,83.63c-1.27-.08-2.34,1.45-3.01,2.33-.9,1.18-1.84,2.49-2.36,3.89-.33.88,1.07,1.25,1.4.38.36-.96,1.03-1.87,1.61-2.71.39-.57,1.54-2.49,2.36-2.45.93.06.93-1.39,0-1.45h0Z"/>
      <path class="cls-3" d="M102.28,93.16c1.02-.98,2.2-1.81,3.33-2.65.7-.52,1.41-1.02,2.14-1.51.25-.16.5-.32.76-.48.46-.28.57-.09.08-.32.84.39,1.58-.85.73-1.25-1.12-.52-2.89,1.18-3.69,1.75-1.49,1.06-3.05,2.15-4.37,3.42-.68.65.35,1.67,1.02,1.03h0Z"/>
      <path class="cls-3" d="M105.1,97.25c1.15-.62,2.07-1.6,3-2.51,1.07-1.04,2.39-2.54,4.02-2.38.93.09.92-1.36,0-1.45-3.33-.33-5.19,3.7-7.76,5.09-.82.45-.09,1.7.73,1.25h0Z"/>
      <path class="cls-3" d="M107.94,102.6c1.98-2.4,5.87-3.14,8.77-3.77.91-.2.53-1.6-.38-1.4-3.13.68-7.26,1.54-9.41,4.14-.59.71.43,1.75,1.02,1.02h0Z"/>
      <path class="cls-3" d="M108.9,105.82c1.63.1,3.31-.47,4.89-.84,1.36-.32,3.37-1.19,4.74-.62.86.36,1.24-1.04.38-1.4-1.24-.52-2.88,0-4.12.28-1.86.43-3.98,1.24-5.89,1.12-.93-.06-.93,1.39,0,1.45h0Z"/>
      <path class="cls-3" d="M111.17,110.38c2.65-1.01,5.94-1.12,8.74-.8.93.11.92-1.34,0-1.45-2.9-.34-6.37-.2-9.12.85-.86.33-.49,1.73.38,1.4h0Z"/>
      <g>
        <path class="cls-2" d="M45.41,80.98c11.31-16.63,42.5-5.98,40.05,14.69-.67,3.76-2.76,7.53-5.09,10.51-16.27,20.82-49.14-4.36-34.97-25.21Z"/>
        <path class="cls-3" d="M46.04,81.35c5.96-8.62,17.68-9.53,26.62-5.38,4.4,2.04,8.19,5.37,10.41,9.71,1.13,2.22,1.71,4.7,1.8,7.19.15,3.98-1.52,7.63-3.64,10.91-3.16,4.88-7.93,8.6-13.8,9.35-4.91.63-9.86-.87-14-3.46-8.68-5.43-13.58-16.37-8.78-25.98.41-.81.89-1.59,1.39-2.34.52-.78-.74-1.5-1.25-.73-2.86,4.27-4.09,9.23-3.29,14.32.74,4.72,3.34,9.03,6.68,12.38,6.79,6.81,17.58,9.77,26.32,4.97,5.76-3.16,10.14-9.61,11.57-15.93,1.06-4.69-.53-9.97-3.2-13.83-5.4-7.8-15.81-11.58-25.02-10.11-5.31.85-10.01,3.79-13.06,8.21-.53.77.72,1.49,1.25.73Z"/>
      </g>
      <g>
        <path class="cls-5" d="M49.42,83.71c8.79-12.93,33.05-4.65,31.15,11.43-.52,2.92-2.14,5.86-3.96,8.18-12.65,16.19-38.22-3.39-27.2-19.6Z"/>
        <path class="cls-3" d="M50.05,84.07c6.05-8.7,19.31-7.17,26.04-.16,1.69,1.76,2.89,3.94,3.49,6.3.88,3.45.07,6.71-1.61,9.79-2.88,5.25-7.87,8.9-14,8.63-5.6-.24-10.88-3.74-13.93-8.32-3.36-5.05-3.34-11.2,0-16.23.52-.78-.74-1.51-1.25-.73-2.83,4.25-3.55,9.36-1.79,14.18,1.65,4.5,5.2,8.18,9.39,10.42,4.2,2.25,9.25,2.88,13.76,1.19,2.45-.92,4.56-2.52,6.29-4.46,2.37-2.65,4.51-6.26,4.9-9.85,1.79-16.62-23.34-24.7-32.54-11.47-.53.77.72,1.49,1.25.73Z"/>
      </g>
    </g>
  </g>
</svg>