<?xml version="1.0" encoding="UTF-8"?>
<svg id="Layer_2" data-name="Layer 2" xmlns="http://www.w3.org/2000/svg" width="194.64" height="90.53" viewBox="0 0 194.64 90.53">
  <defs>
    <style>
      .cls-1 {
        fill: #3d9ed8;
      }

      .cls-2 {
        fill: #221f1f;
      }

      .cls-3 {
        fill: #797979;
      }

      .cls-4 {
        fill: #3e3e3e;
      }

      .cls-5 {
        fill: #c2e6ef;
      }

      .cls-6 {
        fill: #231f20;
      }

      .cls-7 {
        fill: #ef3e3a;
      }

      .cls-8 {
        fill: #3287c4;
      }

      .cls-9 {
        fill: #fbf06a;
      }

      .cls-10 {
        fill: #3a271f;
      }
    </style>
  </defs>
  <g id="Layer_1-2" data-name="Layer 1">
    <g>
      <g>
        <path class="cls-9" d="M13.75,58.68c.62-.16,1.4-.31,1.71-.62,1.87-1.4,3.89-2.02,4.2-4.51,0-.31.31-.47.62-.31.47-2.49,1.09-4.98.47-7.46-1.04-3.37-3.47-5.98-5.52-8.82-7.63,5.47-11.31,13.84-11.58,22.62,3.38.05,6.64-.27,10.1-.89Z"/>
        <path class="cls-10" d="M13.85,59.04c.73-.18,1.37-.34,1.98-.79.66-.49,1.38-.9,2.05-1.37.51-.36,1.01-.77,1.37-1.28.21-.29.39-.59.51-.92.07-.18.23-1.15.42-1.09.18.06.43-.07.47-.26.29-1.56.63-3.11.72-4.69.1-1.57-.2-3.02-.82-4.46-1.18-2.75-3.25-5.02-4.99-7.42-.11-.15-.34-.27-.52-.14-3.68,2.66-6.66,6.13-8.69,10.2-1.97,3.95-2.93,8.34-3.08,12.74,0,.21.18.38.38.38,3.43.04,6.83-.31,10.2-.9.48-.09.28-.81-.2-.73-3.31.58-6.64.91-10,.88l.38.38c.3-8.79,4.19-17.08,11.39-22.29-.17-.04-.34-.09-.52-.14,1.56,2.15,3.31,4.18,4.56,6.53.74,1.4,1.15,2.81,1.16,4.4.01,1.71-.4,3.4-.72,5.07.16-.09.31-.18.47-.26-.67-.21-1.03.17-1.12.8-.13.87-.6,1.57-1.24,2.15-.61.55-1.36.96-2.05,1.42-.33.22-.63.48-.97.68-.39.23-.92.29-1.35.4-.47.12-.27.85.2.73Z"/>
      </g>
      <g>
        <path class="cls-5" d="M53.71,23.85c.16-.16.31-.62.78-.47.16-1.24,1.24-1.87,1.71-2.8,3.11-4.98,5.6-9.8,7-15.24,0,0,0,0,0,0-5.24,2.2-9.26,6.48-13.16,10.64-1.5,1.76-3.12,3.29-4.84,4.64-2.3,1.83-4.8,3.34-7.4,4.71.94.19,1.86.38,2.7.54,4.36.62,9.33.93,13.22-2.02Z"/>
        <path class="cls-10" d="M53.97,24.12c.09-.11.24-.4.41-.37.19.03.43-.05.47-.26.13-.77.59-1.29,1.08-1.87.46-.54.8-1.18,1.18-1.79.94-1.54,1.84-3.11,2.67-4.72,1.59-3.06,2.95-6.31,3.78-9.67.09-.35-.26-.55-.56-.43-4.77,2.03-8.51,5.71-12.03,9.41-1.9,2-3.69,4.03-5.85,5.76-2.33,1.87-4.9,3.42-7.53,4.82-.28.15-.23.63.09.69,5.34,1.09,11.52,1.96,16.21-1.52.39-.29.01-.94-.38-.65-4.53,3.36-10.47,2.5-15.63,1.45.03.23.06.46.09.69,2.46-1.3,4.85-2.73,7.04-4.43,2.21-1.71,4.06-3.68,5.97-5.71,3.63-3.86,7.44-7.73,12.39-9.84-.18-.14-.37-.28-.56-.43-.84,3.39-2.22,6.63-3.83,9.72-.84,1.61-1.75,3.17-2.7,4.72-.4.65-.79,1.26-1.29,1.84-.44.52-.78,1.08-.9,1.76.16-.09.31-.18.47-.26-.57-.1-.8.15-1.15.56-.3.37.23.91.54.53Z"/>
      </g>
      <g>
        <path class="cls-7" d="M186.55,39.37c-1.55-3.94-3.41-7.83-7.14-10-.73-.43-1.46-.86-2.18-1.28-.42,6.23,2.24,12.56,7.71,15.51,1.02.56,2.16,1.04,3.35,1.35-.05-.2-.1-.4-.15-.6-.43-1.68-.95-3.36-1.58-4.98Z"/>
        <path class="cls-2" d="M186.92,39.27c-.92-2.34-1.94-4.66-3.45-6.7-1.61-2.19-3.75-3.47-6.05-4.82-.26-.15-.55.05-.57.33-.23,3.69.56,7.42,2.47,10.61,1.97,3.29,5.18,5.6,8.86,6.62.28.08.53-.19.47-.47-.48-1.89-1.03-3.76-1.73-5.58-.17-.45-.91-.26-.73.2.7,1.82,1.25,3.69,1.73,5.58l.47-.47c-3.61-1-6.6-3.25-8.52-6.46-1.79-3-2.47-6.58-2.26-10.04-.19.11-.38.22-.57.33,1.17.68,2.39,1.32,3.47,2.16.94.73,1.75,1.62,2.45,2.58,1.41,1.91,2.37,4.13,3.23,6.33.18.45.91.25.73-.2Z"/>
      </g>
      <g>
        <path class="cls-8" d="M177.23,28.08c-9.89-5.78-19.06-10.52-28.92-16.75-4.97-2.95-9.95-5.6-15.5-6.58-2.28-.5-4.57-.93-6.86-1.33C109.92.62,93.62-.75,77.38,1.53c-2.11.41-4.16.89-6.21,1.41-2.02.53-4.03,1.1-6.04,1.71-.66.2-1.31.43-1.94.7,0,0,0,0,0,0-1.4,5.44-3.89,10.26-7,15.24-.47.93-1.55,1.55-1.71,2.8-.47-.16-.62.31-.78.47-3.89,2.95-8.86,2.64-13.22,2.02-.84-.15-1.77-.34-2.7-.54-7.07,3.72-14.94,6.36-21.95,11.19-.21.14-.41.29-.61.43,2.04,2.84,4.48,5.46,5.52,8.82.62,2.49,0,4.98-.47,7.46-.31-.16-.62,0-.62.31-.31,2.49-2.33,3.11-4.2,4.51-.31.31-1.09.47-1.71.62-3.46.62-6.72.94-10.1.89-.04,1.25-.01,2.52.09,3.78.09,2.96.44,5.89,1.27,8.3,2.48,7.22,9.16,6.14,15.6,5.77,19.26-1.11,38.95,1.13,58.22,2.1,10.74.54,21.35.88,32.11.88,15.39,0,30.32.53,45.25,0,11.66-.53,26.12-1.58,31.26-15.29,1.87-4.22,2.38-8.91,1.97-13.65-.19-2.17-.58-4.35-1.12-6.5-1.19-.32-2.33-.79-3.35-1.35-5.47-2.95-8.12-9.28-7.71-15.51Z"/>
        <path class="cls-10" d="M177.42,27.76c-5.04-2.94-10.15-5.76-15.22-8.63-5.12-2.89-10.08-6.03-15.16-8.98-2.33-1.35-4.72-2.64-7.22-3.67-2.6-1.08-5.24-1.74-7.99-2.32-5.87-1.24-11.82-2.16-17.77-2.89-11.95-1.46-24.11-1.82-36.06-.2-2.91.39-5.79,1.19-8.62,1.96-1.35.37-2.69.76-4.02,1.16-.87.26-2.36.4-2.62,1.39-.71,2.7-1.74,5.31-2.95,7.83-1.2,2.49-2.7,4.79-4.04,7.2-.54.98-1.43,1.53-1.64,2.69.16-.09.31-.18.47-.26-.42-.06-.7,0-.98.34-.54.65-1.41,1.05-2.16,1.41-1.7.81-3.62,1.08-5.48,1.14-1.79.06-3.6-.14-5.37-.39-.91-.13-1.89-.55-2.8-.55-.26,0-.54.23-.76.35-.47.25-.95.48-1.43.72-6.92,3.42-14.24,6.08-20.56,10.6-.15.11-.27.34-.14.52,1.56,2.16,3.32,4.19,4.58,6.56.77,1.46,1.16,2.91,1.15,4.56,0,1.64-.41,3.27-.71,4.88.16-.09.31-.18.47-.26-1.29-.34-1.16,1.36-1.64,2.14-.75,1.23-2.35,1.89-3.48,2.72-.65.47-1.56.58-2.33.71-1.13.19-2.26.35-3.4.47-1.95.22-3.92.3-5.89.28-.21,0-.37.17-.38.38-.07,2.79.08,5.64.48,8.4.33,2.3.94,4.67,2.31,6.58,2.14,2.99,5.84,3.55,9.27,3.52,2.12-.02,4.23-.23,6.35-.34,3-.16,6-.23,9.01-.24,6.04-.03,12.08.2,18.12.52,12.11.65,24.19,1.66,36.31,2.18,12.28.53,24.55.53,36.83.66,11.77.12,23.57.44,35.34-.12,7.39-.35,15.24-.98,21.74-4.84,1.98-1.17,3.75-2.68,5.23-4.45,1.65-1.96,2.71-4.19,3.69-6.54,2.65-6.37,2.36-13.47.72-20.05-.03-.13-.14-.23-.26-.26-3.64-1.02-6.64-3.28-8.57-6.53-1.77-2.98-2.42-6.54-2.21-9.97.03-.49-.73-.48-.76,0-.26,4.35.88,8.71,3.56,12.18,1.37,1.78,3.18,3.13,5.19,4.1.53.25,1.07.47,1.62.66.2.07.72.11.78.37.08.34.16.68.24,1.02.35,1.55.59,3.12.75,4.7.95,9.4-2.4,19.62-10.94,24.46-6.73,3.82-15.04,4.22-22.59,4.47-12.02.41-24.05.13-36.08.02-12.3-.11-24.57-.18-36.86-.75-12.1-.56-24.17-1.6-36.26-2.2-5.43-.27-10.86-.42-16.3-.39-4.66.03-9.28.4-13.93.56-3.39.12-7.11-.22-9.32-3.13-1.38-1.82-1.89-4.2-2.23-6.4-.42-2.68-.53-5.49-.45-8.2l-.38.38c1.97.02,3.93-.08,5.89-.28,1.8-.19,3.68-.38,5.42-.92.59-.18,1.06-.63,1.56-.97.57-.38,1.17-.73,1.71-1.16.45-.36.84-.76,1.17-1.23.15-.22.28-.47.37-.72.07-.18.21-1.13.41-1.07.19.05.43-.06.47-.26.6-3.16,1.21-6.14-.11-9.19-1.18-2.73-3.24-4.99-4.97-7.38-.04.17-.09.34-.14.52,6.13-4.39,13.23-7.06,19.98-10.32.77-.37,1.53-.76,2.29-1.15.35-.18,1.03.1,1.38.17.53.11,1.06.22,1.59.29,1.66.23,3.33.39,5,.39,1.59,0,3.18-.22,4.7-.68.78-.24,1.53-.58,2.25-.97.36-.19.69-.42,1.03-.65.09-.06.65-.63.73-.61.19.03.42-.04.47-.26.19-1.04,1.01-1.67,1.56-2.51.79-1.19,1.49-2.45,2.2-3.69,1.31-2.31,2.47-4.7,3.44-7.17.48-1.21.89-2.45,1.25-3.71.09-.32.17-.64.26-.95-.08.32.63-.09.69-.11.76-.28,1.54-.49,2.32-.72,2.8-.83,5.62-1.58,8.47-2.21,5.97-1.33,12.25-1.58,18.35-1.64,6.06-.05,12.12.32,18.15.97,6.13.66,12.24,1.6,18.29,2.79,2.8.55,5.58,1.1,8.27,2.08,2.67.98,5.21,2.3,7.69,3.69,5.11,2.88,10.03,6.07,15.14,8.97,5.06,2.87,10.16,5.68,15.19,8.6.31.18.62.36.93.54.42.25.8-.41.38-.65Z"/>
      </g>
      <g>
        <path class="cls-4" d="M82.16,65.99c5.6,21.14-25.49,31.72-37.93,17.42-8.32-9.57-3.76-28.67,8.28-33.48,11.95-4.77,26.49,4.22,29.65,16.06Z"/>
        <path class="cls-6" d="M81.79,66.09c1.32,5.05.54,10.25-2.55,14.51-2.91,4-7.46,6.64-12.16,7.98-4.82,1.38-10.09,1.41-14.85-.25-5.08-1.76-9.14-5.63-10.85-10.76-1.9-5.71-1.07-12.23,1.5-17.59,2.71-5.65,7.57-9.84,13.85-10.79,10.81-1.64,22.24,6.54,25.06,16.9.13.47.86.27.73-.2-3.42-12.57-19.01-21.75-31.31-15.79-5.27,2.55-8.78,7.83-10.46,13.29-1.69,5.5-1.63,11.78.99,16.99,4.76,9.49,16.92,11.61,26.27,8.71,4.6-1.43,8.89-4.12,11.8-8,3.04-4.03,3.97-9.11,2.99-14.02-.08-.4-.17-.79-.28-1.18-.12-.47-.85-.27-.73.2Z"/>
      </g>
      <g>
        <path class="cls-3" d="M69.85,67.95c2.28,8.6-10.37,12.9-15.42,7.08-3.38-3.89-1.53-11.66,3.37-13.61,4.86-1.94,10.77,1.72,12.06,6.53Z"/>
        <path class="cls-6" d="M69.48,68.05c.66,2.61-.11,5.12-2.12,6.91-1.89,1.68-4.54,2.45-7.04,2.35-2.61-.1-5.16-1.36-6.42-3.71-1.44-2.67-.91-6.18.56-8.71,1.66-2.85,4.77-4.11,7.97-3.41,3.26.72,6.15,3.34,7.05,6.57.13.47.86.27.73-.2-1.69-6.04-9.97-9.96-14.96-5.2-3.97,3.79-4.13,11.39.92,14.29,3.06,1.76,7.09,1.38,10.1-.3,3.21-1.78,4.84-5.2,3.93-8.79-.12-.47-.85-.27-.73.2Z"/>
      </g>
      <g>
        <g>
          <path class="cls-4" d="M171.09,66.17c5.66,21.13-25.41,31.79-37.89,17.52-8.35-9.54-3.84-28.66,8.19-33.5,11.93-4.8,26.5,4.15,29.7,15.98Z"/>
          <path class="cls-6" d="M170.72,66.27c1.33,5.05.57,10.25-2.51,14.51-2.9,4.01-7.44,6.66-12.14,8.01-4.82,1.39-10.09,1.43-14.85-.21-5.08-1.75-9.15-5.61-10.88-10.73-1.92-5.7-1.1-12.23,1.45-17.59,2.69-5.65,7.53-9.85,13.8-10.83,10.81-1.68,22.28,6.46,25.13,16.83.13.47.86.27.73-.2-3.44-12.51-18.92-21.61-31.2-15.78-5.29,2.51-8.83,7.77-10.53,13.22-1.72,5.5-1.67,11.78.9,17.01,4.71,9.54,16.86,11.72,26.23,8.84,4.61-1.42,8.9-4.1,11.84-7.96,3.05-4.01,4.03-9.07,3.07-13.98-.09-.45-.2-.9-.31-1.34-.12-.47-.85-.27-.73.2Z"/>
        </g>
        <g>
          <path class="cls-3" d="M158.78,68.16c2.3,8.59-10.33,12.92-15.4,7.12-3.4-3.88-1.56-11.65,3.33-13.62,4.85-1.95,10.78,1.69,12.07,6.5Z"/>
          <path class="cls-6" d="M158.41,68.26c.67,2.61-.09,5.12-2.1,6.91-1.88,1.69-4.54,2.46-7.03,2.37-2.61-.09-5.16-1.35-6.43-3.69-1.45-2.67-.93-6.17.53-8.71,1.65-2.86,4.75-4.13,7.96-3.43,3.26.71,6.16,3.33,7.07,6.55.13.47.86.27.73-.2-1.71-6.04-10-9.93-14.97-5.16-3.96,3.81-4.1,11.4.96,14.29,3.07,1.75,7.09,1.36,10.1-.32,3.2-1.79,4.83-5.22,3.91-8.8-.12-.47-.85-.27-.73.2Z"/>
        </g>
      </g>
      <g>
        <path class="cls-5" d="M98.95,8.46l-.93-.93c-6.84-1.87-13.68-.93-20.52.31-7.15,1.24-13.06,5.91-13.68,13.37-.93,7.15,4.66,12.44,11.51,13.06,3.73.31,7.77.31,11.51.93,2.8.31,7.77,1.87,9.95-.93,2.18-2.49.93-8.71.93-11.82,0-4.66.31-9.33,1.24-13.99Z"/>
        <path class="cls-10" d="M99.22,8.19l-.88-.88c-.21-.21-.52-.23-.8-.3-.67-.17-1.34-.31-2.02-.43-2.32-.42-4.68-.53-7.04-.47-2.36.06-4.71.34-7.04.68-2.1.31-4.24.62-6.29,1.2-3.12.88-6.05,2.55-8.23,4.97-2.25,2.5-3.27,5.59-3.55,8.9-.28,3.21.9,6.34,3.08,8.67,2.2,2.36,5.3,3.68,8.46,4.08,2.27.29,4.59.29,6.88.44,2.09.14,4.17.37,6.23.71,2.77.46,6.34,1.3,8.66-.81,1.21-1.1,1.56-2.78,1.7-4.34.18-1.99-.03-4.01-.18-6-.41-5.31.09-10.83,1.12-16.04.09-.48-.64-.68-.73-.2-.92,4.68-1.28,9.47-1.26,14.24.02,3.17.79,6.41.05,9.55-.37,1.55-1.37,2.72-2.91,3.16-1.59.46-3.37.18-4.97-.07-1.72-.27-3.43-.56-5.17-.74-2.35-.25-4.72-.33-7.08-.47-1.93-.11-3.78-.31-5.6-.98-1.58-.58-3.04-1.5-4.27-2.66-2.53-2.38-3.61-5.77-3.2-9.19.43-3.52,1.84-6.56,4.5-8.95,2.66-2.38,6.03-3.54,9.48-4.17,3.88-.7,7.8-1.26,11.75-1.25,2,0,4,.19,5.97.57.58.11,1.63.15,2.04.56l.75.75c.35.35.88-.19.54-.53Z"/>
      </g>
      <g>
        <path class="cls-5" d="M146.53,28.36c-2.8-8.09-10.57-13.37-18.04-16.48-7.15-3.42-13.06-5.29-21.15-3.42l.31,1.24c.31,4.66.31,9.33.62,13.68,0,3.11-.93,8.71,1.55,11.2,2.8,2.49,8.4,1.55,11.51,1.55,4.35-.31,8.71-.62,13.37-.62,4.98-.31,14.93.62,11.82-7.15Z"/>
        <path class="cls-10" d="M146.89,28.26c-2.51-7.12-8.65-12.06-15.21-15.34-1.77-.88-3.59-1.67-5.4-2.47-1.83-.81-3.7-1.53-5.63-2.08-3.86-1.11-7.84-1.28-11.79-.61-.54.09-1.09.21-1.62.33-.21.05-.31.27-.26.47.41,1.65.43,3.31.5,5.01.1,2.43.16,4.86.27,7.29.09,1.82.12,3.57.03,5.39-.08,1.67-.1,3.34.15,4.99.22,1.41.76,2.93,1.91,3.85,1.21.96,2.77,1.31,4.27,1.49,1.7.2,3.43.1,5.14.02,1.9-.1,3.8-.2,5.7-.33,3.54-.23,7.08-.28,10.62-.41,2.03-.08,4.07-.06,6.08-.34,1.72-.23,3.64-.64,4.87-1.96,1.38-1.46,1.02-3.59.35-5.3-.17-.45-.91-.25-.73.2.46,1.17.81,2.47.38,3.7-.33.95-1.24,1.55-2.12,1.92-2.22.92-4.81.91-7.18.97-3.82.1-7.63.17-11.44.41-3.65.23-7.4.67-11.06.42-1.19-.08-2.39-.3-3.48-.81-1.12-.52-1.81-1.4-2.23-2.55-.82-2.27-.56-4.88-.44-7.24.15-3.01-.16-6.05-.26-9.06-.09-2.61.02-5.32-.62-7.86-.09.16-.18.31-.26.47,4.03-.91,8.08-.95,12.1.03,3.88.95,7.57,2.71,11.16,4.42,6.6,3.15,12.95,8.06,15.46,15.18.16.46.89.26.73-.2Z"/>
      </g>
      <g>
        <path class="cls-1" d="M1.93,73.76c-1.38-3.11-2.86-9.93.72-12.21,2.72-1.74,8.88,0,11.72.71,4.04.93,4.97,6.53,5.6,10.26.62,8.09-15.55,6.84-18.04,1.24Z"/>
        <path class="cls-10" d="M2.26,73.57c-1.15-2.63-1.85-5.86-1.27-8.72.29-1.41,1.08-2.73,2.46-3.29,1.49-.59,3.26-.42,4.81-.23,1.68.21,3.33.61,4.97,1.02,1.48.37,2.67.78,3.67,1.99,1.01,1.22,1.52,2.83,1.92,4.34.36,1.37.79,2.93.78,4.35-.01,3.98-4.81,4.91-7.92,4.84-1.95-.04-3.93-.44-5.73-1.2-1.49-.63-3-1.6-3.7-3.12-.2-.44-.86-.06-.65.38.83,1.79,2.67,2.87,4.43,3.58,2.17.87,4.6,1.21,6.93,1.09,2.05-.1,4.21-.62,5.79-1.99.69-.6,1.18-1.41,1.43-2.29.33-1.16.09-2.3-.12-3.46-.51-2.81-1.24-6.13-3.59-8.01-1.07-.86-2.43-1.09-3.73-1.41-1.62-.4-3.25-.74-4.91-.93-2.84-.32-5.94-.03-7.2,2.91-1.13,2.64-.55,5.91.25,8.56.2.66.45,1.31.72,1.95.2.44.85.06.65-.38Z"/>
      </g>
      <g>
        <path class="cls-1" d="M190.12,77.64c-3.06,1.5-9.82,3.22-12.23-.27-1.84-2.66-.33-8.88.28-11.74.78-4.07,6.34-5.21,10.05-5.97,8.06-.92,7.4,15.29,1.9,17.98Z"/>
        <path class="cls-10" d="M189.93,77.32c-2.61,1.26-5.88,2.11-8.78,1.58-1.44-.26-2.76-1.05-3.32-2.45-.6-1.47-.49-3.22-.35-4.77.15-1.66.48-3.29.83-4.92.32-1.48.67-2.69,1.85-3.73,1.19-1.05,2.77-1.63,4.26-2.08,1.35-.41,2.9-.9,4.32-.95,3.98-.14,5.1,4.6,5.14,7.72.03,1.95-.3,3.91-.97,5.74-.56,1.52-1.49,3.09-2.98,3.85-.44.22-.05.87.38.65,1.76-.89,2.78-2.77,3.42-4.55.79-2.2,1.05-4.64.84-6.96-.18-2.04-.76-4.19-2.19-5.72-.63-.67-1.45-1.14-2.34-1.35-1.17-.29-2.3-.01-3.46.24-2.73.6-6.08,1.44-7.84,3.81-.84,1.13-1.03,2.47-1.31,3.81-.34,1.6-.62,3.22-.75,4.86-.23,2.76.07,5.94,2.97,7.14,2.72,1.12,6.02.45,8.7-.47.66-.23,1.31-.49,1.95-.8.44-.21.05-.86-.38-.65Z"/>
      </g>
    </g>
  </g>
</svg>