<?xml version="1.0" encoding="UTF-8"?>
<svg id="Layer_2" data-name="Layer 2" xmlns="http://www.w3.org/2000/svg" width="94.03" height="99.23" viewBox="0 0 94.03 99.23">
  <defs>
    <style>
      .cls-1 {
        fill: #fabb49;
      }

      .cls-2 {
        fill: #231f20;
      }

      .cls-3 {
        fill: #f9ec44;
      }
    </style>
  </defs>
  <g id="Layer_1-2" data-name="Layer 1">
    <g>
      <g>
        <path class="cls-3" d="M73.33,16.36c4.26-2.98,9.17-6.16,14.01-1.89,7.99,7.62,7.28,23.98,2.87,33.15-2.46,5.16-7.38,8.34-12.88,9.55-3.89.87-11.39,1.1-12.65-4.09-1.16-5.8,6.19-5.13,9.61-5.15,5.64-.25,8.85-4.35,10.36-9.37,1.56-5.32,1.52-12.17-2.83-15.73-2.15-1.93-9.74-2.96-8.09-7.02l-.41.55Z"/>
        <path class="cls-2" d="M73.58,16.79c2.15-1.5,4.37-3.04,6.95-3.68,2.83-.71,5.4.5,7.29,2.58,2.92,3.21,4.29,7.62,4.85,11.85.59,4.44.28,9.02-.7,13.38-.99,4.39-2.72,8.62-6.17,11.65-3.34,2.93-7.9,4.44-12.29,4.6-3.55.13-8.53-.93-8.45-5.41.06-3.56,5.34-3.35,7.77-3.33,1.86.02,3.66-.1,5.39-.87,1.85-.83,3.34-2.15,4.52-3.78,1.89-2.59,2.79-5.85,3.19-8.99.42-3.31.08-6.87-1.61-9.8-1.37-2.37-3.44-3.41-5.85-4.44-1.85-.79-5.23-2.01-4.26-4.6.23-.6-.73-.86-.96-.26-1.24,3.3,2.72,4.88,5.09,5.89,1.55.66,2.93,1.29,4.1,2.54,1.62,1.74,2.34,4.16,2.57,6.48.45,4.45-.7,9.63-3.51,13.18-1.38,1.74-3.25,2.92-5.4,3.44-1.68.4-3.45.19-5.16.24-2.65.08-6.48.65-6.84,3.92-.43,3.88,2.94,6.09,6.34,6.62,3.81.59,7.83-.21,11.33-1.74,4.32-1.88,7.59-5.28,9.42-9.6,3.12-7.39,3.75-16.42,1.43-24.1-1.13-3.73-3.27-7.75-6.78-9.72-4.42-2.49-9.17.6-12.77,3.12-.52.36-.02,1.23.5.86h0Z"/>
      </g>
      <g>
        <path class="cls-3" d="M20.64,16.36c-4.26-2.98-9.17-6.16-14.01-1.89C-1.36,22.1-.66,38.45,3.75,47.63c2.46,5.16,7.38,8.34,12.88,9.55,3.89.87,11.39,1.1,12.65-4.09,1.16-5.8-6.19-5.13-9.61-5.15-5.64-.25-8.85-4.35-10.36-9.37-1.56-5.32-1.52-12.17,2.83-15.73,2.15-1.93,9.74-2.96,8.09-7.02l.41.55Z"/>
        <path class="cls-2" d="M20.89,15.93c-3.93-2.75-8.68-5.66-13.35-2.77-3.49,2.15-5.45,6.58-6.48,10.37C-.09,27.78-.22,32.3.26,36.65c.45,4.05,1.46,8.13,3.33,11.77,2.16,4.23,6.21,7.11,10.63,8.62,3.44,1.17,7.5,1.61,11.02.56,3.11-.93,5.75-4.18,4.25-7.49-1.25-2.76-5.5-2.69-8-2.68-1.9,0-3.7-.04-5.48-.83-1.92-.86-3.4-2.41-4.49-4.17-2.31-3.73-3.15-8.76-2.41-13.06.38-2.21,1.34-4.27,2.97-5.82,1.09-1.04,2.55-1.55,3.91-2.13,2.32-.99,5.9-2.58,4.71-5.73-.22-.59-1.18-.34-.96.26,1.22,3.24-4.35,4.56-6.41,5.55-3.64,1.76-5.18,5.84-5.44,9.65-.29,4.3.83,9.08,3.31,12.63,1.15,1.64,2.69,2.97,4.52,3.78,1.73.77,3.53.89,5.39.87,2.55-.03,7.54-.23,7.77,3.33.29,4.5-5.05,5.49-8.45,5.41-4.43-.11-8.91-1.73-12.29-4.6-3.5-2.96-5.16-7.3-6.17-11.65-1.5-6.43-1.49-13.58.9-19.79,1.19-3.09,3.3-6.5,6.49-7.8,3.91-1.58,7.96,1.33,11.01,3.46.53.37,1.02-.49.5-.86h0Z"/>
      </g>
      <g>
        <path class="cls-1" d="M45.83,80.71c-5.55.74-10.72,2.59-15.9,3.33-9.61,2.22-8.87,9.98,0,12.2,8.13,2.22,14.42,2.96,22.55,2.22,4.44-.37,17.75-3.33,11.83-9.98-3.7-3.7-12.94-6.66-18.12-7.39l-.37-.37Z"/>
        <path class="cls-2" d="M45.69,80.23c-3.03.42-6,1.15-8.96,1.88-1.39.34-2.77.67-4.17.96-1.41.29-2.83.45-4.21.89-2.87.91-6.28,3.17-5.81,6.63.5,3.69,4.49,5.38,7.64,6.23,5.62,1.52,11.36,2.46,17.19,2.41,3.75-.03,7.47-.39,11.09-1.41,2.62-.74,5.98-1.9,7.39-4.42,1.65-2.95-1.39-5.72-3.62-7.17-3.79-2.46-8.32-3.95-12.68-4.99-1.06-.26-2.13-.47-3.21-.62-.63-.09-.9.86-.26.96,4.43.65,8.86,2.06,12.89,3.99,2.35,1.12,7.79,3.9,6.04,7.34-.64,1.25-2.01,2.03-3.22,2.63-1.49.74-3.12,1.24-4.73,1.64-4.05,1.02-8.29,1.18-12.45,1.03-5.05-.18-9.94-1.25-14.82-2.51-2.72-.71-6.36-2.59-6.29-5.87.08-3.4,4.55-4.98,7.26-5.41,5.13-.8,10.06-2.51,15.21-3.22.63-.09.36-1.04-.27-.96h0Z"/>
      </g>
      <g>
        <path class="cls-1" d="M45.59,80.54c-4.59.61-8.88,2.14-13.17,2.76-7.96,1.84-7.35,8.27,0,10.11,6.74,1.84,11.94,2.45,18.68,1.84,3.67-.31,14.7-2.76,9.8-8.27-3.06-3.06-10.72-5.51-15.01-6.12l-.31-.3Z"/>
        <path class="cls-2" d="M45.46,80.06c-3.04.42-6,1.23-8.99,1.93-2.49.59-5.09.77-7.37,2.01-2.78,1.52-3.84,4.61-1.72,7.16,1.21,1.46,3.13,2.25,4.92,2.72,2.85.74,5.7,1.39,8.63,1.76,4.42.55,9.07.52,13.44-.42,3.13-.67,9.9-2.66,7.9-7.16-1.15-2.58-4.52-4-6.94-5.02-2.96-1.25-6.1-2.2-9.28-2.67-.63-.09-.9.86-.26.96,4.37.65,8.91,2.1,12.69,4.4,1.39.84,3.17,2.13,3.18,3.94,0,1.37-1.46,2.3-2.51,2.88-2.87,1.57-6.31,2.1-9.53,2.32-5.98.41-11.85-.46-17.6-2.09-1.8-.51-3.67-1.52-4.54-3.26-.78-1.57.1-3.19,1.38-4.16,2.14-1.64,5.02-1.74,7.55-2.32,3.11-.71,6.17-1.58,9.34-2.02.63-.09.36-1.04-.27-.96h0Z"/>
      </g>
      <g>
        <path class="cls-1" d="M48.04,69.21c-.67,5.34,4.02,12.8,1.88,17.76-1.73,4.03-8.01,3.34-10.09-.08-1.22-2-.33-16.97,2.08-17.37,1.84-.31,3.98-.31,5.82-.31h.31Z"/>
        <path class="cls-2" d="M47.54,69.21c-.51,4.62,1.93,9.04,2.39,13.58.21,2.04-.05,4.43-1.88,5.68-1.57,1.08-3.76.91-5.42.17-1.26-.56-2.38-1.53-2.64-2.91-.25-1.33-.22-2.74-.21-4.09.04-3.26.28-6.67,1.21-9.81.17-.56.39-1.45.92-1.8.53-.35,1.74-.23,2.38-.27,1.14-.07,2.29-.06,3.44-.06.64,0,.64-.99,0-.99-1.38,0-2.76.01-4.13.11-.7.05-1.71,0-2.3.44-.78.59-1.09,1.71-1.34,2.6-.89,3.13-1.1,6.54-1.16,9.78-.02,1.37,0,2.75.2,4.11.17,1.22.78,2.1,1.74,2.88,2.48,2.03,7,2.35,9.05-.48,1.83-2.52,1.19-6,.53-8.8-.77-3.3-2.17-6.71-1.79-10.16.07-.64-.92-.63-.99,0h0Z"/>
      </g>
      <g>
        <path class="cls-1" d="M33.03,60.33c0,3.06-1.22,7.04,1.84,9.19,5.21,3.06,13.47,3.98,18.99,1.22,5.21-2.45,1.53-6.74,3.67-10.41h-24.5Z"/>
        <path class="cls-2" d="M32.54,60.33c-.03,3.15-1.14,7.22,1.85,9.44,1.53,1.13,3.57,1.78,5.39,2.28,2,.55,4.08.8,6.15.83,1.92.03,3.86-.22,5.71-.74,1.71-.48,3.6-1.25,4.72-2.68,2.03-2.56.08-6.12,1.6-8.88.31-.56-.55-1.06-.86-.5-.66,1.19-.83,2.47-.82,3.82.01,1.32.21,2.65-.17,3.94-.51,1.71-2.4,2.52-3.93,3.08-1.8.66-3.74.92-5.65.97-3.66.1-7.44-.72-10.7-2.4-3.55-1.83-2.34-5.92-2.31-9.16,0-.64-.99-.64-.99,0h0Z"/>
      </g>
      <g>
        <path class="cls-3" d="M68.41,11.18c-2.3.92-4.75,1.53-7.04,1.99-12.86,2.3-24.81.46-37.67-2.14-2.36-.45-4.39-1.72-6.14-3.33-.24.58-.43,1.19-.6,1.84-1.1,4.41-.61,10.22-.61,13.44,0,12.86,1.22,28.48,11.64,37.67,8.81,7.77,21.25,8.18,31.33,2.42,15.43-8.81,17.67-23.55,16.51-39.29-.3-4.03.84-11.46-1.16-15.46-.89.63-1.81,1.24-2.73,1.95-.92.61-2.45.46-3.52.92Z"/>
        <path class="cls-2" d="M68.27,10.7c-8.07,3.16-17.21,3.41-25.75,2.74-4.35-.34-8.67-1.01-12.97-1.78-2.12-.38-4.27-.74-6.37-1.25-2.01-.49-3.77-1.7-5.29-3.06-.3-.27-.69-.13-.83.22-1.86,4.7-1.29,10.03-1.23,14.96.07,4.71.15,9.4.73,14.08,1.17,9.33,4.32,18.81,11.78,25,7.76,6.44,18.58,7.37,27.75,3.58,8.51-3.52,15.19-10.47,18.21-19.16,2.09-6.03,2.45-12.55,2.21-18.88-.06-1.57-.22-3.14-.24-4.7-.02-1.61.06-3.21.09-4.82.07-3.16.13-6.64-1.27-9.56-.11-.23-.47-.33-.68-.18-.97.68-1.93,1.49-2.95,2.08-.91.53-2.19.37-3.18.74-.59.22-.34,1.18.26.96.99-.37,2.06-.35,3.06-.68.57-.19,1.02-.62,1.5-.96.6-.43,1.21-.85,1.81-1.27-.23-.06-.45-.12-.68-.18.99,2.07,1.11,4.48,1.15,6.74.04,2.3-.11,4.6-.1,6.9,0,2.21.25,4.41.3,6.62.05,2.28,0,4.56-.19,6.83-.36,4.41-1.3,8.81-3.11,12.86-1.84,4.12-4.64,7.71-8.09,10.61-7.94,6.67-18.97,9.43-28.8,5.54-9.68-3.83-14.87-13.31-16.96-23.02-1.16-5.4-1.49-10.96-1.56-16.47-.03-2.66-.11-5.33-.12-7.99-.01-3.14.13-6.4,1.3-9.35-.28.07-.55.15-.83.22,1.35,1.22,2.82,2.22,4.51,2.92,2,.83,4.33,1.04,6.45,1.44,4.51.85,9.05,1.55,13.63,1.97,8.83.79,18.41.56,26.75-2.71.59-.23.33-1.19-.26-.96Z"/>
      </g>
      <g>
        <path class="cls-1" d="M72.33,5.7c-2.28-1.54-4.66-2.58-7.1-3.22-1.22-.32-2.46-.54-3.71-.67-.79-.12-1.59-.24-2.38-.35C48.35.31,37.32-.15,26.73,2.06c-1.11.29-2.18.65-3.22,1.1-2.08.9-3.99,2.16-5.69,3.92-.1.2-.19.4-.28.61,1.76,1.61,3.79,2.88,6.14,3.33,12.86,2.6,24.81,4.44,37.67,2.14,2.3-.46,4.75-1.07,7.04-1.99,1.07-.46,2.6-.31,3.52-.92.92-.71,1.84-1.32,2.73-1.95-.15-.3-.32-.58-.51-.84-.53-.73-1.15-1.29-1.83-1.76Z"/>
        <path class="cls-2" d="M72.58,5.27c-1.94-1.28-4.01-2.28-6.23-2.98-2.29-.73-4.71-.98-7.09-1.31C54.17.28,48.95.04,43.82,0c-5.14-.04-10.28.32-15.34,1.22-2.24.39-4.35,1.04-6.38,2.07-1.72.87-4.18,2.32-4.97,4.15-.09.2-.1.44.08.6,1.59,1.43,3.36,2.59,5.42,3.23,2.5.77,5.24,1.08,7.81,1.54,5.11.91,10.26,1.59,15.45,1.82,5.23.23,10.46-.09,15.62-.99,2.5-.44,4.93-1.2,7.3-2.09.94-.35,1.99-.24,2.92-.64,1.13-.49,2.18-1.47,3.2-2.18.23-.16.31-.42.18-.68-.61-1.15-1.46-2.03-2.51-2.78-.52-.38-1.02.49-.5.86.91.65,1.63,1.44,2.15,2.43.06-.23.12-.45.18-.68-.91.65-1.84,1.28-2.73,1.95-.74.56-2,.49-2.88.7-1.12.26-2.22.8-3.33,1.14-1.16.35-2.35.63-3.54.88-4.99,1.07-10.21,1.28-15.3,1.12-5.09-.16-10.16-.83-15.18-1.68-2.55-.44-5.09-.93-7.62-1.44-2.28-.46-4.22-1.67-5.92-3.21.03.2.05.4.08.6.45-1.03,1.51-1.77,2.39-2.43.79-.58,1.64-1.07,2.51-1.52,2.09-1.06,4.32-1.57,6.6-1.96,4.85-.83,9.79-1.08,14.71-1.05,4.86.04,9.72.41,14.55.92,4.77.5,9.28,1.53,13.33,4.21.54.36,1.03-.5.5-.86Z"/>
      </g>
    </g>
  </g>
</svg>