<?xml version="1.0" encoding="UTF-8"?>
<svg id="Layer_2" data-name="Layer 2" xmlns="http://www.w3.org/2000/svg" width="130.69" height="214.96" viewBox="0 0 130.69 214.96">
  <defs>
    <style>
      .cls-1 {
        fill: #221f1f;
      }

      .cls-2 {
        fill: #797979;
      }

      .cls-3 {
        fill: #713e19;
      }

      .cls-4 {
        fill: #4a4a4b;
      }

      .cls-5 {
        fill: #f7f082;
      }

      .cls-6 {
        fill: #3a271f;
      }

      .cls-7 {
        fill: #f79340;
      }
    </style>
  </defs>
  <g id="Layer_1-2" data-name="Layer 1">
    <g>
      <g>
        <path class="cls-3" d="M35.82,116.22c-1.99-4.49,22.44-8.48,25.43-8.48,8.93-1.04,19.25,1.3,27.06,6.07,1.56.96,3.02,2.01,4.36,3.18,2.49,2.48,4.98,5.09,6.97,7.98.65.98,1.24,1.99,1.75,3.05,3.23,7.88,4.23,19.85-3.74,24.09-4.32,2.33-9.64,4.54-12.78,8.25-.79.93-1.44,1.95-1.89,3.09-1.03,2.13-1.28,4.62-.28,6.86,5.73,12.22,7.23,26.67-5.13,35.07-1.34,1.2-2.8,2.28-4.35,3.25-15.47,9.7-40.05,7.96-48.36-8.66-7.48-13.96-3.49-30.41,1.99-44.38,4.99-10.97,12.46-22.44,9.97-34.9,0-1.99-1-4.49-1.5-6.48v1.5l.5.5Z"/>
        <path class="cls-1" d="M36.19,116.12c-.48-1.14,1.1-2.01,1.9-2.46,1.89-1.06,4.02-1.71,6.09-2.3,4.62-1.33,9.38-2.27,14.14-2.94,5.99-.84,12.02-.65,17.91.81,4.1,1.02,8.07,2.62,11.7,4.79,4.01,2.4,7.27,5.79,10.14,9.44,1.37,1.73,2.59,3.62,3.37,5.69.56,1.49.99,3.02,1.32,4.57.69,3.18.93,6.54.33,9.76-.55,3.01-1.99,5.84-4.52,7.64-1.49,1.06-3.24,1.79-4.86,2.62-1.78.92-3.55,1.88-5.21,2.99-3.27,2.2-6.11,5.34-6.72,9.36-.31,2.05.31,3.75,1.13,5.59.74,1.66,1.38,3.36,1.93,5.1,2.04,6.41,2.72,13.66-.17,19.93-1.51,3.28-3.98,6-6.9,8.09-.86.61-1.64,1.34-2.48,1.98-.87.66-1.79,1.26-2.72,1.83-1.33.81-2.73,1.52-4.15,2.16-5.85,2.6-12.38,3.71-18.77,3.36-6.14-.33-12.29-2.16-17.28-5.82-5.81-4.26-9.15-11.1-10.53-18.04-1.67-8.46-.21-17.26,2.21-25.42,1.22-4.11,2.68-8.14,4.53-12,1.84-3.82,3.79-7.6,5.44-11.51,1.81-4.32,3.25-8.81,3.61-13.51.18-2.33.04-4.66-.38-6.96-.21-1.13-.27-2.25-.58-3.37-.3-1.13-.68-2.23-.97-3.37-.11-.42-.74-.33-.74.1v1.5c0,.49.76.49.76,0v-1.5c-.25.03-.49.07-.74.1.52,2.03,1.37,4.04,1.48,6.16.05,1.01.31,2.03.41,3.04.1,1.09.11,2.19.07,3.29-.15,4.27-1.34,8.44-2.87,12.4-1.57,4.06-3.55,7.95-5.46,11.86-.9,1.84-1.82,3.68-2.55,5.6-.76,1.98-1.47,3.98-2.12,6-2.58,8-4.23,16.53-3.26,24.96.82,7.08,3.68,14.34,8.91,19.32,9.01,8.58,23.25,9.61,34.68,6.15,2.98-.9,5.85-2.16,8.53-3.75.84-.5,1.65-1.04,2.44-1.61.94-.67,1.78-1.51,2.73-2.16,1.49-1.02,2.86-2.22,4.08-3.56,4.52-4.98,5.87-11.71,5.11-18.24-.4-3.44-1.34-6.8-2.57-10.02-.67-1.76-1.71-3.47-2.05-5.33-.42-2.3.52-4.71,1.74-6.63,2.18-3.43,6.11-5.49,9.61-7.31,2.96-1.53,5.97-2.78,7.9-5.62,3.49-5.12,2.69-12.37,1.03-17.98-.49-1.66-1.11-3.23-1.97-4.73-1.12-1.95-2.55-3.71-4.04-5.39-1.51-1.72-3.1-3.46-4.88-4.9-1.66-1.33-3.45-2.47-5.32-3.48-7.21-3.89-15.73-5.76-23.91-5.17-3.86.28-7.68.89-11.48,1.66-3.87.78-7.78,1.68-11.45,3.16-1.43.58-5.23,2.06-4.3,4.27.19.44.92.25.73-.2h0Z"/>
      </g>
      <g>
        <g>
          <path class="cls-2" d="M119.62,17.36c.64.1,2.61.64,3.62.98h0c-.44.98-.98,1.93-1.52,2.88h0c-1.12-.37-2.34-.78-3.42-1.25.47-.74,1.12-1.66,1.59-2.4l-.27-.2Z"/>
          <path class="cls-6" d="M119.52,17.72c1.22.21,2.44.59,3.62.98-.07-.18-.15-.37-.23-.56-.45.99-.98,1.93-1.52,2.88.14-.06.29-.12.43-.17-1.12-.37-2.24-.75-3.33-1.22.05.17.09.34.14.52.52-.81,1.07-1.6,1.59-2.4.27-.41-.39-.79-.65-.38-.52.81-1.07,1.6-1.59,2.4-.1.16-.05.44.14.52,1.15.49,2.33.9,3.51,1.29.16.05.35-.03.43-.17.54-.94,1.07-1.89,1.52-2.88.1-.23.02-.47-.23-.56-1.18-.39-2.4-.77-3.62-.98-.48-.08-.68.65-.2.73h0Z"/>
        </g>
        <g>
          <path class="cls-2" d="M111.97,30.49c.91-.37,2.64.2,3.62.64-.51,1.18-1.25,2.4-1.86,3.55h0c-.98-.44-2.1-.81-3.11-1.15.37-1.12,1.08-2.23,1.62-3.18l-.27.14Z"/>
          <path class="cls-6" d="M112.07,30.86c1.05-.36,2.37.18,3.33.6-.05-.17-.09-.34-.14-.52-.54,1.23-1.23,2.38-1.86,3.55.17-.04.34-.09.52-.14-1.05-.46-2.12-.83-3.2-1.19.09.16.18.31.26.47.39-1.1,1.01-2.09,1.59-3.09.24-.42-.41-.8-.65-.38-.61,1.06-1.25,2.11-1.66,3.27-.07.2.08.4.26.47,1.02.34,2.04.68,3.03,1.11.18.08.41.06.52-.14.63-1.18,1.32-2.33,1.86-3.55.07-.17.07-.43-.14-.52-1.15-.5-2.65-1.11-3.91-.68-.46.16-.26.89.2.73h0Z"/>
        </g>
        <g>
          <path class="cls-2" d="M105.54,42.34c1.39.24,2.91.41,4.17,1.05-1.12.64-1.25,2.74-2.34,3.28-.91.37-2.61-.64-3.59-1.08.2-1.29.98-2.61,1.86-3.55l-.1.3Z"/>
          <path class="cls-6" d="M105.44,42.71c1.38.23,2.8.39,4.07,1.01v-.65c-.98.64-1.23,1.82-1.81,2.77-.79,1.29-2.77-.12-3.74-.57.06.14.12.28.17.43.24-1.29.89-2.42,1.77-3.39.32-.36-.21-.9-.54-.53-.95,1.06-1.7,2.31-1.96,3.72-.03.16.01.35.17.43.99.45,2.84,1.74,3.97,1.08,1.26-.73,1.17-2.52,2.34-3.28.22-.14.27-.52,0-.65-1.34-.65-2.8-.84-4.26-1.09-.48-.08-.68.65-.2.73h0Z"/>
        </g>
        <g>
          <path class="cls-2" d="M77.6,34.72c-1.05-.24-2.06-.58-3.08-.91-.58,1.05-.78,2.34-.95,3.52,1.12-.3,2.47.03,3.66.2.2-.95.41-2.23.47-3.11l-.1.3Z"/>
          <path class="cls-6" d="M77.7,34.36c-1.05-.25-2.06-.58-3.08-.91-.15-.05-.35.03-.43.17-.58,1.13-.81,2.36-.99,3.61-.04.28.16.53.46.47,1.15-.26,2.31.03,3.46.2.19.03.42-.04.46-.26.22-1.06.4-2.14.49-3.22.04-.49-.71-.48-.76,0-.09,1.01-.25,2.02-.46,3.02.16-.09.31-.18.46-.26-1.28-.19-2.57-.5-3.86-.2.16.16.31.31.46.47.17-1.18.36-2.36.91-3.43-.14.06-.29.12-.43.17,1.02.34,2.04.67,3.08.91.48.11.68-.62.2-.73h0Z"/>
        </g>
        <g>
          <path class="cls-2" d="M82.51,24.4c-1.22-.07-2.64-.54-3.89-.85.74-1.22,1.35-2.37,1.86-3.55,1.19.17,2.51.61,3.56,1.18-.37,1.12-1.49,3.45-1.9,3.66l.37-.44Z"/>
          <path class="cls-6" d="M82.51,24.02c-1.3-.1-2.54-.52-3.79-.83.07.18.15.37.23.56.69-1.15,1.33-2.33,1.86-3.55-.14.06-.29.12-.43.17,1.21.19,2.38.57,3.46,1.15-.06-.14-.12-.28-.17-.43-.22.65-.51,1.28-.81,1.91-.21.43-.49,1.25-.91,1.53-.41.27-.03.92.38.65.48-.31.75-.96,1.01-1.45.41-.78.77-1.6,1.06-2.43.05-.15-.03-.35-.17-.43-1.14-.61-2.37-1.02-3.65-1.22-.15-.02-.35,0-.43.17-.54,1.23-1.17,2.41-1.86,3.55-.12.21,0,.5.23.56,1.32.33,2.63.76,3.99.86.48.03.48-.72,0-.76h0Z"/>
        </g>
        <g>
          <path class="cls-2" d="M89.89,10.04c-1.32-.44-2.71-1.02-4.17-1.39,1.08-4.27,2.17-2.78,5.48-2.23-.37,1.12-1.46,4.03-2.13,4.03l.81-.41Z"/>
          <path class="cls-6" d="M90,9.68c-1.39-.47-2.75-1.01-4.17-1.39.09.16.18.31.26.47.23-.89.54-2.61,1.73-2.65,1.08-.04,2.24.5,3.29.68-.09-.16-.18-.31-.26-.47-.24.71-.5,1.41-.8,2.09-.12.29-.6,1.61-.97,1.66-.48.06-.48.82,0,.76.73-.1,1.1-.95,1.39-1.54.44-.89.79-1.83,1.11-2.77.06-.18-.07-.43-.26-.47-1.24-.21-2.6-.85-3.87-.67-1.37.2-1.8,2.1-2.08,3.17-.05.2.06.41.26.47,1.42.38,2.78.92,4.17,1.39.46.16.66-.57.2-.73h0Z"/>
        </g>
        <g>
          <path class="cls-7" d="M80.87,187.53c.22,4.58-1.19,8.88-3.87,12.54-3.81,5.19-9.52,8.83-15.5,11.03-5.78,2.12-12.34,3.03-18.49,2.87-6.5-.17-12.5-2.61-18.41-5.11-4.95-2.1-9.73-4.77-13.49-8.69-5.8-6.05-9.03-13.33-10.37-21.55-1.42-8.78.83-17.92,7.66-24.16,5.34-4.75,11.81-5.76,18.22-8.37,9.91-4.21,1.84-14.42,3.21-22.67,1.9-11.63,14.96-12.82,24.33-12.46,10.51.53,21.13,2.49,29.97,8.01,8.01,5.04,18.16,16.15,10.98,25.82-4.69,6.35-17.03,5.99-20.3,12.82-3.44,7.95,5.64,21.66,6.05,29.91Z"/>
          <path class="cls-1" d="M80.49,187.53c.19,4.39-1.14,8.57-3.67,12.15-2.41,3.41-5.74,6.12-9.33,8.22-7.64,4.46-17.09,6.25-25.87,5.63-4.63-.32-9.09-1.84-13.36-3.55-4.1-1.64-8.16-3.4-11.84-5.87-6.98-4.67-11.75-12.08-14.08-20.06-2.23-7.66-2.38-15.95,1.48-23.12,1.98-3.68,4.93-6.72,8.54-8.83,3.65-2.12,7.77-3.24,11.72-4.63,2.98-1.05,6.06-2.23,7.37-5.35,1.06-2.52.48-5.49-.04-8.06-.62-3.04-1.47-6.09-1.35-9.22.12-3.04,1.38-6.04,3.49-8.23,4.08-4.22,10.63-5.12,16.21-5.29,3.59-.11,7.19.14,10.76.54,4.43.5,8.82,1.36,13.07,2.72,7.5,2.39,14.48,6.58,19.4,12.81,2.2,2.78,3.95,6.12,4.17,9.71.21,3.45-1.33,6.91-3.94,9.15-4.6,3.97-11.26,4.26-16.03,7.95-2.2,1.71-3.32,3.96-3.51,6.73-.22,3.12.64,6.29,1.55,9.24.95,3.07,2.14,6.06,3.2,9.09.93,2.66,1.89,5.43,2.05,8.26.03.48.78.49.76,0-.17-2.98-1.16-5.87-2.14-8.66-1.16-3.29-2.45-6.54-3.44-9.88-.88-2.96-1.62-6.18-1.08-9.28.5-2.91,2.56-4.81,5.05-6.18,5.08-2.79,11.88-3.51,15.64-8.33,2.11-2.7,2.98-6.02,2.51-9.39-.48-3.39-2.3-6.49-4.4-9.13-4.79-6.06-11.62-10.13-18.85-12.59-4.12-1.4-8.4-2.26-12.7-2.83-3.71-.49-7.46-.77-11.2-.72-5.54.07-11.76.82-16.27,4.34-2.26,1.76-3.81,4.16-4.57,6.91-.83,2.98-.45,6.01.15,9,.58,2.89,1.48,5.84,1.29,8.82-.08,1.35-.52,2.67-1.36,3.74-1.09,1.39-2.71,2.15-4.31,2.77-3.85,1.49-7.86,2.53-11.6,4.29-3.69,1.73-6.8,4.29-9.2,7.59-4.54,6.25-5.56,14.25-4.21,21.71,1.42,7.92,4.98,15.35,10.66,21.1,2.97,3.01,6.61,5.28,10.4,7.11,3.98,1.93,8.17,3.63,12.4,4.9,8.58,2.58,18.15,1.83,26.58-.99,10.57-3.53,21.18-12.15,20.66-24.29-.02-.48-.78-.48-.76,0Z"/>
        </g>
        <g>
          <path class="cls-3" d="M56.16,136.95c-9.07-3.93-15.98,1.9-18.01,10.7-3.66,17.74,20.18,22.08,28.04,7.99,3.52-6.5.95-12.33-4.74-16.93l-5.28-1.76Z"/>
          <path class="cls-1" d="M56.36,136.62c-2.99-1.27-6.26-1.75-9.4-.72-2.84.94-5.09,3.05-6.68,5.53-2.95,4.61-4.01,11.02-1.39,16.01,2.09,3.98,6.31,6.24,10.65,6.82,4.69.62,9.56-.81,13.19-3.82,2.99-2.48,5.17-6.17,5.44-10.08.33-4.86-2.87-9.01-6.44-11.92-.37-.31-.91.23-.54.53,2.97,2.43,5.64,5.58,6.16,9.51.45,3.46-1.04,6.89-3.22,9.5-3.17,3.78-8.05,5.78-12.94,5.65-4.49-.11-9.01-2.18-11.38-6.11-3.01-5.01-1.62-11.77,1.55-16.35,1.5-2.16,3.63-3.87,6.15-4.65,2.81-.88,5.82-.38,8.48.75.44.19.83-.46.38-.65h0Z"/>
        </g>
        <g>
          <path class="cls-4" d="M46.82,137.89c6.37,1.22,12.46,4.61,18.28,7.45,5.42-24.38,14.63-49.3,23.3-72.6,2.57-6.37,4.47-13.41,8.13-18.96h0c-6.09-2.03-12.46-1.9-18.42-4.34-6.77,25.73-14.77,44.29-23.98,69.21-1.22,3.66-6.5,18.15-7.31,19.23h0Z"/>
          <path class="cls-1" d="M46.72,138.26c6.48,1.27,12.32,4.54,18.19,7.41.21.1.5.03.56-.23,4.2-18.87,10.39-37.24,16.96-55.4,2.29-6.32,4.6-12.63,7.01-18.9,2.23-5.81,3.99-11.91,7.42-17.16.14-.21,0-.48-.23-.56-6.02-1.97-12.51-1.96-18.42-4.34-.19-.08-.42.08-.46.26-4.55,17.27-10.64,34.01-16.99,50.69-2.73,7.18-5.49,14.36-8.06,21.6-1.76,4.94-3.5,9.92-5.56,14.74-.19.44-.36.93-.64,1.32-.29.4.37.77.65.38.32-.44.51-1,.72-1.5.42-.98.81-1.97,1.19-2.96,1.04-2.66,2.03-5.33,3.01-8.01,2.32-6.36,4.61-12.73,7.02-19.06,6.28-16.53,12.62-33.03,17.48-50.05.66-2.31,1.29-4.63,1.91-6.95-.16.09-.31.18-.46.26,5.91,2.38,12.4,2.36,18.42,4.34-.07-.18-.15-.37-.23-.56-2.35,3.59-3.92,7.61-5.39,11.62-1.56,4.26-3.17,8.5-4.75,12.75-3.36,9.05-6.67,18.11-9.77,27.25-4.47,13.15-8.53,26.46-11.55,40.02.19-.08.37-.15.56-.23-5.93-2.9-11.83-6.2-18.37-7.49-.48-.09-.68.64-.2.73h0Z"/>
        </g>
        <path class="cls-1" d="M49.7,132.03c5.64,1.87,11.6,3.07,16.97,5.65.44.21.82-.44.38-.65-5.44-2.61-11.45-3.84-17.16-5.73-.46-.16-.66.58-.2.73h0Z"/>
        <path class="cls-1" d="M51.44,126.5c2.54,1.74,5.4,2.99,8.25,4.13,2.77,1.11,5.6,2.07,8.43,3.02.46.16.66-.58.2-.73-5.61-1.87-11.58-3.7-16.5-7.07-.4-.28-.78.38-.38.65h0Z"/>
        <path class="cls-1" d="M53.02,121.4c2.83.4,5.58,1.38,8.23,2.42,2.84,1.11,5.65,2.4,8.27,3.97.42.25.8-.4.38-.65-2.54-1.53-5.27-2.77-8.02-3.88-2.78-1.12-5.69-2.17-8.66-2.59-.48-.07-.68.66-.2.73h0Z"/>
        <path class="cls-1" d="M55.7,114.38c5.13,2.39,10.89,3.13,15.91,5.76.43.22.81-.43.38-.65-5.03-2.63-10.79-3.37-15.91-5.76-.44-.21-.82.45-.38.65h0Z"/>
        <path class="cls-1" d="M58.71,107.04c2.72.47,5.35,1.59,7.91,2.61,2.53,1.01,5.02,2.14,7.6,3.01.46.16.66-.58.2-.73-2.58-.87-5.08-2-7.6-3.01-2.55-1.03-5.18-2.14-7.91-2.61-.48-.08-.68.65-.2.73h0Z"/>
        <path class="cls-1" d="M61.18,100.37c.56.68,1.53,1.03,2.33,1.35,1.4.57,2.87.99,4.31,1.43,1.58.47,3.17.93,4.74,1.44,1.2.39,2.45.79,3.53,1.46.42.26.8-.4.38-.65-.99-.62-2.13-1-3.23-1.38-1.49-.51-3-.94-4.51-1.39-1.45-.43-2.91-.86-4.34-1.38-.88-.32-2.07-.67-2.69-1.42-.31-.38-.84.16-.53.54h0Z"/>
        <path class="cls-1" d="M64.09,92.56c.98-.12,1.99.17,2.93.43,1.43.41,2.82.95,4.2,1.51,2.7,1.1,5.33,2.36,7.98,3.56.44.2.82-.45.38-.65-2.65-1.21-5.28-2.46-7.98-3.56-1.44-.59-2.89-1.15-4.39-1.58-.98-.29-2.09-.59-3.13-.46-.48.06-.48.82,0,.76h0Z"/>
        <path class="cls-1" d="M67.22,84.59c2.51,1.09,4.93,2.38,7.38,3.59,2.26,1.11,4.6,2.25,7.06,2.82.47.11.68-.62.2-.73-2.41-.55-4.68-1.66-6.89-2.74-2.46-1.2-4.87-2.49-7.38-3.59-.44-.19-.83.46-.38.66h0Z"/>
        <path class="cls-1" d="M69.99,75.58c2.51,1.22,5.24,1.94,7.89,2.78,2.31.74,5.18,1.46,6.93,3.25.34.35.88-.19.54-.53-1.71-1.75-4.4-2.51-6.65-3.25-2.78-.91-5.68-1.62-8.32-2.91-.44-.21-.82.44-.38.65h0Z"/>
        <path class="cls-1" d="M73.06,66c2.78,1.1,5.57,2.16,8.35,3.27,1.5.6,3,1.22,4.48,1.87.79.35,1.77.69,2.44,1.26.37.32.91-.22.54-.53-.66-.57-1.55-.9-2.34-1.26-1.45-.66-2.93-1.26-4.4-1.86-2.94-1.19-5.92-2.31-8.87-3.48-.45-.18-.65.55-.2.73h0Z"/>
        <path class="cls-1" d="M75.98,57.94c2.67.42,5.26,1.71,7.67,2.87,2.39,1.15,4.89,2.38,7,4.01.38.29.92-.24.54-.53-2.11-1.64-4.58-2.86-6.97-4.04-2.51-1.23-5.24-2.6-8.03-3.04-.48-.07-.68.65-.2.73h0Z"/>
        <g>
          <path class="cls-3" d="M80.86,46.61c-12.37-1.72,1.9-26.46,4.97-32.96,2.08-4.42,3.61-9.03,6.23-13.27,11.02,3.07,22.93,5.24,33.32,9.3-5.42,9.93-10.75,19.59-16.44,29.43-1.44,2.53-4.79,9.84-7.31,11.11-3.07,1.99-6.77-.45-10.38-1.35-2.8-.63-9.66-1.72-10.83-1.81l.45-.45Z"/>
          <path class="cls-1" d="M80.96,46.24c-1.84-.27-3.43-1.15-4.16-2.93-.77-1.87-.58-4.06-.26-6.01.88-5.22,3.14-10.23,5.4-14.98,1.21-2.55,2.51-5.04,3.77-7.57,2.33-4.69,3.94-9.71,6.68-14.19-.14.06-.29.12-.43.17,11.1,3.09,22.55,5.11,33.32,9.3-.07-.18-.15-.37-.23-.56-4.72,8.64-9.47,17.27-14.35,25.82-1.69,2.96-3.27,5.97-4.94,8.95-1.39,2.49-3.11,5.98-6.31,6.32-2.08.22-4.21-.8-6.13-1.47-1.58-.55-3.18-.87-4.82-1.17-2.67-.48-5.38-1.03-8.09-1.26-.49-.04-.48.72,0,.76,2.64.22,5.29.76,7.89,1.23,1.55.28,3.08.58,4.57,1.09,1.93.65,3.83,1.5,5.89,1.6,3.18.16,5.05-2.44,6.55-4.84,1.61-2.58,2.89-5.35,4.41-7.99,5.47-9.47,10.75-19.06,15.99-28.66.13-.23,0-.47-.23-.56C114.71,5.12,103.26,3.1,92.16.01c-.17-.05-.34.03-.43.17-2.42,3.95-3.98,8.32-5.88,12.52-.81,1.79-1.74,3.53-2.62,5.29-2.35,4.68-4.63,9.44-6.24,14.43-1.55,4.83-3.39,13.49,3.77,14.54.48.07.68-.66.2-.73h0Z"/>
        </g>
        <g>
          <path class="cls-5" d="M78.11,45.39c-.41.54-1.29,2.51-1.42,3.59.2.07.14.27.27.54,6.57,1.29,13.81,1.22,20.25,4.95.47-.74.95-2.84,1.02-3.72h0c-6.1-2.03-14.56-5.08-20.11-5.35h0Z"/>
          <path class="cls-6" d="M77.78,45.2c-.72,1.03-1.28,2.44-1.46,3.68-.03.18.02.32.17.43.13.09.08.43.27.54.28.16.75.16,1.07.22.91.16,1.82.3,2.73.43,1.86.27,3.72.5,5.57.8,3.79.61,7.52,1.59,10.87,3.5.18.1.41.04.52-.14.67-1.13.95-2.62,1.07-3.92.02-.17-.13-.32-.28-.36-3.41-1.14-6.81-2.32-10.26-3.34-3.23-.95-6.57-1.85-9.95-2.03-.49-.03-.48.73,0,.76,3.31.18,6.58,1.07,9.75,2,3.45,1.01,6.85,2.2,10.26,3.34-.09-.12-.19-.24-.28-.36-.11,1.15-.37,2.53-.96,3.53.17-.04.34-.09.52-.14-6.26-3.57-13.44-3.65-20.34-4.98.09.09.18.18.26.26-.12-.33-.15-.56-.44-.77.06.14.12.28.17.43.18-1.19.69-2.51,1.38-3.5.28-.4-.38-.78-.65-.38h0Z"/>
        </g>
        <g>
          <path class="cls-5" d="M98.92,41.15c2.19.35,2.04,3.55,0,4.06-2.5.62-4.13-4.71,0-4.06Z"/>
          <path class="cls-6" d="M98.81,41.51c2.63.52.71,4.58-1.21,3.01-.56-.46-.87-1.22-.83-1.93.05-1.06,1.21-1.19,2.04-1.08.48.07.68-.66.2-.73-1.25-.17-2.66.09-2.96,1.51-.24,1.14.4,2.39,1.34,3.02,1.17.78,2.68.07,3.23-1.11.67-1.41-.06-3.11-1.62-3.41-.48-.09-.68.64-.2.73Z"/>
        </g>
        <g>
          <path class="cls-5" d="M84.85,36.91c2.19.35,2.04,3.55,0,4.06-2.5.62-4.13-4.71,0-4.06Z"/>
          <path class="cls-6" d="M84.75,37.28c2.63.52.71,4.58-1.21,3.01-.56-.46-.87-1.22-.83-1.93.05-1.06,1.21-1.19,2.04-1.08.48.07.68-.66.2-.73-1.25-.17-2.66.09-2.96,1.51-.24,1.14.4,2.39,1.34,3.02,1.17.78,2.68.07,3.23-1.11.67-1.41-.06-3.11-1.62-3.41-.48-.09-.68.64-.2.73Z"/>
        </g>
        <g>
          <path class="cls-5" d="M100.46,28.46c.2-2.15,3.03-1.31,4.01-.25,1.88,2.03-1.66,4.41-3.33,2.92-.65-.58-.76-1.87-.68-2.67Z"/>
          <path class="cls-6" d="M100.84,28.46c.27-2.04,4.2-.49,3.73,1.33-.23.9-1.35,1.41-2.2,1.42-1.43.01-1.61-1.67-1.52-2.75.04-.49-.72-.48-.76,0-.12,1.59.35,3.28,2.13,3.5,1.34.17,2.91-.89,3.14-2.24.46-2.66-4.85-4.44-5.27-1.26-.06.48.69.48.76,0Z"/>
        </g>
        <g>
          <path class="cls-5" d="M87.3,24.07c.2-2.15,3.03-1.31,4.01-.25,1.88,2.03-1.66,4.41-3.33,2.92-.65-.58-.76-1.87-.68-2.67Z"/>
          <path class="cls-6" d="M87.68,24.07c.27-2.04,4.2-.49,3.73,1.33-.23.9-1.35,1.41-2.2,1.42-1.43.01-1.61-1.67-1.52-2.75.04-.49-.72-.48-.76,0-.12,1.59.35,3.28,2.13,3.5,1.34.17,2.91-.89,3.14-2.24.46-2.66-4.85-4.44-5.27-1.26-.07.48.69.48.76,0Z"/>
        </g>
        <g>
          <path class="cls-5" d="M109.37,13.64c.56-2.17,3-.61,3.73.55.45.71.71,1.46.19,2.2-.61.87-2.52,1.08-3.36.5-1.13-.77-.84-2.14-.56-3.25Z"/>
          <path class="cls-6" d="M109.73,13.74c.64-2.15,3.75.6,3.41,2.1-.24,1.04-1.91,1.1-2.7.88-1.31-.37-.95-2.03-.71-2.98.12-.47-.61-.67-.73-.2-.34,1.35-.55,3.26,1.09,3.86,1.38.51,3.2.08,3.78-1.36.55-1.37-.98-2.88-2.03-3.48-1.19-.69-2.44-.39-2.84.98-.14.47.59.67.73.2Z"/>
        </g>
        <g>
          <path class="cls-5" d="M94.18,8.57c.56-2.17,3-.61,3.73.55.45.71.71,1.46.19,2.2-.61.87-2.52,1.08-3.36.5-1.13-.77-.84-2.14-.56-3.25Z"/>
          <path class="cls-6" d="M94.55,8.67c.64-2.15,3.75.6,3.41,2.1-.24,1.04-1.91,1.1-2.7.88-1.31-.37-.95-2.03-.71-2.98.12-.47-.61-.67-.73-.2-.34,1.35-.55,3.26,1.09,3.86,1.38.51,3.2.08,3.78-1.36.55-1.37-.98-2.88-2.03-3.48-1.19-.69-2.44-.39-2.84.98-.14.47.59.67.73.2Z"/>
        </g>
        <g>
          <path class="cls-5" d="M116.76,29.23c0,1.35-2.66,4.83-3.57,6.64h0c2.3.77,4.29,1.58,6.5,2.62.86-2.12,2.03-4.29,3.11-6.18-1.85-1.22-4.52-2.26-5.87-3.16l-.18.09Z"/>
          <path class="cls-6" d="M116.38,29.23c-.05,1.08-.95,2.24-1.5,3.13-.68,1.1-1.43,2.16-2.02,3.32-.11.22-.01.47.23.56,2.19.73,4.32,1.6,6.41,2.58.24.11.46.01.56-.23.86-2.11,1.95-4.12,3.08-6.09.11-.18.04-.41-.14-.52-1.87-1.21-4-1.95-5.87-3.16-.41-.27-.79.39-.38.65,1.86,1.21,4,1.95,5.87,3.16-.05-.17-.09-.34-.14-.52-1.16,2.04-2.26,4.1-3.15,6.28.19-.08.37-.15.56-.23-2.15-1.01-4.34-1.9-6.59-2.66.07.18.15.37.23.56.65-1.27,1.48-2.45,2.23-3.66.57-.93,1.34-2.04,1.39-3.17.02-.49-.74-.49-.76,0h0Z"/>
        </g>
        <g>
          <path class="cls-5" d="M124.26,15.74c0,1.35-2.66,4.83-3.57,6.64h0c2.3.77,4.29,1.58,6.5,2.62.86-2.12,2.03-4.29,3.11-6.18-1.85-1.22-4.52-2.26-5.87-3.16l-.18.09Z"/>
          <path class="cls-6" d="M123.88,15.74c-.05,1.08-.95,2.24-1.5,3.13-.68,1.1-1.43,2.16-2.02,3.32-.11.22-.01.47.23.56,2.19.73,4.32,1.6,6.41,2.58.24.11.46.01.56-.23.86-2.11,1.95-4.12,3.08-6.09.1-.18.04-.41-.14-.52-1.87-1.21-4-1.95-5.87-3.16-.41-.27-.79.39-.38.65,1.86,1.21,4,1.95,5.87,3.16-.05-.17-.09-.34-.14-.52-1.16,2.04-2.26,4.1-3.15,6.28.19-.08.37-.15.56-.23-2.15-1.01-4.34-1.9-6.59-2.66.07.18.15.37.23.56.65-1.27,1.48-2.45,2.23-3.66.57-.93,1.34-2.04,1.39-3.17.02-.49-.74-.49-.76,0h0Z"/>
        </g>
        <g>
          <path class="cls-5" d="M110.71,41.51c-1.54,1.45-2.66,4.38-3.75,6.28h0c2.48.23,4.79,1.45,7.04,2.35,1.13-2.03,2.71-4.06,3.7-6.14-1.99-1.26-4.79-2.35-7-2.93v.45Z"/>
          <path class="cls-6" d="M110.44,41.24c-1.78,1.74-2.61,4.22-3.81,6.35-.15.27.05.54.33.57,2.46.26,4.68,1.42,6.94,2.33.15.06.35-.04.43-.17,1.18-2.08,2.65-3.99,3.7-6.14.09-.19.05-.4-.14-.52-2.17-1.36-4.62-2.31-7.09-2.97-.47-.13-.67.6-.2.73,2.41.65,4.79,1.57,6.91,2.9-.05-.17-.09-.34-.14-.52-1.05,2.15-2.53,4.06-3.7,6.14.14-.06.29-.12.43-.17-2.34-.95-4.6-2.09-7.14-2.36.11.19.22.38.33.57,1.16-2.06,1.96-4.51,3.69-6.2.35-.34-.19-.87-.53-.53h0Z"/>
        </g>
        <g>
          <g>
            <path class="cls-5" d="M75.13,30.85l-.54-.63c-1.72.18-4.02.32-5.91.14-.14,2.66-1.4,5.1-1.81,7.67,2.03.68,4.29.23,6.46.5.68-2.48.63-5.51,1.81-7.67Z"/>
            <path class="cls-6" d="M75.4,30.58c-.17-.2-.35-.41-.52-.61-.27-.32-1.12-.05-1.48-.02-1.57.12-3.15.16-4.72.03-.21-.02-.37.19-.38.38-.17,2.62-1.36,5.01-1.79,7.57-.04.21.05.4.26.47,2.13.66,4.37.27,6.56.51.16.02.33-.13.36-.28.66-2.49.56-5.26,1.77-7.59.22-.43-.43-.82-.65-.38-1.25,2.4-1.17,5.2-1.84,7.77.12-.09.24-.18.36-.28-2.11-.24-4.29.16-6.35-.48.09.16.18.31.26.47.45-2.64,1.65-5.09,1.82-7.78-.13.13-.25.25-.38.38,1.32.11,2.64.1,3.95.03.34-.02.68-.04,1.02-.07.1,0,.85,0,.69-.18.17.2.35.41.52.61.32.37.85-.16.53-.53Z"/>
          </g>
          <g>
            <path class="cls-5" d="M71.52,21.82c1.9.63,4.2,1.4,5.78,2.08l.5.32c.54-1.62,1.99-4.6,2.8-6.59-2.48-.23-5.01-.77-7.54-1.31-.18,1.9-.95,3.75-1.54,5.51Z"/>
            <path class="cls-6" d="M71.42,22.19c1.21.4,2.41.81,3.61,1.23.89.32,1.78.61,2.58,1.12.22.14.48,0,.56-.23.77-2.26,1.89-4.39,2.8-6.59.1-.25-.15-.46-.36-.48-2.51-.24-4.98-.77-7.44-1.3-.26-.06-.45.11-.48.36-.21,1.88-.92,3.63-1.52,5.41-.16.46.57.66.73.2.62-1.85,1.33-3.66,1.55-5.61-.16.12-.32.24-.48.36,2.53.54,5.06,1.08,7.64,1.32-.12-.16-.24-.32-.36-.48-.91,2.2-2.03,4.33-2.8,6.59.19-.08.37-.15.56-.23-.78-.5-1.65-.79-2.52-1.11-1.27-.47-2.56-.89-3.84-1.32-.46-.16-.66.58-.2.73Z"/>
          </g>
          <g>
            <path class="cls-5" d="M80.82,1.15c-.45,1.81-1.08,3.7-1.9,5.24,1.58.68,5.1,3.21,5.73,2.66l-.05.59c1.13-2.03,2.3-4.2,3.34-6.41-2.17.63-4.97-1.35-7.13-2.08Z"/>
            <path class="cls-6" d="M80.46,1.05c-.45,1.77-1.02,3.52-1.86,5.15-.09.17-.06.43.14.52,1.2.53,2.31,1.28,3.46,1.92.61.34,1.93,1.23,2.65.74-.19-.11-.38-.22-.57-.33-.02.2-.03.39-.05.59-.03.38.53.51.7.19,1.17-2.11,2.31-4.23,3.34-6.41.14-.29-.09-.64-.43-.56-2.36.6-4.8-1.34-6.93-2.08-.46-.16-.66.57-.2.73,2.31.8,4.76,2.73,7.33,2.08-.14-.18-.29-.37-.43-.56-1.03,2.18-2.17,4.3-3.34,6.41.23.06.47.13.7.19.02-.2.03-.39.05-.59.02-.28-.34-.48-.57-.33-.19.12-.68-.14-.85-.21-.53-.23-1.03-.52-1.52-.8-.98-.56-1.94-1.19-2.98-1.65.05.17.09.34.14.52.87-1.68,1.47-3.49,1.93-5.33.12-.47-.61-.67-.73-.2Z"/>
          </g>
        </g>
        <g>
          <path class="cls-4" d="M26.36,169.9c11.56,4.15,22.48,6.59,34.04,8.94h0c-3.52,11.47-7.58,7.4-17.61,4.97-7.31-1.53-13.63-2.44-20.5-6.23.63-2.8,2.26-6.77,4.06-7.67h0Z"/>
          <path class="cls-1" d="M26.26,170.26c11.07,3.97,22.53,6.6,34.04,8.94-.09-.16-.18-.31-.26-.47-.74,2.38-1.68,5.47-3.97,6.85-1.7,1.03-3.87.49-5.66.01-2.96-.79-5.84-1.82-8.84-2.43-4.21-.86-8.44-1.65-12.51-3.02-2.27-.77-4.46-1.74-6.57-2.89.06.14.12.28.17.43.34-1.47.82-2.9,1.46-4.26.54-1.16,1.26-2.56,2.43-3.19.43-.23.05-.89-.38-.65-1.18.64-1.92,1.91-2.51,3.07-.78,1.52-1.34,3.17-1.73,4.84-.04.16.02.34.17.43,3.82,2.09,7.91,3.49,12.14,4.49,3.87.92,7.8,1.51,11.61,2.64,3.69,1.09,8.83,3.57,11.96.06,1.51-1.7,2.29-4.02,2.94-6.15.06-.19-.07-.42-.26-.47-11.51-2.34-22.96-4.97-34.04-8.94-.46-.17-.66.57-.2.73h0Z"/>
        </g>
        <path class="cls-1" d="M93.46,50.98c-7.16,17.33-13.38,35.03-19.31,52.8-5.97,17.89-11.64,35.87-17.58,53.77-1.36,4.1-2.61,8.22-3.92,12.34-1.18,3.72-2.31,7.56-4.03,11.07-.21.44.44.82.65.38,1.39-2.83,2.36-5.86,3.34-8.85,1.17-3.59,2.26-7.2,3.4-10.8,2.7-8.53,5.59-17,8.35-25.51,5.85-18.05,11.66-36.11,18.01-53.99,3.7-10.43,7.6-20.79,11.83-31.02.19-.45-.55-.65-.73-.2h0Z"/>
        <path class="cls-1" d="M88.04,49.62c-7.16,18.1-14.52,36.12-21.64,54.24-7.15,18.2-14.03,36.51-20.22,55.05-2.14,6.42-2.6,13.61-6.06,19.55-.25.42.41.8.65.38,1.93-3.31,2.88-7.11,3.79-10.8.48-1.96.93-3.93,1.44-5.88.55-2.08,1.25-4.1,1.94-6.13,3.14-9.28,6.44-18.51,9.87-27.68,6.8-18.24,14.06-36.31,21.31-54.38,3.23-8.05,6.46-16.09,9.65-24.16.18-.45-.55-.65-.73-.2h0Z"/>
        <path class="cls-1" d="M91.7,50.84c-7.16,18.1-14.52,36.12-21.64,54.24-7.15,18.2-14.03,36.51-20.22,55.05-2.14,6.42-2.6,13.61-6.06,19.55-.25.42.41.8.65.38,1.93-3.31,2.88-7.11,3.79-10.8.48-1.96.93-3.93,1.44-5.88.55-2.08,1.25-4.1,1.93-6.13,3.14-9.28,6.44-18.51,9.87-27.68,6.8-18.24,14.06-36.31,21.31-54.38,3.23-8.05,6.46-16.09,9.65-24.16.18-.45-.55-.65-.73-.2h0Z"/>
        <path class="cls-1" d="M83.57,48.13c-7.02,18.25-13.6,36.65-20.14,55.07-3.31,9.31-6.6,18.63-9.93,27.93-3.28,9.15-6.5,18.34-10.03,27.4-2.42,6.21-4.54,12.55-7.41,18.58-.21.44.44.82.65.38,1.85-3.88,3.38-7.9,4.89-11.91,1.57-4.17,3.2-8.33,4.74-12.51,3.42-9.27,6.76-18.58,10.08-27.89,6.61-18.54,13.11-37.12,19.89-55.59,2.61-7.11,5.26-14.2,7.98-21.26.18-.46-.56-.65-.73-.2h0Z"/>
      </g>
    </g>
  </g>
</svg>