<?xml version="1.0" encoding="UTF-8"?>
<svg id="Layer_2" data-name="Layer 2" xmlns="http://www.w3.org/2000/svg" width="118.94" height="108.06" viewBox="0 0 118.94 108.06">
  <defs>
    <style>
      .cls-1 {
        fill: #fabb49;
      }

      .cls-2 {
        fill: #fff;
      }

      .cls-3 {
        fill: #616262;
      }

      .cls-4 {
        fill: #231f20;
      }

      .cls-5 {
        fill: #f9ec44;
      }

      .cls-6 {
        fill: #b5b5b5;
      }

      .cls-7 {
        fill: #dcd37a;
      }
    </style>
  </defs>
  <g id="Layer_1-2" data-name="Layer 1">
    <g>
      <g>
        <g>
          <path class="cls-1" d="M111.92,38.97c2.49,2.28.62,8.94.5,12.06-.19,4.8-.04,9.61-.22,14.4-.42,10.74-1.59,21.85-10.63,28.72-8.67,6.49-20.32,7.97-30.47,8.7-10.9,1.11-21.8,1.45-32.31-.12-10.51-1.96-22.52-5.46-29.25-14.3-7.1-9.23-6.68-22.27-5.88-33.01,1.17-10.35,2.72-23.38,11.01-30.26,8.67-7.64,22.2-7.58,33.09-7.54,21.41.47,39.81,4.37,58.55,14.8,2.25.78,4.12,1.93,6,3.09-.75,0-1.13,0-1.88,0l1.49,3.46Z"/>
          <path class="cls-4" d="M111.65,39.24c1.05,1.01,1.17,2.61,1.17,3.99.01,1.66-.24,3.32-.47,4.96-.58,4.12-.41,8.3-.44,12.44-.05,7.75-.23,15.97-3.12,23.28-6.51,16.42-26.78,17.71-41.85,18.95-4.92.41-9.85.62-14.79.55-4.77-.07-9.64-.34-14.33-1.24-7.4-1.43-14.9-3.54-21.24-7.73-3.21-2.12-5.98-4.86-8.05-8.11-2.1-3.31-3.34-7.08-4.07-10.91-1.41-7.46-.99-15.36-.09-22.86.86-7.2,2.01-14.71,5.62-21.1,3.77-6.66,10.49-10.42,17.79-12.04,3.79-.84,7.68-1.16,11.55-1.31,3.88-.14,7.78-.13,11.66.02,8.61.33,17.2,1.31,25.6,3.24,6.07,1.39,12.02,3.31,17.77,5.7,3.03,1.26,6,2.67,8.91,4.19.72.37,1.43.76,2.13,1.14.8.43,1.63.72,2.46,1.09,1.48.67,2.87,1.53,4.26,2.39.06-.23.13-.47.19-.71-.63,0-1.25,0-1.88,0-.49,0-.49.76,0,.76.63,0,1.25,0,1.88,0,.38,0,.51-.51.19-.71-1.8-1.11-3.6-2.18-5.58-2.94-1.05-.41-2.03-1.03-3.03-1.56-1.02-.54-2.05-1.05-3.08-1.56-3.81-1.87-7.73-3.51-11.72-4.94-7.87-2.81-16.05-4.64-24.33-5.72-8.2-1.07-16.49-1.4-24.75-1.16-7.41.22-15.18,1.08-21.73,4.82-3.03,1.73-5.7,4.13-7.71,6.98-2.03,2.88-3.38,6.21-4.38,9.57-1.05,3.52-1.68,7.15-2.18,10.78-.49,3.54-.85,7.08-1.02,10.65-.37,7.59-.16,15.59,2.87,22.68,1.49,3.49,3.65,6.6,6.42,9.2,2.7,2.53,5.9,4.48,9.24,6.03,7.09,3.28,15.01,5.03,22.75,5.73,4.87.44,9.78.5,14.66.34,4.76-.16,9.5-.63,14.25-1.02,7.91-.65,15.97-1.85,23.18-5.33,3.5-1.69,6.75-3.95,9.25-6.95,2.27-2.73,3.81-5.97,4.83-9.35,2.25-7.44,2.21-15.52,2.23-23.22,0-2.4.02-4.8.11-7.2.05-1.43.33-2.85.51-4.27.32-2.47.9-6.11-1.12-8.06-.35-.34-.88.2-.53.54h0Z"/>
        </g>
        <g>
          <path class="cls-5" d="M16.81,89.16c-5.79-3.56-9.31-9.32-12.71-15.21-.36-.49-1.1-.98-1.59-.5-1.11,1.34-1.6,3.05-1.12,4.65,2.72,9.49,10.46,16.46,18.97,21.07,1.7.92,3.43,1.75,5.16,2.49,3.59,1.35,7.29,2.49,11.04,3.42,1.88.47,3.77.88,5.67,1.22,19.25,2.51,40.42,2.47,57.49-7.71,1.64-1.09,3.22-2.27,4.73-3.56,1.51-1.28,2.96-2.67,4.33-4.15,2.09-2.2,3.2-5.25,2.72-8.43-.24-1.59-1.95-.99-2.69-.26-3.03,2.8-6.23,5.35-9.61,7.56-1.69,1.11-3.42,2.13-5.21,3.05-15.84,7.39-34.44,7.93-51.55,5.54-1.84-.32-3.68-.7-5.51-1.13-3.65-.86-7.24-1.93-10.74-3.21-1.22-.52-2.41-1.09-3.57-1.66-2.04-1-3.99-2.05-5.82-3.18Z"/>
          <path class="cls-4" d="M17,88.84c-3.55-2.21-6.33-5.34-8.69-8.77-1.17-1.7-2.23-3.46-3.27-5.23-.43-.74-.77-1.51-1.6-1.86-.81-.34-1.3.29-1.7.89-1.11,1.65-1.03,3.42-.45,5.23.57,1.78,1.34,3.49,2.25,5.11,1.83,3.28,4.32,6.17,7.11,8.68,2.82,2.54,5.99,4.68,9.31,6.5,4.16,2.29,8.58,3.85,13.14,5.16,2.33.66,4.68,1.24,7.04,1.73,2.09.44,4.21.68,6.33.91,4.22.46,8.45.75,12.7.84,8.41.18,16.9-.5,25.05-2.63,4.02-1.05,7.93-2.48,11.67-4.3,4.03-1.96,7.6-4.54,10.85-7.61,1.51-1.42,3.04-2.9,4.04-4.73.92-1.69,1.31-3.64,1.19-5.56-.08-1.34-.63-2.44-2.14-2.03-.59.16-1.05.54-1.49.95-.89.82-1.81,1.62-2.74,2.4-3.64,3.06-7.58,5.77-11.8,7.95-1.98,1.03-4.15,1.79-6.25,2.52-2.07.72-4.18,1.32-6.31,1.84-8.64,2.12-17.61,2.67-26.48,2.28-4.46-.19-8.99-.53-13.38-1.34-4.75-.89-9.44-2.15-14.01-3.74-3.62-1.26-7.11-3.2-10.38-5.19-.42-.26-.8.4-.38.65,3.93,2.4,8.08,4.47,12.46,5.91,4.55,1.49,9.29,2.78,14.04,3.42,8.68,1.17,17.5,1.55,26.23.74,4.33-.4,8.64-1.12,12.85-2.18,4.15-1.05,8.41-2.4,12.23-4.38,4.11-2.13,7.93-4.81,11.49-7.76.86-.72,1.71-1.45,2.54-2.2.59-.54,1.16-1.18,2.02-1.21.94-.03.76,1.77.75,2.37-.02,1.1-.27,2.17-.65,3.2-.78,2.09-2.42,3.67-3.98,5.19-1.7,1.66-3.53,3.18-5.45,4.57-3.49,2.54-7.55,4.35-11.6,5.81-8,2.9-16.53,4.08-25.02,4.31-4.26.11-8.52-.04-12.76-.35-4.41-.33-8.82-.76-13.13-1.73-4.71-1.06-9.55-2.34-13.97-4.3-3.78-1.68-7.4-3.76-10.71-6.25-3-2.25-5.72-4.91-7.92-7.94-1.07-1.47-2-3.05-2.78-4.69-.78-1.63-1.76-3.68-1.66-5.52.04-.73.86-3.45,1.94-2.59.38.31.61.9.86,1.32.25.43.5.86.76,1.28,1.01,1.69,2.06,3.35,3.21,4.95,2.26,3.15,4.95,5.98,8.26,8.04.41.26.79-.4.38-.66Z"/>
        </g>
        <g>
          <path class="cls-6" d="M51.36,73.59c.15-2.22,0-6.37,2.25-7.64,3.72-2.11,2.73,4.69,2.7,6.41-.08,4.36-.65,8.7-1.33,13-.38,3.67-.95,7.16-.96,10.64,0,1.84-.02,4.96-1.67,5.87-4.23,2.37-2.35-9.92-2.34-11.39.39-5.69.96-11.19,1.35-16.88Z"/>
          <path class="cls-4" d="M51.74,73.59c.14-2.24-.18-7.3,2.99-7.66,1.86-.21,1.33,4.3,1.26,5.31-.11,1.66-.12,3.32-.25,4.98-.19,2.53-.52,5.06-.9,7.57-.67,4.45-1.09,8.91-1.22,13.4-.04,1.41-.11,3.53-1.47,4.35-.64.38-1.21.31-1.58-.34-.45-.79-.51-1.83-.57-2.71-.08-1.15-.04-2.31.02-3.47.37-6.85,1.15-13.68,1.65-20.53.02-.3.04-.6.06-.9.03-.49-.72-.48-.76,0-.48,7.01-1.23,14-1.69,21.01-.13,2.07-.3,4.39.37,6.38.22.65.6,1.26,1.28,1.5.8.28,1.76-.28,2.27-.85.95-1.06,1.08-2.72,1.16-4.07.11-2.04.1-4.07.3-6.1.48-4.9,1.36-9.75,1.78-14.65.16-1.78.17-3.56.28-5.34.07-1.09.13-2.19.05-3.28-.06-.89-.22-1.92-.87-2.58-.7-.71-1.74-.39-2.5.03-2.58,1.41-2.28,5.5-2.44,7.97-.03.49.73.48.76,0Z"/>
        </g>
        <g>
          <path class="cls-6" d="M73.23,64.86c-.18,0-.18-.18-.37-.18-1.31,6.42-1.15,13.03-1.73,19.63-.38,4.04-.95,8.07-1.15,12.11,0,1.28-.57,5.32,1.26,5.88,4.95,1.49,4.32-24.58,4.33-27.52,0-2.2,1.51-9.72-2.35-9.55v-.37Z"/>
          <path class="cls-4" d="M73.33,64.49c-.12-.04-.23-.14-.37-.18-.18-.07-.43.07-.47.26-.95,4.75-1.15,9.59-1.39,14.41-.25,4.95-.9,9.84-1.32,14.77-.14,1.61-.24,3.24-.26,4.85-.02,1.2.04,2.58.84,3.55.93,1.13,2.33.44,2.99-.53.93-1.37,1.26-3.2,1.54-4.8.42-2.34.63-4.72.78-7.09.29-4.4.33-8.81.29-13.22-.01-1.86.17-3.68.26-5.54.11-2.18.09-6.19-2.99-6.13-.49.01-.49.77,0,.76,2.62-.05,2.32,3.96,2.22,5.68-.08,1.57-.26,3.11-.24,4.68.03,4.23,0,8.47-.22,12.7-.13,2.45-.33,4.9-.71,7.32-.27,1.7-.58,3.57-1.46,5.07-.23.4-.55.8-1.02.91-1.04.24-1.37-1.28-1.45-2-.15-1.27-.02-2.57.04-3.84.13-2.47.4-4.93.67-7.38.43-3.94.72-7.86.92-11.82.21-4.07.46-8.15,1.26-12.15-.16.09-.31.18-.47.26.12.04.23.14.37.18.46.16.66-.57.2-.73h0Z"/>
        </g>
        <g>
          <path class="cls-6" d="M32.47,62.75c-.18,0-.18-.18-.37-.18-1.31,6.42-1.15,13.03-1.73,19.63-.38,4.04-.95,8.07-1.15,12.11,0,1.28-.57,5.32,1.26,5.88,4.95,1.49,4.32-24.58,4.33-27.52,0-2.2,1.51-9.72-2.35-9.55v-.37Z"/>
          <path class="cls-4" d="M32.58,62.39c-.12-.04-.23-.14-.37-.18-.18-.07-.43.07-.47.26-.95,4.75-1.15,9.59-1.39,14.41-.25,4.95-.9,9.84-1.32,14.77-.14,1.61-.24,3.24-.26,4.85-.02,1.2.04,2.58.84,3.55.93,1.13,2.33.44,2.99-.53.93-1.37,1.26-3.2,1.54-4.8.42-2.34.63-4.72.78-7.09.29-4.4.33-8.81.29-13.22-.01-1.86.17-3.68.26-5.54.11-2.18.09-6.19-2.99-6.13-.49.01-.49.77,0,.76,2.62-.05,2.32,3.96,2.22,5.68-.08,1.57-.26,3.11-.24,4.68.03,4.23,0,8.47-.22,12.7-.13,2.45-.33,4.9-.71,7.32-.27,1.7-.58,3.57-1.46,5.07-.23.4-.55.8-1.02.91-1.04.24-1.37-1.28-1.45-2-.15-1.27-.02-2.57.04-3.84.13-2.47.4-4.93.67-7.38.43-3.94.72-7.86.92-11.82.21-4.07.46-8.15,1.26-12.15-.16.09-.31.18-.47.26.12.04.23.14.37.18.46.16.66-.57.2-.73h0Z"/>
        </g>
        <g>
          <path class="cls-6" d="M14.9,53.58c-.18,0-.18-.18-.37-.18-1.31,6.42-1.15,13.03-1.73,19.63-.38,4.04-.95,8.07-1.15,12.11,0,1.28-.57,5.32,1.26,5.88,4.95,1.49,4.32-24.58,4.33-27.52,0-2.2,1.51-9.72-2.35-9.55v-.37Z"/>
          <path class="cls-4" d="M15,53.22c-.12-.04-.23-.14-.37-.18-.18-.07-.43.07-.47.26-.95,4.75-1.15,9.59-1.39,14.41-.25,4.95-.9,9.84-1.32,14.77-.14,1.61-.24,3.24-.26,4.85-.02,1.2.04,2.58.83,3.55.93,1.13,2.33.44,2.99-.53.93-1.37,1.26-3.2,1.54-4.8.42-2.34.63-4.72.78-7.09.29-4.4.33-8.81.29-13.22-.01-1.86.17-3.68.26-5.54.11-2.18.09-6.19-2.99-6.13-.49.01-.49.77,0,.76,2.62-.05,2.32,3.96,2.22,5.68-.08,1.57-.26,3.11-.24,4.68.03,4.23,0,8.47-.22,12.7-.13,2.45-.33,4.9-.71,7.32-.27,1.7-.58,3.57-1.46,5.07-.23.4-.55.8-1.02.91-1.05.24-1.37-1.28-1.45-2-.15-1.27-.02-2.57.04-3.84.13-2.47.4-4.93.67-7.38.43-3.94.72-7.86.92-11.82.21-4.07.46-8.15,1.26-12.15-.16.09-.31.18-.47.26.12.04.23.14.37.18.46.16.66-.57.2-.73h0Z"/>
        </g>
        <g>
          <path class="cls-6" d="M3.71,39.24c-.18,0-.18-.18-.37-.18-1.31,6.42-1.15,13.03-1.73,19.63-.38,4.04-.95,8.07-1.15,12.11,0,1.28-.57,5.32,1.26,5.88,4.95,1.49,4.32-24.58,4.33-27.52,0-2.2,1.51-9.72-2.35-9.55v-.37Z"/>
          <path class="cls-4" d="M3.81,38.87c-.12-.04-.23-.14-.37-.18-.18-.07-.43.07-.46.26-.95,4.75-1.15,9.59-1.39,14.41-.25,4.95-.9,9.84-1.32,14.77-.14,1.61-.24,3.24-.26,4.85-.02,1.2.04,2.58.83,3.55.93,1.13,2.33.44,2.99-.53.93-1.37,1.26-3.2,1.54-4.8.42-2.34.63-4.72.79-7.09.29-4.4.33-8.81.29-13.22-.01-1.86.17-3.68.26-5.54.11-2.18.09-6.19-2.99-6.13-.49.01-.49.77,0,.76,2.62-.05,2.32,3.96,2.22,5.68-.08,1.57-.26,3.11-.24,4.68.04,4.23,0,8.47-.22,12.7-.13,2.45-.33,4.9-.71,7.32-.27,1.7-.58,3.57-1.46,5.07-.23.4-.55.8-1.02.91-1.05.24-1.37-1.28-1.45-2-.15-1.27-.02-2.57.04-3.84.13-2.47.4-4.93.67-7.39.43-3.94.72-7.86.92-11.82.21-4.07.46-8.15,1.26-12.15-.15.09-.31.18-.46.26.12.04.23.14.37.18.46.16.66-.57.2-.73h0Z"/>
        </g>
        <g>
          <path class="cls-6" d="M94.99,86.97c-.01,2.68.07,5.55-.88,8.1-.35.94-1.05,2.82-2.41,1.99-1.23-.76-.31-3.24-.29-4.34.03-2.34-.22-4.71-.09-7.05.2-3.49.58-7.16.41-10.65.01-3.3-.53-6.61-.15-9.91,0-1.28.57-5.14,2.77-4.03,2.02.93,1.45,5.51,1.44,7.35-.38,3.49-1.13,6.79-1.14,10.28-.01,2.75.35,5.51.34,8.26Z"/>
          <path class="cls-4" d="M94.61,86.97c0,2.33.03,4.68-.54,6.96-.2.78-.47,1.57-.88,2.27-.52.91-1.51.84-1.73-.23-.15-.73.08-1.56.2-2.27.16-.91.12-1.81.1-2.73-.07-2.45-.11-4.84.06-7.29.16-2.41.34-4.81.32-7.22-.02-2.42-.19-4.84-.29-7.26-.04-.93-.38-9.02,2.3-7.78,1.35.63,1.32,2.85,1.33,4.09.02,1.92-.17,3.8-.44,5.7-.36,2.49-.75,4.98-.78,7.51-.03,2.76.33,5.5.34,8.26,0,.49.76.49.76,0,0-2.46-.27-4.91-.33-7.38-.06-2.47.26-4.9.61-7.34.26-1.79.5-3.56.57-5.36.05-1.42.08-2.88-.3-4.26-.31-1.1-1.06-2.01-2.25-2.12-1.12-.1-1.74,1.14-2.04,2.01-.44,1.28-.47,2.72-.53,4.05-.12,2.43.16,4.86.24,7.29.12,3.77-.12,7.49-.36,11.24-.12,1.96-.03,3.9.04,5.86.03.78.08,1.59-.04,2.36-.09.57-.2,1.13-.26,1.7-.1.97.06,1.97.97,2.46.97.52,1.79-.26,2.25-1.05,1.6-2.79,1.42-6.37,1.43-9.46,0-.49-.75-.49-.75,0Z"/>
        </g>
        <g>
          <path class="cls-6" d="M112.59,82.01c-1.98,3.93-2.9-.73-2.62-2.74.28-2.02-.33-4.07-.46-6.09-.17-3.3.03-6.42.22-9.73.01-3.3-.52-6.79-.15-10.1.19-1.1.76-6.05,2.96-5.31,1.83.56,1.45,5.88,1.44,7.35.16,6.24-.6,12.48-.26,18.54,0,2.75.35,5.51-1.13,8.07Z"/>
          <path class="cls-4" d="M112.27,81.82c-.14.27-.72,1.55-1.18,1.31-.43-.22-.55-1.07-.64-1.48-.34-1.61.05-3.24-.11-4.86-.11-1.11-.33-2.21-.43-3.32-.12-1.27-.1-2.56-.08-3.83.03-2.44.33-4.88.27-7.32-.09-3.76-.59-7.48.29-11.18.2-.83.6-2.71,1.7-2.79,1.23-.09,1.4,2.05,1.48,2.86.15,1.49.02,2.99.05,4.48.07,2.97-.08,5.93-.2,8.89-.12,2.92-.22,5.85-.09,8.77.12,2.82.36,5.91-1.05,8.46-.24.43.42.81.65.38,1.05-1.91,1.23-3.99,1.21-6.14-.02-2.36-.14-4.71-.1-7.07.04-2.46.17-4.91.26-7.36.08-2.2.03-4.4.08-6.6.03-1.27.06-2.54-.05-3.81-.09-1.07-.26-2.38-1.07-3.17-.69-.69-1.75-.5-2.38.15-.79.82-1.09,2.12-1.32,3.19-.64,2.95-.47,5.93-.3,8.92.23,4.1-.29,8.18-.14,12.29.07,1.97.59,3.89.56,5.86-.02,1.17-.16,2.23.06,3.41.13.68.4,1.75,1.15,2.01,1,.35,1.69-.97,2.05-1.66.23-.43-.43-.81-.65-.38Z"/>
        </g>
        <g>
          <path class="cls-5" d="M11.66,17.64c3.81-2.75,8.22-4.45,12.61-5.78,1.48-.43,2.99-.81,4.5-1.15,3.03-.68,6.09-1.21,9.11-1.72,1.78-.29,3.56-.56,5.33-.83,2.43-.29,4.86-.5,7.3-.64,2.12-.11,4.24-.15,6.36-.12,2.13.03,4.26.11,6.39.27,12.69.1,25.03,4.68,36.13,10.68,1.68,1.01,3.28,2.11,4.78,3.31,4.48,3.61,7.95,8.16,9.48,14.04,3.38,12.86-7.66,22.86-19.23,26.58-1.65.53-3.32.93-4.95,1.2-16.57,3.51-33.83,4.18-50.74,2.35-1.99-.29-3.95-.66-5.89-1.12-9.67-2.28-18.58-6.74-25.59-14.98C-1.16,39.79,1.48,23.52,12.51,17.04l-.85.6Z"/>
          <path class="cls-4" d="M11.85,17.97c7.63-5.46,17.36-7.2,26.43-8.65,4.93-.79,9.84-1.37,14.83-1.51,2.42-.06,4.83-.03,7.25.07,2.32.1,4.65.17,6.97.35,9.16.73,18.04,3.71,26.31,7.62,4.12,1.95,8.07,4.1,11.51,7.13,2.93,2.58,5.34,5.7,6.92,9.28,1.56,3.51,2.24,7.41,1.54,11.21-.63,3.42-2.37,6.54-4.63,9.16-2.35,2.72-5.29,4.9-8.43,6.62-1.61.88-3.29,1.63-5.01,2.26-2.11.77-4.26,1.21-6.45,1.67-9.56,2.02-19.32,3.05-29.09,3.24-4.86.09-9.73-.04-14.59-.37-4.77-.32-9.45-.89-14.08-2.1-7.78-2.04-15.05-5.75-20.88-11.35-2.66-2.55-4.96-5.38-6.31-8.84-1.18-3.01-1.62-6.27-1.42-9.49.42-6.83,4.05-13.38,9.98-16.91.42-.25.04-.9-.38-.65C1.08,23.39-1.35,39.64,6.73,49.69c4.96,6.17,11.88,10.63,19.25,13.36,8.56,3.18,17.67,3.85,26.73,4.09,9.65.26,19.33-.35,28.87-1.83,2.39-.37,4.78-.8,7.15-1.29,2.24-.46,4.44-.9,6.61-1.65,3.35-1.16,6.55-2.81,9.42-4.9,5.45-3.96,9.72-9.84,9.9-16.78.19-7.65-4.48-14.65-10.21-19.3-3.52-2.86-7.55-4.89-11.66-6.78-4.07-1.88-8.27-3.48-12.58-4.73-4.29-1.24-8.69-2.08-13.14-2.43-2.32-.18-4.66-.24-6.99-.35-2.41-.1-4.83-.12-7.25-.05-7.36.2-14.66,1.37-21.87,2.81-6.79,1.36-13.78,3.37-19.48,7.45-.39.29-.02.94.38.66h0Z"/>
        </g>
        <g>
          <path class="cls-2" d="M17.68,20.47c3.31-2.4,7.16-3.88,10.98-5.03,1.29-.37,2.6-.7,3.92-1,2.63-.59,5.3-1.05,7.93-1.5,1.55-.25,3.1-.48,4.64-.72,2.11-.26,4.23-.44,6.35-.55,1.84-.09,3.69-.13,5.54-.11,1.85.02,3.71.1,5.56.23,11.05.09,21.8,4.08,31.46,9.3,1.46.88,2.86,1.84,4.16,2.88,3.9,3.15,6.92,7.1,8.26,12.22,2.94,11.2-6.67,19.91-16.74,23.14-1.44.46-2.89.81-4.31,1.05-14.43,3.06-29.46,3.64-44.19,2.04-1.73-.26-3.44-.58-5.12-.97-8.42-1.99-16.18-5.87-22.28-13.04-7.32-8.66-5.03-22.82,4.58-28.47l-.74.53Z"/>
          <path class="cls-4" d="M17.87,20.8c7.69-5.5,17.71-6.72,26.8-8.12,4.84-.75,9.83-.86,14.71-.68,4.67.17,9.29.42,13.86,1.41,4.49.97,8.85,2.49,13.07,4.31,4.23,1.83,8.44,3.87,12.01,6.82,5.84,4.82,10.03,12.68,7.58,20.31-2.2,6.86-8.95,11.54-15.46,13.85-2.13.76-4.33,1.16-6.53,1.61-2.36.48-4.74.88-7.13,1.22-4.85.7-9.74,1.11-14.64,1.29-4.84.17-9.69.09-14.53-.22-4.72-.3-9.34-.87-13.9-2.17-7.7-2.2-14.95-6.44-19.99-12.76-6.67-8.36-4.32-21.93,4.88-27.41.42-.25.04-.9-.38-.65-5.47,3.26-8.66,9.24-9.05,15.52-.19,3.13.39,6.29,1.64,9.16,1.46,3.35,4.06,6.09,6.79,8.47,6.06,5.3,13.68,8.28,21.53,9.71,4.68.85,9.54,1.03,14.29,1.16,4.84.13,9.69,0,14.52-.36,4.76-.36,9.49-.98,14.18-1.84,4.14-.76,8.17-1.6,11.98-3.43,6.05-2.91,11.71-8.06,13.03-14.9,1.45-7.51-3.01-14.82-8.64-19.39-3.52-2.86-7.66-4.83-11.8-6.64-4.1-1.79-8.35-3.26-12.72-4.27-4.44-1.03-8.89-1.28-13.42-1.51-4.85-.25-9.71-.08-14.54.45-4.72.52-9.47,1.4-14.1,2.46-4.37,1-8.74,2.45-12.61,4.75-.62.37-1.22.77-1.82,1.2-.39.28-.02.94.38.65h0Z"/>
        </g>
      </g>
      <g>
        <path class="cls-3" d="M71.27,29.14c-4.8-1.98-9.03-2.82-14.11-2.82-3.95,0-16.94,0-17.78,5.93-.85,7.62,13.27,9.6,18.35,9.88,5.65.28,13.83,1.69,18.63-2.54,5.08-4.8-2.54-8.19-5.93-10.73l.85.28Z"/>
        <path class="cls-4" d="M71.46,28.44c-6.14-2.49-12.44-3.1-18.99-2.74-4.08.23-10.3.6-12.92,4.28-2.84,3.98,1,8.03,4.46,9.74,4.12,2.04,8.97,2.8,13.53,3.09,6.36.41,14.03,1.74,19.32-2.74,2.11-1.78,2.47-4.52.71-6.65-1.84-2.22-4.5-3.52-6.79-5.2-.75-.55-1.46.7-.73,1.24,2.19,1.61,4.89,2.85,6.56,5.07,2.36,3.13-1.95,5.71-4.51,6.54-3.27,1.06-6.89.83-10.27.6-2.43-.16-4.88-.28-7.3-.59-2.52-.32-5.03-.85-7.44-1.66-2.24-.74-4.69-1.85-6.13-3.8-1.35-1.82-1.18-4.14.51-5.64,1.81-1.59,4.6-2.08,6.89-2.45,7.59-1.22,15.57-.62,22.7,2.27.86.35,1.23-1.04.38-1.39h0Z"/>
      </g>
      <g>
        <g>
          <g>
            <path class="cls-7" d="M89.58,6.46c.17,1.55.93,3.09,1.64,4.44,2.19,4.84,4.97,9.67,7.34,14.45,2.87,5.6,5.03,11.46,7.43,17.44,1.31,3.55,3.09,6.73,4.4,10.28h0c-.53.2-1.18.64-1.71.83-2.55-3.09-3.77-7.49-5.43-10.91-1.68-4.02-4.01-7.6-5.98-11.31-3.33-6.84-6.71-13.27-9.15-20.44-.46-1.24-1.95-3.11-.73-4.17.65-.44,2.38-.67,2.73-.8l-.53.2Z"/>
            <path class="cls-4" d="M89.21,6.56c.24,1.84,1.15,3.4,1.91,5.05.88,1.93,1.85,3.82,2.83,5.7,1.97,3.79,4.02,7.53,5.82,11.41,1.86,4,3.44,8.11,5.07,12.21.78,1.97,1.54,3.93,2.41,5.86.95,2.11,1.96,4.21,2.77,6.38.06-.15.12-.29.18-.43-.59.24-1.12.59-1.71.83.16.02.31.04.46.06-1.48-1.83-2.46-3.99-3.37-6.15-.89-2.11-1.76-4.23-2.72-6.3-1.03-2.2-2.25-4.31-3.45-6.42-1.2-2.11-2.3-4.26-3.37-6.44-2.16-4.39-4.32-8.78-6.13-13.33-.73-1.82-1.32-3.68-2.17-5.44-.29-.61-.7-1.48-.2-2.08.45-.54,1.73-.6,2.37-.74.1-.02.2-.05.3-.08.47-.15.28-.9-.2-.75-1.08.34-2.92.28-3.38,1.58-.44,1.27.52,2.58,1.02,3.68.47,1.03.77,2.16,1.18,3.21.43,1.11.88,2.22,1.35,3.32.94,2.22,1.96,4.4,3.01,6.57,1.05,2.19,2.14,4.37,3.21,6.55,1.06,2.17,2.29,4.24,3.48,6.35,1.19,2.12,2.21,4.29,3.24,6.49.97,2.05,1.72,4.2,2.68,6.26.71,1.52,1.54,2.97,2.6,4.27.12.14.32.12.46.06.59-.24,1.12-.59,1.71-.83.15-.06.24-.29.18-.43-.73-1.96-1.61-3.86-2.48-5.77-.93-2.04-1.76-4.11-2.59-6.2-1.58-3.98-3.13-7.97-4.89-11.87-1.76-3.89-3.8-7.65-5.79-11.43-.99-1.88-1.96-3.77-2.87-5.69-.86-1.82-1.94-3.62-2.2-5.65-.07-.49-.81-.29-.75.2h0Z"/>
          </g>
          <g>
            <path class="cls-7" d="M86.05,8.37c5.06,1.8,6.79-6.13,2.39-7.74-4.67-1.71-7.95,6.36-2.39,7.74Z"/>
            <path class="cls-4" d="M85.95,8.74c2.52.84,4.74-.61,5.28-3.16.53-2.48-.85-5.07-3.44-5.53-2.28-.4-4.2,1.38-4.84,3.44-.75,2.42.61,4.61,3,5.24.48.13.68-.62.2-.75-1.98-.53-2.98-2.17-2.48-4.17.44-1.74,2.05-3.27,3.93-3.02,2.16.29,3.22,2.43,2.92,4.44-.34,2.23-2.21,3.47-4.37,2.75-.47-.16-.67.59-.2.75Z"/>
          </g>
        </g>
        <g>
          <path class="cls-7" d="M80.17,11.78c.8,1.34,2.14,2.41,3.34,3.35,4.01,3.48,8.56,6.7,12.71,10.05,4.95,3.89,9.36,8.31,14.04,12.73,2.67,2.68,5.62,4.83,8.29,7.51h0c-.4.4-.8,1.07-1.21,1.47-3.61-1.74-6.55-5.23-9.5-7.64-3.21-2.95-6.82-5.23-10.17-7.78-5.89-4.83-11.64-9.25-16.85-14.74-.94-.94-3.08-2.01-2.41-3.48.4-.67,1.88-1.6,2.14-1.87l-.4.4Z"/>
          <path class="cls-4" d="M79.83,11.98c1.04,1.65,2.61,2.76,4.07,4,1.64,1.4,3.34,2.73,5.05,4.06,3.44,2.66,6.92,5.26,10.22,8.09,3.27,2.81,6.36,5.83,9.48,8.8,1.58,1.51,3.16,3.01,4.81,4.44,1.63,1.41,3.28,2.8,4.81,4.33,0-.18,0-.36,0-.55-.43.47-.77,1.01-1.21,1.47.16-.02.31-.04.46-.06-2.07-1.02-3.83-2.51-5.52-4.05-1.66-1.51-3.3-3.04-5-4.5-1.8-1.54-3.73-2.93-5.65-4.31-2.05-1.47-4.03-3-5.98-4.59-3.85-3.12-7.7-6.25-11.3-9.67-.87-.83-1.72-1.67-2.56-2.54-.59-.61-1.24-1.12-1.89-1.67-.52-.45-1.32-1.24-.75-1.95.49-.61,1.21-1.03,1.82-1.51.05-.04.1-.08.14-.12.37-.34-.18-.88-.55-.55-.9.82-2.53,1.48-2.37,2.92.16,1.36,1.74,2.13,2.63,2.98,1.8,1.73,3.52,3.52,5.38,5.19,1.84,1.65,3.74,3.24,5.65,4.8,1.93,1.59,3.89,3.16,5.83,4.75,1.81,1.48,3.8,2.76,5.68,4.14,1.96,1.44,3.82,3.01,5.63,4.62,1.67,1.49,3.25,3.08,5,4.48,1.07.85,2.2,1.62,3.43,2.23.15.08.34.07.46-.06.43-.47.77-1.01,1.21-1.47.14-.15.15-.39,0-.55-1.46-1.45-3.03-2.79-4.59-4.13-1.66-1.42-3.23-2.92-4.81-4.42-3.13-2.97-6.22-5.98-9.48-8.82-3.21-2.79-6.61-5.34-9.98-7.93-1.64-1.26-3.27-2.53-4.85-3.85-1.61-1.34-3.48-2.6-4.61-4.4-.26-.42-.93-.04-.67.38h0Z"/>
        </g>
        <g>
          <path class="cls-7" d="M77.75,14.99c5.35-.48,3.6-8.41-1.06-8.03-4.95.4-4.56,9.1,1.06,8.03Z"/>
          <path class="cls-4" d="M77.75,15.38c2.61-.28,4.04-2.35,3.59-4.9-.43-2.45-2.6-4.21-5.09-3.85-2.41.35-3.62,2.9-3.36,5.12.3,2.59,2.44,4.05,4.96,3.62.49-.08.29-.83-.2-.75-2.05.35-3.62-.8-3.98-2.83-.33-1.82.6-3.84,2.45-4.35,4.45-1.24,6.59,6.62,1.63,7.16-.49.05-.5.83,0,.77Z"/>
        </g>
      </g>
    </g>
  </g>
</svg>