<?xml version="1.0" encoding="UTF-8"?>
<svg id="Layer_2" data-name="Layer 2" xmlns="http://www.w3.org/2000/svg" width="112.04" height="150.05" viewBox="0 0 112.04 150.05">
  <defs>
    <style>
      .cls-1 {
        fill: #b19d63;
      }

      .cls-2 {
        fill: #81592f;
      }

      .cls-3 {
        fill: #232323;
      }

      .cls-4 {
        fill: #683c18;
      }

      .cls-5 {
        fill: #3a271f;
      }
    </style>
  </defs>
  <g id="Layer_1-2" data-name="Layer 1">
    <g>
      <g>
        <path class="cls-2" d="M79.43,71.61c13.72,2.61,27.12,10.45,31.04,24.5,1.63,5.88,2.61,12.74-3.92,16.01-8.82,4.25-13.07-7.84-16.01-14.05-4.57-8.49-11.76-16.01-13.39-25.81l2.29-.66Z"/>
        <path class="cls-5" d="M79.33,71.97c7.06,1.36,13.93,4.02,19.7,8.37,2.85,2.15,5.37,4.77,7.35,7.74,2.01,3.01,3.32,6.34,4.17,9.84.75,3.09,1.22,6.48.04,9.52-1.16,2.98-4.46,5.18-7.65,5.18-2.71,0-4.87-1.97-6.42-4-1.74-2.29-2.99-4.93-4.18-7.53-.9-1.96-1.79-3.86-2.9-5.72-1.5-2.5-3.15-4.91-4.74-7.35-3.19-4.9-6.19-10.03-7.19-15.87-.08-.48-.81-.28-.73.2,1.38,8.05,6.44,14.63,10.73,21.34,1.02,1.6,2.08,3.22,2.88,4.94.56,1.19,1.09,2.4,1.64,3.59,1.2,2.58,2.51,5.15,4.3,7.37,1.55,1.93,3.62,3.51,6.15,3.75,2.89.27,6.04-1.45,7.73-3.73,1.86-2.52,2.06-5.7,1.68-8.71-.43-3.34-1.41-6.67-2.85-9.72-5.39-11.37-17.62-17.68-29.49-19.96-.48-.09-.68.64-.2.73h0Z"/>
      </g>
      <g>
        <path class="cls-2" d="M39.41,74.13c-6.57-.3-13.13,4.18-17.91,8.06-5.97,5.07-11.94,11.94-11.04,20.29.6,6.27,5.07,10.45,11.64,8.36,8.65-2.98,15.82-12.53,17.91-21.49,1.49-5.37.3-10.74.6-16.11l-1.19.89Z"/>
        <path class="cls-5" d="M39.41,73.75c-4.21-.15-8.2,1.48-11.76,3.59-3.47,2.05-6.67,4.61-9.54,7.43-5.32,5.24-9.7,12.48-7.58,20.2.77,2.78,2.6,5.2,5.33,6.27,3.14,1.23,6.57.11,9.4-1.39,6.6-3.5,11.53-10.13,14.09-17.03,1.07-2.87,1.68-5.88,1.78-8.94.12-3.55-.34-7.09-.16-10.65.02-.49-.73-.48-.76,0-.25,4.86.66,9.75-.24,14.58-.72,3.87-2.29,7.57-4.35,10.9-2.07,3.35-4.75,6.37-7.93,8.71-2.83,2.09-6.47,4.02-10.1,3.49-3.19-.46-5.37-3.01-6.28-5.96-1.17-3.77-.5-7.9,1.17-11.41,1.72-3.62,4.45-6.68,7.36-9.39,3.06-2.85,6.52-5.39,10.24-7.3,2.88-1.47,6.06-2.47,9.32-2.35.49.02.49-.74,0-.76h0Z"/>
      </g>
      <g>
        <path class="cls-2" d="M96.12,100.9c-2.91-14.47-11.51-26.67-29.69-30.8.84.87,1.64,1.76,2.42,2.59,7.16,6.96,11.94,15.32,15.72,24.67.6,1.39.99,3.18,1.19,4.78.6,3.98.4,8.16-1.79,11.54-3.18,4.97-7.96,7.56-12.73,10.15-6.96,3.78-15.12,3.38-22.28,1.19-6.57-2.19-11.54-8.16-12.34-15.32-.6-8.36-.6-16.51,1.59-24.87,1.21-4.31,3.16-8.03,5.22-11.92-20.6,18.53-30.76,53.64,2.55,66.75,13.73,5.26,25.67,1.91,36.41-5.74,12.54-9.09,16.71-19.61,13.73-33.01Z"/>
        <path class="cls-5" d="M96.49,100.8c-1.24-6.08-3.52-11.97-7.22-16.99-3.85-5.22-9.14-9.18-15.11-11.66-2.46-1.03-5.01-1.82-7.62-2.41-.37-.08-.64.35-.37.63,3.01,3.12,6.05,6.23,8.63,9.72,2.48,3.35,4.58,6.96,6.43,10.7.97,1.95,1.85,3.94,2.68,5.96.86,2.08,1.34,4.17,1.61,6.41.25,2.16.22,4.36-.26,6.48-.5,2.18-1.62,4.08-3.03,5.79-2.56,3.11-6.03,5.24-9.52,7.16-1.9,1.05-3.79,2.02-5.87,2.65-2.08.64-4.24.94-6.41,1.03-4.11.16-8.54-.47-12.37-1.99-3.4-1.34-6.3-3.84-8.29-6.89-1.81-2.77-2.66-5.88-2.86-9.16-.26-4.04-.34-8.09-.09-12.13.26-4.12.85-8.3,2.08-12.25,1.17-3.77,3.03-7.28,4.86-10.77.2-.39-.27-.75-.59-.46-8.45,7.63-15.16,17.74-17.94,28.85-1.28,5.11-1.63,10.48-.61,15.66,1.02,5.2,3.55,9.98,7.19,13.83,4.6,4.86,10.85,8.21,17.21,10.1,7.84,2.34,16.09,1.82,23.65-1.27,7.13-2.91,13.94-7.75,18.73-13.81,4.1-5.2,6.19-11.48,6.02-18.09-.06-2.39-.41-4.78-.92-7.11-.1-.48-.83-.27-.73.2,1.49,6.75,1.21,13.73-1.99,19.95-3.51,6.81-9.84,11.99-16.4,15.72-7.18,4.09-15.35,6.02-23.56,4.72-7.15-1.13-14.31-4.44-19.72-9.27-4.08-3.64-7.02-8.37-8.4-13.67-1.34-5.17-1.11-10.63.04-15.81,2.5-11.25,9.27-21.54,17.72-29.25.09-.08.17-.16.26-.23-.2-.15-.4-.31-.59-.46-2.08,3.95-4.21,7.96-5.33,12.3-1.21,4.65-1.74,9.46-1.85,14.26-.06,2.41,0,4.82.12,7.22.1,2.07.21,4.1.75,6.11.91,3.37,2.83,6.44,5.37,8.81,2.72,2.54,6.02,3.92,9.6,4.74,4.02.92,8.21,1.17,12.29.51,4.12-.67,7.73-2.6,11.28-4.7,3.37-1.99,6.45-4.42,8.68-7.67,2.37-3.45,2.73-7.7,2.18-11.75-.3-2.19-.81-4.2-1.66-6.24-.79-1.92-1.64-3.81-2.55-5.67-1.83-3.74-3.95-7.35-6.4-10.72-2.49-3.42-5.43-6.4-8.32-9.47-.19-.2-.38-.4-.58-.6-.12.21-.24.42-.37.63,6.93,1.59,13.48,4.64,18.64,9.6,4.54,4.37,7.65,9.99,9.52,15.97.51,1.63.92,3.3,1.26,4.97.1.48.83.28.73-.2Z"/>
      </g>
      <g>
        <path class="cls-1" d="M36.62,109.69c.8,7.16,5.77,13.13,12.34,15.32,7.16,2.19,15.32,2.59,22.28-1.19,4.77-2.59,9.55-5.17,12.73-10.15,2.19-3.38,2.39-7.56,1.79-11.54-.2-1.59-.6-3.38-1.19-4.78-3.78-9.35-8.55-17.71-15.72-24.67-.78-.83-1.58-1.72-2.42-2.59-.45-.1-.9-.2-1.35-.29l-20.3,1.91c-.46.39-.91.78-1.35,1.18-2.05,3.89-4.01,7.61-5.22,11.92-2.19,8.35-2.19,16.51-1.59,24.87Z"/>
        <path class="cls-5" d="M36.25,109.69c.82,7.03,5.55,13.1,12.21,15.54,3.82,1.4,8.18,1.94,12.23,1.78,4.23-.17,8.09-1.42,11.79-3.43,3.42-1.86,6.79-3.87,9.49-6.71,1.35-1.42,2.58-3.07,3.33-4.89.79-1.91,1.11-3.95,1.14-6.01.03-2.09-.26-4.23-.72-6.27-.46-2.03-1.38-3.95-2.22-5.85-1.69-3.83-3.65-7.55-5.92-11.07-2.24-3.47-4.83-6.71-7.73-9.64-.74-.75-1.47-1.52-2.19-2.3-.3-.33-.65-.84-1.03-1.07-.31-.18-1.19-.38-1.54-.34-.28.03-.57.05-.85.08l-12.76,1.2c-1.88.18-3.76.35-5.63.53-.35.03-.69.07-1.04.1-.51.05-1.08.8-1.44,1.12-.37.32-.54.79-.76,1.22-.29.56-.59,1.12-.88,1.69-2.11,4.11-3.77,8.29-4.66,12.84-.92,4.68-1.2,9.47-1.14,14.24.03,2.42.16,4.83.33,7.25.03.48.79.49.76,0-.67-9.55-.68-19.63,2.91-28.66.85-2.14,1.9-4.2,2.96-6.24.25-.48.51-.97.76-1.45.25-.47.83-.84,1.23-1.18.05-.05-.15-.05-.02-.06.06,0,.12-.01.19-.02,1.47-.14,2.94-.28,4.41-.42,4.53-.43,9.06-.85,13.59-1.28.58-.05,1.16-.11,1.74-.16.1,0,.2-.02.3-.03.29-.03.71.15,1,.22.52.11,1.08,1,1.43,1.37,1.45,1.57,2.99,3.06,4.4,4.68,1.4,1.61,2.7,3.3,3.92,5.05,2.39,3.43,4.41,7.1,6.19,10.87.92,1.96,1.85,3.96,2.56,6,.72,2.08,1,4.37,1.1,6.56.1,2.16-.16,4.33-.91,6.37-.75,2.04-2.16,3.83-3.66,5.37-2.79,2.87-6.35,4.81-9.83,6.7-6.83,3.7-15.37,3.69-22.6,1.13-6.32-2.24-10.88-8.2-11.65-14.82-.06-.48-.81-.48-.76,0Z"/>
      </g>
      <g>
        <path class="cls-2" d="M40.91,18.23C36.43,12.24,30.44-.1,21.47,7.76c-10.1,8.6-2.99,23.18,9.72,20.94l9.72-10.47Z"/>
        <path class="cls-5" d="M41.24,18.04c-1.72-2.3-3.22-4.75-4.97-7.02-1.66-2.16-3.59-4.34-6.11-5.5-5.59-2.56-11.38,2.97-13.18,7.93-1.43,3.93-.55,8.37,2.1,11.57,2.97,3.59,7.74,4.81,12.21,4.05.48-.08.28-.81-.2-.73-3,.51-6.08.1-8.71-1.47-2.28-1.36-3.98-3.58-4.8-6.1-.85-2.61-.63-5.47.48-7.97,1.29-2.89,3.92-5.66,6.9-6.79,3.53-1.33,6.68.91,8.99,3.4,2.54,2.75,4.4,6.02,6.63,9.01.29.39.95,0,.65-.38h0Z"/>
      </g>
      <g>
        <path class="cls-2" d="M72.67,14.86c2.99-8.6,10.47-19.07,20.57-12.34,4.11,2.24,4.86,9.72,2.62,13.84-3.37,6.73-13.46,8.6-20.19,9.35l-2.99-10.84Z"/>
        <path class="cls-5" d="M73.03,14.96c1.12-3.19,2.67-6.27,4.77-8.93,1.94-2.45,4.49-4.58,7.64-5.16,1.63-.3,3.3-.03,4.84.53,1.55.57,3.24,1.49,4.34,2.76,2.07,2.38,2.42,6.14,1.89,9.12-1.63,9.14-13.23,11.2-20.85,12.06-.48.05-.48.81,0,.76,6.11-.68,12.94-1.84,17.74-6,2.27-1.97,3.63-4.67,3.99-7.64.35-2.88-.19-6.24-2.02-8.57-.81-1.02-1.86-1.68-2.98-2.33-1.25-.71-2.62-1.22-4.04-1.45-2.46-.39-4.9.27-6.99,1.58-4.53,2.84-7.34,8.17-9.06,13.07-.16.46.57.66.73.2h0Z"/>
      </g>
      <g>
        <path class="cls-4" d="M31.05,27.52c-5.17-.4-10.74-4.58-10.54-10.15.2-5.17,6.17-10.35,10.35-5.77,2.79,2.78,4.18,6.57,4.58,10.35l-4.38,5.57Z"/>
        <path class="cls-5" d="M31.05,27.15c-3.22-.28-6.31-1.9-8.35-4.42-2.19-2.71-2.36-6.34-.53-9.27,1.7-2.73,5.19-4.42,7.92-2.06,3.02,2.6,4.52,6.69,4.95,10.56.05.48.81.48.76,0-.44-3.95-1.87-7.75-4.69-10.61-1.1-1.12-2.4-1.88-4.01-1.88-1.44,0-2.78.72-3.86,1.62-2.49,2.07-3.61,5.51-2.87,8.64.77,3.23,3.47,5.71,6.39,7.06,1.35.62,2.8,1,4.29,1.12.49.04.48-.72,0-.76h0Z"/>
      </g>
      <g>
        <path class="cls-4" d="M77.21,13.4c1.79-3.98,4.97-8.36,9.75-8.75,2.39-.2,4.97,1.19,5.97,3.18,1.39,2.59-.2,5.57-1.59,7.76-2.98,4.18-6.96,5.17-11.94,5.57l-2.19-7.76Z"/>
        <path class="cls-5" d="M77.54,13.59c1.33-2.92,3.19-5.79,6.01-7.47,2.98-1.77,7.3-1.43,9.06,1.9.99,1.87.28,3.97-.62,5.72-.82,1.6-1.9,2.99-3.3,4.13-2.6,2.11-6.05,2.65-9.29,2.91-.48.04-.49.8,0,.76,3.38-.28,6.81-.86,9.58-2.95,1.44-1.08,2.54-2.48,3.42-4.03.94-1.66,1.63-3.5,1.37-5.42-.5-3.65-4.77-5.34-7.98-4.69-3.41.7-5.94,3.51-7.66,6.37-.46.77-.87,1.58-1.24,2.4-.2.44.45.83.65.38h0Z"/>
      </g>
      <g>
        <path class="cls-1" d="M68.46,35.08c-13.13-4.18-28.45-4.18-37.01,7.76-.4.6-.99,1.79-1.39,2.39-4.43,6.36-5.5,13.28-3.76,20.21,3.04,5.39,7.48,9.83,13.3,12.53,19.11,8.87,42.76.93,49.72-18.64-.32-1.83-.83-3.63-1.56-5.36-3.18-8.36-10.15-15.92-19.3-18.9Z"/>
        <path class="cls-5" d="M68.56,34.72c-6.65-2.1-13.78-3.19-20.73-2.12-3.31.51-6.53,1.61-9.42,3.31-2.89,1.7-5.7,4.16-7.47,7.03-2.17,3.53-4.31,6.99-5.25,11.09-.46,1.99-.62,4.05-.55,6.1.03.97.14,1.93.28,2.88.15,1.01.27,2.14.78,3.03,1.92,3.33,4.46,6.31,7.46,8.71,2.87,2.3,6.18,3.93,9.65,5.12,12.21,4.2,26.42,2.03,36.45-6.23,2.44-2.01,4.57-4.39,6.34-7.02.91-1.36,1.71-2.8,2.41-4.28.33-.7.62-1.41.9-2.13.11-.28.34-.66.28-.97-.12-.64-.25-1.28-.41-1.91-1.82-7.34-6.56-14.04-12.63-18.48-2.46-1.79-5.2-3.18-8.09-4.14-.46-.15-.66.58-.2.73,7.41,2.45,13.49,7.94,17.23,14.73.96,1.75,1.75,3.6,2.41,5.48.37,1.05.64,2.14.86,3.23.17.85-.5,1.93-.84,2.7-1.34,3-3.16,5.77-5.35,8.22-8.85,9.87-23.17,13.37-35.85,10.3-3.49-.85-6.92-2.17-9.99-4.05-3.41-2.09-6.3-4.95-8.59-8.22-.54-.77-1.03-1.57-1.5-2.38-.26-.46-.31-1.12-.42-1.64-.12-.64-.22-1.28-.29-1.93-.25-2.14-.19-4.3.15-6.43.35-2.17,1.05-4.28,1.99-6.27.89-1.88,2.11-3.55,3.12-5.36,1.66-2.96,4.46-5.43,7.32-7.18,2.81-1.72,5.98-2.76,9.22-3.3,6.84-1.15,13.98.01,20.52,2.08.47.15.66-.58.2-.73Z"/>
      </g>
      <g>
        <path class="cls-2" d="M90.72,33.64c-1.77-11.28-8.11-22.09-19.51-25.71-10.14-3.22-21.89-1.97-31.04,3.57-16.08,9.72-22.44,29.54-16.83,47.12.76,2.4,1.75,4.69,2.96,6.83-1.74-6.94-.67-13.85,3.76-20.21.4-.6.99-1.79,1.39-2.39,8.55-11.94,23.88-11.94,37.01-7.76,9.15,2.98,16.12,10.54,19.3,18.9.73,1.73,1.24,3.52,1.56,5.36.48-1.36.89-2.77,1.2-4.23,1.55-7.22,1.16-15.34.2-21.47Z"/>
        <path class="cls-5" d="M91.09,33.54c-1.1-6.9-3.85-13.63-8.61-18.82-2.35-2.57-5.23-4.66-8.4-6.09-3.56-1.62-7.51-2.41-11.4-2.71-8.16-.64-16.54,1.34-23.46,5.72-5.98,3.78-10.79,9.23-13.94,15.54-5.94,11.89-5.81,26.81.69,38.46.21.38.79.12.69-.29-1.05-4.25-1.04-8.63.22-12.84.65-2.18,1.66-4.23,2.88-6.15,1-1.58,1.87-3.23,3.06-4.67,4.57-5.55,11.35-8.27,18.4-8.69,3.57-.22,7.17.12,10.68.8,3.66.7,7.33,1.71,10.65,3.42,6.8,3.51,12.1,9.76,14.84,16.87.68,1.76,1.23,3.5,1.56,5.36.07.4.62.32.73,0,2.88-8.2,2.72-17.41,1.4-25.9-.07-.48-.8-.28-.73.2,1.3,8.36,1.43,17.43-1.4,25.5h.73c-1.38-7.6-5.87-14.7-11.87-19.5-5.74-4.59-13.05-6.62-20.27-7.35-6.74-.69-13.82.2-19.66,3.84-2.85,1.78-5.58,4.29-7.25,7.24-1.02,1.8-2.22,3.49-3.12,5.36-.92,1.89-1.57,3.89-1.97,5.95-.7,3.57-.48,7.25.39,10.77.23-.1.46-.19.69-.29-7.31-13.09-6.32-30.07,2.07-42.41,4.28-6.29,10.5-11.22,17.62-13.9,7.88-2.96,16.77-3.17,24.79-.66,11.16,3.5,17.49,14.44,19.25,25.45.08.48.81.28.73-.2Z"/>
      </g>
      <g>
        <path class="cls-4" d="M55.13,38.67c-9.15.8-11.54-9.95-1.99-9.95,7.56,0,8.75,10.74.4,9.95h1.59Z"/>
        <path class="cls-5" d="M55.13,38.29c-2.54.2-5.32-.47-6.87-2.65-1.14-1.59-1.18-3.74.29-5.13,1.82-1.73,5.3-1.83,7.45-.77,1.89.94,3.1,2.99,2.92,5.1-.24,2.76-3,3.65-5.38,3.44-.49-.04-.48.72,0,.76,2.2.19,4.59-.4,5.67-2.51.89-1.74.51-3.89-.56-5.46-1.37-2.03-3.73-2.82-6.1-2.72-2.18.09-4.63.91-5.56,3.06-.79,1.82-.13,3.84,1.13,5.26,1.73,1.95,4.5,2.56,7,2.37.48-.04.49-.79,0-.76h0Z"/>
      </g>
      <g>
        <path class="cls-3" d="M70.41,22.84c.24-1.57,1.51-2.04,2.93-1.69,1.22.3,1.83,1.3,1.55,2.51-.69,2.92-4.96,2.29-4.47-.83Z"/>
        <path class="cls-5" d="M70.78,22.94c.28-1.46,1.65-1.85,2.93-1.25,1.16.54,1.04,2.07.29,2.9-.53.59-1.39.7-2.11.46-.94-.32-1.21-1.31-1.1-2.2.06-.48-.7-.48-.76,0-.17,1.3.42,2.44,1.65,2.93,1.17.46,2.48-.07,3.17-1.06.9-1.29.5-3.23-1.03-3.8-1.66-.62-3.42-.03-3.77,1.83-.09.48.64.68.73.2Z"/>
      </g>
      <g>
        <path class="cls-3" d="M34.19,23.31c.24-1.57,1.51-2.04,2.93-1.69,1.22.3,1.83,1.3,1.55,2.51-.69,2.92-4.96,2.29-4.47-.82Z"/>
        <path class="cls-5" d="M34.55,23.41c.28-1.46,1.65-1.85,2.93-1.25,1.16.54,1.04,2.07.29,2.9-.53.59-1.39.7-2.11.46-.94-.32-1.21-1.31-1.1-2.2.06-.48-.7-.48-.76,0-.17,1.3.42,2.44,1.65,2.93,1.17.46,2.48-.07,3.17-1.06.9-1.29.5-3.23-1.03-3.8-1.66-.62-3.42-.03-3.77,1.83-.09.48.64.68.73.2Z"/>
      </g>
      <path class="cls-5" d="M52.36,38.86c0,4.2-.16,8.4.13,12.59.14,2.08.24,4.18.46,6.25.21,1.98.98,3.82,1.01,5.83,0,.49.76.49.76,0-.03-1.92-.73-3.66-.97-5.53-.28-2.17-.33-4.37-.49-6.55-.31-4.19-.13-8.39-.13-12.59,0-.49-.76-.49-.76,0h0Z"/>
      <path class="cls-5" d="M36.11,58.62c2.99,1.7,6.04,3.27,9.24,4.53,3.08,1.21,6.32,2.14,9.66,2.01,2.96-.11,5.76-1.17,8.27-2.67,2.79-1.67,5.59-3.82,7.7-6.31.31-.37-.22-.91-.54-.53-2.03,2.4-4.66,4.39-7.32,6.05-2.53,1.59-5.36,2.61-8.36,2.72-3.18.12-6.29-.86-9.22-1.99-3.14-1.21-6.14-2.79-9.06-4.45-.42-.24-.8.41-.38.65h0Z"/>
      <g>
        <path class="cls-2" d="M105.68,125.32c-.92,16.56-25.25,36.64-34.63,14.68-3.42-8.01-2.32-18.86,3.59-25.42,10.75-11.94,31.04-7.76,31.04,10.75Z"/>
        <path class="cls-5" d="M105.3,125.32c-.33,5.57-3.08,10.86-6.6,15.09-3.36,4.03-7.92,7.63-13.18,8.65-2.32.45-4.76.23-6.91-.77-2.54-1.18-4.44-3.34-5.84-5.71-3.79-6.38-4.22-14.53-1.65-21.43,2.19-5.87,7.09-10.46,13.11-12.21,4.85-1.41,10.25-.77,14.43,2.13,4.64,3.22,6.61,8.77,6.63,14.24,0,.49.76.49.76,0-.02-5.5-1.94-11.02-6.42-14.46-3.95-3.03-9.1-3.95-13.94-3.04-5.6,1.05-10.6,4.66-13.56,9.51-3.74,6.14-4.32,14.19-2.13,20.97,1.68,5.18,5.28,10.45,10.95,11.54,4.9.94,9.79-1.4,13.57-4.33,6.11-4.73,11.05-12.34,11.52-20.19.03-.49-.73-.49-.76,0Z"/>
      </g>
      <g>
        <path class="cls-4" d="M79.4,141.86c-1.46-2.26-1.59-5.17-1.46-7.69.4-5.57,3.58-10.35,9.15-11.94,4.77-1.46,10.48.13,11.67,5.44.93,4.24-1.59,8.22-4.24,11.27-1.34,1.55-2.92,2.87-4.64,3.98-3.49,2.25-7.75,3.03-10.48-1.06Z"/>
        <path class="cls-5" d="M79.73,141.67c-2.03-3.25-1.81-7.93-.59-11.44,1.16-3.34,3.73-6.02,7.03-7.29,3-1.16,6.57-1.24,9.34.55,3.51,2.26,3.63,6.84,2.05,10.31-2.42,5.32-12.52,15.61-17.83,7.88-.27-.4-.93-.02-.65.38.94,1.37,2.17,2.44,3.8,2.9,1.49.42,3.1.15,4.53-.35,3.68-1.3,6.73-4.32,9-7.4,2.3-3.13,3.85-7.17,2.31-10.97-1.13-2.77-3.84-4.43-6.73-4.79-4.73-.6-9.5,1.72-12.12,5.65-1.32,1.98-2.01,4.32-2.26,6.66-.29,2.78-.03,5.89,1.48,8.31.26.41.91.03.65-.38Z"/>
      </g>
      <g>
        <path class="cls-2" d="M38.08,125.33c-1.84-4.66-5.43-8.82-10.09-10.86-7.11-3.11-5.73,10.08-5.55,13.73.23,4.85.44,9.7,1.59,14.42l1.99.8c1.78-1.92,3.64-3.71,6.14-4.63,1.76-.65,4-.57,5.62-1.54,3.52-2.12,1.44-9.03.31-11.91Z"/>
        <path class="cls-5" d="M38.45,125.23c-1.4-3.49-3.64-6.61-6.63-8.92-1.32-1.02-2.82-1.95-4.41-2.47-.89-.29-1.82-.31-2.69.06-1.75.74-2.31,3.06-2.58,4.73-.37,2.28-.33,4.62-.22,6.93.16,3.3.3,6.61.6,9.9.22,2.44.58,4.88,1.15,7.26.08.32.74.46.99.55.42.17.84.34,1.26.51.12.05.29,0,.37-.1,1.92-2.07,4.04-4.08,6.85-4.8,2.2-.56,4.78-.52,6.15-2.63,1.01-1.55.93-3.68.68-5.43-.27-1.92-.82-3.8-1.52-5.6-.18-.45-.91-.25-.73.2.64,1.63,1.14,3.32,1.44,5.05.32,1.84.44,4.05-.69,5.65-.67.95-1.89,1.29-2.96,1.53-1.24.28-2.49.4-3.68.85-2.43.93-4.34,2.77-6.07,4.64.12-.03.25-.07.37-.1-.66-.27-1.33-.53-1.99-.8.09.09.18.18.26.26-1.13-4.72-1.34-9.57-1.58-14.39-.1-2-.25-3.99-.21-5.99.04-2.13.14-4.59,1.27-6.46,1.43-2.36,4.18-.89,5.96.18,3.6,2.17,6.32,5.7,7.87,9.57.18.45.91.25.73-.2Z"/>
      </g>
      <g>
        <path class="cls-2" d="M30.74,139.67c5.96-9.28-.35-28.22-10.89-31.9-9.88-3.44-19.14,5.15-19.52,14.76-.55,13.82,19.91,34.28,30.41,17.14Z"/>
        <path class="cls-5" d="M31.06,139.86c3.06-4.83,2.76-11.15,1.35-16.46-1.48-5.55-4.56-11.19-9.42-14.46-2.58-1.74-5.76-2.53-8.86-2.26-3.29.28-6.32,1.83-8.73,4.05-4.65,4.28-6.42,10.81-4.86,16.87,1.39,5.4,4.77,10.4,8.93,14.07,3.69,3.25,8.72,5.82,13.74,4.59,3.44-.84,6.03-3.48,7.84-6.4.26-.42-.4-.8-.65-.38-1.54,2.49-3.62,4.72-6.42,5.76-2.32.86-4.84.7-7.17-.05-5.32-1.71-9.64-6.21-12.5-10.85-3.09-5-4.7-10.9-2.66-16.61,2.4-6.73,9.35-11.62,16.57-10.03,5.96,1.31,9.98,6.84,12.19,12.18,2.23,5.37,3.23,11.92,1.07,17.47-.29.74-.66,1.46-1.09,2.13-.26.41.39.79.65.38Z"/>
      </g>
      <g>
        <path class="cls-4" d="M18.52,122.96c-1.72-3.18-4.64-6.9-8.62-7.16-4.91-.27-6.76,5.04-6.23,9.02.8,5.04,3.32,10.21,6.76,13.93,1.46,1.86,3.45,3.71,5.57,4.64,1.06.46,3.02.49,4.1.16,1.94-.59,1.91-2.73,2.05-4.48.44-5.68-.95-11.1-3.62-16.11Z"/>
        <path class="cls-5" d="M18.85,122.77c-1.64-2.99-3.97-6.01-7.35-7.07-2.97-.92-5.83.43-7.24,3.13-1.53,2.93-1.12,6.21-.23,9.26,1.15,3.96,3.22,7.68,5.97,10.74,1.94,2.15,4.13,4.82,7.2,5.24,1.14.16,2.4.12,3.47-.34,1-.43,1.46-1.51,1.65-2.51.56-2.87.36-6.02-.11-8.88-.55-3.35-1.77-6.58-3.35-9.57-.23-.43-.88-.05-.65.38,2.13,4.03,3.46,8.41,3.64,12.97.07,1.79.1,3.88-.42,5.61-.58,1.9-3.03,1.84-4.61,1.51-2.06-.42-3.91-2.28-5.26-3.77-1.45-1.6-2.8-3.28-3.93-5.13-1.14-1.87-2.04-3.88-2.7-5.96-.56-1.76-1.01-3.6-.93-5.45.13-3.13,1.86-6.56,5.33-6.75,4.11-.23,7.14,3.78,8.89,6.98.23.43.89.05.65-.38Z"/>
      </g>
    </g>
  </g>
</svg>