<?xml version="1.0" encoding="UTF-8"?>
<svg id="Layer_2" data-name="Layer 2" xmlns="http://www.w3.org/2000/svg" width="102.28" height="78.74" viewBox="0 0 102.28 78.74">
  <defs>
    <style>
      .cls-1 {
        fill: #28150f;
      }

      .cls-2 {
        fill: #676868;
      }

      .cls-3 {
        fill: #231f20;
      }

      .cls-4 {
        fill: #ffe62f;
      }

      .cls-5 {
        fill: #6b3516;
      }

      .cls-6 {
        fill: #8d8b8b;
      }

      .cls-7 {
        fill: #b5e3f9;
      }
    </style>
  </defs>
  <g id="Layer_1-2" data-name="Layer 1">
    <g>
      <g>
        <g>
          <path class="cls-6" d="M82.99,74.14l.21-.2c-.07.04-.13.08-.2.12,0,.03,0,.05-.01.08Z"/>
          <path class="cls-3" d="M83.51,74.69c.07-.07.14-.13.21-.2.25-.24.31-.62.14-.93-.19-.35-.69-.53-1.04-.3-.26.16-.52.32-.57.65-.04.21-.05.4.06.59.1.17.26.31.45.36.36.11.89-.1.96-.51,0-.03,0-.05.01-.08-.12.15-.24.3-.36.45.07-.04.13-.08.2-.12-.3-.41-.6-.82-.9-1.23-.07.07-.14.13-.21.2-.3.29-.32.78-.03,1.08.29.3.78.32,1.08.03Z"/>
        </g>
        <g>
          <path class="cls-6" d="M88.7,51.54c.13-11.27-8.4-19.85-18.7-20.3-.94-.04-1.89-.02-2.85.08-.84.1-1.68.24-2.53.44-.76.22-1.5.46-2.24.72s-1.47.53-2.2.82c-2.98,1.47-6.4,2.92-9.68,4.61-.82.42-1.63.86-2.42,1.32-1.04.65-2.15,1.36-3.27,2.12-.56.38-1.12.77-1.68,1.18-1.22,1.1-2.55,2.24-3.89,3.43-.45.4-.9.81-1.35,1.22-.33.34-.67.69-1.02,1.06-.45-.7-.98-1.33-1.62-1.8s-1.4-.78-2.32-.86c-3.68-.3-7.84,2.05-10.76,4.02-3.11,2.1-6.16,4.96-7.54,8.52-.69,1.78-1.6,4.54-.68,6.38.27.53.64.88,1.07,1.13,1.61.12,2.94.57,4.04,1.26.55.34,1.04.75,1.48,1.21,1.63,1.46,2.9,3.94,4.35,6.04.48.7.99,1.36,1.54,1.92,2.16,2.87,7.77,2.33,8.41-1.2,1.28-7.21,3.28-15.62,10.4-18.53.81-.37,1.64-.69,2.49-.98,1.7-.58,3.45-1,5.2-1.27.89-.16,1.76-.3,2.64-.42,4.34-.59,8.74-.64,13.04-.19.95.16,1.9.39,2.72.8.82.41,1.51.99,1.93,1.86.26.46.44.95.55,1.46.11.51.14,1.04.09,1.58-.01.54-.05,1.08-.09,1.63-.09,1.09-.23,2.18-.37,3.26-.29,3.27.01,7.38,2.2,9.89,2.13,2.65,4.93,1.62,7.39.12,1.25-7.72,5.7-14.55,5.7-22.52Z"/>
          <path class="cls-3" d="M89.47,51.56c.02-10.16-7.11-19.45-17.41-20.89-6.88-.96-12.77,2.19-18.8,5.03-6.37,3-12.04,6.89-16.93,11.98.4.06.8.12,1.2.19-4.77-7.05-14.78-.28-19.28,3.85-2.76,2.54-4.7,5.86-5.34,9.57-.23,1.33-.21,3.01.7,4.1.34.41.82.95,1.39,1,1.33.13,2.51.46,3.65,1.14,5.05,2.97,6.73,14.06,14.57,10.51,2.78-1.26,2.67-4.92,3.26-7.47.8-3.43,1.96-6.82,4.07-9.68,2.06-2.78,5.17-4.14,8.39-5.14,4-1.24,8.37-1.68,12.54-1.81,2.17-.07,4.35.03,6.51.23,2.39.21,4.4,1.12,5.07,3.6.5,1.85-.15,4.39-.39,6.26-.21,1.56-.1,3.19.09,4.74.31,2.62,1.65,6.38,4.46,7.29,1.37.44,2.67.27,4-.23.62-.23,1.21-.54,1.79-.87.79-.45.77-.82.94-1.71,1.4-7.39,5.45-14.03,5.55-21.7.01-.99-1.52-1.03-1.53-.04-.06,4.48-1.48,8.68-2.95,12.86-.69,1.96-1.37,3.91-1.93,5.91-.28,1-.5,2.01-.7,3.03-.15.8-2.08,1.24-2.75,1.4-4.9,1.2-5.62-6.7-5.49-9.78.14-3.4,1.87-8.48-1.64-10.86-1.51-1.02-3.26-1.34-5.05-1.49-2.56-.23-5.14-.23-7.71-.1-4.45.23-9.02.91-13.2,2.47-3.22,1.2-5.77,2.95-7.76,5.78-1.94,2.77-2.98,6.14-3.77,9.39-.26,1.09-.48,2.19-.69,3.29-.19,1.01-.26,1.95-1.01,2.72-1.41,1.46-4.01,1.18-5.56.16-2.23-1.48-3.5-4.7-5.01-6.83-1.4-1.97-3.19-3.49-5.51-4.23-1.54-.49-2.73-.32-2.9-2.35-.11-1.28.34-2.59.75-3.79.95-2.78,2.77-5,4.95-6.92,3.6-3.17,12.38-9.17,16.16-3.58.26.39.83.57,1.2.19,4.36-4.55,9.4-8.21,15.04-11,5.75-2.84,11.77-6.24,18.38-5.74,10,.76,17.15,9.74,17.14,19.46,0,.99,1.53,1.03,1.53.04Z"/>
        </g>
      </g>
      <g>
        <path class="cls-5" d="M5.02,46.69c-.94-11.09,1.96-20.23,9.56-28.64C23.65,8.04,36.53,1.2,50.27.74c11.9-.51,24.29,3.5,33.32,10.91,8.02,6.77,12.89,16.53,16.11,26.45,2.63,9.09,3.02,17.91-2.93,25.74-2.12,2.61-15.18,16.41-18.91,10.16-1.56-2.91.21-7.99.9-10.84.71-3.67,1.86-8.35.11-11.88-3.7-7.47-17.98-1.9-23.56-.21-9.5,2.83-18.8,5.86-28.48,7.66-7.83,1.64-17.9,2.61-20.93-6.7-.57-1.86-.93-3.71-1.28-5.77l.4.42Z"/>
        <path class="cls-3" d="M5.78,46.71c-.65-8.23.92-16.14,5.44-23.12,4.5-6.94,11.29-12.55,18.52-16.44C44.95-1.03,63.69-.12,78.34,8.85c7.37,4.51,12.63,11.29,16.43,18.96,3.75,7.57,6.76,16.28,5.8,24.83-.72,6.41-4.38,11.16-8.88,15.41-1.96,1.85-4.04,3.6-6.33,5.03-1.5.94-3.94,2.39-5.76,1.55-2.96-1.35-1.26-6.8-.67-9.06.93-3.58,1.86-7.36,1.57-11.08-.22-2.83-1.55-5.41-4.13-6.72-2.32-1.19-5.15-1.18-7.67-.91-6.2.68-12.18,3.04-18.12,4.84-8.83,2.67-17.7,5.31-26.82,6.83-3.88.65-8.07.91-11.79-.6-4.84-1.97-5.81-7.25-6.61-11.84-.17-.97-1.66-.6-1.49.37.63,3.61,1.28,7.31,3.73,10.18,1.83,2.14,4.56,3.24,7.27,3.68,2.95.48,5.96.21,8.89-.23,4.19-.64,8.35-1.61,12.45-2.66,7.96-2.03,15.8-4.55,23.65-6.99,2.89-.9,5.83-1.67,8.85-2.04,2.69-.33,5.97-.32,8.16,1.51,3.14,2.63,2.2,7.73,1.53,11.21-.65,3.4-1.96,6.74-1.91,10.25.03,2.15.98,4.36,3.22,4.91,1.92.47,3.99-.49,5.63-1.39,4.21-2.32,7.87-5.9,11.07-9.43,4.78-5.27,6.46-12.43,5.7-19.39-.89-8.2-4.19-16.31-8.36-23.37-4.18-7.08-9.97-12.72-17.2-16.64C62.1-1.79,44.51-2,29.87,5.36c-7.76,3.9-14.77,9.85-19.68,17.02-4.91,7.17-6.62,15.71-5.94,24.29.08.98,1.61,1.03,1.53.04h0Z"/>
      </g>
      <g>
        <path class="cls-4" d="M64,40.24c-3.11-6.64-3.58-12.18-1.76-19.1.71-3.67,2.03-7.12,4.16-10.34,1.28-1.81,4.41-4.19,4.68-6.43.26-2.25-2.18-2.72-4.03-2.56-3.09.53-5.42,3.34-6.92,5.97-3.02,5.66-4.84,12.78-4.39,19.15.24,6.56,2.14,12.35,9.07,13.76l-.81-.43Z"/>
        <path class="cls-3" d="M64.67,39.87c-1.9-4.14-2.95-8.42-2.66-12.99.29-4.5,1.59-9.34,3.66-13.34.9-1.76,2.05-3.16,3.39-4.59,1.11-1.18,2.23-2.45,2.7-4.03.88-2.98-2.38-4.04-4.68-3.89-3.4.21-6.03,3.67-7.59,6.33-2.13,3.64-3.39,7.97-4.1,12.1-1.03,6.06-1.08,14.52,3.66,19.17,1.51,1.48,3.5,2.33,5.54,2.78.96.21,1.41-1.26.45-1.47-3.18-.7-5.58-2.43-7-5.39-1.42-2.93-1.57-6.46-1.59-9.65-.02-4.16.91-8.29,2.31-12.18,1.34-3.71,3.3-7.85,6.99-9.71,1.17-.59,3.58-.87,4.45.42.98,1.45-1.66,3.85-2.49,4.74-2.61,2.78-4.29,6.03-5.43,9.66-1.15,3.67-1.92,7.64-1.85,11.49.07,3.95,1.27,7.74,2.9,11.3.41.9,1.76.16,1.35-.74h0Z"/>
      </g>
      <g>
        <path class="cls-4" d="M23.08,45.52c-2.91-6.22-2.69-14.62-1.91-21.16.3-3.68,1.24-8.16,2.97-11.6.65-1.21,1.5-2.42,2.14-3.63.64-1.01.88-2.23,1.72-3.23-2.89.74-6.64,3.1-8.74,5.1-2.52,2.19-2.2,5.89-2.49,8.95-.5,3.47-.59,6.75-.47,10.23.32,3.49-.18,6.96.96,10.27,1.15,3.1,3.1,6.84,6.64,4.48l-.84.59Z"/>
        <path class="cls-3" d="M23.75,45.15c-2.78-6.15-2.61-13.29-1.92-19.86.36-3.43.89-6.77,2.06-10.03.62-1.73,1.57-3.24,2.52-4.81.81-1.34,1.3-2.89,2.24-4.14.41-.55-.22-1.32-.84-1.15-3.67,1.02-8.19,3.5-10.32,6.77-1.1,1.68-1.23,3.9-1.35,5.84-.16,2.62-.53,5.21-.63,7.84-.1,2.81.12,5.6.16,8.4.03,2.44.15,4.9,1.05,7.19,1.3,3.29,3.73,6.73,7.55,4.4.84-.51.11-1.86-.74-1.34-3.89,2.38-5.72-3.82-6.14-6.63-.31-2.08-.17-4.23-.26-6.32-.1-2.27-.15-4.52-.04-6.79.09-1.95.41-3.88.53-5.83.11-1.89.15-3.84.96-5.58.79-1.7,2.77-2.93,4.27-3.93,1.64-1.08,3.42-2,5.32-2.53-.28-.38-.56-.77-.84-1.15-1.04,1.38-1.62,3.11-2.52,4.6-.93,1.54-1.77,3.04-2.41,4.72-1.28,3.36-1.73,6.9-2.12,10.44-.77,6.84-.79,14.26,2.1,20.64.41.9,1.75.16,1.35-.74h0Z"/>
      </g>
      <g>
        <path class="cls-1" d="M99.66,35.29c-1.79.5-3.85.86-5.64,1.35-2.48.62-4.81,1.24-7.29,1.72-2.61.34-5.36,1.23-7.84,2.12-1.79.64-3.19,1.69-5.11,1.92-.47,2.31.41,5.07,1.18,7.14v.14c4.95-1.51,9.68-4.53,14.76-5.49,2.33-.48,4.66-.7,6.86-1.32,1.1-.38,3.58-.86,4.15-1.94.58-1.35-.7-4.39-1.08-5.63Z"/>
        <path class="cls-3" d="M99.47,34.54c-2.05.55-4.14.98-6.21,1.5-2.39.6-4.8,1.3-7.24,1.66-2.15.31-4.26.99-6.31,1.69-2.05.7-3.96,1.93-6.11,2.27-.23.04-.51.28-.55.52-.21,1.3-.16,2.53.07,3.82.11.66.3,1.3.49,1.94.14.48.6,1.23.58,1.71-.01.47.47.92.95.77,3.09-.97,6-2.4,8.98-3.65,3.57-1.5,7.2-2.02,10.97-2.76,1.95-.38,5.09-.91,6.29-2.68,1.09-1.6-.49-4.66-.99-6.22-.3-.94-1.79-.58-1.49.37.43,1.35,2.14,4.6.58,5.56-2.12,1.31-5.23,1.59-7.62,1.98-2.95.48-5.71,1.27-8.48,2.4-2.87,1.18-5.65,2.57-8.61,3.5.32.26.63.51.95.77.02-.83-.53-1.8-.77-2.6-.43-1.44-.68-2.97-.44-4.47-.18.17-.37.35-.55.52,2.01-.32,3.71-1.42,5.61-2.09,2.23-.79,4.49-1.47,6.82-1.86,4.5-.76,9.04-1.97,13.45-3.15.95-.26.59-1.75-.37-1.49Z"/>
      </g>
      <g>
        <path class="cls-1" d="M43.38,50.48c-.24-1.37-.06-2.87-.16-4.38-2.03.06-4.11.21-6.08.73-2.68.72-2.28,1.88-2.12,4.38.1,1.51.05,3.28.56,4.66,1.37-.24,2.61-.61,4.11-.58.82.02,1.91.19,2.73.21.82-.11.82.02.98-.93.3-1.22.07-2.73-.03-4.1Z"/>
        <path class="cls-3" d="M44.13,50.3c-.19-1.38-.08-2.78-.14-4.17-.02-.4-.31-.8-.75-.79-1.93.07-3.85.21-5.74.62-1.17.25-2.43.67-3.05,1.78-.5.9-.3,2.09-.22,3.06.14,1.77.06,3.56.61,5.27.13.42.5.64.93.56,1.45-.27,2.85-.61,4.34-.53,1.04.05,2.15.36,3.18.05,1.72-.52.95-4.46.85-5.64-.08-.97-1.61-1.03-1.53-.04.09,1.05.2,2.08.17,3.14-.03,1.31.04,1.19-1.22,1.09-2.17-.18-4.02.05-6.16.45.31.19.62.37.93.56-.65-2.02-.77-4.68-.64-6.81.07-1.18,1.85-1.36,2.72-1.55,1.57-.34,3.19-.41,4.79-.46-.25-.26-.5-.53-.75-.79.07,1.53-.03,3.06.18,4.58.13.98,1.62.6,1.49-.37Z"/>
      </g>
      <g>
        <path class="cls-2" d="M1.41,46.65c1.77.18,3.83-.31,5.62-.67,4.11-.58,8.11-1.84,12.22-2.41,3.43-.46,6.71-.78,10.13-.69,1.91.05,3.57-.59,5.49-.81.91,1.94.99,3.99,1.48,6.05.36,2.06.85,4.26.93,6.31.09,1.78.18,3.42.27,5.2.22,1.92-.61,2.58-2.68,3.34-4.82,1.51-10.28,1.37-15.24,2.74-4.82,1.38-9.5,2.76-14.54,2.08-.68-.02-1.77-.05-2.31-.61-.39-.56-.08-2.32-.2-3.01-.34-2.6-.55-5.21-.89-7.81-.47-3.02-1.18-7-.84-9.72h.55Z"/>
        <path class="cls-3" d="M1.39,47.42c2.52.17,5.04-.53,7.5-.97,2.79-.49,5.53-1.22,8.31-1.77,3.01-.59,6.11-.89,9.17-1.02,1.43-.06,2.89.09,4.31-.09,1.47-.18,2.9-.57,4.37-.77-.29-.12-.57-.25-.86-.38,1.19,2.75,1.47,6.08,1.98,9.02.27,1.56.35,3.12.43,4.69.08,1.44.47,3.21.14,4.62-.26,1.12-2.22,1.51-3.1,1.76-1.59.44-3.23.68-4.87.91-3.13.44-6.27.72-9.33,1.53-3.24.86-6.41,1.85-9.77,2.16-1.52.14-3.05.08-4.56-.1-.55-.07-1.69.16-1.76-.7-.05-.62.03-1.25.03-1.87,0-1.47-.35-3.01-.5-4.47-.17-1.58-.33-3.17-.58-4.74-.45-2.83-.97-5.72-.67-8.59.1-.98-1.43-1.02-1.53-.04-.33,3.15.3,6.36.79,9.47.31,1.94.46,3.91.68,5.87.17,1.58.15,3.12.29,4.68.09,1.08.82,1.54,1.81,1.79,1.51.38,3.31.33,4.85.3,3.86-.08,7.62-1.22,11.3-2.27,3.57-1.02,7.32-1.21,10.97-1.78,2.12-.33,6.39-.75,7.32-3.2.49-1.28.16-2.82.09-4.15-.09-1.73-.15-3.46-.37-5.18-.23-1.76-.6-3.51-.95-5.25-.36-1.78-.61-3.52-1.34-5.21-.14-.34-.54-.42-.86-.38-1.29.18-2.54.49-3.82.7-1.44.24-2.99.06-4.45.11-2.83.09-5.67.41-8.47.86-2.8.45-5.54,1.19-8.31,1.76-2.62.54-5.52,1.32-8.2,1.13-.99-.07-1.02,1.46-.04,1.53h0Z"/>
      </g>
      <g>
        <path class="cls-7" d="M4.34,49.6c2.32-.08,4.51-.16,6.85-.64,2.89-.61,5.76-.67,8.64-1.28,1.92-.36,3.98-.58,5.9-.94.96-.11,1.64-.09,2.46-.07.69-.12,1.52-.51,2.07-.63,1.91.05,1.71,2.64,1.8,4.15.22,1.92.58,3.84.67,5.76-.02.68.23,1.65.22,2.19-.16.95-.57.94-1.4,1.19-2.07.63-3.99,1.26-5.92,1.76-3.44.87-6.86,1.05-10.3,1.92-1.65.37-3.43.46-5.08.82-.82.11-2.63,1.3-3.58.86-.95-.43-.88-2.76-.99-3.85-.23-1.51-.6-3.02-.7-4.53-.1-1.37-1.36-5.5-.79-6.3l.14-.41Z"/>
        <path class="cls-3" d="M4.32,50.37c3.58-.12,6.97-.76,10.51-1.2,3.82-.47,7.6-1.34,11.42-1.71.68-.07,1.46.11,2.12-.04.56-.13,1.88-.86,2.4-.39.75.67.43,2.44.54,3.34.24,2,.59,3.98.66,5.99.03.66.54,1.88-.29,2.13-.85.26-1.69.52-2.54.78-3.49,1.08-6.97,1.72-10.58,2.3-1.91.31-3.77.8-5.69,1.06-1.46.2-2.85.38-4.21.94-.7.29-1.68.8-1.97-.23-.17-.61-.18-1.27-.22-1.9-.1-1.72-.6-3.39-.74-5.11-.08-.96-.32-1.91-.52-2.85-.15-.72-.74-2.36-.38-3.07.45-.88-.85-1.69-1.3-.81-.98,1.91.48,4.72.68,6.69.2,1.94.66,3.85.79,5.79.08,1.17.2,2.55,1.27,3.25,1.01.66,2.55-.17,3.49-.57,2.08-.86,4.69-.81,6.89-1.29,2.26-.5,4.58-.75,6.86-1.16,2.42-.43,4.76-1.18,7.1-1.91.97-.3,2.68-.48,2.98-1.71.17-.71.06-1.33-.05-2.04-.15-1.06-.15-2.15-.28-3.21-.21-1.8-.32-3.63-.57-5.41-.17-1.23-.63-2.29-1.88-2.7-.66-.21-1.33.13-1.94.34-.97.34-2.1.19-3.12.29-2.22.21-4.49.64-6.68,1.08-2.28.45-4.62.58-6.91.95-2.62.41-5.14.75-7.8.84-.98.04-1.03,1.57-.04,1.54h0Z"/>
      </g>
      <g>
        <path class="cls-2" d="M40.75,41.4c.07,2.6.55,5.07,1.03,7.68.47,2.88.4,5.61.73,8.63.4,5.61,8.12,2.95,11.82,2.36,4.8-.69,9.87-1.24,14.8-1.8,3.56-.32,9.13.92,7.91-4.58-.6-3.16-1.75-6.19-1.94-9.48-.07-2.6-.42-4.79-1.45-7.14-1.67,1.05-4.39.84-6.32,1.34-2.33.35-4.38.16-6.57.38-4.65.29-9.18,1.13-13.84,1.55-1.23.1-2.2.35-3.43.59-.69.12-2.32-.2-2.88.34l.13.14Z"/>
        <path class="cls-3" d="M39.99,41.38c.08,2.05.37,4.07.72,6.09.43,2.42.66,4.82.8,7.27.14,2.47,0,5.48,2.6,6.69,2.03.95,4.54.5,6.65.11,3.32-.61,6.61-1.15,9.96-1.56,3.67-.45,7.36-1,11.07-1.03,1.81-.02,4.32,0,5.51-1.64,1.68-2.32-.04-6.1-.64-8.51-1.02-4.06-.7-8.2-2.34-12.11-.16-.38-.71-.49-1.04-.3-1.1.61-2.33.74-3.56.88-1.36.15-2.71.43-4.07.54-3.04.23-6.08.25-9.12.59-3.37.38-6.73.86-10.1,1.21-1.16.12-2.33.56-3.49.57-.92.01-1.89-.13-2.69.4-.82.54-.09,1.89.74,1.34.76-.5,1.84-.09,2.69-.26,1.46-.29,2.9-.53,4.39-.68,3.27-.33,6.52-.85,9.78-1.19,3.02-.32,6.09-.16,9.09-.56,2.29-.3,5.03-.34,7.08-1.49-.35-.1-.7-.2-1.04-.3,1.38,3.29,1.14,6.74,1.83,10.17.35,1.75.86,3.47,1.27,5.21.26,1.12.77,2.73-.11,3.71-1.18,1.32-4.1.88-5.67.91-3.31.06-6.67.67-9.95,1.06-2.81.34-5.62.66-8.39,1.24-2.08.44-4.34.99-6.46.55-3.06-.63-2.42-4.89-2.56-7.22-.23-3.92-1.28-7.73-1.43-11.66-.04-.98-1.57-1.03-1.53-.04h0Z"/>
      </g>
      <g>
        <path class="cls-7" d="M45.21,43.43c.62,2.47.69,5.07,1.3,7.55.5,1.93.43,4.38.52,6.43,4.99-2.6,10.7-1.63,16.03-1.63,2.73-.07,5.35-.95,8.09-1.16,3.42-.18,1.86-3.23,1.24-5.57-.74-2.89-1.21-5.91-1.68-8.92-.69.26-1.38.65-2.07.9-.96.11-2.05-.05-3.01.2-2.05.22-3.97.17-6.02.53-.96.25-1.64-.18-2.73-.21-.82-.02-1.38.37-2.2.49-1.64.23-3.17.87-4.81.97-1.64.09-3.41-.23-4.93.28l.27.14Z"/>
        <path class="cls-3" d="M44.46,43.61c1.05,4.5,1.64,9.18,1.8,13.78.02.59.6.96,1.14.69,3.63-1.81,7.63-1.79,11.59-1.65,1.77.06,3.57.22,5.34.02,2.28-.25,4.51-.86,6.8-1.07,2.59-.23,3.25-1.94,2.67-4.29-.93-3.71-1.75-7.36-2.34-11.16-.08-.54-.7-.66-1.11-.49-1.12.46-1.95.85-3.19.85-1.06,0-2.11.21-3.16.28-1.09.07-2.17.12-3.26.23-1.19.12-2.14.09-3.32,0-1.98-.16-4.2.74-6.11,1.2-2.16.51-4.39-.08-6.54.52-.95.26-.59,1.76.37,1.49,2.12-.59,4.37-.08,6.54-.52,2.23-.45,4.33-1.32,6.6-.98,1.01.15,1.96-.11,2.97-.21,1.27-.13,2.54-.16,3.81-.26,1.04-.08,2.04-.19,3.08-.21,1.07-.02,1.98-.64,2.95-1.03-.37-.16-.74-.33-1.11-.49.53,3.42,1.03,6.88,2.06,10.19.24.77.99,2.51.12,3.11-.57.39-1.59.3-2.27.38-.9.11-1.8.29-2.69.46-6.83,1.31-14.04-.94-20.52,2.28.38.23.76.46,1.14.69-.17-4.75-.76-9.55-1.84-14.19-.23-.96-1.72-.6-1.49.37h0Z"/>
      </g>
    </g>
  </g>
</svg>