<?xml version="1.0" encoding="UTF-8"?>
<svg id="Layer_2" data-name="Layer 2" xmlns="http://www.w3.org/2000/svg" width="111.03" height="116.73" viewBox="0 0 111.03 116.73">
  <defs>
    <style>
      .cls-1 {
        fill: #221f1f;
      }

      .cls-2 {
        fill: #4d4d4d;
      }

      .cls-3 {
        fill: #353635;
      }

      .cls-4 {
        fill: #d02027;
      }
    </style>
  </defs>
  <g id="Layer_1-2" data-name="Layer 1">
    <g>
      <g>
        <path class="cls-4" d="M89.72,82.97c-4.27-2.27-7.6-5.73-11.73-7.73-5.47-2.53-10.66-5.73-16.66-6.67-.13,0-.27-.27-.4-.4-.53-.13-1.07.13-1.6,0-8.66-2.27-17.2-4.13-26-4-.27,0-.53.27-.8.4-.67,0-1.33-.13-2,0-.8.27-1.73.27-2.4.53-2,.8-4,1.33-6,2.27-.4.13-.8,0-1.2,0-.13.13-.27.4-.4.4-.67,0-.93.13-1.2.4-.27.13-.8,0-1.2,0-.13.13-.27.27-.4.4-.05.01-.1.02-.16.03-.49,8.08-.53,16.23,1.02,23.77l65.6,6.4c2.28-4.72,4.45-9.49,6.52-14.32-.07-.09-.13-.18-.19-.28-.26-.4-.4-.93-.8-1.2Z"/>
        <path class="cls-1" d="M89.88,82.7c-3.16-1.7-5.87-4.07-8.84-6.06-1.5-1-3.09-1.75-4.7-2.54-1.67-.81-3.33-1.66-5.01-2.46-1.63-.77-3.28-1.49-4.98-2.1-.83-.3-1.68-.55-2.54-.78-.43-.11-.87-.21-1.3-.3-.5-.1-1.01-.1-1.36-.52-.16-.19-.61-.13-.82-.12-.51.04-.9.04-1.4-.09-1.04-.27-2.08-.53-3.12-.79-1.99-.49-3.98-.95-5.99-1.35-3.04-.62-6.12-1.11-9.21-1.42-1.53-.15-3.06-.25-4.6-.3-.81-.03-1.62-.03-2.44-.02-.28,0-.47.03-.72.15-.11.07-.21.13-.32.21-.16.11-.49.03-.67.02-.65-.04-1.2,0-1.83.15-.66.17-1.35.19-1.99.42-1.48.53-2.97,1.05-4.44,1.61-.73.28-1.48.76-2.27.67-.18-.02-.48-.1-.62.06-.2.23-.35.29-.65.34-.43.07-.78.43-1.18.42-.26,0-.57-.11-.83-.04-.23.06-.31.38-.56.43-.14.03-.22.17-.23.3-.47,7.95-.56,16.02,1.03,23.86.03.15.17.22.3.23,3.55.35,7.1.69,10.65,1.04,7.74.76,15.48,1.51,23.21,2.27,7.55.74,15.1,1.47,22.66,2.21,3.02.29,6.05.59,9.07.89.1.01.23-.07.27-.16,1.39-2.88,2.74-5.77,4.05-8.69.67-1.5,1.33-3,1.99-4.5.2-.46.73-1.12.39-1.59-.34-.47-.48-1.03-.94-1.41-.31-.25-.76.19-.45.45.44.36.61.96.94,1.42v-.32c-2.07,4.82-4.24,9.6-6.52,14.32.09-.05.18-.1.27-.16-3.55-.35-7.1-.69-10.65-1.04-7.74-.76-15.48-1.51-23.21-2.27-7.55-.74-15.1-1.47-22.66-2.21-3.02-.29-6.05-.59-9.07-.89.1.08.2.15.3.23-1.58-7.78-1.48-15.8-1.01-23.69-.08.1-.15.2-.23.3.24-.04.47-.42.65-.41.31.01.67.12.98.02.25-.08.4-.27.64-.36.28-.1.7.04.93-.2.29-.3.47-.22.88-.21.37.02.68-.16,1-.3.99-.44,2.01-.79,3.04-1.14.88-.3,1.74-.64,2.62-.95.38-.14.79-.18,1.19-.24.55-.09,1.07-.27,1.62-.28.44-.01.89.05,1.33.06.37,0,.62-.4,1.04-.4,1.05-.01,2.11,0,3.16.05,4.1.16,8.17.74,12.19,1.53,2.01.39,4,.84,5.99,1.32.96.23,1.92.47,2.88.72.48.12.96.25,1.44.37.42.11.86,0,1.28-.03.38-.03.29.24.54.35.26.12.55.14.84.19.73.13,1.45.31,2.17.5,1.35.37,2.67.85,3.97,1.37,2.66,1.08,5.2,2.42,7.77,3.68,1.23.6,2.48,1.16,3.66,1.86,1.15.68,2.24,1.45,3.31,2.24,2.2,1.61,4.36,3.3,6.77,4.6.36.19.68-.35.32-.55Z"/>
      </g>
      <g>
        <path class="cls-2" d="M110.59,28.38c-1.6-10-14.4-16-22.4-20C77.8,3.18,65.8-.42,53.8.38c-11.6.8-22.4,5.2-32.8,9.2-.8,12.8-.8,26.4-2,40-.36,6.06-1.03,12.52-1.42,19.03.05,0,.1-.02.16-.03.13-.13.27-.27.4-.4.4,0,.93.13,1.2,0,.27-.27.53-.4,1.2-.4.13,0,.27-.27.4-.4.4,0,.8.13,1.2,0,2-.93,4-1.47,6-2.27.67-.27,1.6-.27,2.4-.53.67-.13,1.33,0,2,0,.27-.13.53-.4.8-.4,8.8-.13,17.33,1.73,26,4,.53.13,1.07-.13,1.6,0,.13.13.27.4.4.4,6,.93,11.2,4.13,16.66,6.67,4.13,2,7.46,5.47,11.73,7.73.4.27.53.8.8,1.2.06.1.12.19.19.28,3.38-7.87,6.51-15.9,9.48-24.08,3.2-9.6,11.6-22,10.4-32Z"/>
        <path class="cls-1" d="M110.9,28.29c-.89-5.33-4.82-9.4-9.01-12.49-4.42-3.26-9.42-5.69-14.33-8.1-6.79-3.33-14.02-5.84-21.5-7.04-7.61-1.22-15.22-.73-22.71,1.02-7.7,1.8-15.07,4.75-22.43,7.58-.14.05-.22.15-.23.3-.5,8.08-.69,16.18-1.03,24.28-.35,8.21-.95,16.4-1.63,24.58-.28,3.39-.56,6.78-.76,10.17-.01.22.21.34.4.3.24-.04.47-.42.65-.41.31.01.67.12.98.02.25-.08.4-.27.64-.36.28-.1.7.04.93-.2.29-.3.47-.22.88-.21.37.02.68-.16,1-.3.99-.44,2.01-.79,3.04-1.14.88-.3,1.74-.64,2.62-.95.38-.14.79-.18,1.19-.24.55-.09,1.07-.27,1.62-.28.44-.01.89.05,1.33.06.37,0,.62-.4,1.04-.4,1.05-.01,2.11,0,3.16.05,4.1.16,8.17.74,12.19,1.53,2.01.39,4,.84,5.99,1.32.96.23,1.92.47,2.88.72.48.12.96.25,1.44.37.42.11.86,0,1.28-.03.29-.02.41.29.64.39.28.12.66.13.96.19.73.14,1.45.32,2.16.52,1.46.41,2.9.95,4.29,1.54,2.74,1.16,5.36,2.56,8.04,3.85,1.29.62,2.54,1.24,3.75,2.02,1.19.76,2.32,1.61,3.45,2.45,1.15.86,2.3,1.71,3.5,2.5.6.4,1.23.78,1.86,1.13.39.22.6.41.81.81.14.27.28.52.46.77.12.17.44.24.54,0,3.18-7.43,6.13-14.95,8.92-22.53,1.13-3.08,2.3-6.11,3.66-9.1,1.38-3.03,2.82-6.04,4.09-9.12,2.01-4.83,3.85-10.17,3.25-15.48-.05-.4-.68-.4-.63,0,.73,6.37-2.03,12.74-4.57,18.42-1.35,3.03-2.8,6.01-4.1,9.05-1.37,3.19-2.46,6.5-3.68,9.75-2.36,6.29-4.84,12.53-7.49,18.7h.54c-.35-.48-.55-1.3-1.1-1.59-.83-.45-1.64-.94-2.43-1.46-1.49-.98-2.91-2.08-4.35-3.14-1.41-1.04-2.85-2.03-4.4-2.85-1.63-.86-3.32-1.61-4.98-2.43-3.27-1.62-6.58-3.2-10.14-4.1-.73-.18-1.95-.17-2.45-.76-.16-.19-.61-.13-.82-.12-.6.04-1.05,0-1.64-.15-1.99-.52-3.99-1.01-6-1.47-3.28-.74-6.58-1.36-9.91-1.79-1.68-.22-3.37-.37-5.07-.47-.81-.05-1.62-.07-2.43-.09-.41,0-.81,0-1.22,0-.33,0-.74-.06-1.05.08-.34.16-.52.33-.93.31-.37-.02-.74-.05-1.11-.04-.72.02-1.48.28-2.19.4-.72.13-1.39.45-2.07.7-.81.29-1.63.57-2.44.86-.7.25-1.39.53-2.07.84-.42.19-.83.08-1.26.06-.29-.01-.32.4-.61.41-.23,0-.47.05-.68.13-.2.07-.38.3-.59.32-.3.03-.62-.05-.91-.06-.29-.01-.37.39-.64.44.13.1.27.2.4.3.49-8.18,1.29-16.35,1.85-24.53.56-8.22.76-16.46,1.09-24.7.13-3.27.28-6.53.48-9.8-.08.1-.15.2-.23.3,7.15-2.75,14.29-5.59,21.75-7.42,3.82-.94,7.72-1.59,11.65-1.81,3.88-.21,7.78.05,11.62.66,7.57,1.21,14.88,3.84,21.73,7.23,4.87,2.41,9.78,4.83,14.14,8.1,3.91,2.93,7.49,6.83,8.31,11.81.07.4.68.23.61-.17Z"/>
      </g>
      <g>
        <path class="cls-2" d="M85.47,92.82c4.8,3.6,12,10,7.2,16.4-4.4,6-14.8,6.8-21.6,7.2-8.4,0-16.8-1.2-24.8-2.4-8.4-1.6-16.8-2.4-24.8-5.6-7.91-2.64-22.12-11.2-21.09-21.35.9-8.8,18.19-11.47,25.02-11.61,13.06-.27,24.62.42,37.12,4.73,8.13,2.81,16.06,7.48,22.94,12.63Z"/>
        <path class="cls-1" d="M85.31,93.09c4.15,3.12,10.7,8.55,8,14.47-1.18,2.58-3.64,4.35-6.13,5.52-2.61,1.22-5.48,1.85-8.32,2.29-2.71.42-5.54.74-8.29.73-4.15-.02-8.3-.34-12.42-.79-8.04-.88-16.05-2.23-24-3.73-6.36-1.2-12.7-3.01-18.46-6.01-4.8-2.5-9.57-5.85-12.64-10.38-1.4-2.06-2.36-4.45-2.4-6.96-.04-2.09.73-3.9,2.15-5.41,1.49-1.58,3.46-2.66,5.43-3.53,2.22-.98,4.58-1.66,6.95-2.2,4.71-1.07,9.43-1.35,14.24-1.37,7.6-.03,15.21.42,22.67,1.94,6.08,1.23,12.02,3.16,17.62,5.84,5.51,2.64,10.71,5.93,15.59,9.59.33.24.64-.3.32-.54-6.07-4.54-12.61-8.5-19.63-11.39-7.02-2.88-14.51-4.57-22.04-5.39-3.75-.41-7.52-.59-11.29-.65-3.04-.05-6.11-.09-9.15.12-4.49.31-9.02,1.12-13.28,2.6-3.77,1.3-8.1,3.39-9.71,7.31-.82,2.01-.6,4.4.03,6.43.74,2.39,2.19,4.51,3.84,6.36,3.56,4.01,8.32,7.03,13.16,9.26,6.24,2.88,12.95,4.42,19.69,5.58,7.92,1.36,15.85,2.73,23.86,3.47,3.78.35,7.63.65,11.43.4,2.74-.18,5.49-.45,8.19-.96,5.12-.96,11.26-3.11,13.37-8.38,2.26-5.66-3.57-10.93-7.51-14.02-.32-.25-.64-.49-.96-.74-.33-.25-.64.3-.32.54Z"/>
      </g>
      <g>
        <path class="cls-3" d="M73.42,93.94c3.07,2.3,7.67,6.39,4.6,10.48-2.81,3.83-9.46,4.35-13.8,4.6-5.37,0-10.74-.77-15.85-1.53-5.37-1.02-10.74-1.53-15.85-3.58-5.06-1.69-14.14-7.16-13.48-13.64.57-5.62,11.62-7.33,15.99-7.42,8.35-.17,15.74.27,23.73,3.02,5.2,1.79,10.26,4.78,14.66,8.07Z"/>
        <path class="cls-1" d="M73.26,94.21c2.23,1.68,5.08,3.95,5.43,6.93.37,3.09-2.79,5.16-5.29,6.08-2.65.97-5.51,1.25-8.31,1.43-3.88.26-7.86-.26-11.7-.76-3.99-.52-7.96-1.2-11.92-1.92-3.5-.63-6.9-1.53-10.2-2.86-2.49-1.01-4.87-2.4-6.96-4.07-2.05-1.64-3.99-3.71-4.73-6.28-.32-1.09-.38-2.3-.02-3.39.31-.93.99-1.7,1.73-2.32,1.78-1.49,4.15-2.27,6.36-2.84,5.45-1.41,11.24-1.26,16.81-.87,5.2.37,10.37,1.38,15.26,3.21,4.87,1.82,9.38,4.56,13.53,7.66.33.24.64-.3.32-.54-6.12-4.58-12.88-8.01-20.36-9.7-3.61-.82-7.31-1.22-11-1.39-3.04-.13-6.13-.21-9.16.07-2.26.21-4.52.62-6.7,1.26-2.1.62-4.24,1.51-5.87,3.01-1.56,1.44-2.04,3.38-1.65,5.44.47,2.48,2.2,4.6,4.01,6.26,4.31,3.96,10.05,6.16,15.69,7.41,3.83.85,7.76,1.47,11.64,2.04,4,.59,8.01,1.09,12.05,1.23,2.68.09,5.39-.13,8.03-.61,2.43-.44,4.9-1.21,6.82-2.81,1.95-1.62,2.84-4.09,1.77-6.48-1.07-2.4-3.22-4.19-5.28-5.74-.33-.25-.64.3-.32.55Z"/>
      </g>
    </g>
  </g>
</svg>