<?xml version="1.0" encoding="UTF-8"?>
<svg id="Layer_2" data-name="Layer 2" xmlns="http://www.w3.org/2000/svg" width="164.56" height="159.45" viewBox="0 0 164.56 159.45">
  <defs>
    <style>
      .cls-1 {
        fill: #f06a25;
      }

      .cls-2 {
        fill: #3a271f;
      }
    </style>
  </defs>
  <g id="Layer_1-2" data-name="Layer 1">
    <g>
      <g>
        <path class="cls-1" d="M71.46,79.59c21.57-16.2,40.5-42.65,63.96-56.9,2.16,3.44,5.6,9.71,6.28,13.42-9.44,7.09-68,68.37-70.38,42.74l.14.74Z"/>
        <path class="cls-2" d="M71.82,80.21c22.83-17.22,39.37-41.88,63.96-56.9-.33-.09-.66-.17-.99-.26,2.51,4.02,5.28,8.54,6.21,13.24.11-.27.22-.55.33-.82-4.57,3.45-8.63,7.67-12.82,11.56-6.76,6.28-13.58,12.51-20.64,18.46-6.64,5.59-13.51,11.16-21.11,15.41-3.24,1.82-10.22,5.78-13.42,1.89-.88-1.07-1.17-2.61-1.3-3.94-.09-.92-1.54-.93-1.45,0,1.54,15.58,22.07.33,27.64-3.82,13.96-10.4,26.42-22.62,39.25-34.33,1.48-1.35,3-2.78,4.57-3.97.28-.21.4-.47.33-.82-.96-4.82-3.78-9.47-6.36-13.59-.21-.33-.65-.47-.99-.26-24.6,15.03-41.13,39.68-63.96,56.9-.73.56-.01,1.82.73,1.25h0Z"/>
      </g>
      <g>
        <path class="cls-1" d="M96.65,120.98c11.18-14.31,7.68-16.73-4.68-29.81-8.57-9.17-29.3-34.51-43.53-32.68-13.35,2.44-35.11,30.17-45.63,39.76l-2.09,1.15c18.36,16.58,37.8,39.09,52.99,59.31,14.22-10.26,32.49-23.56,42.93-37.73Z"/>
        <path class="cls-2" d="M97.16,121.49c3.31-4.25,7.68-9.54,6.83-15.33-.34-2.32-1.71-4.41-3.11-6.23-2.1-2.75-4.55-5.22-6.93-7.72-7.96-8.39-15.35-17.3-24.26-24.75-4.24-3.55-8.88-6.9-14.14-8.75-2.11-.74-4.37-1.15-6.61-.99-2.02.15-3.99,1.03-5.77,1.93-4.87,2.46-9.15,6.16-13.16,9.81-4.77,4.34-9.24,9.01-13.66,13.71-2.98,3.17-5.93,6.38-8.95,9.52-1.26,1.32-2.54,2.62-3.85,3.88-1,.96-1.98,1.54-3.2,2.21-.4.22-.49.83-.15,1.14,19.6,17.74,37.01,38.06,52.88,59.16.22.29.65.51.99.26,7.82-5.64,15.61-11.34,23.03-17.51,7.36-6.13,14.44-12.76,20.16-20.48.56-.75-.7-1.47-1.25-.73-5.65,7.61-12.69,14.13-19.93,20.19-7.31,6.11-15.02,11.72-22.74,17.29.33.09.66.17.99.26-15.95-21.2-33.4-41.63-53.1-59.45-.05.38-.1.76-.15,1.14.68-.38,1.37-.75,2.05-1.13.81-.45,1.54-1.4,2.2-2.05,1.83-1.79,3.59-3.65,5.35-5.52,4.28-4.54,8.5-9.14,12.87-13.6,4.38-4.47,8.91-8.87,13.9-12.67,3.5-2.67,7.92-5.9,12.52-5.94,5.17-.04,10.12,3.02,14.2,5.89,5.18,3.64,9.8,8.05,14.23,12.56,3.87,3.94,7.54,8.06,11.25,12.14,2.15,2.36,4.38,4.65,6.55,6.99,2.02,2.17,4.07,4.41,5.46,7.05,3.13,5.97-2.02,12.21-5.52,16.71-.56.73.45,1.76,1.03,1.02Z"/>
      </g>
      <g>
        <path class="cls-1" d="M3.77,101.54c6.81-.51,14.61-10.04,19.98-14.12,8.43-6.19,19.21-18.19,30.65-16.51,11.44,1.68,25.67,18.19,31.63,27.42,7.12,11.32,3.74,21.93-5.89,29.88-10.67,8.53-20.37,16.11-29.72,25.54L3.77,101.54Z"/>
        <path class="cls-2" d="M3.77,102.27c6.27-.6,11.41-6.16,15.76-10.2,2.29-2.13,4.7-4.04,7.14-5.99,2.77-2.21,5.44-4.54,8.23-6.73,5.47-4.28,12.3-8.84,19.61-7.68,6.2.98,11.7,5.53,16.17,9.64,4.91,4.5,9.3,9.63,13.14,15.07,4.24,6.01,6.7,12.87,4.22,20.12-2.7,7.9-10.27,12.66-16.45,17.64-6.81,5.48-13.52,11.11-19.78,17.22-.64.62-1.27,1.25-1.9,1.89-.66.66.36,1.69,1.03,1.02,6.18-6.21,12.83-11.92,19.62-17.45,6.21-5.05,13.5-9.59,17.47-16.76,3.41-6.17,3.11-13.21.1-19.46-1.34-2.8-3.26-5.34-5.13-7.8-1.96-2.58-4.05-5.07-6.24-7.46-4.48-4.88-9.53-9.56-15.39-12.72-5.5-2.96-11.33-3.31-17.1-.81-6.55,2.83-11.92,7.74-17.37,12.22-2.41,1.98-4.9,3.81-7.21,5.92-2.64,2.42-5.21,4.92-8.06,7.1-2.28,1.74-4.94,3.49-7.86,3.77-.92.09-.93,1.54,0,1.45h0Z"/>
      </g>
      <g>
        <path class="cls-1" d="M136.92,1.68c-4.51.7-10.5,9.1-13.82,12.3-3.28,3.18-3.47,3.78-.5,7.3,3.35,3.96,8.29,9.16,10.01,14.17,2.32-1.87,3.51-4.71,6.31-6.12-2.67-2.52-5.42-6.68-6.64-9.82,3.01-2.24,5.65-5.57,8.31-8.11,4.8,4.53,9.38,9.81,12.87,15.17-2.53,2.6-6.2,5.59-9.49,7.01-1.34-.92-2.67-1.94-3.58-3.24-.75,3.41-5.3,4.14-5.68,7.26-.31,2.53,3.49,6.55,4.79,8.65,3.12,5.05,3.92,2.93,7.53-1.45,5.23-6.34,11.89-11.61,16.78-18.18-3.14-2.3-4.72-6.21-6.84-9.36-1.59-2.37-3.82-3.72-5.61-5.88-1.37-1.66-1.99-3.79-3.49-5.33-2.28-2.32-6.93-4.53-9.98-5.33l-.97.95Z"/>
        <path class="cls-2" d="M136.73.98c-3.2.6-5.82,3.44-7.95,5.69-1.33,1.4-2.59,2.86-3.86,4.31-1.26,1.43-2.66,2.72-3.92,4.14-.89.99-1.44,2.11-1.08,3.44.51,1.84,2.36,3.47,3.56,4.86,3.2,3.7,6.74,7.54,8.43,12.22.19.54.78.68,1.21.32,2.21-1.87,3.56-4.6,6.16-6,.41-.22.47-.82.15-1.14-2.73-2.64-5.03-5.97-6.46-9.5-.11.27-.22.55-.33.82,3.15-2.4,5.63-5.49,8.46-8.23h-1.03c4.78,4.53,9.14,9.51,12.76,15.03.04-.29.08-.59.11-.88-2.71,2.75-5.79,5.31-9.34,6.89h.73c-1.24-.86-2.41-1.76-3.32-2.98-.35-.48-1.15-.49-1.33.17-.57,2.17-2.72,3.19-4.24,4.64-1.36,1.29-1.77,2.97-1.17,4.73.74,2.18,2.37,4.04,3.72,5.85,1.04,1.4,2.01,3.86,3.83,4.41,1.61.49,2.8-.94,3.73-2.04,1.98-2.35,3.89-4.72,6.02-6.94,4.36-4.55,9.04-8.78,12.84-13.82.26-.34.02-.77-.26-.99-2.67-2.05-4.16-5.17-5.87-7.98-1.72-2.83-4.31-4.67-6.43-7.14-1.04-1.22-1.64-2.79-2.52-4.12-.76-1.16-1.83-2.03-2.95-2.84-2.46-1.77-5.41-3.08-8.33-3.88-.9-.25-1.29,1.15-.39,1.4,2.84.78,5.56,2.07,7.98,3.73,2.76,1.89,3.64,5.07,5.82,7.46,1.06,1.16,2.3,2.16,3.42,3.28,1.27,1.28,2.16,2.85,3.06,4.39,1.52,2.59,3.05,5.11,5.47,6.95-.09-.33-.17-.66-.26-.99-3.32,4.4-7.34,8.18-11.2,12.08-1.9,1.92-3.74,3.88-5.47,5.95-.75.9-1.46,1.82-2.21,2.72-.4.47-1.17,1.56-1.89,1.45-.88-.14-1.59-1.48-2.02-2.13-.51-.76-1.01-1.51-1.56-2.25-1.22-1.63-2.59-3.3-3.26-5.25-.65-1.92,1.01-3.19,2.35-4.24,1.41-1.11,2.69-2.26,3.16-4.06-.44.06-.88.11-1.33.17.86,1.16,1.88,2.08,3.03,2.94.37.27.84.78,1.36.64.75-.21,1.51-.71,2.18-1.09,2.82-1.6,5.36-3.8,7.63-6.1.22-.22.29-.61.11-.88-3.68-5.62-8.12-10.7-12.98-15.32-.29-.27-.73-.28-1.03,0-2.74,2.64-5.13,5.68-8.17,8-.24.18-.46.5-.33.82,1.52,3.77,3.91,7.31,6.83,10.14.05-.38.1-.76.15-1.14-2.73,1.48-4.14,4.28-6.46,6.23.4.11.81.21,1.21.32-1.36-3.77-3.85-6.99-6.39-10.04-1.36-1.64-2.78-3.22-4.15-4.85-.61-.73-1.27-1.52-1.52-2.44-.21-.77.58-1.57,1.03-2.07,2.28-2.55,4.66-5.05,6.98-7.57,2.08-2.26,4.68-5.31,7.86-5.9.92-.17.53-1.57-.38-1.4h0Z"/>
      </g>
    </g>
  </g>
</svg>