<?xml version="1.0" encoding="UTF-8"?>
<svg id="Layer_2" data-name="Layer 2" xmlns="http://www.w3.org/2000/svg" width="106.61" height="156.84" viewBox="0 0 106.61 156.84">
  <defs>
    <style>
      .cls-1 {
        fill: #d1d2d2;
      }

      .cls-2 {
        fill: #231f20;
      }

      .cls-3 {
        fill: #7b7c7c;
      }
    </style>
  </defs>
  <g id="Layer_1-2" data-name="Layer 1">
    <g>
      <path class="cls-2" d="M95.37,6.03c2.53-.07,4.96-.83,7.22-1.93-.29-.04-.59-.08-.88-.11,1.98,2.08,3.37,5.29,3.44,8.17.24-.24.48-.48.72-.73-2.43.12-4.45,1.71-6.86,1.83-.93.05-.94,1.49,0,1.45,2.43-.12,4.45-1.71,6.86-1.83.39-.02.74-.32.72-.73-.09-3.26-1.62-6.83-3.87-9.2-.24-.25-.59-.25-.88-.11-2.02.98-4.23,1.67-6.49,1.73-.93.02-.93,1.47,0,1.45h0Z"/>
      <g>
        <path class="cls-1" d="M14.07,155.25c-19.19,6.85-12.34-28.11-10.97-35.65,2.06-9.6,4.11-21.94,15.08-26.05,8.91-4.11,21.25-4.11,30.85-4.11,10.97.69,23.99-.68,34.28,2.06,13.03,4.11,15.77,18.51,18.51,30.16,2.06,8.91,6.85,25.36-3.43,31.53-11.65,6.85-20.56-13.71-26.73-19.88-8.91-7.54-26.05-7.54-35.65-2.06-10.28,6.17-13.03,21.25-24.68,24.68l2.74-.69Z"/>
        <path class="cls-2" d="M13.88,154.55c-3.39,1.18-7.21,1.41-9.56-1.76-2.23-3.02-2.62-7.24-2.77-10.87-.31-7.46.76-15.17,2.32-22.46,1.28-5.98,2.42-12.14,5.56-17.48,3.66-6.24,10.29-8.86,17.09-10.3,3.97-.84,8.03-1.17,12.08-1.35,3.78-.17,7.62-.31,11.4-.11,8.43.46,16.88-.15,25.29.63,3.85.36,7.79.95,11.24,2.78,2.77,1.47,5.05,3.7,6.84,6.25,3.6,5.11,5.23,11.37,6.68,17.36,1.32,5.48,2.78,10.98,3.57,16.56.79,5.58.93,12.3-3.1,16.76-1.79,1.98-4.37,3.31-7.06,3.28-2.41-.02-4.65-1.33-6.47-2.79-4.27-3.42-7.3-8.24-10.42-12.66-1.28-1.82-2.57-3.65-4.09-5.28-1.92-2.06-4.82-3.37-7.41-4.36-6.12-2.33-13.03-2.58-19.43-1.53-3.67.6-7.45,1.77-10.6,3.79-3.16,2.02-5.61,4.96-7.81,7.96-4.49,6.12-8.29,13.88-16.08,16.26-.89.27-.51,1.67.39,1.4,12.13-3.72,14.64-18.49,24.85-24.75,5.52-3.38,12.83-4.12,19.14-3.68,5.93.41,12.9,2.26,16.87,6.99,3.35,4,5.98,8.56,9.32,12.57,2.96,3.56,6.85,7.32,11.75,7.53,5.2.22,9.4-4.15,10.99-8.72,1.88-5.4.97-11.57-.1-17.03-1.09-5.58-2.44-11.18-3.92-16.67-1.56-5.77-3.69-11.56-7.68-16.11-1.97-2.25-4.47-4.01-7.21-5.21-3.35-1.46-7.15-1.87-10.75-2.2-8.4-.78-16.86-.16-25.28-.61-3.77-.2-7.62-.02-11.39.15-3.87.18-7.73.56-11.53,1.29-6.34,1.22-13.01,3.63-17,8.97-3.66,4.89-5.18,10.95-6.45,16.81-.75,3.44-1.39,6.9-1.91,10.39-1.07,7.12-1.94,14.75-.36,21.85.62,2.81,1.85,5.64,4.26,7.36,2.68,1.91,6.24,1.4,9.14.38.88-.3.5-1.7-.38-1.39h0Z"/>
      </g>
      <g>
        <path class="cls-3" d="M68.23,104.52v7.54h8.23v7.54h6.17c0-2.74,0-5.48.69-7.54h0c1.37.68,3.43-.69,4.8,0,.69-6.86-.69-7.54-6.85-7.54v-5.48c-4.11-.68-8.23.69-5.48,5.48h-7.54Z"/>
        <path class="cls-2" d="M67.5,104.52v7.54c0,.39.33.73.72.73h8.23c-.24-.24-.48-.48-.72-.73v7.54c0,.39.33.73.72.73h6.17c.4,0,.72-.33.72-.73,0-2.46-.06-4.98.66-7.35-.3.17-.59.34-.89.51,1.61.61,3.24-.59,4.8,0,.48.18.88-.27.92-.7.21-2.2.58-5.08-1.07-6.85-1.52-1.62-4.52-1.41-6.51-1.41.24.24.48.48.72.73v-5.48c0-.29-.22-.65-.53-.7-1.95-.3-4.51-.44-6.12.95-1.77,1.53-1.15,3.79-.18,5.6.21-.36.42-.73.63-1.09h-6.17c-.94,0-.94,1.45,0,1.45h6.17c.56,0,.89-.61.63-1.09-.74-1.36-1.35-3.07.26-4.02,1.25-.74,3.04-.6,4.41-.4-.18-.23-.35-.47-.53-.7v5.48c0,.4.33.72.72.73,1.66,0,4.16-.25,5.49.99,1.36,1.27.8,4.24.65,5.83.31-.23.61-.47.92-.7-1.61-.61-3.24.59-4.8,0-.38-.14-.78.15-.89.51-.76,2.49-.71,5.15-.71,7.73.24-.24.48-.48.72-.73h-6.17c.24.24.48.48.72.73v-7.54c0-.39-.33-.73-.72-.73h-8.23c.24.24.48.48.72.73v-7.54c0-.93-1.45-.93-1.45,0h0Z"/>
      </g>
      <path class="cls-2" d="M52.58,89.03c-1.77-2.76-4.01-5.33-5.04-8.49-1.02-3.14-.65-7.11,1.2-9.87,2.94-4.36,9.9-2.64,14.12-1.86,2.62.48,5.36,1.15,8.03.76,3.08-.45,5.59-2.64,7.36-5.06,2.05-2.8,2.51-5.91,1.07-9.08-1.43-3.14-4.12-5.59-5.2-8.9-1.05-3.22,1.03-5.46,3.53-7.16,2.81-1.91,5.92-3.33,8.51-5.57,3.19-2.75,5.03-6.18,3.98-10.39-.55-2.2-1.79-4.15-2.36-6.34-.6-2.31,1.33-3.14,3.22-3.74.89-.28.51-1.68-.39-1.4-2.14.67-4.4,1.7-4.42,4.25,0,1.16.48,2.33.92,3.38.74,1.75,1.53,3.45,1.86,5.33,1.09,6.11-6.36,9.74-10.63,12.32-3.62,2.19-6.95,5.06-5.62,9.7.91,3.16,3.36,5.71,4.97,8.52,2.17,3.8.51,7.52-2.44,10.32-2.04,1.94-4.8,2.83-7.57,2.38-1.9-.3-3.79-.61-5.68-.95-3.54-.64-7.48-1.34-10.95-.03-3.95,1.49-5.32,5.67-5.47,9.56-.19,5.19,3.09,8.94,5.74,13.05.5.78,1.76.06,1.25-.73h0Z"/>
      <g>
        <path class="cls-1" d="M88.06,6.68c-.46.46,4.57,10.05,5.94,11.88h0c1.83-.46,3.2-1.37,5.03-1.83,3.2-.46,3.66.46,3.66-2.29,0-4.11-4.57-10.05-5.94-13.71-1.37.91-8.23,5.03-7.77,5.48l-.91.46Z"/>
        <path class="cls-2" d="M87.43,6.31c-.34.57.06,1.36.28,1.9.48,1.21,1.07,2.39,1.65,3.55,1.2,2.41,2.41,4.97,4.01,7.16.19.27.48.43.82.33,1.41-.39,2.7-1.03,4.07-1.54,1.14-.42,2.29-.36,3.47-.48,1.67-.17,1.7-1.75,1.67-3.11-.06-2.28-1.23-4.52-2.25-6.51-1.21-2.36-2.74-4.6-3.71-7.08-.16-.41-.64-.71-1.06-.43-1.76,1.16-3.58,2.24-5.33,3.42-.74.5-3.35,1.81-2.69,3.05.44.83,1.69.1,1.25-.73.26.49-.2.77.21.38.26-.24.55-.45.83-.66.79-.58,1.61-1.11,2.43-1.64,1.34-.87,2.71-1.69,4.04-2.57-.35-.14-.71-.29-1.06-.43,1.58,4.04,4.45,7.49,5.65,11.7.26.91.3,1.82.24,2.75-.04.61-.59.45-1.12.47-2.56.11-4.58,1.34-7,2.01.27.11.55.22.82.33-1.29-1.77-2.28-3.81-3.29-5.75-.6-1.15-1.18-2.32-1.73-3.5-.22-.48-.44-.97-.63-1.47-.14-.35-.07-.81-.29-.43.48-.81-.77-1.54-1.25-.73h0Z"/>
      </g>
      <path class="cls-2" d="M24.11,98.78c1.8.39,2.38,1.9,1.93,3.58-.5,1.86-2.21,2.78-4.03,2.27-3.44-.96-1-6.31,2.1-5.85.91.14,1.31-1.26.39-1.4-2.44-.36-4.4.96-5.27,3.24-.85,2.23.16,4.61,2.4,5.41,5.46,1.96,8.7-7.37,2.87-8.65-.91-.2-1.3,1.2-.39,1.4Z"/>
      <path class="cls-2" d="M24.11,115.11c1.8.39,2.38,1.9,1.93,3.58-.5,1.86-2.21,2.78-4.03,2.27-3.44-.96-1-6.31,2.1-5.85.91.14,1.31-1.26.39-1.4-2.44-.36-4.4.96-5.27,3.24-.85,2.23.16,4.61,2.4,5.41,5.46,1.96,8.7-7.37,2.87-8.65-.91-.2-1.3,1.2-.39,1.4Z"/>
      <path class="cls-2" d="M14.89,106.79c1.8.39,2.38,1.9,1.93,3.58-.5,1.86-2.21,2.78-4.03,2.27-3.44-.96-1-6.31,2.1-5.85.91.14,1.31-1.26.39-1.4-2.45-.36-4.4.96-5.27,3.24-.85,2.23.16,4.61,2.4,5.41,5.46,1.96,8.71-7.37,2.87-8.65-.91-.2-1.3,1.2-.39,1.4Z"/>
      <path class="cls-2" d="M33.17,106.79c1.8.39,2.38,1.9,1.93,3.58-.5,1.86-2.21,2.78-4.03,2.27-3.44-.96-1-6.31,2.1-5.85.91.14,1.31-1.26.39-1.4-2.44-.36-4.4.96-5.27,3.24-.85,2.23.16,4.61,2.4,5.41,5.46,1.96,8.7-7.37,2.87-8.65-.91-.2-1.3,1.2-.39,1.4Z"/>
      <g>
        <path class="cls-3" d="M43.01,114.67c6.71,1.22,4.16,11.58-2,11.27-8.36-.42-5.28-12.6,2-11.27Z"/>
        <path class="cls-2" d="M42.82,115.37c3,.62,3.96,3.33,3.12,6.07-.89,2.88-3.62,4.34-6.48,3.5-2.51-.73-3.11-3.42-2.46-5.67.74-2.56,3.15-4.33,5.83-3.91.91.14,1.31-1.25.39-1.4-3.48-.55-6.36,1.45-7.54,4.7-1.1,3.05.09,6.37,3.15,7.59,7.93,3.16,12.87-10.53,4.39-12.28-.91-.19-1.3,1.21-.39,1.4Z"/>
      </g>
      <g>
        <path class="cls-3" d="M64.25,114.67c6.71,1.22,4.16,11.58-2,11.27-8.36-.42-5.28-12.6,2-11.27Z"/>
        <path class="cls-2" d="M64.06,115.37c3,.62,3.96,3.33,3.12,6.07-.89,2.88-3.62,4.34-6.48,3.5-2.51-.73-3.11-3.42-2.46-5.67.74-2.56,3.15-4.33,5.83-3.91.91.14,1.31-1.25.39-1.4-3.48-.55-6.36,1.45-7.54,4.7-1.1,3.05.09,6.37,3.15,7.59,7.93,3.16,12.87-10.53,4.39-12.28-.91-.19-1.3,1.21-.39,1.4Z"/>
      </g>
      <path class="cls-2" d="M42.22,103.73c1.71.88,4.04.62,5.81.07-.3-.3-.59-.59-.89-.89-.49,1.46-.27,3.03-.25,4.53.24-.24.48-.48.72-.73-2.06-.03-4.1-.41-6.17-.23.23.18.47.36.7.53-.14-.7-.2-2.74.58-3.07.86-.36.12-1.61-.73-1.25-1.49.63-1.51,3.4-1.25,4.7.06.29.4.56.7.53,2.07-.18,4.11.2,6.17.23.39,0,.73-.33.72-.73-.02-1.37-.24-2.83.2-4.15.18-.52-.38-1.05-.89-.89-1.37.42-3.36.76-4.7.07-.83-.42-1.56.83-.73,1.25h0Z"/>
      <path class="cls-2" d="M53.42,103.11v3.66c0,.39.33.73.72.73,1.83-.01,3.73-.25,5.52.2.4.1.76-.13.89-.51.49-1.38.48-2.86.48-4.31,0-.39-.33-.73-.72-.73-1.91.03-3.8.41-5.71.23-.93-.09-.92,1.36,0,1.45,1.91.18,3.8-.2,5.71-.23-.24-.24-.48-.48-.72-.73,0,1.32.01,2.66-.43,3.92.3-.17.59-.34.89-.51-1.93-.48-3.94-.27-5.91-.25.24.24.48.48.72.73v-3.66c0-.94-1.45-.94-1.45,0h0Z"/>
    </g>
  </g>
</svg>