<?xml version="1.0" encoding="UTF-8"?>
<svg id="Layer_2" data-name="Layer 2" xmlns="http://www.w3.org/2000/svg" width="181.02" height="124.13" viewBox="0 0 181.02 124.13">
  <defs>
    <style>
      .cls-1 {
        fill: #fff;
      }

      .cls-2 {
        fill: #ef3d3a;
      }

      .cls-3 {
        fill: #231f20;
      }

      .cls-4 {
        fill: #7b7c7c;
      }
    </style>
  </defs>
  <g id="Layer_1-2" data-name="Layer 1">
    <g>
      <g>
        <path class="cls-4" d="M58.47,17.12c-10.79,4.89-22.29,7.94-33.67,10.64.35,3.01.53,6.02,1.13,9.03.43,3.48,2.61,6.96,3.04,10.44l32.61-9.57c0-3.91-1.3-8.26-1.74-12.18-.33-2.98-.66-5.7-1.38-8.37Z"/>
        <path class="cls-3" d="M58.1,16.49c-10.72,4.82-22.1,7.85-33.5,10.57-.29.07-.57.39-.53.7.38,3.41.68,6.8,1.32,10.17.61,3.27,2.4,6.18,2.89,9.49.06.39.55.61.89.51,10.87-3.19,21.74-6.38,32.61-9.57.31-.09.54-.37.53-.7-.04-3.34-.82-6.6-1.4-9.87-.64-3.62-.82-7.29-1.74-10.86-.23-.9-1.63-.52-1.4.39.84,3.24,1.09,6.55,1.58,9.86.52,3.5,1.47,6.93,1.51,10.5.18-.23.35-.47.53-.7-10.87,3.19-21.74,6.38-32.61,9.57.3.17.59.34.89.51-.44-2.97-1.83-5.67-2.66-8.54-.99-3.45-1.1-7.18-1.5-10.74-.18.23-.35.47-.53.7,11.53-2.75,23.01-5.84,33.85-10.71.85-.38.11-1.63-.73-1.25Z"/>
      </g>
      <g>
        <path class="cls-2" d="M57.67,14.61c-.87-3.48-2.17-5.65-2.17-9.13-1.74.87-4.78.43-6.52.87-3.04.43-5.65,1.3-8.26,2.61-6.09,2.17-13.48,3.48-18.7,6.52,0,3.04,1.3,5.65,2.17,8.26.27,1.34.45,2.67.61,4.01,11.38-2.71,22.88-5.75,33.67-10.64-.22-.84-.49-1.67-.8-2.5Z"/>
        <path class="cls-3" d="M58.37,14.42c-.78-2.99-2.09-5.8-2.15-8.94-.01-.6-.6-.84-1.09-.63-1.22.54-2.64.49-3.94.54-1.32.05-2.6.27-3.9.51-3.02.57-5.66,2.01-8.55,2.95-5.73,1.87-11.81,2.98-17.1,6-.22.12-.36.37-.36.63.05,2.03.57,3.93,1.25,5.83.78,2.16,1.26,4.15,1.53,6.44.06.47.42.82.92.7,11.53-2.75,23.01-5.84,33.85-10.71.29-.13.41-.53.33-.82-.23-.85-.5-1.68-.8-2.5-.32-.87-1.72-.49-1.4.39.3.83.56,1.66.8,2.5.11-.27.22-.55.33-.82-10.72,4.82-22.1,7.85-33.5,10.57.31.23.61.47.92.7-.24-2.06-.54-4-1.26-5.95-.77-2.06-1.47-4.1-1.52-6.33-.12.21-.24.42-.36.63,5.3-3.02,11.46-4.12,17.2-6,2.91-.95,5.53-2.32,8.59-2.9,2.52-.48,5.31-.06,7.7-1.1-.36-.21-.73-.42-1.09-.63.06,3.28,1.39,6.2,2.2,9.32.24.91,1.64.52,1.4-.38Z"/>
      </g>
      <g>
        <path class="cls-2" d="M107.74,11.63c-1.08-4.78-2.63-10.59-7.46-10.94-4.78,0-10.44.43-15.22.87-5.22.43-10,2.61-15.22,2.17.64,3.81,1.04,8.08,1.21,12.47,12.38-.93,24.42-4.73,36.69-4.58Z"/>
        <path class="cls-3" d="M108.44,11.44c-.69-3.02-1.44-6.23-3.34-8.76C102.98-.15,100.07-.07,96.82.04c-4.31.14-8.71.36-12.98.94-4.68.63-9.21,2.36-13.99,2.04-.51-.03-.77.49-.7.92.66,4.06,1.01,8.17,1.18,12.28.02.37.32.76.72.73,12.3-.96,24.29-4.67,36.69-4.58.93,0,.93-1.44,0-1.45-12.4-.09-24.39,3.62-36.69,4.58.24.24.48.48.72.73-.18-4.24-.55-8.47-1.23-12.67-.23.31-.47.61-.7.92,3.86.26,7.57-.77,11.31-1.56,4.1-.87,8.38-1.03,12.56-1.27,3.36-.2,7.55-1.13,10.04,1.67,2,2.25,2.64,5.68,3.29,8.52.21.91,1.61.53,1.4-.38Z"/>
      </g>
      <g>
        <path class="cls-4" d="M107.74,11.63c-12.27-.15-24.31,3.65-36.69,4.58.06,1.63.1,3.27.1,4.92,0,4.35,1.3,8.7.87,13.05l40.01.43h.87c-1.74-6.52-2.61-13.05-4.35-19.57-.27-.99-.52-2.17-.8-3.41Z"/>
        <path class="cls-3" d="M107.74,10.91c-12.4-.09-24.39,3.62-36.69,4.58-.38.03-.74.31-.72.73.11,2.91.03,5.83.35,8.73.34,3.08.87,6.13.61,9.24-.03.4.35.72.72.73,13.28.14,26.55.29,39.83.43.35,0,.7,0,1.04,0,.47,0,.82-.46.7-.92-1.02-3.88-1.77-7.81-2.57-11.74-.76-3.77-1.74-7.49-2.59-11.24-.21-.91-1.6-.52-1.4.39.85,3.75,1.82,7.47,2.59,11.24.8,3.93,1.55,7.86,2.57,11.74.23-.31.47-.61.7-.92-13.52,0-27.04-.28-40.55-.43-.11,0-.22,0-.32,0,.24.24.48.48.72.73.24-2.92-.19-5.8-.55-8.7-.38-3.08-.3-6.17-.42-9.27-.24.24-.48.48-.72.73,12.3-.96,24.29-4.67,36.69-4.58.94,0,.93-1.44,0-1.45Z"/>
      </g>
      <g>
        <path class="cls-1" d="M13.31,61.58c1.3-4.35,1.3-10.44,2.61-14.79,11.31-3.48,21.31-8.7,32.61-11.31,11.74-2.61,23.92-4.78,35.66-7.39,11.74-2.61,23.48-.87,35.22-3.04,8.7-1.3,20.44-5.22,27.4,1.3,4.35,3.91,8.26,8.7,11.74,13.48,2.61,3.48,6.09,7.39,7.39,11.31L13.31,61.58Z"/>
        <path class="cls-3" d="M14.01,61.77c1.39-4.83,1.22-9.96,2.61-14.79-.17.17-.34.34-.51.51,8.47-2.63,16.55-6.34,24.96-9.14,8.7-2.9,17.89-4.35,26.86-6.14,9.29-1.86,18.51-4.33,28-4.86,4.66-.26,9.32-.26,13.98-.51,4.17-.23,8.28-.8,12.39-1.55,7.59-1.38,17.54-4.28,24,1.58,3.99,3.62,7.47,7.76,10.7,12.07,2.92,3.91,6.6,7.73,8.25,12.4.31.88,1.71.5,1.4-.39-1.29-3.65-3.76-6.7-6.11-9.72-2.66-3.42-5.18-6.92-8.05-10.17-2.46-2.78-5.15-5.88-8.55-7.52-2.88-1.39-6.17-1.65-9.32-1.54-7.56.28-14.92,2.64-22.45,3.25-9.21.74-18.49.16-27.59,2.03-7.69,1.58-15.38,3.21-23.08,4.76-7.51,1.51-15.03,2.94-22.29,5.43-7.03,2.41-13.84,5.42-20.88,7.8-1.16.39-2.83.42-3.21,1.74-.46,1.58-.69,3.24-.92,4.87-.44,3.18-.69,6.42-1.58,9.52-.26.9,1.14,1.28,1.4.39h0Z"/>
      </g>
      <g>
        <path class="cls-4" d="M37.67,43.31c1.74,2.61,0,3.04,3.04,3.91,1.74.43,7.83,0,9.57-.87,0-2.17-.43-3.91-.43-5.65-3.91-.43-9.13,1.74-12.61,2.61h.43Z"/>
        <path class="cls-3" d="M37.04,43.68c.6.95.63,2.23,1.29,3.09.71.93,2.13,1.2,3.22,1.3,2.81.27,6.49.1,9.09-1.09.22-.1.36-.39.36-.63-.03-1.89-.4-3.76-.43-5.65,0-.42-.33-.69-.72-.73-4.4-.39-8.63,1.56-12.8,2.64-.9.23-.52,1.63.39,1.4,4.05-1.04,8.15-2.96,12.42-2.58-.24-.24-.48-.48-.72-.73.04,1.89.41,3.76.43,5.65.12-.21.24-.42.36-.63-2.19,1-5.16.97-7.53.94-.74-.01-2.63-.05-2.96-.86-.4-.99-.54-1.92-1.13-2.86-.5-.79-1.75-.06-1.25.73h0Z"/>
      </g>
      <g>
        <path class="cls-4" d="M56.36,39.4c0,2.17.87,4.78.43,6.96,4.78-.43,9.57-1.3,14.78-1.3,0-2.61-.87-5.65-1.3-7.83-3.04-.43-11.74,0-13.48,1.74l-.43.44Z"/>
        <path class="cls-3" d="M55.64,39.4c.06,2.25.82,4.51.46,6.77-.07.42.19.97.7.92,4.93-.46,9.82-1.27,14.78-1.3.39,0,.73-.33.72-.73-.05-2.73-.78-5.36-1.33-8.02-.07-.34-.39-.49-.7-.53-2.5-.33-5.09-.17-7.59.09-2.05.21-4.79.4-6.4,1.86-.69.63.33,1.65,1.03,1.02,1.42-1.29,4.32-1.34,6.1-1.51,2.26-.21,4.61-.32,6.87-.02-.23-.18-.47-.36-.7-.53.52,2.53,1.23,5.03,1.28,7.64.24-.24.48-.48.72-.73-4.96.03-9.85.84-14.78,1.3.23.31.47.61.7.92.39-2.42-.35-4.74-.41-7.15-.02-.93-1.47-.93-1.45,0h0Z"/>
      </g>
      <g>
        <path class="cls-4" d="M76.8,35.49c.87,2.17.87,4.78,1.74,7.39h0c4.78,0,12.18.43,16.96-1.3-.43-3.04-.43-6.52-1.74-9.57-5.22,2.61-11.31,3.48-16.96,3.48h0Z"/>
        <path class="cls-3" d="M76.1,35.68c.88,2.39.98,4.97,1.74,7.39.1.31.37.53.7.53,5.66.01,11.71.56,17.15-1.33.41-.14.56-.48.51-.89-.44-3.23-.5-6.51-1.74-9.57-.18-.45-.61-.65-1.07-.43-5.16,2.52-10.9,3.36-16.59,3.38-.93,0-.93,1.45,0,1.45,5.96-.03,11.93-.94,17.33-3.58-.35-.14-.71-.29-1.07-.43,1.24,3.05,1.3,6.34,1.74,9.57.17-.3.34-.59.51-.89-5.32,1.85-11.23,1.29-16.77,1.28.23.18.47.36.7.53-.76-2.42-.86-5.01-1.74-7.39-.32-.87-1.72-.49-1.4.39h0Z"/>
      </g>
      <g>
        <path class="cls-4" d="M119.38,66.18c-1.16.29-2.61.87-3.48.87-13.34.87-26.67-.29-40.01.87-.87.29-2.61.58-3.48.58-20.87,2.03-41.17,3.48-62.04,2.03-3.21-.23-6.42-1.18-9.63-1.28-.23,12.11.96,24.83,6.48,34.95,8.7,16.52,30.44,14.35,46.09,16.09,21.74,2.17,42.18,4.78,63.49,1.74,19.57-3.04,42.61-7.83,53.49-25.66,7.5-12.18,9.16-27.06,9.66-41.57-6.59,2.66-13.27,4.12-20.57,5.58-13.63,2.9-26.38,2.32-40.01,5.8Z"/>
        <path class="cls-3" d="M119.19,65.48c-.82.22-1.63.49-2.45.71-.99.27-2.1.21-3.12.27-2.47.13-4.95.18-7.43.21-4.76.05-9.53-.02-14.29-.02-4.77,0-9.53.08-14.29.42-1.67.12-3.24.59-4.91.71-2.39.18-4.77.44-7.16.65-9.45.86-18.91,1.53-28.4,1.83-4.73.15-9.46.18-14.19.1-4.81-.08-9.75-.09-14.52-.76-2.57-.36-5.08-.95-7.68-1.07-.4-.02-.72.34-.72.73-.15,8.3.33,16.68,2.45,24.75,1.73,6.6,4.66,13.32,9.95,17.82,9.19,7.82,22.59,7.9,33.98,8.62,7.97.51,15.91,1.52,23.86,2.26,9.2.86,18.42,1.5,27.66,1.42,8.41-.07,16.72-.94,25-2.37,6.77-1.17,13.51-2.64,20.04-4.83,11.16-3.74,21.66-9.98,27.96-20.19,7.7-12.48,9.25-27.59,9.76-41.93.02-.43-.48-.87-.92-.7-9.41,3.76-19.76,5.82-29.78,7.11-10.3,1.32-20.7,1.73-30.8,4.27-.91.23-.52,1.63.39,1.4,10.34-2.6,20.99-2.97,31.51-4.36,9.78-1.29,19.88-3.35,29.07-7.02-.31-.23-.61-.47-.92-.7-.57,15.94-2.42,33.72-13.3,46.29-9.06,10.48-23.03,15.05-36.15,17.86-7.58,1.63-15.27,2.85-23.01,3.38-9.2.63-18.44.32-27.63-.34-9.07-.65-18.11-1.7-27.16-2.58-6.03-.59-12.09-.7-18.11-1.39-9.3-1.06-19.07-3.77-24.64-11.89-3.4-4.96-5.22-11.04-6.36-16.89-1.28-6.57-1.52-13.32-1.4-20-.24.24-.48.48-.72.73,2.28.11,4.51.57,6.76.93,2.28.37,4.58.47,6.88.59,4.74.25,9.5.35,14.25.34,9.46-.02,18.92-.52,28.35-1.25,4.76-.37,9.52-.8,14.27-1.26,1.53-.15,3.04-.24,4.53-.63,2.33-.61,5.12-.41,7.52-.49,9.52-.34,19.05.11,28.58-.23,1.44-.05,2.88-.13,4.31-.23,1.14-.08,2.27-.58,3.36-.88.9-.24.52-1.64-.38-1.4Z"/>
      </g>
      <g>
        <path class="cls-2" d="M153.77,44.62c-30.44,7.83-63.49,7.39-94.8,8.7-13.91.43-27.4,3.04-41.31,3.04-4.35,0-10.87.87-15.22-1.3l-.87-.43c-.38,4.61-.73,9.57-.83,14.63,3.21.1,6.42,1.05,9.63,1.28,20.87,1.45,41.17,0,62.04-2.03.87,0,2.61-.29,3.48-.58,13.34-1.16,26.67,0,40.01-.87.87,0,2.32-.58,3.48-.87,13.63-3.48,26.38-2.9,40.01-5.8,7.3-1.46,13.98-2.92,20.57-5.58.2-5.69.22-11.32.34-16.7-8.26,3.91-17.83,4.35-26.53,6.52Z"/>
        <path class="cls-3" d="M153.58,43.92c-17.64,4.51-35.83,6.24-53.97,7.18-18.19.94-36.49.71-54.62,2.49-8.16.8-16.3,1.8-24.51,2.01-3.32.09-6.65.22-9.97.2-3.03-.01-5.85-.45-8.57-1.81-.52-.26-1.04.06-1.09.63-.4,4.87-.72,9.74-.83,14.63,0,.41.34.71.72.73,2.28.11,4.51.57,6.76.93,2.28.37,4.58.47,6.88.59,4.74.25,9.5.35,14.25.34,9.46-.02,18.92-.52,28.35-1.25,4.76-.37,9.52-.8,14.27-1.26,1.53-.15,3.04-.24,4.53-.63,2.33-.61,5.12-.41,7.52-.49,9.52-.34,19.05.11,28.58-.23,2.57-.09,4.82-.27,7.28-.99,2.83-.83,5.79-1.33,8.7-1.8,6.06-.98,12.19-1.43,18.29-2.08,5.94-.63,11.78-1.65,17.62-2.89,5.56-1.18,11.07-2.61,16.36-4.72.31-.12.52-.35.53-.7.19-5.57.22-11.14.34-16.7.01-.59-.61-.85-1.09-.63-8.29,3.85-17.58,4.29-26.35,6.45-.91.22-.52,1.62.39,1.4,8.91-2.19,18.27-2.68,26.7-6.6-.36-.21-.73-.42-1.09-.63-.12,5.57-.15,11.14-.34,16.7.18-.23.35-.47.53-.7-8.15,3.25-16.94,5.1-25.57,6.51-9.03,1.47-18.21,1.8-27.25,3.26-2.23.36-4.44.81-6.64,1.33-2.09.5-3.95,1.1-6.12,1.22-4.76.26-9.53.27-14.29.25-4.76-.02-9.53-.07-14.29.02-2.29.05-4.57.14-6.86.28-1.96.12-3.79.56-5.72.76-11.91,1.26-23.91,2.14-35.88,2.51-6.06.19-12.12.19-18.18,0-3.04-.1-6.09-.23-9.12-.48-3.05-.26-6.02-1.1-9.09-1.24.24.24.48.48.72.73.1-4.89.42-9.76.83-14.63-.36.21-.73.42-1.09.63,2.68,1.34,5.4,1.88,8.39,1.99,3.79.14,7.65-.1,11.44-.2,9.32-.24,18.57-1.54,27.84-2.36,9.08-.81,18.21-.95,27.31-1.23,9.08-.29,18.16-.58,27.23-1.1,16.99-.98,34.02-2.8,50.53-7.02.91-.23.52-1.63-.38-1.4Z"/>
      </g>
    </g>
  </g>
</svg>