<?xml version="1.0" encoding="UTF-8"?>
<svg id="Layer_2" data-name="Layer 2" xmlns="http://www.w3.org/2000/svg" width="94.98" height="109.74" viewBox="0 0 94.98 109.74">
  <defs>
    <style>
      .cls-1 {
        fill: #bad232;
      }

      .cls-2 {
        fill: #3a271f;
      }
    </style>
  </defs>
  <g id="Layer_1-2" data-name="Layer 1">
    <g>
      <g>
        <path class="cls-1" d="M68.07,19.5c-3.98,1.59-11.15,5.97-16.73,3.19-15.93-7.57,9.56-31.87,19.12-17.53,4.38,6.37,0,12.35-5.58,16.33l3.19-1.99Z"/>
        <path class="cls-2" d="M67.88,18.8c-5.76,2.35-12.46,6.51-18.27,1.99-3.14-2.44-3.15-6.32-1.51-9.66,3.16-6.42,13.32-13.33,19.97-7.64,2.44,2.09,3.9,5.39,3.29,8.59-.72,3.72-3.91,6.66-6.83,8.78-.75.54-.03,1.8.73,1.25,2.86-2.08,5.54-4.6,6.95-7.91,1.36-3.21.77-6.56-1.11-9.41C68.85,1.39,65.18-.36,61.14.06c-7.22.75-15.32,7.67-15.64,15.23-.15,3.68,2.33,6.48,5.47,8.01,5.83,2.85,11.94-.93,17.29-3.11.85-.35.48-1.75-.39-1.4h0Z"/>
      </g>
      <g>
        <path class="cls-1" d="M29.09,61.08c1.2-8.37,13.94-35.05,21.91-41.82,3.19-2.39,8.36-2.79,12.75-2.79-1.99,11.55-9.56,23.1-15.14,33.46-6.37,12.35-7.97,9.16-19.92,11.95l.4-.8Z"/>
        <path class="cls-2" d="M29.79,61.27c.55-3.71,2.06-7.32,3.47-10.76,2.08-5.09,4.5-10.04,7.13-14.87,2.4-4.42,5-8.82,8.16-12.74,1.31-1.62,2.67-3.12,4.56-4.05,3.21-1.57,7.14-1.64,10.63-1.65-.23-.31-.47-.61-.7-.92-1.2,6.68-4,12.9-7.11,18.88-2.99,5.74-6.19,11.41-9.37,17.05-1.63,2.89-3.54,5.84-6.85,6.89-3.59,1.14-7.54,1.25-11.21,2.09-.91.21-.52,1.61.39,1.4,3.74-.86,7.74-.99,11.4-2.15,3.23-1.03,5.26-3.73,6.96-6.53,1.58-2.6,2.92-5.34,4.41-7.99,1.78-3.18,3.58-6.35,5.29-9.57,3.29-6.21,6.26-12.73,7.5-19.69.08-.46-.2-.92-.7-.92-3.37.01-6.8.21-10.02,1.3-2.31.78-3.95,2.22-5.52,4.02-3.3,3.79-5.91,8.19-8.36,12.56-2.8,4.99-5.3,10.14-7.53,15.41-1.6,3.78-3.32,7.78-3.93,11.87-.13.91,1.26,1.3,1.4.38h0Z"/>
      </g>
      <g>
        <path class="cls-1" d="M13.82,108.43c-4.48-2.39-8.07-16.13-10.46-21.21-7.47-15.24,1.49-18.82,15.54-24.5,12.85-5.08,25.69-8.96,38.24-14.04,14.64-6.27,20.91-7.77,27.78,7.47,4.78,10.76,17.03,23.3,2.39,30.77-2.39-6.27-9.56-33.46-17.92-25.1,2.99,8.96,8.66,17.33,10.76,26.89-2.69.6-5.68,1.79-8.36,2.69-4.18-8.66-7.77-17.33-11.05-26.29-7.17,5.08-8.96,3.88-4.78,12.85,2.69,5.38,5.68,10.76,6.87,16.73-3.58.9-6.87,2.99-10.46,3.59-1.79-6.57-5.38-13.15-8.07-19.12-3.58-8.07-4.78-5.68-12.85-2.69,2.09,6.87,8.07,18.82,12.85,24.5-13.14,10.76-16.43-11.05-21.81-20.02-8.07,3.88-9.26,1.49-5.08,10.16,2.99,5.68,2.69,11.95,5.98,17.03-2.69,0-7.17.6-8.66.9l-.9-.6Z"/>
        <path class="cls-2" d="M14.18,107.81c-2.06-1.17-3.23-3.76-4.22-5.8-1.37-2.84-2.43-5.82-3.5-8.78-.89-2.44-1.77-4.86-2.88-7.21-1.29-2.74-2.31-5.76-2.18-8.82.21-5.13,4.95-8.04,9.06-10.08,7.21-3.57,14.95-6.17,22.52-8.85,8.6-3.04,17.29-5.91,25.69-9.47,4.58-1.94,10.17-4.68,15.3-3.71,5.25.99,8.1,6.64,10.13,11.01,2.65,5.7,6.53,10.89,8.59,16.86.79,2.27,1.16,4.69.48,7.03-.86,2.99-3.62,4.93-6.24,6.3.36.14.71.29,1.07.43-1.96-5.19-9.51-34.78-19.14-25.41-.18.17-.27.47-.19.71,3.11,9.16,8.61,17.38,10.76,26.89.17-.3.34-.59.51-.89-2.86.67-5.59,1.75-8.36,2.69.27.11.55.22.82.33-4.1-8.52-7.72-17.25-10.98-26.12-.15-.4-.65-.72-1.07-.43-2.01,1.41-4.33,2.56-6.13,4.25-1.26,1.18-1.39,2.74-1.01,4.34.78,3.3,2.69,6.4,4.2,9.41,1.99,3.97,3.79,8.03,4.7,12.4.17-.3.34-.59.51-.89-3.57.95-6.8,2.91-10.46,3.59.3.17.59.34.89.51-1.23-4.38-3.09-8.54-5.02-12.65-.97-2.06-1.96-4.11-2.91-6.18-.65-1.41-1.27-2.84-2.15-4.12-.99-1.45-2.36-2.38-4.17-2.13-2.61.37-5.12,1.86-7.56,2.77-.36.13-.63.49-.51.89,1.38,4.45,3.36,8.73,5.49,12.87,2.14,4.18,4.53,8.33,7.55,11.95v-1.02c-2.22,1.78-5.01,3.38-7.89,2.35-2.41-.87-4.01-3.44-5.21-5.54-3.02-5.32-4.45-11.41-7.57-16.67-.21-.36-.63-.43-.99-.26-2.14,1.02-4.62,1.61-6.63,2.85-1.33.82-1.29,2.19-.85,3.53,1.12,3.36,3.06,6.33,4.04,9.77,1.17,4.1,1.78,8.35,4.07,12.03.21-.36.42-.73.63-1.09-2.95.03-5.96.37-8.86.92-.92.18-.53,1.57.39,1.4,2.77-.53,5.65-.85,8.47-.87.54,0,.92-.62.63-1.09-2.04-3.27-2.73-7.05-3.67-10.73-.86-3.35-2.37-6.3-3.78-9.43-.49-1.09-1.39-2.59-.07-3.34,1.98-1.12,4.31-1.72,6.36-2.7-.33-.09-.66-.17-.99-.26,3.4,5.74,4.82,12.45,8.42,18.1,1.42,2.23,3.36,4.38,6.03,5.03,3.13.76,6.15-1.09,8.49-2.96.33-.26.23-.75,0-1.02-2.93-3.52-5.21-7.6-7.32-11.65-2.09-4.02-4-8.19-5.34-12.52-.17.3-.34.59-.51.89,2.25-.84,4.45-1.98,6.77-2.62,1.84-.5,2.86.51,3.78,2.01,1.83,2.99,3.1,6.43,4.6,9.6,1.89,3.99,3.68,8.04,4.88,12.31.11.4.5.58.89.51,3.65-.68,6.88-2.64,10.46-3.59.4-.11.59-.51.51-.89-1.54-7.39-5.86-13.48-8.47-20.44-.55-1.48-1.03-3.05.2-4.3,1.62-1.63,3.96-2.71,5.84-4.02-.36-.14-.71-.29-1.07-.43,3.3,8.99,6.97,17.83,11.13,26.46.13.28.53.43.82.33,2.78-.94,5.51-2.02,8.36-2.69.4-.09.59-.52.51-.89-2.15-9.51-7.65-17.72-10.76-26.89-.06.24-.12.47-.19.71,7.65-7.44,15.08,20.45,16.71,24.77.17.45.62.66,1.07.43,2.7-1.41,5.22-3.3,6.51-6.14,1.04-2.29.94-4.83.38-7.23-1.39-5.94-5.35-11.09-8.09-16.45-2.41-4.71-4.41-10.27-9.3-13.01-3.95-2.21-8.68-1.09-12.7.27-3.27,1.1-6.42,2.55-9.63,3.82-4.36,1.72-8.77,3.31-13.19,4.88-8.58,3.04-17.19,5.97-25.62,9.41-4.75,1.94-10.23,3.94-13.66,7.96-3.34,3.92-2.69,9.04-.97,13.52.83,2.18,1.89,4.25,2.71,6.44.88,2.37,1.72,4.76,2.64,7.12.89,2.28,1.85,4.55,3.05,6.69.89,1.6,2.02,3.29,3.65,4.21.81.47,1.54-.79.73-1.25h0Z"/>
      </g>
    </g>
  </g>
</svg>