<?xml version="1.0" encoding="UTF-8"?>
<svg id="Layer_2" data-name="Layer 2" xmlns="http://www.w3.org/2000/svg" width="88.04" height="108.91" viewBox="0 0 88.04 108.91">
  <defs>
    <style>
      .cls-1 {
        fill: #2d2e2d;
      }

      .cls-2 {
        fill: #575858;
      }

      .cls-3 {
        fill: #282827;
      }

      .cls-4 {
        fill: #6e6f6f;
      }

      .cls-5 {
        fill: #231f20;
      }
    </style>
  </defs>
  <g id="Layer_1-2" data-name="Layer 1">
    <g>
      <g>
        <path class="cls-2" d="M60.21,76.63c-1.91-1.55-3.05-3.52-5.11-5.08-.73-.62-1.15-1.68-1.89-2.3-.44-.46-.87-1.22-1.16-1.53-2.6-3.51-4.91-7.02-6.45-11.1-.14-.3-.73-.62-.87-.92-.69-2.11-2.3-3.8-2.99-5.77-.28-.76-.56-1.36-.84-2.12-.13-.6-.88-.77-1.01-1.52-.35-3.6-2.83-6.36-3.79-9.68-1.09-3.92-2.35-7.55-3.15-11.31-.8-3.76-1.76-7.08-2.86-10.71-1.29-4.51-1.15-9.2.12-13.61-8.13,1.06-15.73,5.13-21.63,10.8C.8,19.26.3,32.32,1.1,42.57c.59,7.53,3.57,14.73,7.36,21.15,8.32,14.46,18.08,34.49,33.71,42.01,13.92,6.51,31.17-.76,39.46-13.08-3.39-.36-6.67-2.45-9.44-4.78-4.25-3.55-7.89-7.39-11.99-11.24Z"/>
        <path class="cls-5" d="M60.76,76.11c-1.3-1.11-2.36-2.43-3.53-3.66-.58-.62-1.27-1.11-1.88-1.7-.5-.49-.85-1.17-1.29-1.72-2.15-2.61-4.1-5.41-5.76-8.38-.43-.78-.82-1.58-1.2-2.38-.32-.69-.49-1.56-.95-2.15-.34-.45-.69-.68-.92-1.21-.31-.73-.68-1.41-1.09-2.09-.84-1.41-1.54-2.77-2.17-4.29-.26-.63-.41-1.19-.83-1.71-.63-.79-.64-1.61-.91-2.58-.86-3.11-2.83-5.78-3.72-8.9-1.03-3.58-2.17-7.12-2.95-10.76-.78-3.62-1.93-7.14-2.9-10.71-1.13-4.14-.87-8.54.26-12.64.17-.6-.35-1.05-.92-.97-8.16,1.13-15.61,5.08-21.61,10.65C3.04,15.87.99,23.1.3,30.16c-.77,7.89-.15,16.1,2.54,23.58,2.62,7.33,7.01,14.05,10.86,20.79,3.73,6.52,7.68,12.94,12.43,18.77,4.38,5.38,9.78,10.55,16.21,13.35,13.36,5.83,29.11-.23,38.02-11.02.68-.83,1.31-1.68,1.92-2.57.36-.52-.09-1.1-.63-1.17-4.55-.59-8.19-3.83-11.47-6.78-3.23-2.91-6.26-6.02-9.42-9-.72-.68-1.83.38-1.11,1.06,3.57,3.37,6.99,6.89,10.68,10.13,3.27,2.87,6.85,5.55,11.27,6.13-.21-.39-.42-.78-.63-1.17-8.25,12.08-25.36,19.43-39.16,12.46-6.58-3.33-11.82-8.82-16.26-14.6-4.67-6.07-8.51-12.75-12.27-19.41-3.55-6.29-7.43-12.45-9.66-19.37-2.2-6.86-2.45-14.44-1.75-21.58.66-6.78,2.85-13.36,7.94-18.09C15.5,6.4,22.7,2.8,30.38,1.74c-.31-.32-.61-.65-.92-.97-1.01,3.67-1.29,7.41-.75,11.18.55,3.83,2.08,7.57,2.99,11.33.92,3.81,1.89,7.56,3.01,11.31.51,1.72.99,3.39,1.76,5.02.79,1.66,1.72,3.23,2.29,4.99.41,1.26.3,2.29,1.29,3.26.54.53.86,2.04,1.11,2.69.3.78.73,1.49,1.16,2.2.72,1.18,1.21,2.65,2.03,3.73.43.56.7.86.98,1.54.4.99.88,1.95,1.38,2.9,1.59,3.05,3.65,5.81,5.68,8.57,1.01,1.37,2.12,2.49,3.36,3.65,1.37,1.28,2.46,2.81,3.9,4.03.74.63,1.87-.42,1.11-1.06Z"/>
      </g>
      <g>
        <path class="cls-1" d="M66.14,20.93C58.88,11.25,48.85,1.49,36.21.77c-2.02-.12-4.03-.04-6.01.22-1.27,4.41-1.41,9.1-.12,13.61,1.1,3.62,2.06,6.94,2.86,10.71s2.05,7.39,3.15,11.31c.96,3.32,3.44,6.08,3.79,9.68.13.75.87.92,1.01,1.52.28.76.56,1.36.84,2.12.7,1.96,2.3,3.65,2.99,5.77.14.3.73.62.87.92,1.54,4.08,3.84,7.59,6.45,11.1.29.31.72,1.07,1.16,1.53.73.62,1.15,1.68,1.89,2.3,2.06,1.55,3.2,3.53,5.11,5.08,4.09,3.85,7.73,7.69,11.98,11.24,2.77,2.33,6.05,4.42,9.44,4.78.79-1.17,1.49-2.38,2.11-3.63,10.84-21.47-4.99-51.15-17.6-68.09Z"/>
        <path class="cls-5" d="M66.69,20.4c-4.37-5.79-9.35-11.2-15.45-15.21C44.86,1.01,37.59-.68,30.01.25c-.25.03-.48.29-.55.52-1.22,4.43-1.38,8.98-.28,13.46.53,2.15,1.26,4.25,1.84,6.39.63,2.32,1.09,4.68,1.68,7.02,1.03,4.13,2.09,8.57,3.98,12.4.89,1.8,1.86,3.52,2.31,5.49.15.67.12,1.37.62,1.9.8.83,1.12,2.06,1.54,3.12.64,1.65,1.79,3.06,2.56,4.65.39.8.49,1.14,1.16,1.73.14.12.41.95.46,1.08.27.66.58,1.31.89,1.95.93,1.92,2.07,3.73,3.27,5.49,1.05,1.54,2.12,3.31,3.46,4.62.61.6.97,1.4,1.59,2.01.76.74,1.56,1.38,2.27,2.16,1.57,1.72,3.24,3.29,4.92,4.9,3.38,3.27,6.7,6.59,10.32,9.6,2.77,2.3,5.93,4.2,9.55,4.67.27.04.53-.15.67-.36,7.55-11.41,6.76-25.39,2.85-37.96-3.89-12.54-10.65-24.2-18.44-34.7-.59-.79-1.69.27-1.11,1.06,7.55,10.18,14.01,21.47,17.92,33.56,3.96,12.26,4.87,26.05-2.53,37.23l.67-.36c-4.91-.64-8.81-4.33-12.3-7.54-3.4-3.13-6.88-6.32-10.07-9.65-.7-.73-1.35-1.51-2.04-2.25-.73-.77-1.66-1.36-2.28-2.22-1.13-1.57-2.38-3.03-3.5-4.61-1.24-1.74-2.38-3.55-3.4-5.43-.51-.94-.96-1.92-1.38-2.9-.15-.35-.27-.84-.52-1.17-.28-.37-.68-.57-.85-1.02-.61-1.68-1.75-3.1-2.56-4.68-.47-.93-.79-1.98-1.19-2.95-.11-.27-.22-.42-.41-.65-.46-.58-.54-.92-.68-1.65-.32-1.77-1.21-3.43-2.03-5.02-1.08-2.1-1.75-4.21-2.42-6.46-1.32-4.45-2.33-8.95-3.52-13.44-1.27-4.77-2.84-9.15-2.48-14.18.12-1.65.46-3.26.9-4.85-.18.17-.37.35-.55.52,7.39-.9,14.27.97,20.45,5.03,5.83,3.82,10.58,9.17,14.75,14.7.6.79,1.7-.27,1.12-1.05Z"/>
      </g>
      <g>
        <path class="cls-4" d="M55.48,51.46c3.29,4.97,10.75,18.35,18.07,18.54,15.11.88-8.75-38.3-12.55-42.81-2.5-2.97-13.95-12.62-17.81-10.99-8.38,3.53,9.66,31.2,12.29,35.26Z"/>
        <path class="cls-5" d="M54.8,51.83c3.33,5.05,6.37,10.35,10.7,14.64,2.76,2.73,7.48,5.87,11.44,3.61,2.58-1.48,2.49-4.98,2.14-7.52-.6-4.31-2.36-8.5-4.11-12.45-3.43-7.72-7.6-15.41-12.54-22.28-2.38-3.32-5.86-5.93-9.14-8.3-2.76-1.99-8.2-6.18-11.58-3.3-1.99,1.69-1.6,4.92-1.15,7.17.76,3.79,2.43,7.43,4.1,10.89,2.94,6.08,6.47,11.87,10.13,17.54.53.83,1.88.09,1.34-.74-4.79-7.41-9.55-15.09-12.68-23.37-.97-2.58-3.21-8.01-.7-10.38,1.44-1.35,3.91,0,5.31.72,2.61,1.34,5,3.13,7.27,4.95,2.73,2.19,5.07,4.48,6.99,7.38,2.31,3.47,4.41,7.07,6.41,10.72,2.41,4.4,4.67,8.91,6.48,13.59,1.34,3.47,2.82,7.47,2.44,11.26-.48,4.73-5.96,3.35-8.68,1.47-5.69-3.93-9.14-10.7-12.85-16.35-.54-.82-1.89-.09-1.34.74Z"/>
      </g>
      <path class="cls-5" d="M21.81,10.59c-.41,1.64-1.08,3.19-1.33,4.87-.21,1.42.89,2.66,1.68,3.7,1.01,1.32.73,2.63.93,4.15.19,1.48,1.35,2.64,1.61,4.12.29,1.65.25,3.08.89,4.68.47,1.18,1.06,2.08,1.1,3.4.03,1.01.2,1.87.62,2.79.72,1.62,2.36,2.11,2.39,4.11.02,1.63-.2,2.62.83,4.03.74,1.01,1.35,2.2,1.64,3.41.34,1.44.32,2.72,1.59,3.65.77.57,1.38,1.01,1.88,1.87.47.82-.04,1.92-.25,2.74-.34,1.35-.05,2.82,1.04,3.74.53.44,1.17.72,1.68,1.19.59.54.44,2.22.61,2.99.36,1.64,1.93,2.67,3.08,3.73.84.77,1.26,1.55,1.44,2.67.12.7.29,1.51.75,2.08.43.54.93.82,1.55,1.1,1.18.54,1.73,1.18,2.41,2.26.69,1.09,1.59,1.92,2.73,2.53,1.08.57,1.97,1.04,2.59,2.12.67,1.17,1.13,2.22,2.37,2.89.45.25.97.38,1.45.54,1.15.39,1.58,1.4,1.87,2.48.31,1.14,1.14,2.05,2.18,2.56,1.67.82,3.26,1.78,4.88,2.7,2.97,1.7,5.86,2.36,9.17,3.09.96.21,1.41-1.25.45-1.47-1.78-.39-3.58-.67-5.32-1.23-2.25-.74-4.28-2.16-6.34-3.31-.79-.44-1.56-.86-2.37-1.25-1.01-.49-1.17-1.68-1.5-2.63-.5-1.44-1.84-2.18-3.2-2.61-1.71-.55-2.01-2.34-3.05-3.6-.97-1.17-2.64-1.53-3.76-2.53-1.13-1.01-1.51-2.64-2.85-3.45-.94-.57-1.9-.51-2.34-1.73-.33-.93-.25-1.89-.77-2.77-.81-1.38-2.24-2.22-3.31-3.38-1.35-1.46-.33-3.92-2.01-5.16-.59-.44-1.61-.81-1.87-1.55-.32-.92-.06-1.72.19-2.61.45-1.63-.03-2.93-1.13-4.17-.4-.45-.95-.78-1.45-1.11-.72-.48-.68-1.59-.83-2.35-.26-1.25-.74-2.26-1.39-3.35-.45-.75-1.16-1.51-1.22-2.42-.04-.67.11-1.37.1-2.04-.02-1.63-1.02-2.64-2.06-3.76-1.08-1.16-.79-2.54-1.02-3.96-.24-1.48-1.24-2.8-1.66-4.25-.3-1.05-.16-2.21-.35-3.29-.2-1.1-.85-2.1-1.34-3.08-.38-.78-.26-1.93-.28-2.77-.03-.94-.5-1.81-1.04-2.55-.84-1.15-1.68-1.99-1.36-3.51.27-1.31.83-2.55,1.15-3.84.24-.96-1.23-1.41-1.47-.45h0Z"/>
      <path class="cls-5" d="M15.11,14.91c-.41,1.48-.57,2.81-.11,4.3.36,1.16,1.27,2.01,1.84,3.05.68,1.25.3,2.83.72,4.17.52,1.64,1.53,2.88,1.39,4.71-.1,1.32.16,2.31,1.09,3.27.43.44.96.76,1.39,1.2.38.38-.04,1.96-.15,2.42-.25,1.02-.23,1.84.45,2.73.38.5.83.89,1.3,1.31.62.56-.14,1.16-.3,1.8-.06.26-.03.56.18.75.36.33.74.62,1.14.9.81.57.77,1.48.84,2.35.1,1.18.97,2.02,1.61,2.94.81,1.17,1.04,3.12,1.48,4.47.45,1.39.98,2.76,1.58,4.1,1.28,2.85,3.27,5.37,4.94,7.99,1.75,2.73,2.98,5.73,4.7,8.49,1.53,2.46,3.3,4.77,5.1,7.03,1.93,2.42,3.81,4.89,6.3,6.75,2.4,1.8,5.12,3.14,7.6,4.8,1.21.81,2.4,1.7,3.75,2.27,1.59.67,3.36.87,4.92,1.58.89.41,1.7-.89.81-1.3-1.22-.56-2.51-.78-3.78-1.17-1.63-.51-3.04-1.42-4.44-2.38-2.49-1.69-5.16-3.1-7.63-4.81-2.59-1.79-4.46-4.39-6.42-6.81-2.07-2.56-4.01-5.23-5.69-8.06-1.59-2.67-2.81-5.49-4.5-8.1-1.69-2.61-3.51-5.1-4.74-7.97-.59-1.39-1.05-2.85-1.5-4.29-.38-1.22-.61-2.57-1.35-3.63-.32-.46-.68-.89-.98-1.37-.42-.66-.27-1.74-.46-2.5-.29-1.16-1.37-1.61-2.17-2.34.06.25.12.5.18.75.28-1.12.99-1.44.46-2.65-.52-1.2-2.44-1.55-1.91-3.18.27-.81.55-2,.37-2.85-.33-1.52-2.17-1.88-2.65-3.31-.24-.73.08-1.81.01-2.58-.05-.67-.38-1.24-.63-1.85-.25-.61-.58-1.2-.82-1.82-.3-.78-.2-1.56-.29-2.37-.14-1.18-.47-2.16-1.18-3.11-1.26-1.68-1.56-3.17-1-5.23.26-.95-1.21-1.4-1.47-.45h0Z"/>
      <path class="cls-5" d="M8.75,16.74c-.09,1.86-.56,3.68-.5,5.55.06,1.81,1.41,3.39,2.28,4.88.58,1.01.71,1.89.64,3.03-.03.61,0,1.34.33,1.88.87,1.45,2.39,2.45,2.43,4.26.03,1.7-.75,3,.37,4.57.41.58.95,1.06,1.43,1.58,1,1.09.98,2.52.86,3.91-.15,1.88.46,2.96,1.67,4.33,1.54,1.74,1.44,3.55,1.93,5.7.3,1.32,1.37,2.26,2.2,3.24.78.92,1.01,1.98.89,3.16-.11,1.13-.06,2,.17,3.1.31,1.47,1.74,2.54,2.72,3.55,1.71,1.77,2.07,4.05,2.84,6.28.6,1.74,1.75,3.03,2.83,4.48,1.29,1.73,2.55,3.48,4,5.08.53.58,1.09,1.13,1.73,1.59.92.66,1.63.83,1.97,2.05.2.7.27,1.36.62,2.01.38.71,1.19,1.26,1.79,1.77,1.74,1.49,3.25,2.97,5.39,3.86,2.7,1.12,4.96,3.33,7.01,5.41.69.71,1.81-.35,1.11-1.06-1.49-1.52-3.19-2.8-4.68-4.32-1.48-1.51-4.01-1.52-5.54-3.06-1.12-1.13-2.46-2.04-3.58-3.17-.61-.62-.53-1.66-.83-2.42-.32-.81-.77-1.34-1.49-1.82-3.34-2.23-5.36-5.75-7.83-8.86-1.33-1.67-1.46-3.93-2.27-5.84-.79-1.87-2.1-3.12-3.47-4.56-.79-.83-1.1-1.92-1.07-3.04.02-.89.34-1.81.1-2.7-.43-1.61-1.42-2.63-2.46-3.87-1.19-1.41-.88-3.6-1.44-5.28-.55-1.65-2.64-2.74-2.82-4.46-.2-1.91.4-3.58-.65-5.36-.36-.61-.92-1.12-1.41-1.63-1.06-1.11-.87-2.17-.63-3.56.23-1.35-.12-2.57-.94-3.64-.44-.57-.98-1.02-1.37-1.64-.59-.95-.25-1.9-.38-2.94-.23-1.93-1.6-3.47-2.48-5.14-1.07-2.04-.05-4.7.06-6.88.05-.99-1.48-1.02-1.53-.04h0Z"/>
      <path class="cls-5" d="M5.15,28.33c-.4,3.5-.83,6.68,1.35,9.71.88,1.23,1.97,2.08,2.38,3.61.44,1.68-.11,3.48,0,5.18.1,1.5.7,2.87,1.37,4.19,1,1.95,1.75,3.75,2.13,5.92.36,2.05.53,4.07,1.49,5.94.48.94,1.03,1.85,1.52,2.79.49.93.72,1.91,1.1,2.87.7,1.76,1.73,3.28,2.86,4.79,1.16,1.56,2.17,3.21,3.35,4.76,2.49,3.26,5.52,6.07,8.06,9.3,2.66,3.39,4.6,7.18,7.58,10.35,1.24,1.33,2.44,2.65,3.97,3.65,1.65,1.08,3.71.89,5.3,2.07.8.59,1.59-.72.81-1.3-1.5-1.12-3.27-1.02-4.88-1.83-1.77-.88-3.07-2.57-4.39-3.98-2.86-3.05-4.75-6.73-7.27-10.02-2.39-3.13-5.27-5.84-7.74-8.9-1.13-1.41-2.03-2.97-3.11-4.42-1.26-1.7-2.71-3.45-3.24-5.54-.44-1.74-1.45-3.31-2.3-4.86-1.13-2.06-1.3-4.31-1.69-6.59-.31-1.8-.94-3.39-1.78-5-.86-1.65-1.59-3.18-1.61-5.08-.02-1.48.27-2.88.05-4.36-.18-1.22-.86-2.27-1.6-3.22-1.16-1.49-2.16-2.61-2.48-4.54-.3-1.77.14-3.7.33-5.46.11-.98-1.42-1.02-1.53-.04h0Z"/>
      <g>
        <path class="cls-3" d="M56.71,40.82c-.87-1.22-1.1-3.62.42-4.48,2.13-1.14,4.16,1.31,5.32,2.83,2.33,2.46,4.66,4.91,4.86,8.81.17,4.8-2.24,5.63-5.14,1.96-2.32-3.05-4.03-6.1-6.04-9.44l.59.31Z"/>
        <path class="cls-5" d="M57.38,40.45c-.74-1.18-1.08-3.51.91-3.64,1.48-.09,2.81,1.87,3.6,2.89.85,1.11,1.92,2.03,2.75,3.17.94,1.3,1.55,2.74,1.82,4.32.2,1.16.27,3.06-.55,4.03-.81.97-2.41-.89-2.88-1.42-2.51-2.82-4.31-6.44-6.23-9.66-.51-.85-1.85-.11-1.34.74,1.44,2.4,2.85,4.82,4.4,7.15,1.12,1.68,2.43,3.91,4.41,4.71,3.84,1.57,4.02-4.09,3.61-6.39-.36-2.04-1.52-3.83-2.8-5.42-1.34-1.66-2.83-3.52-4.52-4.83-1.31-1.02-3.56-1.23-4.62.29-1.01,1.43-.79,3.37.11,4.8.53.83,1.88.1,1.35-.74h0Z"/>
      </g>
    </g>
  </g>
</svg>