<?xml version="1.0" encoding="UTF-8"?>
<svg id="Layer_2" data-name="Layer 2" xmlns="http://www.w3.org/2000/svg" width="170.88" height="97.49" viewBox="0 0 170.88 97.49">
  <defs>
    <style>
      .cls-1 {
        fill: #fff;
      }

      .cls-2 {
        fill: #f1e143;
      }

      .cls-3 {
        fill: #5d5e5e;
      }

      .cls-4 {
        fill: #bee6f4;
      }

      .cls-5 {
        fill: #f05352;
      }

      .cls-6 {
        fill: #211f1f;
      }

      .cls-7 {
        fill: #3a271f;
      }

      .cls-8 {
        fill: #f79340;
      }
    </style>
  </defs>
  <g id="Layer_1-2" data-name="Layer 1">
    <g>
      <g>
        <g>
          <path class="cls-8" d="M49.43,34.33c-2.86-3.1-7.36-4.29-11.57-4.01s-8.22,1.86-12.07,3.59c1.38.52,2.76,1.04,4.14,1.56-9.29,6.4-19.06,12.1-29.2,17.04,9.01,3.8,18.18,7.2,27.5,10.17-1.24.82-2.48,1.65-3.72,2.47,1.41,3.4,5.62,4.47,9.25,5.05,3.8.62,8.1,1.07,11.14-1.29,3.8-2.93,3.97-8.97,7.71-11.97l-3.18-22.61Z"/>
          <path class="cls-6" d="M49.95,33.82c-6.69-6.96-16.88-3.95-24.52-.55-.63.28-.37,1.13.16,1.33,1.38.52,2.76,1.04,4.14,1.56-.05-.44-.11-.88-.16-1.33-9.3,6.39-19.06,12.08-29.2,17.04-.63.31-.36,1.11.16,1.33,9.01,3.79,18.19,7.19,27.5,10.17-.05-.44-.11-.88-.16-1.33-1.24.82-2.48,1.65-3.72,2.47-.35.23-.45.61-.27.99,1.27,2.79,4.08,4.08,6.9,4.83,3.29.87,6.96,1.36,10.34.9,3.2-.44,5.51-2.48,7.02-5.23,1.6-2.9,2.35-6.33,4.98-8.55.71-.6-.3-1.64-1.01-1.04-4.37,3.69-4.06,11.24-10.09,13.13-3.03.95-6.61.26-9.64-.34-2.85-.57-5.95-1.6-7.24-4.43-.09.33-.18.66-.27.99,1.24-.82,2.48-1.65,3.72-2.47.52-.35.46-1.13-.16-1.33-9.31-2.99-18.48-6.38-27.5-10.17.05.44.11.88.16,1.33,10.14-4.96,19.9-10.65,29.2-17.04.53-.37.45-1.1-.16-1.33-1.38-.52-2.76-1.04-4.14-1.56.05.44.11.88.16,1.33,7.01-3.12,16.58-6.13,22.76.3.65.68,1.69-.34,1.04-1.01h0Z"/>
        </g>
        <g>
          <path class="cls-2" d="M47.03,56.18c-.74,1.85-3.27,2.3-5.14,1.62-1.87-.68-3.34-2.13-5.03-3.18-2.61-1.63-5.7-2.27-8.74-2.79,2.25-.98,3.6-3.25,5.13-5.16,1.24-1.54,2.68-2.92,4.28-4.09,1.71-1.24,3.96-2.27,5.87-1.36.9.42,1.56,1.21,2.19,1.97,1.24,1.5,2.54,3.11,2.79,5.04l-1.36,7.95Z"/>
          <path class="cls-6" d="M46.41,55.8c-1.78,3.74-6.4.13-8.41-1.3-2.85-2.03-6.29-2.79-9.67-3.37.05.44.11.88.16,1.33,1.72-.82,2.92-2.2,4.06-3.68,1.44-1.86,2.88-3.59,4.71-5.08,2.02-1.65,4.77-3.1,6.98-.97,1.55,1.5,3.08,3.52,3.46,5.68.16.92,1.56.55,1.4-.37-.41-2.37-2-4.25-3.53-6.01-1.67-1.93-3.9-2.26-6.21-1.32-2.32.93-4.32,2.85-5.96,4.68-1.81,2.02-3.08,4.6-5.62,5.81-.54.26-.46,1.22.16,1.33,2.08.36,4.14.78,6.14,1.51,2.19.8,3.89,2.32,5.83,3.57,2.37,1.52,6.33,1.96,7.77-1.05.4-.84-.84-1.59-1.24-.75h0Z"/>
        </g>
      </g>
      <g>
        <path class="cls-3" d="M153.7,41.94c4.38-.4,8.8-.57,13.18-.19.97.08,2.02.23,2.72.9.71.67.79,2.05-.07,2.5-.25.13-.53.16-.81.2-2.29.28-4.58.56-6.86.84-2.66.32-5.38.65-8.02.19l-.14-4.44Z"/>
        <path class="cls-7" d="M153.69,42.67c2.67-.24,5.34-.39,8.02-.4,1.34,0,2.68.04,4.01.12,1.14.07,3.19-.03,3.66,1.29.47,1.3-2.75,1.2-3.52,1.29-1.33.16-2.67.33-4,.49-2.6.32-5.22.62-7.83.22-.91-.14-1.32,1.25-.4,1.39,3.52.54,7-.02,10.5-.44,1.73-.21,3.46-.38,5.18-.65.85-.13,1.55-.99,1.55-1.84,0-2.81-2.97-3.06-5.13-3.21-4.01-.28-8.04-.07-12.03.28-.92.08-.95,1.53-.02,1.45h0Z"/>
      </g>
      <g>
        <path class="cls-5" d="M54.51,16.3c-2.07,1.9-4.13,3.81-6.2,5.71-.95.88-1.94,1.81-2.35,3.05-.29.91-.24,1.88-.18,2.84,1,15.52,2.28,31.02,3.86,46.5,3.2,1.67,6.52,3.12,9.92,4.32l-5.06-62.41Z"/>
        <path class="cls-7" d="M54,15.78c-2.28,2.1-4.59,4.17-6.83,6.31-1.94,1.85-2.23,3.78-2.07,6.37.43,6.71.92,13.41,1.46,20.11.54,6.7,1.14,13.39,1.79,20.08.15,1.53.3,3.06.45,4.59.17,1.7.36,1.74,1.92,2.51,2.8,1.4,5.7,2.6,8.65,3.66.88.32,1.28-1.08.4-1.39-3.35-1.19-6.6-2.61-9.75-4.24.12.21.23.42.35.63-1.05-10.32-1.97-20.65-2.77-30.98-.4-5.17-.76-10.34-1.09-15.51-.07-1.13-.11-2.21.42-3.25.5-.99,1.49-1.76,2.3-2.5,1.93-1.78,3.86-3.55,5.79-5.33.69-.64-.33-1.67-1.01-1.04h0Z"/>
      </g>
      <g>
        <path class="cls-5" d="M95.02,82.14c-2.46,3.16-4.91,6.31-7.37,9.47-.78,1-1.59,2.02-2.7,2.62-.99.53-2.13.66-3.25.79-13.08,1.44-26.25,1.99-39.4,1.66,5.57-6,11.1-12.03,16.61-18.08l36.11,3.55Z"/>
        <path class="cls-7" d="M94.4,81.77c-1.4,1.8-2.81,3.61-4.21,5.41-1.49,1.91-2.88,4.01-4.61,5.71-1.67,1.63-4.56,1.49-6.72,1.7-2.47.25-4.94.46-7.41.65-9.7.73-19.43.95-29.15.72.17.41.33.83.5,1.24,5.57-6,11.1-12.03,16.61-18.08.63-.69-.38-1.73-1.01-1.04-5.5,6.06-11.04,12.08-16.61,18.08-.43.46-.15,1.23.5,1.24,10.3.25,20.59-.04,30.86-.85,2.47-.2,4.94-.43,7.4-.69,1.95-.21,4.12-.29,5.68-1.63,1.76-1.51,3.08-3.58,4.49-5.4,1.64-2.1,3.28-4.21,4.91-6.31.58-.74-.67-1.47-1.24-.75h0Z"/>
      </g>
      <g>
        <path class="cls-5" d="M90.71,12.73c-5.9-3.54-11.8-7.08-17.7-10.62-1.04-.62-2.11-1.26-3.31-1.4-.83-.1-1.66.04-2.49.18-9.38,1.57-18.75,3.15-28.12,4.72,5.66,3.13,11.33,6.26,16.99,9.39.33.18.7.42.74.79.04.37-.56.68-.71.34l34.6-3.39Z"/>
        <path class="cls-7" d="M91.08,12.11c-4.1-2.46-8.2-4.92-12.29-7.38-1.95-1.17-3.9-2.35-5.85-3.51-1.77-1.05-3.38-1.41-5.41-1.12-9.57,1.34-19.09,3.21-28.62,4.81-.62.11-.71,1.03-.19,1.32,2.83,1.57,5.66,3.13,8.5,4.7,1.5.83,3,1.66,4.5,2.49.67.37,1.33.74,2,1.11.67.37,1.63,1.2,2.4,1.06.23.07.47.13.7.19-.06-.05-.12-.1-.18-.15-.72-.58-1.76.42-1.04,1.01.75.61,1.94.27,1.95-.83,0-.67-.59-1.11-1.09-1.42-1.13-.7-2.34-1.29-3.5-1.93-4.5-2.49-8.99-4.97-13.49-7.46-.06.44-.13.88-.19,1.32,8.81-1.48,17.62-2.96,26.44-4.44,1.15-.19,2.31-.44,3.48-.47,1.26-.03,2.41.72,3.44,1.33,1.97,1.17,3.93,2.36,5.9,3.54,3.93,2.36,7.87,4.72,11.8,7.08.8.48,1.55-.76.75-1.24h0Z"/>
      </g>
      <g>
        <path class="cls-1" d="M124.77,53.62c-1.37-12.13-1.15-24.07-1.49-36-22.61-6.05-46.77-5.31-70.01-1.84l4.39,62.94c11.27.82,22.53,1.65,33.8,2.47,5.55.41,11.14.81,16.68.24,6.61-.68,13-2.74,19.23-5.08-.52-4.72-.95-9.36-1.29-14.26-.17-2.82-.94-5.65-1.31-8.47Z"/>
        <path class="cls-7" d="M125.5,53.62c-1.33-11.96-1.15-23.99-1.49-36,0-.32-.2-.62-.52-.71-22.97-6.09-47.07-5.31-70.4-1.85-.3.04-.56.4-.54.69.97,13.94,1.95,27.89,2.92,41.83.49,7.04.98,14.07,1.47,21.11.03.41.3.7.72.73,12.01.88,24.01,1.79,36.02,2.63,5.79.41,11.56.59,17.32-.29,5.69-.87,11.19-2.72,16.56-4.73.28-.1.58-.35.54-.69-.41-3.82-.78-7.64-1.08-11.46-.15-1.88-.25-3.77-.53-5.64-.29-1.95-.73-3.87-1.01-5.82-.13-.92-1.53-.55-1.4.37.52,3.72,1.2,7.33,1.49,11.08.29,3.83.66,7.65,1.08,11.46.18-.23.36-.46.54-.69-5.22,1.95-10.53,3.69-16.03,4.64-5.77,1-11.65.73-17.46.33-12.01-.83-24.02-1.76-36.02-2.63.24.24.48.49.72.73-.97-13.95-1.95-27.89-2.92-41.83-.49-7.04-.98-14.07-1.47-21.11-.18.23-.36.46-.54.69,23.06-3.42,46.92-4.18,69.63,1.84-.17-.24-.35-.47-.52-.71.34,12.01.16,24.05,1.49,36,.1.92,1.55.94,1.45.02Z"/>
      </g>
      <g>
        <path class="cls-5" d="M147.69,65.34c5.68-5.07,9.77-12.43,9.23-20.02-.45-6.37-4.11-12.21-8.94-16.38-4.84-4.17-10.79-6.84-16.82-8.93-2.6-.9-5.22-1.7-7.87-2.41.35,11.93.12,23.87,1.49,36,.37,2.82,1.14,5.65,1.31,8.47.34,4.9.77,9.54,1.29,14.26.13-.05.26-.1.39-.15,7.12-2.68,14.25-5.79,19.93-10.86Z"/>
        <path class="cls-7" d="M148.2,65.86c4.26-3.85,7.56-8.77,8.93-14.38,1.34-5.49.17-11.1-2.63-15.93-6.32-10.91-19.52-15.54-31.01-18.64-.44-.12-.94.21-.92.69.28,9.92.2,19.86.91,29.76.17,2.32.35,4.65.67,6.96.34,2.42.94,4.79,1.17,7.22.48,4.93.79,9.87,1.32,14.79.05.42.42.89.91.71,7.37-2.75,14.68-5.94,20.65-11.18.7-.62-.31-1.65-1.01-1.04-5.76,5.07-12.88,8.16-20,10.82.3.24.61.47.91.71-.52-4.75-.95-9.5-1.28-14.26-.16-2.21-.6-4.37-1-6.54-.49-2.69-.69-5.44-.89-8.16-.74-9.9-.63-19.84-.91-29.76-.31.23-.62.46-.93.69,10.99,2.97,23.15,7.19,29.67,17.19,3.03,4.65,4.18,10.16,2.98,15.59-1.19,5.37-4.52,10.1-8.55,13.75-.7.63.32,1.66,1.01,1.04Z"/>
      </g>
      <g>
        <path class="cls-3" d="M81.89,35.21c2.49-3.87,6.75-7.12,11.48-7.71,2.99-.37,6.08.06,8.85,1.25,5.64,2.42,9.82,7.59,11.96,13.35,1.62,4.37,2.16,9.23.88,13.71-1.28,4.48-4.53,8.49-8.9,10.1-4.11,1.51-8.73.82-12.85-.65-3.73-1.33-7.29-3.3-10-6.19-4.07-4.34-6.43-10.41-5.01-16.19.68-2.75,2.08-5.31,3.6-7.67Z"/>
        <path class="cls-7" d="M82.51,35.59c2.2-3.34,5.42-5.94,9.29-7.04,4.15-1.17,8.73-.12,12.36,2.03,6.96,4.12,11.01,12.73,10.86,20.65-.08,4.09-1.65,8.02-4.49,10.97-2.99,3.1-7.11,4.12-11.3,3.74-8.38-.75-16.67-6.18-19.65-14.16-2.17-5.81-.25-11.2,2.92-16.19.5-.79-.74-1.53-1.24-.75-2.1,3.31-3.85,6.82-4.1,10.79-.23,3.68,1.04,7.35,2.93,10.46,3.98,6.56,11.66,10.44,19.13,11.3,7.47.86,13.79-3.63,16.27-10.57,2.57-7.19.14-15.89-4.37-21.79-3.72-4.87-9.04-8.14-15.25-8.38-6.02-.23-11.37,3.27-14.61,8.18-.52.78.73,1.52,1.24.75Z"/>
      </g>
      <g>
        <path class="cls-4" d="M84.91,37.19c1.99-3.09,5.39-5.69,9.16-6.15,2.38-.29,4.85.05,7.06,1,4.5,1.93,7.84,6.06,9.54,10.65,1.29,3.49,1.73,7.37.71,10.95-1.02,3.58-3.61,6.78-7.1,8.07-3.28,1.21-6.97.65-10.26-.52-2.98-1.06-5.82-2.64-7.98-4.95-3.24-3.46-5.14-8.31-4-12.92.54-2.19,1.66-4.24,2.87-6.13Z"/>
        <path class="cls-7" d="M85.53,37.56c1.94-2.91,4.82-5.1,8.29-5.76,4.02-.76,8.12.91,11.1,3.53,5.53,4.86,8.28,14,4.68,20.71-4.22,7.86-14.01,6.13-20.31,2.01-3.21-2.09-5.55-5.42-6.51-9.11-1.08-4.13.57-7.93,2.75-11.38.5-.79-.74-1.53-1.24-.75-2.13,3.36-3.68,6.92-3.19,10.97.43,3.54,2.3,6.77,4.74,9.3,2.63,2.72,6.29,4.4,9.89,5.39,3.62.99,7.54.88,10.81-1.09,6.75-4.06,7.2-13.08,4.52-19.69-2.73-6.71-8.96-11.93-16.47-11.44-4.28.28-7.99,3.08-10.3,6.56-.52.78.73,1.52,1.24.75Z"/>
      </g>
      <path class="cls-7" d="M53.28,26.39c-1.71.59-3.34,1.35-4.89,2.3-.79.49-.08,1.75.72,1.26,1.44-.88,2.95-1.61,4.54-2.16.88-.3.52-1.71-.37-1.4h0Z"/>
      <path class="cls-7" d="M54.36,35.83c-1.35.36-2.71.72-4.06,1.08-.9.24-.54,1.64.37,1.4,1.35-.36,2.71-.72,4.06-1.08.9-.24.54-1.64-.37-1.4h0Z"/>
      <path class="cls-7" d="M55.42,46.86c-1.48-.11-2.95-.05-4.42.13-.92.12-.55,1.52.37,1.4,1.34-.17,2.69-.19,4.04-.09.93.07.94-1.38.02-1.45h0Z"/>
      <path class="cls-7" d="M55.73,55.77c-1.34.25-2.68.34-4.05.29-.93-.03-.95,1.42-.02,1.45,1.49.05,2.96-.07,4.43-.34.92-.17.55-1.57-.37-1.4h0Z"/>
      <path class="cls-7" d="M56.18,66.03c-1.34-.28-2.68-.55-4.02-.83-.91-.19-1.32,1.2-.4,1.39,1.34.28,2.68.55,4.02.83.91.19,1.32-1.2.4-1.39h0Z"/>
      <path class="cls-7" d="M64.29,78.92c-2.37,4.1-5.08,7.97-8.15,11.57-.6.71.41,1.75,1.01,1.04,3.15-3.7,5.95-7.66,8.38-11.86.47-.81-.78-1.56-1.24-.75h0Z"/>
      <path class="cls-7" d="M70.63,79.53c-1.9,2.76-3.72,5.57-5.48,8.43-.49.8.76,1.54,1.24.75,1.75-2.86,3.58-5.67,5.48-8.43.53-.77-.72-1.51-1.24-.75h0Z"/>
      <path class="cls-7" d="M78.23,80c-2.09,3.39-4.25,6.73-6.49,10.03-.53.78.72,1.52,1.24.75,2.23-3.29,4.4-6.64,6.49-10.03.49-.8-.75-1.54-1.24-.75h0Z"/>
      <path class="cls-7" d="M85.01,80.57c-1.78,3.21-3.72,6.33-5.83,9.34-.54.77.71,1.51,1.24.75,2.11-3.01,4.05-6.12,5.83-9.34.45-.82-.79-1.57-1.24-.75h0Z"/>
      <path class="cls-7" d="M80.29,12.31c-3.82-1.86-7.49-3.99-11.01-6.38-.78-.53-1.52.72-.75,1.24,3.51,2.39,7.18,4.52,11.01,6.38.83.41,1.59-.83.75-1.24h0Z"/>
      <path class="cls-7" d="M70.42,12.81c-3.49-1.58-6.81-3.46-9.96-5.64-.77-.54-1.51.71-.75,1.24,3.15,2.18,6.47,4.07,9.96,5.64.84.38,1.6-.86.75-1.24h0Z"/>
      <path class="cls-7" d="M64.21,14.05c-4.14-1.73-8.09-3.86-11.83-6.34-.78-.52-1.52.73-.75,1.24,3.85,2.55,7.92,4.71,12.17,6.49.86.36,1.25-1.04.4-1.39h0Z"/>
    </g>
  </g>
</svg>