<?xml version="1.0" encoding="UTF-8"?>
<svg id="Layer_2" data-name="Layer 2" xmlns="http://www.w3.org/2000/svg" width="168.23" height="232.5" viewBox="0 0 168.23 232.5">
  <defs>
    <style>
      .cls-1 {
        fill: #221f1f;
      }

      .cls-2 {
        fill: #f68920;
      }

      .cls-3 {
        fill: #986026;
      }

      .cls-4 {
        fill: #bbd432;
      }

      .cls-5 {
        fill: #878787;
      }

      .cls-6 {
        fill: #fbf06d;
      }
    </style>
  </defs>
  <g id="Layer_1-2" data-name="Layer 1">
    <g>
      <g>
        <path class="cls-4" d="M141.35,193.21c5.21-.62,11.52,4.24,9.35,9.81-1.62,4.59-7.83,7.55-12.47,7.2-4.44-.34-8.08-5.61-6.78-10.04,1.01-3.46,6.43-6.55,9.9-6.96Z"/>
        <path class="cls-1" d="M141.35,193.93c4.28-.4,9.75,2.89,8.98,7.75-.73,4.62-6.16,7.37-10.35,7.79-4.54.46-8.27-3.42-8.06-7.92.2-4.16,5.81-7.12,9.43-7.62.91-.13.92-1.58,0-1.45-4.36.6-10.36,3.84-10.84,8.72-.52,5.28,3.86,9.95,9.12,9.74,5.2-.21,11.3-3.79,12.17-9.28.88-5.6-5.48-9.66-10.45-9.19-.93.09-.93,1.54,0,1.45Z"/>
      </g>
      <g>
        <path class="cls-4" d="M87.95,204.75c5.21-.62,11.52,4.24,9.35,9.81-1.62,4.59-7.83,7.55-12.47,7.2-4.44-.34-8.08-5.61-6.78-10.04,1.01-3.46,6.43-6.55,9.9-6.96Z"/>
        <path class="cls-1" d="M87.96,205.48c4.28-.4,9.75,2.89,8.98,7.75-.73,4.62-6.16,7.37-10.35,7.79-4.54.46-8.27-3.42-8.06-7.92.2-4.16,5.81-7.12,9.43-7.62.91-.13.92-1.58,0-1.45-4.36.6-10.36,3.84-10.84,8.72-.52,5.28,3.86,9.95,9.12,9.74,5.2-.21,11.3-3.79,12.17-9.28.88-5.6-5.48-9.66-10.45-9.19-.92.09-.93,1.54,0,1.45Z"/>
      </g>
      <g>
        <path class="cls-3" d="M78.41,171.42c5.32,7.21,9.73,17.15,12.09,25.6,2.13.23,4.33-.79,6.36-.94-.9-4.71-4.31-9.55-5.98-14.06-1.77-4.88-3.05-9.49-5.21-14.27h0c-2.2,1.02-4.78,2.16-7.08,2.8l-.17.87Z"/>
        <path class="cls-1" d="M77.79,171.79c5.53,7.57,9.47,16.41,12.01,25.42.09.33.37.51.7.53,2.19.15,4.21-.72,6.36-.94.49-.05.8-.43.7-.92-1.01-4.89-3.97-9.04-5.81-13.62-1.98-4.91-3.29-10.04-5.46-14.88-.17-.39-.67-.4-.99-.25-2.25,1.04-4.52,2.03-6.9,2.72-.9.26-.51,1.66.39,1.4,2.51-.73,4.9-1.78,7.26-2.87-.33-.08-.66-.17-.99-.25,2.17,4.87,3.49,10.03,5.48,14.97,1.79,4.44,4.65,8.44,5.64,13.18.23-.31.46-.61.7-.92-2.14.22-4.18,1.09-6.36.94.23.18.47.35.7.53-2.57-9.11-6.56-18.11-12.16-25.77-.55-.75-1.8-.01-1.24.74h0Z"/>
      </g>
      <g>
        <path class="cls-3" d="M132.7,158.38c-1.66,2.95-.83,8.92-.74,12.2-.32,6.29-.25,12.48-.57,18.77h0c-1.92.53-4.22,1.17-6.14,1.71.19-11.22.65-22.93-.04-34.32,2.52.13,4.93-.13,7.06.1-.28.49-.06,1.26-.34,1.75l.77-.21Z"/>
        <path class="cls-1" d="M132.07,158.03c-1.86,3.55-1.04,8.13-.86,11.96.15,3.02-.18,6.12-.24,9.14-.07,3.41-.14,6.83-.3,10.24.18-.23.35-.47.53-.7-2.05.57-4.09,1.14-6.14,1.71.31.23.61.46.92.7.2-11.44.64-22.89-.04-34.32-.24.24-.48.48-.72.73,2.35.1,4.71-.12,7.06.1-.23-.3-.47-.61-.7-.91-.21.57-.14,1.18-.34,1.75-.32.88,1.09,1.24,1.4.37.21-.57.14-1.18.34-1.75.17-.48-.28-.87-.7-.91-2.35-.22-4.71,0-7.06-.1-.38-.01-.75.34-.72.73.67,11.43.23,22.89.04,34.33,0,.47.47.82.92.7,2.05-.57,4.1-1.14,6.14-1.71.32-.09.52-.38.53-.7.29-6.06.27-12.14.54-18.2.18-3.98-1.28-8.7.67-12.42.43-.83-.83-1.54-1.26-.71h0Z"/>
      </g>
      <g>
        <g>
          <path class="cls-2" d="M147.68,138.42c-8.11,1.69-16.22,3.38-24.33,5.1-8.75,1.85-17.49,3.73-26.22,5.64-6.9,1.51-13.78,3.05-20.66,4.62-7.12,1.63-14.24,3.29-21.34,5,6.53,4.65,13.27,8.96,20.07,12.96l18.78-3.85,10.75-2.53,14.73-3.47,15.14-4.16c4.78-5.98,9.17-12.46,13.08-19.3Z"/>
          <path class="cls-1" d="M147.48,137.72c-30.93,6.43-61.84,12.97-92.55,20.36-.67.16-.64.99-.16,1.33,3.79,2.69,7.65,5.28,11.57,7.77,1.87,1.19,3.76,2.35,5.65,3.5.87.52,2.42,1.96,3.48,1.74,3.48-.71,6.95-1.43,10.43-2.14,6.32-1.3,12.59-2.71,18.87-4.2,5.52-1.3,11.09-2.46,16.56-3.97,4.04-1.11,8.08-2.22,12.12-3.33.42-.12.85-.23,1.28-.35.35-.1.48-.33.71-.62.76-.96,1.51-1.93,2.24-2.9,2.59-3.43,5.02-6.99,7.32-10.62,1.14-1.81,2.24-3.66,3.3-5.51.47-.81-.8-1.52-1.26-.71-2.22,3.86-4.58,7.62-7.11,11.29-1.26,1.83-2.58,3.62-3.92,5.39-.32.42-.64.83-.96,1.24-.04.05-.74,1.06-.65,1.04-.13.04-.27.07-.4.11-3.87,1.06-7.74,2.13-11.61,3.19-5.89,1.62-11.86,2.92-17.8,4.32-5.71,1.35-11.41,2.67-17.16,3.85-3.94.81-7.87,1.62-11.81,2.42-.83.17-.32.06-1.03-.36-2.06-1.22-4.11-2.47-6.14-3.74-3.94-2.46-7.81-5.03-11.61-7.69-.46-.32-.91-.64-1.37-.97-.05.44-.11.89-.16,1.33,30.71-7.39,61.63-13.92,92.55-20.36.92-.19.52-1.58-.39-1.4Z"/>
        </g>
        <g>
          <path class="cls-6" d="M33.98,57.82c-3.42-12.3-3.7-25.86,2.11-37.82-3.88,2.93-7.59,6.15-11.09,9.64C12.14,41.99,2.16,57.93.88,75.84c-1.54,19.23,7.71,36.72,19.22,51.06,10.05,12.19,22.13,22.69,35.03,31.88,7.1-1.71,14.22-3.37,21.34-5-24.2-25.09-33.75-62.71-42.49-95.96Z"/>
          <path class="cls-1" d="M34.68,57.62c-3.37-12.28-3.54-25.6,2.05-37.27.28-.59-.38-1.46-1-.98-12.29,9.34-23.37,21.16-29.94,35.26-3.05,6.54-4.98,13.56-5.59,20.75-.73,8.64.7,17.23,3.66,25.34,5.72,15.65,16.63,29,28.55,40.38,5.97,5.7,12.36,10.93,18.99,15.84.84.62,1.69,1.24,2.53,1.85.83.59.99.77,1.96.54,2.24-.54,4.49-1.07,6.73-1.6,4.68-1.1,9.36-2.19,14.05-3.26.56-.13.67-.84.31-1.22-22.78-23.73-32.04-56.85-40.24-87.82-.69-2.61-1.37-5.21-2.06-7.82-.24-.9-1.63-.51-1.4.39,8.1,30.82,16.13,63.47,36.29,88.96,2.01,2.54,4.15,4.98,6.39,7.32.1-.41.21-.81.31-1.22-4.69,1.07-9.37,2.16-14.05,3.26-2.24.53-4.49,1.06-6.73,1.6-.65.15-2.05-1.27-2.55-1.63-1.08-.79-2.14-1.58-3.2-2.39-6.94-5.26-13.54-10.96-19.69-17.13-12.28-12.32-23.16-27.21-27.19-44.4-3.24-13.85-.64-28.15,5.95-40.6,6.51-12.3,16.64-22.8,27.66-31.17-.34-.33-.67-.65-1-.98-5.76,12.03-5.66,25.7-2.18,38.37.25.9,1.64.51,1.4-.39Z"/>
        </g>
        <g>
          <path class="cls-6" d="M111.2,5.31c-.22-.8-.53-1.55-.89-2.27-13.51-3.26-27.01-2.96-39.8.24-.31,49.7,6.95,100.17,26.61,145.88,8.73-1.91,17.47-3.79,26.22-5.64,2.42-15.74,2.84-31.85,2.99-48.11.05-31.04-3.93-60.96-15.14-90.11Z"/>
          <path class="cls-1" d="M111.9,5.11c-.21-.69-.47-1.35-.76-2.01-.37-.83-.84-.81-1.7-1.01-1.91-.44-3.85-.8-5.79-1.1-3.7-.58-7.44-.89-11.18-.97-7.46-.16-14.93.77-22.16,2.56-.31.08-.53.38-.53.7-.21,36.62,3.63,73.41,13.5,108.74,3.57,12.78,7.98,25.32,13.22,37.52.13.3.53.39.82.32,8.73-1.91,17.48-3.79,26.22-5.64.22-.05.47-.28.51-.51,2.73-17.93,3.25-36.3,2.98-54.41-.28-18.16-2.1-36.31-6.04-54.05-2.28-10.25-5.33-20.32-9.08-30.13-.33-.86-1.73-.48-1.4.39,6.61,17.25,10.86,35.29,13.09,53.61,2.22,18.27,2.32,36.69,1.63,55.06-.37,9.75-1.1,19.5-2.57,29.16.17-.17.34-.34.51-.51-8.75,1.85-17.49,3.73-26.22,5.64.27.11.54.22.82.32-14.6-34.03-22.32-70.66-25.2-107.49-.99-12.65-1.39-25.34-1.32-38.02-.18.23-.35.47-.53.7,6.62-1.64,13.39-2.49,20.21-2.52,3.32-.01,6.63.21,9.93.6,1.88.22,3.74.53,5.59.89.88.17,1.76.36,2.63.55,1.05.24,1.15,1.07,1.43,2.01.27.89,1.67.51,1.4-.39Z"/>
        </g>
        <g>
          <path class="cls-4" d="M114.43,4.13c-1.37-.4-2.74-.76-4.12-1.09.36.72.67,1.47.89,2.27,11.21,29.15,15.19,59.06,15.14,90.11-.16,16.26-.57,32.37-2.99,48.11,8.1-1.71,16.22-3.41,24.33-5.1,12.44-21.77,20.03-47.22,19.82-71.96-.27-32.52-23.1-53.74-53.07-62.33Z"/>
          <path class="cls-1" d="M114.61,3.43c-1.36-.4-2.74-.76-4.12-1.09-.66-.16-1.08.51-.81,1.07.96,2,1.62,4.2,2.38,6.28.82,2.26,1.59,4.55,2.33,6.84,1.41,4.37,2.66,8.79,3.79,13.24,2.27,8.94,3.94,18.03,5.13,27.18,2.38,18.26,2.58,36.66,1.97,55.03-.34,10.49-1.07,20.98-2.65,31.35-.09.55.32,1,.9.88,4.71-1,9.43-1.99,14.14-2.98,2.26-.47,4.53-.95,6.79-1.42,1.13-.24,2.26-.47,3.4-.71.67-.14,1.1-1.51,1.39-2.04,3.92-7.03,7.26-14.38,10.06-21.93,5.6-15.09,8.81-31.15,8.9-47.26.08-13.92-3.99-27.41-12.57-38.46-8.28-10.68-19.93-18.21-32.41-23.1-2.83-1.11-5.72-2.06-8.64-2.91-.9-.26-1.27,1.14-.37,1.4,13.48,3.89,26.3,10.54,36.13,20.7,9.77,10.1,15.37,23.33,16.28,37.31,1.04,16.06-2.17,32.61-7.26,47.78-2.62,7.84-5.93,15.44-9.77,22.75-.45.86-.92,1.72-1.39,2.57-.53.96-.74,1.77-1.88,2.01-2.45.51-4.91,1.02-7.36,1.53-4.72.99-9.43,1.98-14.14,2.97-.57.12-1.13.24-1.7.36.3.29.6.59.9.88,2.73-17.93,3.25-36.3,2.98-54.41-.28-18.16-2.1-36.31-6.04-54.05-1.23-5.54-2.7-11.03-4.36-16.46-.87-2.83-1.8-5.64-2.79-8.43-.9-2.56-1.72-5.25-2.91-7.69-.27.36-.54.72-.81,1.07,1.38.34,2.75.69,4.12,1.09.9.26,1.26-1.14.37-1.4Z"/>
        </g>
        <g>
          <path class="cls-4" d="M70.51,3.27c-12.34,3.09-24.02,8.86-34.42,16.72-5.81,11.96-5.53,25.52-2.11,37.82,8.74,33.25,18.29,70.87,42.49,95.96,6.88-1.57,13.77-3.11,20.66-4.62-19.67-45.71-26.92-96.18-26.62-145.88Z"/>
          <path class="cls-1" d="M70.32,2.58c-8.64,2.19-16.88,5.64-24.58,10.11-1.89,1.1-3.73,2.27-5.55,3.49-.91.61-1.81,1.25-2.7,1.89-.82.59-1.79,1.08-2.24,2.01-1.67,3.5-2.83,7.23-3.56,11.04-1.45,7.53-1,15.33.58,22.8,1.64,7.77,3.97,15.46,6.09,23.11,4.34,15.65,9.3,31.21,16.36,45.87,3.48,7.22,7.52,14.18,12.24,20.66,2.28,3.13,4.74,6.13,7.36,9,.52.56,1.12,1.47,1.78,1.85.58.33,1.64-.18,2.22-.31,2.42-.55,4.84-1.1,7.26-1.64,3.91-.88,7.82-1.74,11.73-2.6.51-.11.6-.67.43-1.07-14.6-34.03-22.32-70.66-25.2-107.49-.99-12.65-1.39-25.34-1.32-38.02,0-.94-1.45-.93-1.45,0-.21,36.62,3.63,73.41,13.5,108.74,3.57,12.78,7.98,25.32,13.22,37.52.14-.36.28-.71.43-1.07-6.89,1.51-13.78,3.05-20.66,4.62.23.06.47.12.7.18-22.78-23.73-32.04-56.85-40.24-87.82-1.67-6.32-3.55-12.61-4.2-19.14-.65-6.51-.16-13.11,1.66-19.41.47-1.62,1.06-3.22,1.72-4.77.37-.86.66-1.58,1.43-2.15.73-.55,1.48-1.08,2.23-1.6,3.13-2.2,6.4-4.2,9.75-6.03,6.74-3.67,13.94-6.47,21.38-8.36.9-.23.51-1.63-.39-1.4Z"/>
        </g>
      </g>
      <g>
        <g>
          <path class="cls-2" d="M84.26,196.24c2.56-1.19,5.61-.6,8.42-.9,4.72-.35,9.18-1.59,13.65-2.84,5.81-1.62,11.05-3.55,16.85-5.17,4.47-1.24,10.23-4.77,14.74-4.1h0c2.19,6.13,2.84,13.65,4.13,20.03.8,4.59,4.05,12.83,1.35,16.96h0c-3.2,2.33-8.04,2.24-11.74,2.79s-7.6,2.11-11.17,3.11c-9.06,2.04-18.25,3.63-27.31,5.67-2.31-6.58-3.73-13.4-5.59-20.11-1.12-4.02-4.25-11.82-2.32-15.24l-1.02-.2Z"/>
          <path class="cls-1" d="M84.45,196.93c2.15-.91,4.44-.74,6.72-.78,2.43-.04,4.88-.44,7.25-.91,4.89-.96,9.71-2.45,14.45-3.96,4.42-1.41,8.99-2.56,13.32-4.22,3.7-1.42,7.65-3.6,11.74-3.11-.23-.18-.47-.35-.7-.53,2.42,6.96,2.82,14.37,4.43,21.51.62,2.77,1.44,5.49,1.87,8.3.21,1.38.29,2.82.1,4.21-.09.66-.28,1.3-.56,1.89-.37.78-1.56,1.15-2.3,1.44-3.26,1.25-6.91,1.07-10.31,1.69-4.03.73-7.82,2.42-11.82,3.3-8.52,1.88-17.12,3.39-25.64,5.3.3.17.59.34.89.5-2.38-6.86-3.76-13.99-5.84-20.94-.7-2.34-1.49-4.64-2.06-7.01-.51-2.09-1.13-4.82-.08-6.85.43-.83-.83-1.54-1.26-.71-.98,1.88-.76,4.07-.43,6.09.44,2.71,1.34,5.34,2.16,7.95,2.27,7.22,3.63,14.69,6.12,21.86.14.39.49.6.89.5,8.89-1.99,17.86-3.57,26.75-5.55,4.2-.93,8.11-2.78,12.41-3.32,3.57-.45,7.24-.52,10.47-2.27,2.27-1.23,2.28-4.55,2.11-6.81-.21-2.94-1.04-5.82-1.75-8.67-1.89-7.55-2.18-15.44-4.75-22.82-.12-.34-.36-.49-.7-.53-3.91-.47-7.75,1.41-11.28,2.83-4.42,1.78-9.11,2.93-13.64,4.39-4.75,1.52-9.55,2.96-14.42,4.02-2.6.56-5.26.93-7.92.98-2.25.04-4.48-.07-6.6.83-.85.36-.47,1.76.39,1.4h0Z"/>
        </g>
        <path class="cls-1" d="M94.43,195.61c.53,5.46,1,10.93,1.82,16.36.89,5.91,2.09,11.94,4.68,17.37.4.84,1.64.09,1.24-.75-2.53-5.3-3.64-11.25-4.53-17.02-.81-5.3-1.25-10.64-1.77-15.98-.09-.92-1.54-.93-1.45,0h0Z"/>
        <path class="cls-1" d="M105.85,193.4c.74,11.35,2.5,22.83,5.53,33.8.25.9,1.65.51,1.4-.39-2.99-10.85-4.74-22.19-5.47-33.42-.06-.93-1.51-.93-1.45,0h0Z"/>
        <path class="cls-1" d="M118.64,189.08c-.04-.16-.09-.32-.13-.48-.25-.9-1.65-.51-1.4.39.7,2.53,1.28,5.07,1.73,7.66.58,3.27,1.55,6.56,1.79,9.86.43,5.85-.04,11.97,1.92,17.6.31.88,1.7.49,1.4-.39-2.01-5.78-1.44-12.11-1.93-18.12-.12-1.44-.51-2.78-.82-4.19-.38-1.7-.66-3.43-.96-5.14-.45-2.59-1.03-5.13-1.73-7.66-.25-.9-1.65-.51-1.4.39.04.16.09.32.13.48.25.9,1.65.51,1.4-.39h0Z"/>
        <path class="cls-1" d="M127.77,187.5c1.9,6.93,2.7,14.08,4.3,21.07.54,2.36,1.26,4.68,1.82,7.04.45,1.88,1.34,4.76.39,6.62-.42.83.84,1.55,1.26.71.92-1.8.47-4.07.12-5.97-.49-2.68-1.3-5.29-1.98-7.93-1.86-7.23-2.54-14.72-4.51-21.93-.25-.9-1.64-.51-1.4.39h0Z"/>
      </g>
      <g>
        <path class="cls-5" d="M98.85,169.04c-.21-.77.9,4.71.73,5.59,4.22-1.18,7.89-1.37,12.05-1.29.13-2.52-.62-5.21-1.37-7.89h0c-3.46.96-7.68,2.14-11.14,3.1l-.28.49Z"/>
        <path class="cls-1" d="M99.55,168.85c-.03-.09-.06-.17-.1-.25-.36-.65-1.33-.32-1.35.38-.04,1.88.99,3.76.75,5.66-.06.48.51.81.92.7,3.9-1.05,7.84-1.33,11.86-1.26.4,0,.71-.34.72-.73.08-2.77-.66-5.44-1.4-8.09-.11-.38-.51-.61-.89-.5-3.71,1.03-7.42,2.07-11.14,3.1-.9.25-.51,1.65.39,1.4,3.71-1.03,7.42-2.07,11.14-3.1-.3-.17-.59-.34-.89-.5.7,2.52,1.42,5.06,1.34,7.7.24-.24.48-.48.72-.73-4.15-.07-8.22.23-12.24,1.31.31.23.61.46.92.7.23-1.87-.79-3.95-.75-5.66-.45.12-.9.25-1.35.38-.02-.04-.03-.07-.05-.1.27.89,1.67.5,1.4-.39h0Z"/>
      </g>
      <g>
        <path class="cls-4" d="M114.67,200.63c5.21-.62,11.52,4.24,9.35,9.81-1.62,4.59-7.83,7.55-12.47,7.2-4.44-.34-8.08-5.61-6.78-10.04,1.01-3.46,6.43-6.55,9.9-6.96Z"/>
        <path class="cls-1" d="M114.67,201.36c4.28-.4,9.75,2.89,8.98,7.75-.73,4.62-6.16,7.37-10.35,7.79-4.54.46-8.27-3.42-8.06-7.92.2-4.16,5.81-7.12,9.43-7.62.91-.13.92-1.58,0-1.45-4.36.6-10.36,3.84-10.84,8.72-.52,5.28,3.86,9.95,9.12,9.74,5.2-.21,11.3-3.79,12.17-9.28.88-5.6-5.48-9.66-10.45-9.19-.93.09-.93,1.54,0,1.45Z"/>
      </g>
      <g>
        <path class="cls-5" d="M139.48,179.04c-8.64,2.4-17.67,2.64-26.45,5.29-7.63,2.33-15.72,5.2-23.86,6.43-3.95.68-8.14,1.23-11.87,2.68.03.44.55,1.9,1.18,3.45l-.03-.05c.2,1.36,1.05,2.85,1.88,3.99.16.27.31.46.41.54,9.64-4.75,20.91-2.92,30.94-5.51,8.69-2.21,17.26-5.63,26.05-7.46,2.36-.45,3.75-.63,3.44-3.23-.2-2.22-.98-4.28-1.71-6.14Z"/>
        <path class="cls-1" d="M139.29,178.34c-5.12,1.4-10.39,2.1-15.62,2.94-5.29.85-10.35,2.18-15.46,3.8-5.1,1.61-10.2,3.19-15.44,4.3-5.23,1.11-10.63,1.47-15.66,3.37-.41.15-.57.47-.5.89.18,1.19.74,2.35,1.18,3.45l1.32-.57s-.02-.04-.03-.05c-.39-.77-1.47-.19-1.32.57.34,1.75,1.28,3.55,2.49,4.86.23.25.59.24.88.1,5.99-2.88,12.65-3.29,19.17-3.8,3.03-.24,6.06-.52,9.05-1.07,3.24-.59,6.42-1.6,9.57-2.57,6.41-1.96,12.78-4.27,19.38-5.52,1.54-.29,3.09-.65,3.56-2.33.3-1.05-.03-2.33-.23-3.36-.3-1.55-.89-3.04-1.46-4.51-.33-.86-1.73-.48-1.4.39.51,1.31.98,2.62,1.34,3.98.25.94.82,2.79.09,3.67-.47.57-1.62.64-2.29.77-1.59.31-3.17.7-4.75,1.1-6.21,1.6-12.26,3.77-18.42,5.54-5.81,1.67-11.62,2.22-17.62,2.71-5.76.46-11.49,1.23-16.75,3.76.29.03.59.07.88.1-1.03-1.13-1.81-2.72-2.1-4.21l-1.32.57s.02.04.03.05c.37.72,1.63.19,1.32-.57-.44-1.1-1-2.27-1.18-3.45-.17.3-.34.6-.5.89,5.03-1.89,10.43-2.3,15.66-3.37,5.24-1.07,10.35-2.7,15.44-4.3,5.11-1.61,10.17-2.93,15.46-3.8,5.23-.86,10.49-1.54,15.62-2.94.9-.24.51-1.64-.39-1.4Z"/>
      </g>
    </g>
  </g>
</svg>