<?xml version="1.0" encoding="UTF-8"?>
<svg id="Layer_2" data-name="Layer 2" xmlns="http://www.w3.org/2000/svg" width="105.88" height="104.86" viewBox="0 0 105.88 104.86">
  <defs>
    <style>
      .cls-1 {
        fill: #1473b9;
      }

      .cls-2 {
        fill: #4188c8;
      }

      .cls-3 {
        fill: #3a271f;
      }
    </style>
  </defs>
  <g id="Layer_1-2" data-name="Layer 1">
    <g>
      <g>
        <path class="cls-1" d="M8.78,58.96c17.57,12.55,40.66,28.11,56.22,45.18,13.05-10.54,24.6-24.6,40.16-31.12-10.54-20.58-23.09-44.68-37.15-63.25C48.94,25.33,26.86,43.9,8.28,56.95l.5,2.01Z"/>
        <path class="cls-3" d="M8.42,59.59c19.46,13.89,39.83,27.32,56.08,45.07.29.31.73.24,1.02,0,13.07-10.6,24.2-24.3,40.01-31.01.38-.16.42-.68.26-.99-11.13-21.73-22.4-43.71-37.15-63.25-.3-.4-.75-.47-1.14-.15C47.91,25.24,28.62,41.75,7.92,56.33c-.76.53-.04,1.79.73,1.25,20.8-14.64,40.19-31.23,59.89-47.3-.38-.05-.76-.1-1.14-.15,14.75,19.54,26.02,41.53,37.15,63.25.09-.33.17-.66.26-.99-15.92,6.76-27.15,20.57-40.31,31.24h1.02c-16.32-17.83-36.82-31.33-56.37-45.29-.76-.54-1.49.72-.73,1.25h0Z"/>
      </g>
      <g>
        <path class="cls-2" d="M.75,51.93c2.01,3.01,6.02,7.53,9.04,10.54h-.5c21.59-14.56,44.68-32.13,63.75-49.7-3.01-4.02-6.02-8.03-8.53-12.05C41.92,15.79,21.84,37.37.75,51.43v.5Z"/>
        <path class="cls-3" d="M.13,52.3c2.62,3.87,5.86,7.38,9.15,10.69.17-.41.34-.83.51-1.24h-.5c.12.45.24.9.37,1.35,22.38-15.11,44.02-31.52,63.9-49.81.22-.2.3-.63.11-.88-2.95-3.94-5.91-7.88-8.53-12.05-.2-.32-.65-.48-.99-.26C41.51,15.24,23,35.67.38,50.81c-.77.52-.05,1.77.73,1.25C23.74,36.92,42.24,16.49,64.87,1.36c-.33-.09-.66-.17-.99-.26,2.62,4.17,5.58,8.11,8.53,12.05.04-.29.08-.59.11-.88C52.73,30.47,31.2,46.81,8.92,61.85c-.58.39-.39,1.35.37,1.35h.5c.63,0,.96-.79.51-1.24-3.2-3.22-6.37-6.63-8.92-10.39-.52-.77-1.77-.05-1.25.73H.13Z"/>
      </g>
      <path class="cls-3" d="M3.4,57.33c-.98.42-2.03.59-3.01,1-.43.18-.46.85-.15,1.14,9.98,9.31,21.46,17.06,35.47,17.89,7.02.41,14.33-.83,21-2.99,5.97-1.93,11.52-5.13,16.14-9.38,7.48-6.87,11.78-16.55,11.92-26.69.08-5.87-1.38-11.5-3.54-16.91-2.33-5.83-5.46-11.48-9.68-16.15-.63-.7-1.65.33-1.02,1.02,5.28,5.83,8.86,13.27,11.16,20.74,2.01,6.54,2.19,13.57.43,20.19-3.37,12.67-13.96,21.96-26.17,25.9-9.38,3.03-19.76,3.97-29.33,1.3-9.78-2.73-18.04-9.13-25.36-15.95-.05.38-.1.76-.15,1.14.98-.42,2.03-.59,3.01-1,.86-.36.12-1.61-.73-1.25h0Z"/>
    </g>
  </g>
</svg>