<?xml version="1.0" encoding="UTF-8"?>
<svg id="Layer_2" data-name="Layer 2" xmlns="http://www.w3.org/2000/svg" width="80.17" height="101.19" viewBox="0 0 80.17 101.19">
  <defs>
    <style>
      .cls-1 {
        fill: #fcd900;
      }

      .cls-2 {
        fill: #231f20;
      }

      .cls-3 {
        fill: #f6851f;
      }
    </style>
  </defs>
  <g id="Layer_1-2" data-name="Layer 1">
    <g>
      <g>
        <path class="cls-1" d="M67.22,16.78c-.91-1.52-1.82-2.98-2.76-4.41-.73-.99-1.5-1.93-2.32-2.82-.81-.89-1.67-1.73-2.55-2.5C49.76-1.27,37.54-1.08,27.54,5.78c-1.11.76-2.2,1.61-3.25,2.53-.93.8-1.81,1.61-2.65,2.45-.83.8-1.65,1.63-2.44,2.47-2.52,2.84-5.13,5.93-7,9.29-.63,1.12-1.17,2.27-1.6,3.46-2.58,7.91.39,14.15,5.61,18.76,1.04.92,2.18,1.78,3.38,2.57.9.54,1.81,1.08,2.73,1.62s1.84,1.11,2.77,1.7c.88.54,1.73,1.14,2.52,1.8,6.95,4.33,7.36,15.57-.56,18.8-.86.4-1.75.71-2.68.91-.97.2-1.97.32-2.96.36-.99.04-1.97.01-2.92-.08-1.32-.34-2.61-.41-3.83-.5-2.56-.18-4.64-1.01-6.73-1.46-1.29-.19-2.54-.34-3.74-.39-1.56-.16-2.59.62-3.19,1.83-1.04,5.96,1.06,11.78,4.8,16.44.75.93,1.56,1.82,2.43,2.65,11.34,9.44,27.98,11.93,41.55,7,1.22-.52,2.4-1.12,3.56-1.8,1.15-.68,2.27-1.45,3.35-2.31.96-.8,1.82-1.68,2.54-2.63,2.19-2.85,3.23-6.39,2.36-10.74-.27-1.14-.67-2.29-1.15-3.44-2.62-5.75-7.61-10.33-9.27-16.15-1.66-7.07,5.82-11.23,11.67-13.87.98-.61,1.93-1.28,2.82-2,2.68-2.16,4.9-4.83,6.31-8.26,2.5-7.07-1.25-14.14-4.76-20.02Z"/>
        <path class="cls-2" d="M67.84,16.41c-2.21-3.66-4.53-7.01-7.74-9.87-2.76-2.46-6.14-4.28-9.65-5.41-6.85-2.21-14.24-1.01-20.5,2.33-3.6,1.92-6.65,4.65-9.53,7.49-2.91,2.86-5.57,6.07-7.81,9.48-4.05,6.19-5.06,13.64-1.03,20.09,1.9,3.04,4.69,5.44,7.64,7.42,3.3,2.22,7.11,3.84,9.95,6.7,3.93,3.96,4.21,11.3-.41,14.83-3.29,2.51-7.66,2.58-11.55,1.99-1.98-.3-3.94-.35-5.9-.85-2.04-.52-3.97-.98-6.08-1.17-1.5-.14-2.71-.11-3.91.86C-.02,71.34.04,73.26,0,74.8c-.09,3.78,1.14,7.49,2.98,10.75,3.72,6.58,10.48,10.62,17.42,13.11,6.84,2.45,14.29,3.07,21.47,2.06,7.24-1.02,15.31-4.17,19.12-10.82,1.73-3.02,2.03-6.74,1.18-10.07-.98-3.87-3.31-7.16-5.55-10.39-2.93-4.21-6.88-9.51-3.64-14.59,2.74-4.29,7.96-5.5,11.88-8.27,4.46-3.15,8.04-7.77,8.6-13.31.62-6.03-2.65-11.87-5.62-16.86-.48-.8-1.73-.07-1.25.73,2.22,3.72,4.31,7.55,5.18,11.83.94,4.6-.49,8.88-3.41,12.45-1.22,1.49-2.69,2.77-4.24,3.91-1.45,1.06-3.06,1.73-4.65,2.55-2.69,1.39-5.34,3.12-7.23,5.52-4.65,5.92.13,12.46,3.67,17.55,2.43,3.49,4.85,7.17,5.23,11.52.37,4.17-1.54,7.8-4.56,10.55-5.9,5.39-14.71,6.89-22.43,6.71-7.61-.17-15.16-2.43-21.6-6.47-3.6-2.26-6.45-5.15-8.56-8.87-.99-1.74-1.67-3.62-2.13-5.56-.24-1.01-.35-2.05-.41-3.08-.06-1.06-.19-2.83.32-3.79,1.06-1.95,4.21-1.04,5.94-.79,1.98.29,3.85,1.12,5.85,1.37,3.97.5,7.95,1.18,11.89.08,5.45-1.52,8.72-6.31,8.05-11.93-.8-6.8-6.89-10.03-12.22-13.19-6.67-3.97-12.02-10.34-10.71-18.54.71-4.45,3.4-8.32,6.17-11.75,2.65-3.29,5.6-6.33,8.84-9.05C31.65,3.06,39.67.39,47.52,1.87c3.95.74,7.63,2.6,10.79,5.06,3.55,2.76,5.99,6.41,8.29,10.21.48.8,1.74.07,1.25-.73Z"/>
      </g>
      <g>
        <path class="cls-3" d="M38.58,28.9c1.68,0,2.94,0,5.04-1.26,3.78-2.1,6.72-7.14,11.76-5.04,4.2,2.1,5.88,5.46,11.34,5.46,2.94.42,9.24-1.26,11.34.42,3.36,2.52-.42,7.98-2.1,10.5-5.46,7.14-15.55,9.24-24.37,7.98-9.24-1.68-15.12-7.56-13.02-17.23v-.84h0Z"/>
        <path class="cls-2" d="M38.58,29.62c3.29,0,5.71-1.33,8.21-3.38,2.65-2.18,5.42-4.58,8.95-2.64,2.61,1.44,4.63,3.65,7.49,4.65,2.87,1.01,6.15.53,9.1.29,1.45-.12,2.95-.23,4.38.09,1.76.4,2.17,2.15,1.87,3.71-.57,2.89-2.73,5.94-4.76,8-5.14,5.21-13.08,6.65-20.12,6.13-4.26-.32-8.66-1.83-11.7-4.92-3.05-3.1-3.56-7.52-2.71-11.62.19-.91-1.21-1.3-1.4-.39-1.17,5.67.23,11.08,4.95,14.66,5.04,3.82,12.22,4.39,18.27,3.5,6.54-.95,12.65-3.95,16.32-9.6,1.38-2.12,3.2-5.04,2.65-7.7-.56-2.72-3.01-3.4-5.46-3.42-3.31-.03-6.57.75-9.87.17-3.36-.59-5.74-3.41-8.62-5-2.84-1.57-5.78-.52-8.19,1.29-1.28.96-2.45,2.07-3.77,3-1.75,1.23-3.47,1.72-5.58,1.73-.94,0-.94,1.45,0,1.45h0Z"/>
      </g>
      <path class="cls-2" d="M33.17,11.57c-.24-.53-.81-.6-1.27-.4-.37-.21-.93-.12-1.2.19-1.72,1.94-2.34,7.63.63,8.79.21.14.45.16.67.11.04,0,.07-.01.11-.02.41.06.88-.06,1.07-.48,1.1-2.44,1.1-5.75,0-8.19Z"/>
      <path class="cls-2" d="M25.87,86.15c-5.69-.08-11.45-3.51-13.17-9.13-.23.31-.47.61-.7.92,3.94.05,7.81,1.2,11.76.84.92-.08.93-1.54,0-1.45-3.95.36-7.82-.79-11.76-.84-.46,0-.84.47-.7.92,1.91,6.24,8.21,10.11,14.56,10.2.94.01.93-1.44,0-1.45h0Z"/>
    </g>
  </g>
</svg>