<?xml version="1.0" encoding="UTF-8"?>
<svg id="Layer_2" data-name="Layer 2" xmlns="http://www.w3.org/2000/svg" width="130.17" height="120.44" viewBox="0 0 130.17 120.44">
  <defs>
    <style>
      .cls-1 {
        fill: #fcd900;
      }

      .cls-2 {
        fill: #fff;
      }

      .cls-3 {
        fill: #ef3d3a;
      }

      .cls-4 {
        fill: #231f20;
      }

      .cls-5 {
        fill: #7b7c7c;
      }
    </style>
  </defs>
  <g id="Layer_1-2" data-name="Layer 1">
    <g>
      <g>
        <path class="cls-5" d="M102.7,101.24c2.61,5.22,6.09,12.61,7.83,18.26,2.17,0,9.57.87,10.87-.87,2.61-3.48-5.65-6.52-8.26-4.35-.43-3.48-2.17-6.96-3.04-10.44-.43-3.04.43-6.96-1.3-10v.87l-6.09,6.52Z"/>
        <path class="cls-4" d="M102.07,101.61c2.92,5.86,5.8,11.83,7.75,18.09.1.31.37.53.7.53,2.48.02,4.95.31,7.43.17,1.91-.11,4.18-.46,4.62-2.66.41-2.02-1.69-3.5-3.3-4.15-1.94-.79-4.7-1.29-6.51.08.35.14.71.29,1.07.43-.27-1.88-.83-3.67-1.45-5.47-.62-1.8-1.49-3.68-1.66-5.59-.29-3.28.29-6.52-1.32-9.55-.34-.65-1.35-.34-1.35.37v.87c0,.93,1.45.93,1.45,0v-.87c-.45.12-.9.24-1.35.37,1.58,2.98.81,6.42,1.21,9.64.21,1.74,1.05,3.52,1.62,5.16.62,1.79,1.18,3.59,1.45,5.47.06.43.72.7,1.07.43,1.82-1.38,9.12.1,7.42,3.14-.71,1.26-3.8.95-4.98.95-1.81,0-3.61-.2-5.42-.22.23.18.47.35.7.53-1.99-6.38-4.92-12.47-7.9-18.44-.42-.84-1.67-.1-1.25.73h0Z"/>
      </g>
      <g>
        <path class="cls-5" d="M19.2,95.59c-.87,4.35-4.35,8.7-6.09,13.04h0c-.43.87-.43,1.3-1.31,1.74h0c-.87-8.26-9.13-1.3-10,3.04,5.22,0,12.18,2.17,15.22-2.17,3.48-4.78,6.96-10,10.44-14.35l-8.26-1.3Z"/>
        <path class="cls-4" d="M18.51,95.4c-.59,2.69-1.94,5.09-3.27,7.47-.67,1.19-1.33,2.38-1.94,3.6-.51,1.02-.82,2.68-1.85,3.28.36.21.73.42,1.09.63-.19-1.58-.58-3.16-1.95-4.12-1.04-.73-2.51-.47-3.58.02-2.69,1.22-5.24,4.04-5.89,6.96-.1.46.21.91.7.92,4.53.04,9.97,1.78,14.1-.81,1.02-.64,1.69-1.64,2.38-2.6,1.07-1.48,2.11-2.97,3.16-4.45,2.12-3,4.24-6,6.53-8.88.57-.72-.44-1.76-1.03-1.03-1.91,2.4-3.71,4.88-5.49,7.38-1.82,2.55-3.47,5.53-5.64,7.79-1.64,1.71-4.38,1.74-6.57,1.67-2.49-.08-4.96-.5-7.45-.52.23.31.47.61.7.92.5-2.23,2.25-4.22,4.11-5.48.75-.51,1.74-1.01,2.68-.85,1.34.22,1.65,2.01,1.79,3.1.07.53.57.93,1.09.63.86-.5,1.15-1.13,1.57-2,.72-1.52,1.42-3.02,2.24-4.5,1.55-2.79,3.23-5.57,3.92-8.72.2-.91-1.2-1.3-1.4-.39h0Z"/>
      </g>
      <g>
        <g>
          <path class="cls-3" d="M70.49,71.38c-6.87.69-13.9,1.35-20.93,1.58-1.41.04-2.82.06-4.23.05-3.86.06-7.34-1.1-10.76-1.78-1.41-.52-2.81-1.12-4.2-1.73-5.56-2.43-11.04-4.94-17.03-2.81-1.45.53-2.77,1.3-3.94,2.24-1.17.94-2.2,2.06-2.99,3.26-.78,1.16-1.32,2.37-1.66,3.6-.34,1.23-.48,2.49-.45,3.76.12,1.9.46,3.63.99,5.21.72,1.47,1.54,2.8,2.44,4,.91,1.21,1.9,2.3,2.97,3.29,3.06,2.83,6.55,5.12,10.32,6.84,1.26.58,2.55,1.09,3.86,1.54,16,4.24,32.53,5.4,48.98,6.43,1.71-.07,3.43-.22,5.16-.45,1.37-.11,2.74-.25,4.12-.38s2.77-.28,4.18-.41c1.61-.17,3.21-.38,4.81-.63,3.2-.51,6.39-1.19,9.56-2.07,1.76-.45,3.44-.96,5.07-1.55,4.86-1.78,9.32-4.42,13.09-8.23.91-1.08,1.71-2.22,2.4-3.41,2.06-3.59,3.08-7.6,2.43-11.73-2.32-12.47-19.13-9.28-29.02-9.33-1.99.09-3.97.22-5.91.39-7.76.68-14.91,1.89-19.26,2.32Z"/>
          <path class="cls-4" d="M70.49,70.66c-4.69.47-9.39.92-14.09,1.24-4.53.31-9.23.72-13.76.25-2.16-.22-4.29-.81-6.4-1.29-2.44-.56-4.67-1.61-6.96-2.61-3.75-1.63-7.61-3.14-11.77-3.06-8.29.15-14.75,7.79-13.78,15.9.96,7.97,8.06,13.75,14.71,17.34,3.87,2.09,7.95,3.21,12.22,4.15,4.52,1,9.09,1.76,13.68,2.39,9.06,1.25,18.19,1.9,27.32,2.48,4.35.28,8.72-.41,13.05-.85,4.35-.44,8.66-.99,12.94-1.93,8.11-1.78,15.85-4.56,22-10.32,5.09-4.77,7.83-13.58,4.53-20.03-2.26-4.44-7.38-5.94-11.97-6.46-5.32-.6-10.67.04-16,.09-8.16.07-16.29,1.6-24.37,2.57-.45.05-.9.1-1.35.15-.92.09-.93,1.54,0,1.45,8.04-.83,16-2.21,24.09-2.66,5.39-.3,10.95-.63,16.34-.26,5.04.35,10.61,1.87,12.55,7.08,1.48,3.97.48,8.52-1.35,12.18-2.01,4.02-5.4,6.88-9.19,9.18-3.71,2.26-7.79,3.59-11.96,4.72-4.47,1.22-9.04,2.02-13.65,2.53-4.29.47-8.63.99-12.94,1.22-2.17.12-4.44-.22-6.62-.37-2.4-.16-4.81-.34-7.21-.53-9.35-.74-18.69-1.81-27.88-3.7-4.55-.93-8.91-2-13.06-4.12-3.75-1.91-7.27-4.47-10.1-7.6-2.41-2.66-3.96-5.65-4.39-9.22-.46-3.85,1-7.41,3.68-10.13,2.57-2.62,6.1-3.88,9.72-3.82,3.66.06,7.22,1.64,10.51,3.08,1.43.62,2.85,1.24,4.3,1.83,1.59.64,3.33.91,5,1.29,3.4.78,6.69.95,10.17.89,7.35-.14,14.68-.88,21.98-1.6.92-.09.93-1.54,0-1.45Z"/>
        </g>
        <path class="cls-4" d="M71.62,25.22c-.34-2.04,1.02-3.33,2.13-4.87,1.14-1.58,2.27-3.16,3.48-4.69,2.45-3.12,5.34-6.29,9.1-7.81.85-.35.48-1.75-.38-1.4-4.18,1.69-7.28,5.05-10.01,8.53-1.35,1.72-2.61,3.51-3.9,5.28-1.29,1.78-2.19,3.07-1.81,5.34.15.92,1.55.53,1.4-.38h0Z"/>
        <g>
          <path class="cls-1" d="M84.51,1.12c4.48-2.29,9.01,5.11,5.46,7.98-2.98,2.41-12.27-4.49-5.46-7.98Z"/>
          <path class="cls-4" d="M84.88,1.74c4.78-2.22,7.83,7.09,3.41,7.12-1.72.01-3.46-1.21-4.55-2.45-1.62-1.82-.83-3.61,1.14-4.68.82-.45.09-1.7-.73-1.25-2.57,1.39-3.61,3.88-1.86,6.41,1.37,1.98,4.16,3.7,6.63,3.37,6.29-.84,1.74-12.81-4.77-9.78-.85.39-.11,1.64.73,1.25Z"/>
        </g>
        <g>
          <path class="cls-3" d="M70.49,63.25c-13.73,1.37-28.12,2.67-41.85.5-7.39-1.17-20.78-3.63-24.3,5.39-2.46,6.3-.52,13.08,4.83,17.16,9.13,6.96,23.05,6.96,33.92,7.39,11.74.43,23.05,1.3,34.79,2.61,10.87.87,22.18,1.3,32.18-3.04,7.39-3.04,17.83-10,16.09-19.57-4.35-20-42.62-11.74-55.66-10.44Z"/>
          <path class="cls-4" d="M70.49,62.52c-9.17.91-18.36,1.76-27.58,1.65-4.71-.05-9.42-.4-14.07-1.12-2.54-.39-5.07-.81-7.62-1.05-5.08-.48-11.08-.41-15.09,3.21-4.7,4.23-4.31,12.28-1.33,17.31,3.57,6.02,11.15,8.74,17.64,10.1,7.15,1.5,14.53,1.55,21.8,1.83,9.35.36,18.69,1.04,28,1.97,8.79.88,17.63,1.75,26.44.61,7.04-.91,13.9-3.42,19.7-7.53,4.79-3.4,9.07-8.45,8.65-14.67-.65-9.68-10.82-13.54-19.01-14.62-12.57-1.66-25.07,1.04-37.53,2.31-.92.09-.93,1.54,0,1.45,9.11-.92,18.1-2.57,27.29-2.77,8.51-.19,20.53.2,25.81,8.14,8.49,12.77-10.11,22.83-20.07,25.33-8.41,2.11-17.65,1.78-26.21.84-9.31-1.03-18.65-1.79-28.01-2.27-7.8-.4-15.67-.32-23.41-1.46-7.06-1.04-15.41-3.37-19.63-9.62-3.64-5.41-3.09-14.36,3.23-17.48,4.97-2.45,11.45-1.39,16.69-.59,6.85,1.06,13.66,1.62,20.6,1.53,7.92-.1,15.82-.86,23.7-1.65.92-.09.93-1.54,0-1.45Z"/>
        </g>
        <g>
          <path class="cls-2" d="M68.27,74.22c11.74-.87,29.57,3.91,36.96-7.83,8.7-12.61,4.35-30-7.39-38.7-16.09-11.31-40.44-9.13-54.79,3.48-5.32,4.9-8.79,11.36-11.31,18.06-2.54,6.74-7.94,20.53,1.77,23.53,4.52,1.4,10.28.75,14.96,1.02,6.59.38,13.2.83,19.81.44Z"/>
          <path class="cls-4" d="M68.27,74.95c11.07-.77,24.7,3.2,34.21-4.34,4.84-3.84,7.35-10.65,7.94-16.61.64-6.43-1.14-12.99-4.47-18.48-7.15-11.77-21.75-16.4-34.91-15.86-6.79.28-13.5,2.02-19.59,5.02-6.55,3.23-11.79,8.06-15.62,14.27-3.07,4.98-5.21,10.61-6.96,16.18-1.32,4.21-2.67,9.48-.84,13.74,2.4,5.59,9.48,5.54,14.64,5.55,8.54.02,17.05.99,25.59.51.93-.05.93-1.5,0-1.45-4.72.26-9.44.12-14.15-.12-4.32-.22-8.61-.35-12.94-.4-3.4-.04-7.66-.08-10.33-2.51-1.88-1.71-2.24-4.41-2.17-6.81.14-5.34,2.35-10.66,4.28-15.57,2.95-7.48,7.32-14.36,13.97-19.03,11.5-8.08,27.09-10.09,40.38-5.8,6.74,2.17,12.73,6.1,16.75,12,3.8,5.58,5.55,12.43,4.88,19.14-.47,4.68-2.38,9.29-5.28,12.98-2.54,3.22-6.33,4.88-10.25,5.69-8.27,1.7-16.79-.14-25.14.44-.93.07-.93,1.52,0,1.45Z"/>
        </g>
        <g>
          <path class="cls-1" d="M16.06,70.46c4.47-2.29,9.01,5.11,5.46,7.97-2.98,2.41-12.27-4.49-5.46-7.97Z"/>
          <path class="cls-4" d="M16.43,71.08c4.78-2.22,7.83,7.09,3.41,7.12-1.72.01-3.46-1.21-4.55-2.45-1.62-1.82-.83-3.61,1.14-4.68.82-.45.09-1.7-.73-1.25-2.57,1.39-3.61,3.88-1.86,6.41,1.37,1.98,4.16,3.7,6.63,3.37,6.29-.84,1.75-12.81-4.77-9.78-.85.4-.11,1.64.73,1.25Z"/>
        </g>
        <g>
          <path class="cls-1" d="M40.78,81.07c2.33-4.45,10.31-1.02,9.06,3.36-1.05,3.69-12.61,3.41-9.06-3.36Z"/>
          <path class="cls-4" d="M41.41,81.43c1.32-2.31,4.18-1.98,6.14-.71,1.73,1.12,2.47,3.58.43,4.71-1.48.81-3.47.8-5.05.33-2.16-.64-2.44-2.48-1.52-4.33.42-.83-.83-1.57-1.25-.73-1.23,2.46-.92,5.09,1.81,6.25,2.24.95,5.39.82,7.38-.67,2.39-1.79,1.26-5.13-.84-6.64-2.62-1.88-6.59-2.02-8.35,1.06-.46.81.79,1.54,1.25.73Z"/>
        </g>
        <g>
          <path class="cls-1" d="M77.38,84.97c2.33-4.45,10.31-1.02,9.06,3.36-1.05,3.69-12.61,3.41-9.06-3.36Z"/>
          <path class="cls-4" d="M78,85.34c1.32-2.31,4.18-1.98,6.14-.71,1.73,1.12,2.47,3.58.43,4.71-1.48.81-3.47.8-5.05.33-2.16-.64-2.44-2.48-1.52-4.33.42-.83-.83-1.57-1.25-.73-1.23,2.46-.92,5.09,1.81,6.25,2.24.95,5.39.82,7.38-.67,2.39-1.79,1.26-5.13-.84-6.64-2.62-1.88-6.59-2.02-8.35,1.06-.46.81.79,1.54,1.25.73Z"/>
        </g>
        <g>
          <path class="cls-1" d="M112.17,72.1c2.33-4.45,10.31-1.02,9.06,3.36-1.05,3.69-12.61,3.41-9.06-3.36Z"/>
          <path class="cls-4" d="M112.79,72.47c1.32-2.31,4.18-1.98,6.14-.71,1.73,1.12,2.47,3.58.43,4.71-1.48.81-3.47.8-5.05.33-2.16-.64-2.44-2.48-1.52-4.33.42-.83-.83-1.57-1.25-.73-1.23,2.46-.92,5.09,1.81,6.25,2.24.95,5.39.82,7.38-.67,2.39-1.79,1.26-5.13-.84-6.64-2.62-1.88-6.59-2.02-8.35,1.06-.46.81.79,1.54,1.25.73Z"/>
        </g>
        <g>
          <path class="cls-2" d="M24.13,93.2c-3.15-.83-6.39-1.51-9.49-2.5-5.27-1.68-11.41-5.61-13.37-11.24-2.93-8.4,8.54-.15,10.95.53,8.74,4.22,18.4,7.6,27.68,9.23,19.85,4.17,39.31,7.02,58.64.73,5.9-1.92,12.06-3.1,17.62-5.9,2.68-1.35,5.15-3.07,7.23-5.2,1.58-1.61,5.25-6.62,5.97-1.61.38,2.66-.99,5.56-2.53,7.65-3.34,4.51-8.97,7.98-14.24,9.9-9,3.17-18.37,4.15-27.72,4.69-7.99.37-16.06.9-24.04.03-6.25-.68-12.77-1.3-18.89-2.66-5.56-1.23-12.19-2.18-17.82-3.67Z"/>
          <path class="cls-4" d="M24.32,92.5c-7.56-1.97-15.84-3.41-20.74-10.17-.46-.63-3.44-5.74-1.42-5.89,1.84-.13,3.96,1.26,5.52,2.08,5.55,2.92,11.29,5.43,17.22,7.5,8.52,2.97,17.47,4.6,26.34,6.13,8.86,1.52,17.84,2.47,26.83,2.12,4.41-.17,8.81-.72,13.13-1.61,4.41-.91,8.66-2.4,12.98-3.62,7.57-2.14,15.15-4.55,20.57-10.58.8-.89,1.61-1.84,2.64-2.46,1.82-1.1,1.15,3.71.97,4.4-1.09,4.02-4.62,7.23-7.9,9.54-6.36,4.48-14.22,6.32-21.79,7.5-8.5,1.32-17.23,1.65-25.82,1.82-8.49.16-17.01-.77-25.39-2.08-3.91-.61-7.77-1.53-11.67-2.27-3.84-.72-7.69-1.42-11.47-2.4-.91-.23-1.29,1.16-.39,1.4,4.11,1.07,8.31,1.8,12.48,2.59,4.28.8,8.51,1.78,12.83,2.4,9.19,1.32,18.34,2.04,27.62,1.7,9.03-.33,18.12-.79,26.99-2.62,7.85-1.62,15.62-4.44,21.43-10.16,2.58-2.54,4.74-5.89,4.87-9.6.08-2.15-1.05-4.71-3.5-3.46-.99.51-1.8,1.45-2.54,2.25-1.1,1.19-2.19,2.32-3.44,3.35-3.46,2.83-7.7,4.51-11.91,5.84-4.16,1.32-8.38,2.5-12.57,3.73-4.5,1.33-9.14,2.15-13.8,2.6-9.16.89-18.41.14-27.49-1.24-15.73-2.39-31.47-5.92-45.58-13.53-1.85-1-7.87-4.88-9.15-1.36-.8,2.18,1.2,5.36,2.39,7,1.96,2.7,4.75,4.72,7.67,6.26,4.26,2.23,9.09,3.05,13.7,4.25.9.24,1.29-1.16.38-1.4Z"/>
        </g>
      </g>
    </g>
  </g>
</svg>