<?xml version="1.0" encoding="UTF-8"?>
<svg id="Layer_2" data-name="Layer 2" xmlns="http://www.w3.org/2000/svg" width="197.73" height="240.1" viewBox="0 0 197.73 240.1">
  <defs>
    <style>
      .cls-1 {
        fill: #fcd900;
      }

      .cls-2 {
        fill: #b78f40;
      }

      .cls-3 {
        fill: #231f20;
      }

      .cls-4 {
        fill: #e1b058;
      }

      .cls-5 {
        fill: #3e2112;
      }
    </style>
  </defs>
  <g id="Layer_1-2" data-name="Layer 1">
    <g>
      <g>
        <g>
          <path class="cls-2" d="M55.31,120.64c.85,2.57-13.5,10.59-15.65,12.23-11.39,6.98-23,12.57-30.73,23.65-7.73,11.08-14.07,32.46.61,41.31,14.47,8.46,27.69-6.5,33.62-18.14,4.79-9.03,7.87-24.19,17.7-29.35l-5.55-29.69Z"/>
          <path class="cls-3" d="M54.61,120.83c.25.99-2.47,2.81-3.09,3.3-2.04,1.6-4.24,3.01-6.43,4.41-4.46,2.84-8.96,5.6-13.51,8.3-6.52,3.87-12.98,7.96-18.35,13.38-4.37,4.41-7.65,9.68-10,15.41-4.11,10.01-5.64,23.59,3.68,31.23,5.02,4.12,11.67,5.21,17.72,2.92,6.09-2.3,10.9-7.29,14.67-12.43,4.24-5.78,6.79-12.33,9.48-18.92,2.68-6.54,5.92-13.96,12.44-17.47.82-.44.09-1.7-.73-1.25-5.42,2.92-8.66,8.43-11.17,13.84-2.62,5.65-4.52,11.59-7.48,17.08-6.04,11.16-19.12,24.81-32.58,16.17-10.93-7.02-8.51-22.1-4.02-32.22,2.71-6.11,6.7-11.42,11.68-15.86,5.84-5.21,12.75-9.05,19.44-13.02,4.09-2.42,8.13-4.98,12.09-7.61,1.96-1.3,3.92-2.66,5.67-4.24.88-.8,2.23-2.05,1.89-3.39-.23-.9-1.63-.52-1.4.39h0Z"/>
        </g>
        <path class="cls-3" d="M6.31,186.94c-.24-.5-.21-1.02-.2-1.57.02-.68-.05-1.35-.2-2.02-.2-.91-1.6-.53-1.4.39.29,1.33-.07,2.67.54,3.94.4.84,1.65.11,1.25-.73h0Z"/>
        <path class="cls-3" d="M6,176.98c0-.95.3-1.85.84-2.63.53-.77-.73-1.5-1.25-.73-.67.98-1.03,2.18-1.03,3.36,0,.93,1.45.93,1.45,0h0Z"/>
        <path class="cls-3" d="M8.97,167.58c.38-1.16,1.06-2.18,1.65-3.24.45-.82-.8-1.55-1.25-.73-.65,1.17-1.38,2.3-1.79,3.58-.29.89,1.11,1.27,1.4.39h0Z"/>
        <path class="cls-3" d="M13.69,158.72c.48-.66.96-1.36,1.69-1.77.82-.45.09-1.71-.73-1.25-.95.53-1.58,1.42-2.21,2.28-.23.32-.06.81.26.99.36.21.76.06.99-.26h0Z"/>
        <path class="cls-3" d="M19.23,150.92c1.05-.55,2.08-1.14,2.81-2.1.24-.32.05-.81-.26-.99-.37-.22-.75-.05-.99.26-.55.73-1.5,1.16-2.29,1.58-.83.44-.1,1.69.73,1.25h0Z"/>
        <path class="cls-3" d="M25.69,146.03c1.33-.75,2.19-2.1,3.52-2.85.82-.46.08-1.71-.73-1.25-1.33.75-2.19,2.1-3.52,2.85-.81.46-.08,1.71.73,1.25h0Z"/>
        <path class="cls-3" d="M33.33,140.51c1.31-.69,2.62-1.38,3.93-2.06.83-.43.1-1.68-.73-1.25-1.31.69-2.62,1.38-3.93,2.06-.83.43-.1,1.69.73,1.25h0Z"/>
        <path class="cls-3" d="M43.68,134.04c.92-.92,2.04-1.54,3.19-2.14.83-.43.1-1.69-.73-1.25-1.25.66-2.47,1.35-3.48,2.36-.66.66.36,1.69,1.02,1.03h0Z"/>
        <path class="cls-3" d="M48.23,130.69c.39-.21.79-.41,1.18-.62.35-.18.45-.66.26-.99-.21-.35-.64-.44-.99-.26-.39.21-.79.41-1.18.62-.35.18-.45.66-.26.99.21.35.64.44.99.26h0Z"/>
        <path class="cls-3" d="M7.57,192.93c.13.05.3.26.41.41.22.32.4.67.58,1.02.43.83,1.69.09,1.25-.73-.44-.84-.91-1.75-1.86-2.09-.37-.14-.79.15-.89.51-.11.4.13.76.51.89h0Z"/>
      </g>
      <g>
        <g>
          <path class="cls-2" d="M92.84,158.61c-3.05,4.46-1.61,13.23-2.44,18.58-2.53,14.19-12.38,23.82-17.45,36.8-5.67,14.25,3.74,28.82,19.99,24.71,16.25-4.11,20.9-21.8,20.59-36.87-.37-17.58-2.94-35.43-5.82-52.96l-14.87,9.74Z"/>
          <path class="cls-3" d="M92.21,158.24c-3.52,5.41-1.64,12.72-2.51,18.76-1.1,7.59-5.2,14.53-9.08,21-3.68,6.13-7.94,12.52-9.53,19.59-1.24,5.52-.32,11.58,3.11,16.15,7.64,10.21,23.05,6.92,30.81-1.31,8.86-9.4,9.6-23.47,9.08-35.64-.69-16.14-3.07-32.17-5.68-48.1-.15-.92-1.55-.53-1.4.39,1.56,9.48,3.01,18.98,4.09,28.53,1,8.86,1.84,17.87,1.71,26.79-.17,11.96-3.73,25.9-15.2,31.82-5.72,2.95-13.03,3.59-18.62.05-5.08-3.22-7.23-9.36-6.93-15.15.37-7.24,4.81-14.04,8.43-20.08,3.82-6.38,7.73-12.76,9.77-19.97,1.05-3.71,1.16-7.36,1.2-11.19.04-3.6-.04-7.76,2-10.9.51-.79-.74-1.51-1.25-.73h0Z"/>
        </g>
        <path class="cls-3" d="M93.47,164.34s.07.36.1.44c.12.31.32.56.55.8-.07-.17-.14-.34-.21-.51.05.74.31,1.45.36,2.19.06.93,1.51.93,1.45,0-.02-.4-.1-.79-.18-1.18-.08-.39-.1-.82-.2-1.2-.09-.34-.4-.49-.47-.85-.06-.28-.19-.5-.37-.71-.61-.71-1.63.32-1.02,1.03h0Z"/>
        <path class="cls-3" d="M95.07,174.35c.3.94.03,1.98.04,2.95,0,.93,1.45.93,1.45,0,0-1.11.25-2.24-.09-3.33-.28-.89-1.68-.51-1.4.39h0Z"/>
        <path class="cls-3" d="M93.6,184.36c-.92.99-1.53,2.21-2.45,3.19-.63.68.39,1.71,1.02,1.03.92-.99,1.53-2.21,2.45-3.19.64-.68-.39-1.71-1.02-1.02h0Z"/>
        <path class="cls-3" d="M88.44,192.95c-.92.96-1.84,1.92-2.77,2.89-.65.67.38,1.7,1.02,1.03.92-.96,1.84-1.92,2.77-2.89.65-.68-.38-1.7-1.02-1.03h0Z"/>
        <path class="cls-3" d="M81.74,203.14c-.73.76-1.37,1.54-1.71,2.55-.3.89,1.11,1.27,1.4.39.25-.77.79-1.34,1.34-1.91.65-.68-.38-1.7-1.03-1.03h0Z"/>
        <path class="cls-3" d="M76.14,214.88c-.29.95-.59,1.9-.88,2.85-.28.9,1.12,1.28,1.4.39.29-.95.59-1.9.88-2.85.28-.9-1.12-1.28-1.4-.39h0Z"/>
        <path class="cls-3" d="M74.4,223.27c.02.29.06.57.15.85.08.23.18.46.19.71.02.39.32.72.73.72.38,0,.74-.33.73-.72-.02-.29-.06-.57-.16-.85-.08-.23-.18-.46-.19-.71-.02-.39-.32-.72-.73-.72-.38,0-.74.33-.72.72h0Z"/>
        <path class="cls-3" d="M75.71,230.99c.64.61,1.28,1.23,1.92,1.84.67.65,1.7-.38,1.02-1.03-.64-.61-1.28-1.23-1.92-1.84-.67-.65-1.7.38-1.02,1.03h0Z"/>
        <path class="cls-3" d="M79.11,236.69c1.48.74,2.71,1.9,4.14,2.74.81.47,1.54-.78.73-1.25-1.43-.84-2.66-2-4.14-2.74-.83-.41-1.57.84-.73,1.25h0Z"/>
      </g>
      <g>
        <path class="cls-2" d="M121.94,106.82c4.11,1.48,7.04,6.14,9.31,9.54,7.14,11.16,13.07,24.23,15.23,37.38,1.77,9.7-1.38,23.9-14.08,17.89-11.74-5.72-11.72-19.86-11.95-30.53.08-11-.77-21.66-5.69-31.92l7.18-2.35Z"/>
        <path class="cls-3" d="M121.75,107.52c3.47,1.34,5.79,4.62,7.8,7.59,2.3,3.39,4.37,6.93,6.29,10.55,4.14,7.8,7.39,16.1,9.28,24.74,1.2,5.52,1.88,11.59-.44,16.94-.9,2.08-2.4,3.93-4.59,4.68-2.79.95-5.93-.23-8.37-1.58-8.95-4.94-10.13-16.04-10.43-25.21-.19-5.87-.04-11.73-.69-17.58-.72-6.53-2.38-12.9-5.2-18.85-.4-.84-1.65-.11-1.25.73,3.84,8.11,5.24,16.92,5.54,25.83.22,6.51-.06,13.03.98,19.49.94,5.8,3.24,11.49,7.94,15.24,3.82,3.05,9.92,5.39,14.27,2.05,3.44-2.64,4.47-7.46,4.75-11.54.42-6.26-1.38-12.72-3.26-18.62-2.4-7.55-5.82-14.77-9.8-21.6-1.74-3-3.6-5.96-5.7-8.72-1.8-2.35-3.92-4.46-6.72-5.54-.87-.34-1.25,1.06-.38,1.4h0Z"/>
      </g>
      <g>
        <path class="cls-2" d="M86.3,84.95c-10.32,2.42-19.27,9.83-27.32,15.65-9.9,7.12-24.71,19.99-37.66,16.81-15.47-3.76-1.11-23.22,6.01-28.08,9.9-7.12,22.69-11.47,34.58-13.6,9.69-2.4,21.23-6.1,31.02-3.48l-6.64,12.7Z"/>
        <path class="cls-3" d="M86.11,84.25c-7.83,1.89-14.64,6.35-21.08,11.02-5.79,4.2-11.45,8.6-17.33,12.68-5.9,4.1-12.51,8.17-19.77,9.09-4.81.6-12.2-.54-12.75-6.51-.45-4.85,2.79-9.82,5.56-13.52,3.45-4.61,7.73-7.88,12.71-10.72,7.28-4.15,15.32-6.91,23.46-8.81,3.97-.93,7.94-1.78,11.9-2.78,4.24-1.07,8.53-2.03,12.89-2.46,3.7-.36,7.45-.24,11.06.69.91.23,1.29-1.17.39-1.4-8.01-2.06-16.37-.3-24.22,1.64-7.97,1.98-16.07,3.48-23.82,6.25-6.85,2.45-13.8,5.7-19.49,10.29-3.76,3.04-6.91,7.12-9.23,11.34-2.02,3.69-3.79,8.5-1.81,12.56,2.34,4.78,9.35,5.44,13.94,4.78,7.04-1.01,13.4-4.78,19.19-8.71,5.9-4,11.54-8.41,17.29-12.62,6.56-4.81,13.49-9.5,21.51-11.44.91-.22.52-1.62-.38-1.4h0Z"/>
      </g>
      <g>
        <path class="cls-2" d="M90.12,72c-1.83-2.86-17.55,11.75-19.5,13.18-10.2,9.45-21.83,19.19-23.82,33.77-1.69,14.87,5.46,36.01,20.86,41.99,15.11,5.69,35.52,1.09,42.68-12.93,4.23-8.58,6.43-18.02,8.92-27.17,1.51-5.15,3-10.87,2.49-16.3l-31.64-32.54Z"/>
        <path class="cls-3" d="M90.75,71.63c-1.74-2.4-6.45,1.55-7.9,2.6-3.73,2.69-7.21,5.72-10.69,8.72-9.18,7.92-19.31,16.62-24.02,28.16-4.69,11.51-1.95,25.69,3.93,36.26,2.91,5.23,7.04,9.86,12.28,12.81,5.35,3,11.9,3.98,17.96,3.84,10.78-.24,22.2-4.84,27.96-14.38,1.82-3.02,3.06-6.47,4.24-9.77,1.37-3.84,2.47-7.76,3.54-11.69,2.07-7.64,5.09-15.62,4.44-23.65-.08-.92-1.52-.93-1.45,0,.37,4.61-.55,9.14-1.74,13.57-1.15,4.26-2.3,8.52-3.49,12.76-1.2,4.26-2.53,8.48-4.2,12.59-1.39,3.41-3,6.61-5.49,9.35-8.67,9.54-23.82,11.69-35.75,8.27-12.67-3.64-19.67-16.32-22.14-28.48-1.28-6.3-1.39-12.9.58-19.06,2.26-7.07,7.06-12.99,12.17-18.23,4.86-4.98,10.1-9.56,15.39-14.06,2.55-2.17,5.15-4.31,7.89-6.24.5-.35,4.71-3.38,5.25-2.64.54.75,1.8.03,1.25-.73h0Z"/>
      </g>
      <g>
        <path class="cls-4" d="M96.55,79.39c-16.53,5.69-30.92,23.26-32.76,40.58-1.07,8.82,1.37,20.39,10.25,24.6,10.79,5.43,21.62-2.65,27.71-11.58,6.4-9.24,9.93-20.63,15.7-30.48l-20.9-23.12Z"/>
        <path class="cls-3" d="M96.36,78.7c-13.46,4.71-24.63,16.08-30.09,29.14-4.56,10.91-5.93,27.16,4.37,35.46,4.19,3.37,9.75,4.45,14.92,3.21,5.53-1.33,10.28-5.21,13.95-9.41,8.61-9.85,12.1-23.06,18.57-34.22.47-.81-.78-1.54-1.25-.73-4.24,7.32-7.25,15.25-11.12,22.76-3.67,7.12-8.36,13.99-15.43,18.1-6.71,3.9-15.07,3.29-20.5-2.5-4.42-4.71-5.7-11.81-5.46-18.04.35-9.17,4.31-17.93,9.73-25.19,5.71-7.65,13.64-14.02,22.7-17.19.88-.31.5-1.71-.38-1.4h0Z"/>
      </g>
      <g>
        <path class="cls-2" d="M139.94,21.32c6.14-7.04,4.05-16.42-4.5-19.7-5.38-2.09-11.94-.38-15.3,4.4-3.06,3.83-.46,8.18-.99,12.59l20.79,2.71Z"/>
        <path class="cls-3" d="M140.45,21.83c2.92-3.44,4.45-7.81,3.37-12.29-1.07-4.4-4.79-7.49-8.94-8.88-4.56-1.52-9.76-.3-13.37,2.77-1.95,1.66-3.3,3.88-3.58,6.44-.31,2.92.78,5.81.49,8.75-.09.93,1.36.92,1.45,0,.23-2.35-.29-4.63-.49-6.96-.23-2.68.72-4.74,2.56-6.65,3.08-3.2,7.96-4.17,12.16-3.06,3.81,1.01,7.05,3.87,8.22,7.66,1.23,3.97-.31,8.16-2.9,11.21-.6.71.42,1.74,1.03,1.03h0Z"/>
      </g>
      <g>
        <path class="cls-2" d="M176.03,64.54c4.61-4.81,12.98-10.32,18.77-3.53,3.87,4.95,2.43,10.94-1.9,14.17-4.65,2.92-8.43,2.38-13.78,2.17l-3.1-12.81Z"/>
        <path class="cls-3" d="M176.54,65.05c2.61-2.68,5.7-5.11,9.35-6.15,4.39-1.25,8.41,1.26,9.94,5.44,1.49,4.05-.51,8.64-4.16,10.72-3.87,2.2-8.29,1.74-12.55,1.57-.93-.04-.93,1.41,0,1.45,4.74.19,10.26.74,14.29-2.39,3.73-2.89,5.32-7.66,3.67-12.14-1.53-4.16-5.66-6.99-10.11-6.34-4.48.65-8.38,3.65-11.45,6.81-.65.67.37,1.7,1.02,1.02h0Z"/>
      </g>
      <g>
        <path class="cls-2" d="M134.31,17.41c5.82,2.1,11.23,5.04,16.18,8.61,1.65,1.19,3.24,2.45,4.79,3.77,15.95,10.21,25.72,28.45,24.98,46.35-.09,2.24-.35,4.47-.79,6.68-1.6,7.45-4.97,14.8-9.95,20.57-1.25,1.44-2.59,2.78-4.04,4.01-3.43,2.83-7.27,4.85-11.29,6.08s-8.23,1.66-12.41,1.32c-13.84-2.06-25.79-9.69-35.26-19.8-3.16-3.37-6.04-7.02-8.63-10.83-8.61-11.98-14.23-27.73-9.57-42.41,1.12-3.62,2.87-7.05,5.34-10.15,2.47-3.1,5.65-5.88,9.63-8.2,1.32-.86,2.67-1.66,4.06-2.38,6.93-3.6,14.73-5.36,22.9-4.74,1.4.32,2.76.7,4.07,1.12Z"/>
        <path class="cls-3" d="M134.11,18.11c4.11,1.51,8.04,3.43,11.78,5.71,3.71,2.27,6.94,5.15,10.52,7.59,6.25,4.27,11.5,9.95,15.46,16.38,3.87,6.27,6.42,13.37,7.34,20.68,1.05,8.31-.33,16.61-3.77,24.23-3.54,7.83-9.29,14.58-17.08,18.38-4.14,2.02-8.74,3-13.32,3.1-4.13.09-8.22-.98-12.11-2.28-15.66-5.25-27.81-17.68-36.57-31.28-8.44-13.11-12.75-30.54-4.66-44.87,3.91-6.92,10.73-11.65,17.79-14.97,3.71-1.75,7.7-2.88,11.74-3.48,2.12-.32,4.27-.41,6.41-.39,2.27.02,4.32.53,6.47,1.21.89.28,1.27-1.12.39-1.4-1.93-.61-3.8-1.14-5.82-1.23-2.22-.1-4.44.01-6.64.26-4.05.46-7.99,1.54-11.75,3.11-7.16,2.98-13.99,7.65-18.49,14.04-9.54,13.55-6.23,31.57,1.32,45.14,7.64,13.74,19.38,26.2,33.7,32.96,3.4,1.6,6.96,2.84,10.62,3.71,4.05.97,8.01,1.13,12.14.55,8.32-1.16,15.75-5.69,21.08-12.1,10.09-12.13,12.64-28.8,8.1-43.69-2.08-6.81-5.59-13.13-10.06-18.66-2.33-2.88-4.97-5.49-7.82-7.85-1.32-1.09-2.69-2.1-4.1-3.06-1.89-1.29-3.62-2.82-5.47-4.18-5.13-3.79-10.81-6.82-16.8-9.01-.88-.32-1.26,1.08-.39,1.4Z"/>
      </g>
      <g>
        <path class="cls-5" d="M132.32,62.63c1.86-1.3,13.41,10.4,4.98,12.77-4.06,1.03-10.79-5.43-11.81-8.86-2.02-6.24,3.98-4.8,7.46-3.93h-.63Z"/>
        <path class="cls-3" d="M132.69,63.25c.41-.24,1.93,1.04,2.3,1.35,1.23,1.03,2.31,2.27,3.2,3.61.8,1.21,1.5,2.62,1.42,4.1-.08,1.61-1.95,2.46-3.35,2.46-2.17,0-4.35-1.67-5.91-3.01-1.59-1.37-3.08-3.02-3.98-4.94-.74-1.58-1.06-3.96,1.14-4.25,1.74-.23,3.58.31,5.25.73.91.23,1.29-1.17.39-1.4-2.03-.51-4.18-1.07-6.28-.68-2.19.4-2.68,2.43-2.36,4.35.42,2.56,2.23,4.71,4.02,6.47,1.89,1.86,4.33,3.66,7,4.11,1.9.32,4.05-.52,5.07-2.2.93-1.53.38-3.45-.29-4.95-.85-1.88-2.27-3.56-3.76-4.96-1.02-.96-2.34-2.11-3.79-2.24-.27-.02-.55.07-.78.2-.81.47-.08,1.72.73,1.25h0Z"/>
      </g>
      <path class="cls-3" d="M129.02,72.85c-1.61,4.08-5.1,6.94-7.86,10.23-1.31,1.56-2.62,3.11-4.06,4.56-1.24,1.25-2.7,2.57-4.47,2.96-.91.2-.52,1.6.39,1.4,3.76-.84,6.58-4.82,8.92-7.6,3.02-3.59,6.72-6.71,8.49-11.17.34-.87-1.06-1.24-1.4-.38h0Z"/>
      <path class="cls-3" d="M163.31,66.48c-1.02,1.07-2.05,2.14-3.07,3.21-.32.33-.27.91.15,1.14,2.7,1.48,4.95-2.39,6.45-4,.4-.43.15-1.28-.51-1.24-2.36.15-4.5,1.84-6.1,3.47-.32.33-.27.91.15,1.14,2.73,1.5,4.74-2.18,4.78-4.47,0-.38-.33-.75-.73-.73-2.33.16-4.05,1.91-4.11,4.25-.02.63.8.96,1.24.51.51-.53,1.02-1.07,1.54-1.6.65-.67-.38-1.7-1.02-1.02-.51.53-1.02,1.07-1.54,1.6.41.17.83.34,1.24.51.04-1.52,1.13-2.7,2.66-2.8-.24-.24-.48-.48-.73-.73-.02,1.1-1.03,4.08-2.6,3.22.05.38.1.76.15,1.14,1.3-1.32,3.13-2.92,5.07-3.05-.17-.41-.34-.83-.51-1.24-.88.94-3.12,4.64-4.7,3.77.05.38.1.76.15,1.14,1.02-1.07,2.05-2.14,3.07-3.2.65-.68-.38-1.7-1.03-1.03h0Z"/>
      <path class="cls-3" d="M124.83,31.19c-.1-.66-.37-1.09-.84-1.56-.28-.28-.74-.27-1.02,0-1.36,1.32-2.87,1.98-3.57,3.85-.21.56.4.99.89.89,2.63-.54,5.45-2.8,6.37-5.34.18-.5-.39-1.08-.89-.89-2.33.86-4.62,2.18-5.68,4.53-.29.64.32,1.37.99.99,1.38-.78,2.45-1.88,3.54-3.01.31-.32.28-.92-.15-1.14-2.55-1.34-4.61,1.4-6.16,3.05-.36.38-.23,1.08.32,1.21.99.23,1.64,0,2.58-.36.86-.33.49-1.74-.39-1.4-.64.25-1.09.52-1.81.36.11.4.21.81.32,1.21.96-1.02,2.76-3.68,4.4-2.82-.05-.38-.1-.76-.15-1.14-1,1.04-1.98,2.07-3.25,2.79l.99.99c.91-2,2.83-3.12,4.82-3.86l-.89-.89c-.75,2.07-3.26,3.89-5.36,4.33.3.3.59.59.89.89.56-1.52,2.1-2.14,3.2-3.21h-1.02c.29.22.45.53.47.92.14.92,1.54.53,1.4-.39h0Z"/>
      <path class="cls-3" d="M17.93,115.3c-.07-1.31-.62-2.57-.42-3.88.13-.91-1.27-1.31-1.4-.39-.22,1.5.3,2.8.37,4.27.05.93,1.5.93,1.45,0h0Z"/>
      <path class="cls-3" d="M18.63,109.05c.54-1.15.96-2.34,1.5-3.49.39-.84-.86-1.58-1.25-.73-.54,1.15-.96,2.34-1.5,3.49-.39.84.86,1.58,1.25.73h0Z"/>
      <path class="cls-3" d="M21.51,102.22c.72-.75,1.43-1.5,2.15-2.24.65-.67-.38-1.7-1.02-1.03-.72.75-1.43,1.5-2.15,2.24-.65.67.38,1.7,1.02,1.03h0Z"/>
      <path class="cls-3" d="M26.85,96.63c.58-1.17,1.43-2.11,2.33-3.05.65-.67-.38-1.7-1.02-1.02-.98,1.02-1.93,2.06-2.56,3.34-.41.83.84,1.57,1.25.73h0Z"/>
      <path class="cls-3" d="M32.29,91.63c.93-.94,2.1-1.55,3.26-2.16.83-.44.1-1.69-.73-1.25-1.27.67-2.53,1.36-3.55,2.38-.66.66.36,1.69,1.02,1.03h0Z"/>
      <path class="cls-3" d="M41.91,86.09c.9-.94,1.79-1.77,3.09-2.08.91-.22.52-1.62-.39-1.4-1.54.38-2.65,1.34-3.73,2.46-.65.67.38,1.7,1.02,1.03h0Z"/>
      <path class="cls-3" d="M48.46,83.75c.5-.49,1.11-.68,1.79-.49.9.25,1.29-1.15.39-1.4-1.17-.32-2.34.02-3.2.87-.67.66.36,1.68,1.02,1.02h0Z"/>
      <path class="cls-3" d="M55.64,82.03c.89-.86,2.27-.9,3.42-1.15.91-.2.53-1.59-.39-1.4-1.45.31-2.95.44-4.06,1.52-.67.65.35,1.68,1.02,1.03h0Z"/>
      <path class="cls-3" d="M63.45,79.67c.68-.66,1.54-.76,2.42-.51.9.26,1.28-1.14.39-1.4-1.38-.4-2.79-.14-3.83.88-.67.65.35,1.68,1.02,1.02h0Z"/>
      <path class="cls-3" d="M72.51,77.28c1.55-1.47,4-1.2,5.92-1.83.89-.29.51-1.69-.39-1.4-2.24.73-4.74.48-6.56,2.2-.68.64.35,1.67,1.02,1.03h0Z"/>
      <path class="cls-3" d="M80.86,75.08c1.17.32,2.34-.02,3.2-.87.67-.66-.36-1.68-1.02-1.02-.5.49-1.11.68-1.79.49-.9-.25-1.29,1.15-.39,1.4h0Z"/>
      <path class="cls-3" d="M124.53,110.89c1,1.52,2.49,2.6,2.85,4.48.18.92,1.58.53,1.4-.39-.4-2.05-1.91-3.17-3-4.82-.51-.78-1.77-.05-1.25.73h0Z"/>
      <path class="cls-3" d="M129.59,121.93c.5.48.87.88,1.11,1.54.14.37.49.62.89.51.36-.1.64-.52.51-.89-.33-.89-.81-1.53-1.48-2.18-.68-.65-1.7.38-1.03,1.02h0Z"/>
      <path class="cls-3" d="M133.83,129.69c.49.5.58,1.22.8,1.86.3.88,1.7.5,1.4-.39-.31-.9-.48-1.79-1.17-2.5-.66-.66-1.68.36-1.03,1.03h0Z"/>
      <path class="cls-3" d="M136.78,135.6c.49.5.58,1.22.8,1.86.3.88,1.7.5,1.4-.39-.31-.9-.48-1.79-1.17-2.5-.66-.66-1.68.36-1.03,1.03h0Z"/>
      <path class="cls-3" d="M138.81,142.46c.39.4.44.82.45,1.36.02.93,1.47.93,1.45,0-.02-.92-.21-1.71-.88-2.38-.66-.67-1.68.36-1.02,1.03h0Z"/>
      <path class="cls-3" d="M140.98,150.38l.04,1.88c.02.93,1.47.93,1.45,0l-.04-1.88c-.02-.93-1.47-.93-1.45,0h0Z"/>
      <path class="cls-3" d="M141.77,158.53c.01.7-.04,1.34-.24,2.01-.27.9,1.13,1.28,1.4.39.23-.79.31-1.58.29-2.4-.02-.93-1.47-.94-1.45,0h0Z"/>
      <path class="cls-3" d="M140.97,165.15c-.02.71-.53,1.52-.99,2.03-.63.69.39,1.72,1.02,1.03.73-.79,1.39-1.95,1.42-3.05.02-.93-1.43-.93-1.45,0h0Z"/>
      <path class="cls-3" d="M138.47,170.03c-.2.21-.41.43-.61.64-.27.28-.28.74,0,1.03.27.28.75.28,1.02,0,.2-.21.41-.43.61-.64.27-.28.28-.74,0-1.03-.27-.28-.75-.29-1.02,0h0Z"/>
      <g>
        <path class="cls-1" d="M104.67,92.1c1.14-5.68-2.3-20.06-9.43-15.2-3.1,1.95-11.76,8.41-7.59,12.41,3.21,3.07,12.62,2.88,16.73,3.73l.29-.95Z"/>
        <path class="cls-3" d="M105.37,92.3c.82-4.35-.21-9.5-2.31-13.37-.89-1.65-2.27-3.22-4.17-3.64-2.04-.46-3.83.82-5.4,1.92-2.96,2.07-9.54,6.96-7.29,11.35,1.13,2.2,3.74,3.04,5.99,3.58,2.93.7,5.98.89,8.98,1.2,1.01.1,2.02.22,3.02.42.91.18,1.3-1.21.39-1.4-4.83-.96-10.07-.48-14.67-2.46-5.96-2.56.12-8.17,3.03-10.47,1.35-1.07,3.14-2.63,4.92-2.77,1.85-.15,3.15,1.59,3.96,3.01,1.95,3.42,2.89,8.36,2.16,12.25-.17.91,1.23,1.3,1.4.39h0Z"/>
      </g>
      <g>
        <path class="cls-1" d="M105.34,93.97c1.24-.65,1.88-.04,3.46.24,3.15.56,9.75.74,12.3,2.57,4.15,3.37-1.97,11.04-4.73,13.92-5.23,5.45-7.28-2.67-8.63-7.04-1.33-3.74-3.28-6.84-2.11-10.64l-.29.95Z"/>
        <path class="cls-3" d="M105.7,94.6c1.1-.48,2.61.28,3.76.45.99.14,1.98.25,2.98.36,2.42.27,4.9.54,7.19,1.4,4.92,1.87.25,8.5-1.65,10.94-1.12,1.43-2.53,3.41-4.33,3.98-1.88.59-3.07-2.18-3.62-3.48-.79-1.87-1.23-3.85-1.95-5.74-1.16-3.04-2.67-5.96-1.75-9.29.25-.9-1.15-1.29-1.4-.39-1,3.59.45,6.76,1.75,10.06.96,2.43,1.48,5,2.69,7.34.83,1.61,2.39,3.4,4.42,2.95,2.34-.52,4.03-2.89,5.43-4.68,2.35-3.01,6.58-9.44,2.03-12.49-2.23-1.5-5.46-1.66-8.04-1.96-1.41-.17-2.82-.29-4.22-.53-1.51-.26-2.54-.82-4.02-.17-.85.37-.11,1.62.73,1.25h0Z"/>
      </g>
      <g>
        <path class="cls-1" d="M105.86,88.94c-1.58-.28-5.55,5.14-6.15,6.41.96.92,1.94,2.47,3.51,2.75,2.86,1.51,3.45-.39,5.91-2.95h0c-.68-2.5-1.67-4.68-3.27-6.21h0Z"/>
        <path class="cls-3" d="M105.86,88.21c-1.44-.11-2.77,1.52-3.62,2.46-1.16,1.29-2.37,2.75-3.15,4.31-.15.29-.13.64.11.88.61.62,1.17,1.29,1.81,1.88.71.65,1.55.91,2.43,1.26,1.51.6,2.71.33,3.88-.76.72-.66,1.31-1.48,1.96-2.2.79-.88.49-1.34.12-2.45-.63-1.92-1.61-3.72-3.04-5.16-.66-.66-1.68.36-1.02,1.02,1.62,1.63,2.47,3.71,3.08,5.89.06-.23.12-.47.19-.7-.98,1.05-2.37,3.53-4.05,3.22-1.92-.35-3.05-1.73-4.34-3.03.04.29.08.59.11.88.59-1.17,1.45-2.24,2.27-3.26.63-.77,2.1-2.88,3.25-2.8.93.07.93-1.38,0-1.45h0Z"/>
      </g>
    </g>
  </g>
</svg>