<?xml version="1.0" encoding="UTF-8"?>
<svg id="Layer_2" data-name="Layer 2" xmlns="http://www.w3.org/2000/svg" width="180.32" height="107.12" viewBox="0 0 180.32 107.12">
  <defs>
    <style>
      .cls-1 {
        fill: #221f1f;
      }

      .cls-2 {
        fill: #b8e1eb;
      }

      .cls-3 {
        fill: #231f20;
      }

      .cls-4 {
        fill: #f9ef77;
      }

      .cls-5 {
        fill: #5c5c5d;
      }

      .cls-6 {
        fill: #404141;
      }

      .cls-7 {
        fill: #fedf00;
      }
    </style>
  </defs>
  <g id="Layer_1-2" data-name="Layer 1">
    <g>
      <g>
        <path class="cls-7" d="M12.74,27.27C23.47,10.52,41.65-1.17,65.4,1c23.02,2.1,33.38,15.76,46.61,29.93,5.18,5.25,9.78,5.78,16.69,6.3,8.63.53,16.69,1.58,24.17,5.78,16.11,9.98,21.87,26.26,20.14,43.06-13.81-.53-27.05,0-40.86.53-15.54,1.05-31.07-.53-46.61.53-16.11.53-31.65.53-47.19.53-5.76,0-10.93-.53-16.69,0-9.71,0-16.35.2-18.49-9.51-3.69-16.79-.05-35.86,9.57-50.87Z"/>
        <path class="cls-3" d="M13.36,27.64C20.72,16.23,31.57,7.38,44.69,3.55c14.01-4.09,30.04-2.36,42.55,5.23,5.59,3.39,10.39,7.9,14.9,12.58,2.32,2.41,4.57,4.89,6.84,7.35,2.35,2.56,4.65,5.05,7.76,6.69,2.75,1.45,5.84,1.96,8.89,2.29,4.16.44,8.33.57,12.46,1.21,4.19.65,8.3,1.78,12.14,3.57,3.55,1.65,6.74,4.11,9.58,6.79,10.09,9.5,13.8,23.3,12.46,36.82l.72-.72c-9.44-.35-18.89-.22-28.33.07-9.55.3-19.09.9-28.64.82-9.59-.08-19.19-.46-28.77.05-9.43.51-18.89.52-28.33.59-9.28.06-18.56.16-27.83-.12-4.2-.13-8.37.19-12.56.16-2.76-.02-5.58-.08-8.24-.9-6.49-1.99-7.09-10.05-7.59-15.73-.72-8.03.19-16.16,2.32-23.92,1.81-6.62,4.65-12.94,8.33-18.73.5-.79-.75-1.52-1.25-.73C3.64,40.23-.31,56.44,1.45,72.16c.61,5.43,1.49,12.06,7,14.69,2.23,1.07,4.78,1.32,7.21,1.45,3.7.2,7.36-.11,11.06-.15,4.62-.05,9.24.23,13.85.23s9.26,0,13.9-.02c9.4-.04,18.8-.15,28.2-.41,4.8-.14,9.58-.44,14.38-.47,4.8-.03,9.59.08,14.39.16,9.6.15,19.13-.26,28.72-.6,10.95-.39,21.91-.63,32.86-.23.42.02.69-.34.72-.72,1.34-13.52-2.33-27.09-11.97-36.94-5.5-5.61-12.23-9.25-19.88-10.98-3.99-.9-8.09-1.3-12.16-1.58-3.49-.24-7.03-.45-10.36-1.6-3.5-1.2-6.08-3.72-8.53-6.38-2.28-2.47-4.54-4.96-6.85-7.4-4.4-4.64-9.05-9.06-14.38-12.63C77.76.64,62.66-1.59,48.78,1.07c-15.35,2.95-28.29,12.85-36.67,25.83-.51.79.75,1.52,1.25.73Z"/>
      </g>
      <g>
        <path class="cls-5" d="M153.82,56c.09.06.2.12.29.18-.02-.02-.03-.04-.05-.06l-.25-.12Z"/>
        <path class="cls-1" d="M153.45,56.63c.1.06.2.12.29.18.28.17.65.11.88-.11.14-.14.21-.32.21-.51,0-.21-.09-.35-.21-.51-.12-.15-.28-.21-.44-.29-.35-.18-.78-.1-.99.26-.19.32-.09.82.26.99.04.02.09.04.14.07.03.01.06.03.09.04.1.05-.16-.15-.08-.04.29-.38.59-.76.88-1.14-.1-.06-.2-.12-.29-.18-.34-.21-.8-.07-.99.26-.2.35-.07.78.26.99Z"/>
      </g>
      <g>
        <path class="cls-5" d="M155.01,56.74c-.31-.19-.61-.37-.9-.55.29.35.6.59.9.55Z"/>
        <path class="cls-1" d="M155.37,56.11c-.3-.18-.6-.37-.9-.55-.28-.17-.65-.11-.88.11-.3.3-.26.72,0,1.03.35.41.84.8,1.41.77.39-.02.72-.31.72-.72,0-.38-.33-.75-.72-.72-.03,0-.06,0-.09,0,.12.02.14.02.06,0-.07-.03-.06-.02.04.02-.03-.02-.06-.03-.09-.05-.06-.04-.06-.04.01.01-.03-.03-.06-.05-.09-.08-.08-.07-.15-.16-.22-.24-.29.38-.59.76-.88,1.14.3.19.6.37.9.55.34.21.79.08.99-.26.2-.35.08-.79-.26-.99Z"/>
      </g>
      <g>
        <path class="cls-5" d="M152.91,53.95c.14.41.61,1.49,1.16,2.17l1.12.56c-.06.03-.12.04-.18.05,2.2,1.34,4.75,2.77,7.31,3.71-2.88-5.17-4.32-10.95-4.39-16.96-3.23,2.31-6.15,6.7-5.02,10.46Z"/>
        <path class="cls-1" d="M152.21,54.14c.31.84.71,1.63,1.23,2.35.3.42.93.6,1.38.82.06-.44.11-.88.17-1.33-.06.02-.12.03-.18.05-.6.18-.71,1-.17,1.33,2.4,1.45,4.85,2.79,7.48,3.78.63.24,1.1-.55.82-1.07-2.81-5.12-4.18-10.77-4.29-16.59-.01-.5-.63-.97-1.09-.63-3.42,2.53-6.52,6.82-5.35,11.28.24.9,1.64.52,1.4-.39-.99-3.78,1.8-7.51,4.69-9.65-.36-.21-.73-.42-1.09-.63.12,6.08,1.56,11.98,4.49,17.33.27-.35.55-.71.82-1.07-2.51-.95-4.85-2.25-7.14-3.64-.06.44-.11.88-.17,1.33.06-.02.12-.03.18-.05.57-.17.76-1.03.17-1.33-.35-.18-.71-.35-1.06-.53-.36-.18-.75-1.41-.89-1.77-.32-.87-1.72-.49-1.4.39Z"/>
      </g>
      <g>
        <path class="cls-5" d="M162.95,41.69c-1.12.1-2.21.35-2.98.64-.67.28-1.37.67-2.05,1.16.08,6.01,1.51,11.79,4.39,16.96,1.37.5,2.74.86,4.06.99-2.33-6.36-3.96-13.09-3.43-19.74Z"/>
        <path class="cls-1" d="M162.95,40.96c-1.08.12-2.14.31-3.17.66-.72.25-2.08.81-2.48,1.49-.46.78-.01,2.57.06,3.43.12,1.41.34,2.81.61,4.2.53,2.7,1.43,5.3,2.57,7.8.32.71.78,2.3,1.58,2.58,1.39.49,2.78.84,4.25,1.01.45.05.85-.51.7-.92-2.28-6.28-3.88-12.83-3.4-19.55.07-.93-1.38-.93-1.45,0-.49,6.84,1.13,13.55,3.45,19.94.23-.31.47-.61.7-.92-.79-.09-1.55-.26-2.33-.46-1.05-.28-1.33-.56-1.82-1.51-.81-1.59-1.45-3.26-1.99-4.96-1.06-3.33-1.53-6.81-1.6-10.3-.12.21-.24.42-.36.63,1.45-1,2.91-1.5,4.66-1.7.92-.1.93-1.55,0-1.45Z"/>
      </g>
      <g>
        <path class="cls-5" d="M155.18,56.68l-1.12-.56s.03.04.05.06c.29.18.59.37.9.55.06,0,.12-.02.18-.05Z"/>
        <path class="cls-1" d="M155.55,56.06c-.37-.19-.75-.37-1.12-.56-.29-.15-.64-.13-.88.11-.3.3-.24.71,0,1.03.19.24.55.4.81.55.14.09.29.2.46.24.26.07.5-.02.73-.12.36-.16.44-.68.26-.99-.22-.37-.63-.41-.99-.26.08-.03.08-.04,0-.02.19.02.37.05.56.07-.14-.09-.28-.17-.42-.26-.07-.04-.14-.09-.21-.13-.05-.03-.09-.06-.14-.09-.08-.04-.09-.05-.03-.03-.29.38-.59.76-.88,1.14.37.19.75.37,1.12.56.35.18.78.1.99-.26.19-.32.09-.81-.26-.99Z"/>
      </g>
      <g>
        <path class="cls-2" d="M169.31,50.08c-.23-2.05-.23-6.38-2.28-7.75-.92-.66-2.54-.78-4.09-.64-.53,6.65,1.09,13.39,3.42,19.74.14.01.29.03.43.04,5.01.46,2.96-8.2,2.51-11.39Z"/>
        <path class="cls-1" d="M170.04,50.08c-.22-2.12-.2-4.4-1.09-6.38-1.11-2.5-3.47-2.92-6-2.73-.42.03-.7.31-.72.72-.49,6.84,1.13,13.55,3.45,19.94.12.33.35.5.7.53,6.45.58,4.18-8.56,3.64-12.27-.14-.92-1.53-.53-1.4.39.31,2.09.72,4.16.77,6.29.03,1-.03,2.08-.42,3.02-.49,1.15-1.48,1.23-2.59,1.13.23.18.47.35.7.53-2.28-6.28-3.88-12.83-3.4-19.55l-.72.72c2.3-.17,4.12.12,4.91,2.49.55,1.66.55,3.45.73,5.17.1.92,1.55.93,1.45,0Z"/>
      </g>
      <g>
        <path class="cls-6" d="M48.65,65.81c9.42,6.28,15.48,22.83,6.12,31.82-2.95,2.84-6.69,5.22-10.42,6.9-10.66,4.71-21.92.21-28.89-8.4-7.38-9.63-6.15-22.54,3.89-29.51,8.4-5.94,20.69-6.56,29.3-.82Z"/>
        <path class="cls-1" d="M48.28,66.43c5.27,3.59,8.8,9.56,10.05,15.75.63,3.11.5,6.36-.5,9.37-1.19,3.58-3.93,6.15-6.89,8.33-6.57,4.84-14.26,7.23-22.24,4.75-7.05-2.2-13.31-7.88-15.95-14.79-3.33-8.72.02-17.97,7.67-23.08,8.16-5.45,19.62-5.7,27.85-.33.79.51,1.51-.74.73-1.25-11.51-7.51-29.51-4.45-36.51,7.86-3.11,5.47-3.16,12.17-.85,17.93,2.59,6.43,8.19,11.53,14.49,14.24,5.74,2.47,12.17,2.56,17.96.21,5.72-2.33,12.09-6.46,14.67-12.3,4.3-9.73-1.43-22.28-9.76-27.94-.78-.53-1.5.73-.73,1.25Z"/>
      </g>
      <g>
        <path class="cls-5" d="M42.55,71.79c5.18,3.46,8.52,12.57,3.37,17.52-1.62,1.56-3.68,2.88-5.74,3.8-5.86,2.59-12.07.11-15.9-4.62-4.06-5.3-3.38-12.41,2.14-16.24,4.62-3.27,11.39-3.61,16.13-.45Z"/>
        <path class="cls-1" d="M42.18,72.41c4.4,3.04,7.28,9.8,4.5,14.77-1.59,2.85-5.4,4.94-8.42,5.84-3.33.98-6.83.12-9.71-1.66-5.4-3.33-8.09-10.35-4.38-15.92,3.78-5.67,12.57-6.52,18.01-3.04.79.51,1.52-.75.73-1.25-5.83-3.73-14.06-2.79-18.89,2.18-4.59,4.74-3.61,12.08.62,16.65,2.33,2.52,5.51,4.26,8.9,4.76,3.64.53,7.01-.75,10.03-2.68,2.75-1.76,4.92-4.06,5.5-7.35.51-2.89-.31-5.87-1.63-8.43-1.06-2.04-2.63-3.82-4.52-5.13-.77-.53-1.5.72-.73,1.25Z"/>
      </g>
      <g>
        <path class="cls-6" d="M155.31,65.81c9.42,6.28,15.48,22.83,6.12,31.82-2.95,2.84-6.69,5.22-10.42,6.9-10.66,4.71-21.92.21-28.89-8.4-7.38-9.63-6.15-22.54,3.89-29.51,8.4-5.94,20.7-6.56,29.3-.82Z"/>
        <path class="cls-1" d="M154.94,66.43c5.27,3.59,8.8,9.56,10.05,15.75.63,3.11.5,6.36-.5,9.37-1.19,3.58-3.93,6.15-6.89,8.33-6.57,4.84-14.26,7.23-22.23,4.75-7.05-2.2-13.31-7.88-15.95-14.79-3.33-8.72.02-17.97,7.67-23.08,8.16-5.45,19.61-5.7,27.85-.33.78.51,1.51-.74.73-1.25-11.51-7.51-29.51-4.45-36.51,7.86-3.11,5.47-3.16,12.17-.85,17.93,2.59,6.43,8.19,11.53,14.49,14.24,5.74,2.47,12.17,2.56,17.96.21,5.72-2.33,12.09-6.46,14.67-12.3,4.3-9.73-1.43-22.28-9.76-27.94-.78-.53-1.5.73-.73,1.25Z"/>
      </g>
      <g>
        <path class="cls-5" d="M149.7,71.79c5.18,3.46,8.52,12.57,3.37,17.52-1.62,1.56-3.68,2.88-5.74,3.8-5.86,2.59-12.07.11-15.9-4.62-4.06-5.3-3.38-12.41,2.14-16.24,4.62-3.27,11.39-3.61,16.13-.45Z"/>
        <path class="cls-1" d="M149.34,72.41c4.4,3.04,7.28,9.8,4.5,14.77-1.59,2.85-5.4,4.94-8.42,5.84-3.33.98-6.83.12-9.71-1.66-5.4-3.33-8.09-10.35-4.38-15.92,3.78-5.67,12.57-6.52,18.01-3.04.79.51,1.52-.75.73-1.25-5.83-3.73-14.06-2.79-18.89,2.18-4.59,4.74-3.61,12.08.62,16.65,2.33,2.52,5.51,4.26,8.9,4.76,3.64.53,7.01-.75,10.03-2.68,2.75-1.76,4.92-4.06,5.5-7.35.51-2.89-.31-5.87-1.63-8.43-1.06-2.04-2.63-3.82-4.52-5.13-.77-.53-1.5.72-.73,1.25Z"/>
      </g>
      <path class="cls-1" d="M70.37,85.61c-1.35-.3-2.86-1.21-3.03-2.72-.23-2.02,3.06-2.47,4.44-2.62,1.81-.2,3.65-.08,5.47-.03,2.1.06,4.16-.12,6.25-.25,4.66-.29,9.33-.28,13.99-.2,3.43.07,6.91.03,10.31.51,1.25.17,2.52.46,3.6,1.13,1.29.8,1.08,2.3,0,3.14-1.86,1.43-4.81,1.83-7.09,1.94-2.15.1-4.32-.19-6.46-.37-2.35-.2-4.7-.14-7.05-.04-2.14.09-4.28.26-6.42.35-2.27.09-4.54-.07-6.81-.17-2.41-.11-4.81-.27-7.19-.67-.91-.15-1.31,1.24-.39,1.4,4.17.7,8.57.96,12.79.93,4.47-.03,8.93-.63,13.41-.45,3.6.15,7.11.77,10.71.18,2.1-.34,4.9-.96,6.24-2.8,1.35-1.85.36-3.96-1.48-4.96-2.1-1.15-4.77-1.17-7.1-1.35-4.36-.34-8.81-.28-13.18-.26-4.41.02-8.82.57-13.23.51-3.48-.04-8.93-.94-11.56,2.03-2.25,2.55.95,5.61,3.4,6.16.91.2,1.3-1.19.39-1.4Z"/>
      <g>
        <path class="cls-4" d="M13.47,55.86c16.18-7.69,35.83-3.08,46.81,9.23,3.36,3.76,14.92,22.24,5.57,24.22-2.44.52-11.09.49-12.85-1.53-1.79-2.04-1.17-6.28-2.06-8.75-1.12-3.11-2.78-6.22-5.21-8.68-2.81-2.85-6.56-4.57-10.88-4.74-15.03-1.03-15.6,12.31-13.87,22.05,0,.03-17.58,3.48-19.74-2.08-1.19-3.07.06-7.15.36-10.28.34-3.5.39-7.14,1.98-10.41,1.81-3.72,5.84-7.15,9.88-9.02Z"/>
        <path class="cls-1" d="M13.83,56.48c13.39-6.27,29.83-4.26,41.43,4.87,3.92,3.08,6.71,6.87,9.15,11.16,1.29,2.27,2.43,4.62,3.29,7.09.68,1.97,1.3,4.23.85,6.31-.42,1.97-2.12,2.66-3.95,2.83-2.72.27-5.58.16-8.26-.34-.96-.18-2.13-.42-2.84-1.15-1.21-1.26-1.16-3.72-1.32-5.32-.34-3.54-1.9-6.81-3.94-9.71-4.18-5.92-11.22-8.27-18.24-7.14-4.88.79-8.26,4.25-9.63,8.88-1.31,4.46-.9,9.36-.11,13.87.17-.3.34-.59.51-.89-1.98.71-4.51.72-6.57.89-3.41.28-7.63.62-10.78-1-1.95-1-2.03-3.24-1.95-5.22.13-3.11.83-6.24,1.1-9.36.32-3.64,1.14-6.98,3.47-9.86,2.06-2.55,4.84-4.52,7.78-5.92.84-.4.11-1.65-.73-1.25-3.08,1.47-5.85,3.54-8.07,6.14-2.3,2.71-3.29,5.9-3.73,9.38-.24,1.87-.29,3.75-.55,5.61-.23,1.6-.53,3.18-.68,4.79-.2,2.2-.06,4.9,1.8,6.39,2.92,2.33,7.72,2.03,11.21,1.83,1.85-.11,3.69-.32,5.52-.59.82-.12,1.78-.16,2.57-.44.4-.14.58-.48.51-.89-.84-4.8-1.18-10.06.65-14.68,2.31-5.81,8.58-7.07,14.21-6.3,4.02.55,7.44,2.75,9.98,5.85,1.3,1.58,2.27,3.43,3.09,5.29.8,1.82,1.06,3.57,1.25,5.54.24,2.41.66,5.14,3.18,6.11,2.46.95,5.29,1.04,7.9,1.05,1.97,0,4.21.01,5.96-1.04,1.5-.9,2.1-2.57,2.23-4.22.36-4.55-2.32-9.44-4.46-13.26-2.34-4.17-5.07-7.84-8.74-10.94-5.23-4.41-11.65-7.3-18.33-8.66-8.58-1.74-17.58-.67-25.5,3.04-.84.4-.11,1.65.73,1.25Z"/>
      </g>
      <g>
        <path class="cls-4" d="M119.05,55.86c17.49-7.69,38.72-3.08,50.59,9.23,3.75,3.89,14.89,19.84,7.2,23.77-2.37,1.22-9.59.61-12.07-.11-5.06-1.46-3.64-4.83-4.83-8.47-2.33-7.14-7.91-14.32-17.78-14.68-7.08-.45-12.55,2.28-14.64,7.9-1.34,3.61.27,7.54-1.03,11.14-1.65,4.57-7.69,3.99-12.58,4.25-10.1.54-8.26-8.24-7.82-14.28.57-7.86,4.04-14.92,12.96-18.74Z"/>
        <path class="cls-1" d="M119.41,56.48c13.64-5.91,29.99-4.54,42.57,3.33,4.72,2.95,8.41,6.8,11.47,11.4,1.52,2.29,2.9,4.71,3.96,7.26.87,2.1,1.67,4.56,1.25,6.86-.45,2.49-2.6,3.27-4.86,3.44-2.83.22-5.88.02-8.63-.66-1.47-.36-2.85-1.1-3.43-2.57-.47-1.2-.49-2.56-.7-3.82-.46-2.82-1.88-5.62-3.42-7.99-3.64-5.59-9.32-8.53-15.9-8.88-6.03-.33-12.43,2.12-14.75,8.1-1.39,3.57-.08,7.37-1.01,11-.82,3.2-4.28,3.81-7.1,4.02-2.67.2-5.77.57-8.39-.09-2.2-.55-3.38-2.25-3.84-4.37-.43-2.01-.22-4.17-.05-6.19.22-2.59.4-5.18,1.07-7.7,1.62-6.15,6.02-10.61,11.77-13.13.85-.38.12-1.62-.73-1.25-6.02,2.64-10.45,7.31-12.34,13.65-.79,2.66-.95,5.42-1.2,8.16-.2,2.28-.35,4.59.08,6.86.39,2.03,1.51,3.79,3.33,4.79,2.51,1.38,5.64.9,8.37.81,2.77-.08,5.87-.19,8.2-1.87,2.86-2.06,2.67-5.95,2.56-9.08-.14-3.93,1.01-7.42,4.26-9.81,2.79-2.05,6.38-2.56,9.75-2.45,7.23.25,12.88,4.34,16.11,10.7.67,1.31,1.23,2.71,1.61,4.14.35,1.3.39,2.67.67,3.99.55,2.61,2.68,3.94,5.15,4.5,2.76.62,5.73.78,8.55.6,2.16-.13,4.1-.69,5.43-2.5,2.65-3.62-.12-9.38-1.86-12.76-2.16-4.19-4.95-8.27-8.36-11.54-10.07-9.67-24.99-13.46-38.61-11.56-4.04.56-7.97,1.73-11.71,3.35-.85.37-.11,1.62.73,1.25Z"/>
      </g>
      <g>
        <path class="cls-2" d="M78.12,10.67c4.09,3.03,12.76,5.66,16.34,9.4,3.58,3.27,10.17,10.2,8.63,15.56-1.28,4.43-13.81,4.2-17.9,3.97-7.16-.7-6.39-8.17-6.65-13.3,0-4.9-.03-7.07-.42-15.62h0Z"/>
        <path class="cls-1" d="M77.76,11.29c5.26,3.8,11.81,5.21,16.64,9.69,2.39,2.22,4.62,4.67,6.33,7.46,1.26,2.04,3.08,5.95.99,8.03-1.67,1.66-4.81,1.97-7.01,2.22-2.58.29-5.19.32-7.78.25-2.64-.07-5.04-.55-6.39-3.07-1.24-2.31-1.14-5.26-1.21-7.8-.15-5.81-.22-11.6-.48-17.41-.04-.93-1.49-.93-1.45,0,.26,5.7.32,11.4.47,17.1.13,4.71.25,10.64,5.67,12.26,2.12.64,4.68.42,6.86.38,2.68-.05,5.39-.27,8.01-.88,1.89-.45,4.04-1.23,5.09-2.98,1.32-2.22.25-5.35-.75-7.45-1.12-2.35-2.83-4.43-4.56-6.35-1.57-1.74-3.28-3.47-5.17-4.85-4.47-3.26-10.05-4.62-14.52-7.86-.76-.55-1.48.71-.73,1.25h0Z"/>
      </g>
      <g>
        <path class="cls-2" d="M69.84,8.09c0,8.64,1.53,19.61,1.53,29.18h0c-6.14.7-12.02.93-18.16.93-4.35,0-13.04,2.1-16.62-.93-8.44-7,14.58-24.27,20.46-26.84,3.07-1.4,8.7-3.73,12.28-3.27l.51.93Z"/>
        <path class="cls-1" d="M69.12,8.09c.03,9.75,1.51,19.43,1.53,29.18l.72-.72c-8.12.91-16.27.7-24.39,1.44-3.97.36-12.03.85-11.48-5.18.18-1.96,1.36-3.83,2.45-5.41,1.43-2.08,3.2-3.93,5-5.68,3.48-3.38,7.36-6.42,11.47-9.01,1.47-.93,3-1.67,4.59-2.36,3.15-1.35,6.82-2.82,10.3-2.46.93.1.92-1.35,0-1.45-3.32-.35-6.73.92-9.76,2.13-1.83.73-3.62,1.53-5.31,2.55-4,2.4-7.73,5.35-11.17,8.49-3.35,3.07-6.83,6.64-8.49,10.96-1.43,3.72.13,7.29,3.97,8.54,4.14,1.34,8.93.21,13.16-.1,2.94-.22,5.93-.08,8.88-.19,3.6-.13,7.19-.4,10.77-.8.39-.04.73-.3.72-.72-.03-9.75-1.51-19.43-1.53-29.18,0-.94-1.45-.94-1.45,0h0Z"/>
      </g>
      <path class="cls-1" d="M11.32,34v.47c0,.35.23.57.53.7.6.25.99.72,1.51,1.08.57.39,1.2.57,1.85.77,1.5.48,3.05.79,4.57,1.18.91.23,1.29-1.17.39-1.4-1.37-.35-2.75-.66-4.11-1.05-1.48-.41-2.45-1.42-3.81-1.99.18.23.35.47.53.7v-.47c0-.94-1.45-.94-1.45,0h0Z"/>
      <path class="cls-1" d="M9.23,39.18c2.1,2.04,6.21,3.6,9.15,2.99.91-.19.53-1.59-.39-1.4-2.41.5-6.03-.96-7.73-2.61-.67-.65-1.7.37-1.03,1.03h0Z"/>
      <path class="cls-1" d="M7.58,43.7c1.27,2.26,5,2.44,7.28,2.46.93,0,.93-1.44,0-1.45-1.69-.02-5.07-.04-6.02-1.74-.46-.81-1.71-.08-1.25.73h0Z"/>
    </g>
  </g>
</svg>